<svg width="26" height="25" viewBox="0 0 26 25" fill="none" xmlns="http://www.w3.org/2000/svg">
<path d="M25.6397 5.8096L20.775 0.437552C20.6279 0.275218 20.4178 0.182129 20.1989 0.182129H5.66667C5.44748 0.182129 5.23739 0.275286 5.09028 0.437822L0.225651 5.81007L0.216221 5.82085C0.0767887 5.98493 0 6.18869 0 6.39467V10.897C0 11.2776 0.30958 11.5872 0.690088 11.5872H1.2947V24.135C1.2947 24.5155 1.60428 24.825 1.98485 24.825H23.881C24.2614 24.825 24.571 24.5155 24.571 24.135V11.5871H25.1756C25.5562 11.5871 25.8657 11.2776 25.8657 10.897V6.3946C25.8657 6.17805 25.7854 5.97031 25.6397 5.8096ZM5.74002 1.12508H20.1255L24.2272 5.65454H1.63856L5.74002 1.12508ZM23.628 23.882H2.23772V11.5871H23.628L23.628 23.882ZM24.9227 10.6441H0.943019V6.59756H24.9227V10.6441Z" fill="white"/>
<path d="M10.778 15.9211H15.0879C15.8645 15.9211 16.4963 15.2893 16.4963 14.5126V14.4501C16.4963 13.6735 15.8645 13.0416 15.0879 13.0416H10.778C10.0015 13.0416 9.36963 13.6735 9.36963 14.4501V14.5126C9.36963 15.2894 10.0015 15.9211 10.778 15.9211ZM10.3126 14.4503C10.3126 14.1936 10.5215 13.9848 10.778 13.9848H15.0879C15.3445 13.9848 15.5532 14.1937 15.5532 14.4503V14.5128C15.5532 14.7694 15.3444 14.9782 15.0879 14.9782H10.778C10.5214 14.9782 10.3126 14.7694 10.3126 14.5128V14.4503Z" fill="white"/>
</svg>
