<svg width="30" height="31" viewBox="0 0 30 31" fill="none" xmlns="http://www.w3.org/2000/svg">
<g clip-path="url(#clip0_203_94229)">
<rect x="1.92166" y="2.14497" width="26.6564" height="26.6564" fill="#B4B4B4" stroke="black" stroke-width="2.66363"/>
<rect x="2.58778" y="2.81088" width="25.3045" height="25.3045" stroke="#6D6D6D" stroke-width="1.33182"/>
<rect x="0.589844" y="0.813156" width="27.9681" height="1.33182" fill="white"/>
<rect x="0.589844" y="0.813156" width="1.33182" height="27.9681" fill="white"/>
<rect x="1.92188" y="2.14497" width="25.3045" height="1.33182" fill="#D8D8D8"/>
<rect x="1.92188" y="2.14497" width="1.33182" height="25.3045" fill="#D8D8D8"/>
</g>
<path fill-rule="evenodd" clip-rule="evenodd" d="M7.92041 7.09609H11.5854V9.19037H7.92041V7.09609ZM9.75328 9.19033H13.4183V11.2846H9.75328V9.19033ZM11.586 11.2847H15.251V13.379H11.586V11.2847ZM13.4178 13.3789H17.0828V15.4732H13.4178V13.3789ZM15.2505 11.2847H18.9155V13.379H15.2505V11.2847ZM17.0833 9.19033H20.7483V11.2846H17.0833V9.19033ZM9.75328 17.5675H13.4183V19.6618H9.75328V17.5675ZM17.0833 17.5675H20.7483V19.6618H17.0833V17.5675ZM18.9155 19.6619H22.5805V21.7562H18.9155V19.6619ZM7.92054 19.6619H11.5855V21.7562H7.92054V19.6619ZM18.9155 7.09606H22.5805V9.19035H18.9155V7.09606ZM11.586 15.4733H15.251V17.5676H11.586V15.4733ZM15.2505 15.4733H18.9155V17.5676H15.2505V15.4733Z" fill="black"/>
<defs>
<clipPath id="clip0_203_94229">
<rect width="29.32" height="29.32" fill="white" transform="translate(0.589844 0.813156)"/>
</clipPath>
</defs>
</svg>
