<svg id="svg" version="1.1" xmlns="http://www.w3.org/2000/svg" xmlns:xlink="http://www.w3.org/1999/xlink" width="400" height="401.010101010101" viewBox="0, 0, 400,401.010101010101"><g id="svgg"><path id="path0" d="M205.200 6.233 C 205.200 6.940,206.061 6.817,206.308 6.075 C 206.395 5.814,206.182 5.600,205.833 5.600 C 205.485 5.600,205.200 5.885,205.200 6.233 M68.000 56.600 C 68.000 56.930,68.270 57.200,68.600 57.200 C 68.930 57.200,69.200 56.930,69.200 56.600 C 69.200 56.270,68.930 56.000,68.600 56.000 C 68.270 56.000,68.000 56.270,68.000 56.600 M328.800 56.600 C 328.800 56.930,328.980 57.200,329.200 57.200 C 329.420 57.200,329.600 56.930,329.600 56.600 C 329.600 56.270,329.420 56.000,329.200 56.000 C 328.980 56.000,328.800 56.270,328.800 56.600 M168.000 65.600 C 168.000 65.820,168.270 66.000,168.600 66.000 C 168.930 66.000,169.200 65.820,169.200 65.600 C 169.200 65.380,168.930 65.200,168.600 65.200 C 168.270 65.200,168.000 65.380,168.000 65.600 M148.092 71.675 C 148.339 72.417,149.200 72.540,149.200 71.833 C 149.200 71.485,148.915 71.200,148.567 71.200 C 148.218 71.200,148.005 71.414,148.092 71.675 M254.000 73.800 C 254.000 74.130,254.270 74.400,254.600 74.400 C 254.930 74.400,255.200 74.130,255.200 73.800 C 255.200 73.470,254.930 73.200,254.600 73.200 C 254.270 73.200,254.000 73.470,254.000 73.800 M256.000 74.800 C 256.000 75.020,256.270 75.200,256.600 75.200 C 256.930 75.200,257.200 75.020,257.200 74.800 C 257.200 74.580,256.930 74.400,256.600 74.400 C 256.270 74.400,256.000 74.580,256.000 74.800 M191.000 93.631 C 185.926 93.997,180.166 94.861,175.200 96.000 C 172.019 96.730,166.946 98.068,166.200 98.375 C 164.811 98.946,162.297 99.905,159.325 100.996 C 138.052 108.804,115.341 129.105,104.952 149.600 C 100.855 157.681,98.021 164.702,96.475 170.600 C 96.244 171.480,95.784 173.190,95.451 174.400 C 94.795 176.788,94.411 178.755,93.342 185.200 C 92.490 190.337,92.373 208.959,93.166 213.200 C 93.433 214.630,93.804 216.970,93.990 218.400 C 94.428 221.771,96.828 230.863,98.425 235.200 C 99.113 237.070,99.815 239.054,99.984 239.609 C 102.258 247.068,112.054 262.582,120.309 271.800 C 126.010 278.166,141.351 290.800,143.379 290.800 C 143.492 290.800,144.550 291.417,145.729 292.172 C 147.818 293.508,158.479 298.800,159.081 298.800 C 159.349 298.800,162.299 299.843,166.400 301.387 C 172.266 303.596,184.127 305.727,193.800 306.309 C 206.240 307.059,223.030 304.609,234.400 300.386 C 236.270 299.691,238.250 298.983,238.800 298.811 C 240.605 298.248,250.030 293.606,252.246 292.188 C 253.439 291.424,254.511 290.800,254.629 290.800 C 256.040 290.800,268.628 280.920,273.909 275.668 C 283.907 265.724,295.205 248.822,298.018 239.600 C 298.186 239.050,298.887 237.070,299.575 235.200 C 301.172 230.863,303.572 221.771,304.010 218.400 C 304.196 216.970,304.564 214.630,304.829 213.200 C 305.609 208.973,305.506 190.736,304.671 185.400 C 303.963 180.878,302.989 175.918,302.392 173.800 C 302.206 173.140,301.839 171.790,301.577 170.800 C 300.536 166.879,298.118 160.173,296.538 156.830 C 293.391 150.170,292.372 148.227,290.010 144.399 C 277.776 124.563,256.839 107.090,237.383 100.480 C 235.197 99.737,234.396 99.435,231.800 98.373 C 230.402 97.801,222.995 95.976,219.200 95.269 C 209.137 93.392,200.916 92.914,191.000 93.631 M173.941 128.163 C 177.533 130.430,179.119 133.280,181.197 141.200 C 183.537 150.118,183.590 171.298,181.283 175.474 C 181.017 175.954,180.800 176.992,180.800 177.779 C 180.800 178.567,180.638 179.523,180.439 179.905 C 180.241 180.287,179.496 181.860,178.785 183.400 C 176.289 188.802,173.475 190.545,169.413 189.204 C 166.962 188.395,162.700 179.679,161.587 173.200 C 161.380 171.990,161.035 170.190,160.822 169.200 C 160.343 166.973,160.340 151.401,160.818 148.400 C 162.523 137.699,165.949 130.054,169.948 128.024 C 171.895 127.036,172.171 127.045,173.941 128.163 M231.307 128.162 C 233.549 129.684,236.386 132.968,236.413 134.073 C 236.420 134.363,236.690 134.949,237.013 135.376 C 237.336 135.804,237.600 136.481,237.600 136.882 C 237.600 137.283,237.764 137.923,237.965 138.305 C 238.322 138.985,238.542 139.999,239.786 146.708 C 240.516 150.640,240.624 165.142,239.955 169.200 C 239.719 170.630,239.356 172.790,239.147 174.000 C 238.939 175.210,238.667 176.876,238.542 177.703 C 238.417 178.529,238.155 179.305,237.958 179.426 C 237.761 179.548,237.600 179.991,237.600 180.411 C 237.600 182.619,233.685 188.084,231.301 189.205 C 226.075 191.661,221.371 185.295,218.886 172.400 C 217.600 165.733,218.166 143.088,219.660 141.420 C 219.847 141.211,220.000 140.632,220.000 140.134 C 220.000 139.238,220.194 138.718,222.142 134.400 C 224.840 128.419,228.258 126.093,231.307 128.162 M73.200 142.400 C 73.200 142.620,73.470 142.800,73.800 142.800 C 74.130 142.800,74.400 142.620,74.400 142.400 C 74.400 142.180,74.130 142.000,73.800 142.000 C 73.470 142.000,73.200 142.180,73.200 142.400 M64.267 169.467 C 63.820 169.913,63.967 170.267,64.600 170.267 C 64.930 170.267,65.200 170.027,65.200 169.733 C 65.200 169.166,64.708 169.025,64.267 169.467 M332.800 169.557 C 332.800 169.754,333.070 170.018,333.400 170.145 C 333.765 170.285,334.000 170.145,334.000 169.787 C 334.000 169.464,333.730 169.200,333.400 169.200 C 333.070 169.200,332.800 169.361,332.800 169.557 M4.655 193.000 C 4.515 193.365,4.655 193.600,5.013 193.600 C 5.336 193.600,5.600 193.330,5.600 193.000 C 5.600 192.670,5.439 192.400,5.243 192.400 C 5.046 192.400,4.782 192.670,4.655 193.000 M275.600 201.586 C 276.810 201.848,277.971 202.228,278.180 202.431 C 278.389 202.634,278.843 202.800,279.189 202.800 C 280.377 202.800,282.800 205.176,282.800 206.340 C 282.800 209.032,281.026 209.739,277.715 208.368 C 275.966 207.644,276.192 206.977,274.793 217.000 C 274.094 222.007,273.425 224.365,271.388 229.000 C 268.630 235.277,268.000 236.733,267.667 237.600 C 267.455 238.150,266.371 239.814,265.256 241.298 C 264.142 242.782,263.023 244.384,262.769 244.857 C 262.311 245.714,258.872 249.724,256.301 252.400 C 252.684 256.166,247.566 260.387,244.002 262.543 C 242.571 263.410,240.410 264.787,239.200 265.605 C 236.987 267.100,229.623 270.389,228.437 270.413 C 228.087 270.420,227.451 270.690,227.024 271.013 C 226.596 271.336,225.936 271.600,225.556 271.600 C 225.176 271.600,224.355 271.856,223.732 272.170 C 223.110 272.483,221.880 272.919,221.000 273.138 C 220.120 273.357,218.590 273.764,217.600 274.042 C 208.038 276.727,184.284 276.189,178.305 273.153 C 177.923 272.959,177.257 272.800,176.824 272.800 C 175.112 272.800,163.309 267.884,159.948 265.771 C 158.049 264.577,156.387 263.600,156.255 263.600 C 155.812 263.600,151.771 260.888,151.213 260.216 C 150.909 259.850,149.747 258.944,148.630 258.202 C 145.388 256.050,136.577 246.572,135.489 244.067 C 135.234 243.480,134.422 242.280,133.684 241.400 C 132.945 240.520,131.743 238.540,131.012 237.000 C 128.188 231.051,127.200 228.717,127.200 227.996 C 127.200 227.584,127.037 227.146,126.837 227.023 C 126.637 226.899,126.169 225.764,125.796 224.499 C 125.422 223.235,124.932 221.660,124.705 221.000 C 124.205 219.546,122.926 211.332,122.822 208.900 C 122.792 208.205,122.225 208.273,120.306 209.200 C 118.088 210.271,117.022 210.208,116.029 208.946 C 114.089 206.479,115.760 204.679,122.000 202.515 C 124.167 201.764,131.888 201.706,133.289 202.431 C 137.165 204.437,136.046 208.000,131.541 208.000 L 129.139 208.000 129.308 211.100 C 129.508 214.777,130.328 219.645,130.838 220.180 C 131.037 220.389,131.200 220.968,131.200 221.466 C 131.200 222.362,131.396 222.895,133.310 227.200 C 133.848 228.410,134.424 229.832,134.591 230.361 C 134.757 230.889,135.379 232.149,135.972 233.161 C 136.566 234.172,137.491 235.887,138.026 236.972 C 138.562 238.056,139.608 239.586,140.351 240.372 C 141.094 241.157,142.152 242.520,142.701 243.400 C 144.004 245.489,152.597 253.957,154.400 254.930 C 155.170 255.346,156.340 256.088,157.000 256.579 C 162.293 260.520,166.697 262.874,172.441 264.833 C 173.848 265.313,175.180 265.840,175.400 266.003 C 175.620 266.166,176.340 266.392,177.000 266.504 C 177.660 266.616,178.740 266.894,179.400 267.121 C 184.624 268.914,187.413 269.268,198.000 269.482 C 207.056 269.666,209.413 269.505,214.800 268.338 C 215.790 268.123,217.374 267.806,218.320 267.634 C 219.265 267.462,220.246 267.114,220.500 266.860 C 220.753 266.607,221.376 266.400,221.885 266.400 C 222.394 266.400,223.123 266.226,223.505 266.013 C 223.887 265.801,225.640 265.074,227.400 264.399 C 231.968 262.647,237.711 259.719,239.482 258.239 C 240.317 257.541,242.056 256.347,243.347 255.585 C 246.167 253.921,254.578 245.966,255.597 244.000 C 255.996 243.230,256.811 242.150,257.409 241.600 C 259.702 239.490,265.430 228.625,266.793 223.800 C 266.980 223.140,267.487 221.340,267.920 219.800 C 268.823 216.593,269.851 208.432,269.477 207.455 C 269.279 206.941,268.663 206.800,266.606 206.800 C 264.011 206.800,263.981 206.788,263.324 205.411 C 261.564 201.720,267.566 199.850,275.600 201.586 M4.400 206.800 C 4.400 207.244,4.667 207.600,5.000 207.600 C 5.333 207.600,5.600 207.244,5.600 206.800 C 5.600 206.356,5.333 206.000,5.000 206.000 C 4.667 206.000,4.400 206.356,4.400 206.800 M16.800 222.133 C 16.800 222.427,17.053 222.667,17.362 222.667 C 17.671 222.667,17.832 222.427,17.719 222.133 C 17.607 221.840,17.354 221.600,17.157 221.600 C 16.961 221.600,16.800 221.840,16.800 222.133 M380.133 222.133 C 380.133 222.427,380.373 222.667,380.667 222.667 C 380.960 222.667,381.200 222.427,381.200 222.133 C 381.200 221.840,380.960 221.600,380.667 221.600 C 380.373 221.600,380.133 221.840,380.133 222.133 M64.000 230.200 C 64.000 230.530,64.270 230.800,64.600 230.800 C 64.930 230.800,65.200 230.530,65.200 230.200 C 65.200 229.870,64.930 229.600,64.600 229.600 C 64.270 229.600,64.000 229.870,64.000 230.200 M332.875 230.025 C 332.971 230.314,333.286 230.629,333.575 230.725 C 333.875 230.825,334.025 230.675,333.925 230.375 C 333.829 230.086,333.514 229.771,333.225 229.675 C 332.925 229.575,332.775 229.725,332.875 230.025 M73.200 257.400 C 73.200 257.730,73.470 258.000,73.800 258.000 C 74.130 258.000,74.400 257.730,74.400 257.400 C 74.400 257.070,74.130 256.800,73.800 256.800 C 73.470 256.800,73.200 257.070,73.200 257.400 M323.600 257.400 C 323.600 257.730,323.870 258.000,324.200 258.000 C 324.530 258.000,324.800 257.730,324.800 257.400 C 324.800 257.070,324.530 256.800,324.200 256.800 C 323.870 256.800,323.600 257.070,323.600 257.400 M83.200 275.600 C 83.200 275.820,83.470 276.000,83.800 276.000 C 84.130 276.000,84.400 275.820,84.400 275.600 C 84.400 275.380,84.130 275.200,83.800 275.200 C 83.470 275.200,83.200 275.380,83.200 275.600 M54.000 313.000 C 54.000 313.330,54.270 313.600,54.600 313.600 C 54.930 313.600,55.200 313.330,55.200 313.000 C 55.200 312.670,54.930 312.400,54.600 312.400 C 54.270 312.400,54.000 312.670,54.000 313.000 M342.800 313.000 C 342.800 313.330,343.070 313.600,343.400 313.600 C 343.730 313.600,344.000 313.330,344.000 313.000 C 344.000 312.670,343.730 312.400,343.400 312.400 C 343.070 312.400,342.800 312.670,342.800 313.000 M122.892 314.875 C 122.979 315.136,123.264 315.421,123.525 315.508 C 123.818 315.606,123.907 315.423,123.757 315.033 C 123.478 314.306,122.652 314.155,122.892 314.875 M274.000 315.033 C 274.000 315.382,274.214 315.595,274.475 315.508 C 275.217 315.261,275.340 314.400,274.633 314.400 C 274.285 314.400,274.000 314.685,274.000 315.033 M138.800 324.000 C 138.800 324.220,139.070 324.400,139.400 324.400 C 139.730 324.400,140.000 324.220,140.000 324.000 C 140.000 323.780,139.730 323.600,139.400 323.600 C 139.070 323.600,138.800 323.780,138.800 324.000 M140.892 324.875 C 141.139 325.617,142.000 325.740,142.000 325.033 C 142.000 324.685,141.715 324.400,141.367 324.400 C 141.018 324.400,140.805 324.614,140.892 324.875 M256.000 325.000 C 256.000 325.330,256.270 325.600,256.600 325.600 C 256.930 325.600,257.200 325.330,257.200 325.000 C 257.200 324.670,256.930 324.400,256.600 324.400 C 256.270 324.400,256.000 324.670,256.000 325.000 M148.000 328.187 C 148.000 328.545,148.235 328.685,148.600 328.545 C 148.930 328.418,149.200 328.154,149.200 327.957 C 149.200 327.761,148.930 327.600,148.600 327.600 C 148.270 327.600,148.000 327.864,148.000 328.187 M248.800 327.957 C 248.800 328.154,249.070 328.418,249.400 328.545 C 249.765 328.685,250.000 328.545,250.000 328.187 C 250.000 327.864,249.730 327.600,249.400 327.600 C 249.070 327.600,248.800 327.761,248.800 327.957 M168.400 334.200 C 168.400 334.530,168.580 334.800,168.800 334.800 C 169.020 334.800,169.200 334.530,169.200 334.200 C 169.200 333.870,169.020 333.600,168.800 333.600 C 168.580 333.600,168.400 333.870,168.400 334.200 M228.800 334.200 C 228.800 334.530,228.980 334.800,229.200 334.800 C 229.420 334.800,229.600 334.530,229.600 334.200 C 229.600 333.870,229.420 333.600,229.200 333.600 C 228.980 333.600,228.800 333.870,228.800 334.200 M65.200 341.200 C 65.200 341.420,65.470 341.600,65.800 341.600 C 66.130 341.600,66.400 341.420,66.400 341.200 C 66.400 340.980,66.130 340.800,65.800 340.800 C 65.470 340.800,65.200 340.980,65.200 341.200 M331.600 341.200 C 331.600 341.420,331.870 341.600,332.200 341.600 C 332.530 341.600,332.800 341.420,332.800 341.200 C 332.800 340.980,332.530 340.800,332.200 340.800 C 331.870 340.800,331.600 340.980,331.600 341.200 M85.200 344.200 C 85.200 344.530,85.470 344.800,85.800 344.800 C 86.130 344.800,86.400 344.530,86.400 344.200 C 86.400 343.870,86.130 343.600,85.800 343.600 C 85.470 343.600,85.200 343.870,85.200 344.200 M311.600 344.133 C 311.600 344.427,311.870 344.667,312.200 344.667 C 312.530 344.667,312.800 344.427,312.800 344.133 C 312.800 343.840,312.530 343.600,312.200 343.600 C 311.870 343.600,311.600 343.840,311.600 344.133 M205.200 393.833 C 205.200 394.182,205.414 394.395,205.675 394.308 C 206.417 394.061,206.540 393.200,205.833 393.200 C 205.485 393.200,205.200 393.485,205.200 393.833 " stroke="none" fill="#fbda0c" fill-rule="evenodd"></path><path id="path1" d="M169.400 128.578 C 167.857 129.468,165.641 132.099,165.613 133.072 C 165.606 133.332,165.060 134.711,164.400 136.137 C 163.740 137.563,163.200 139.024,163.200 139.385 C 163.200 139.745,162.959 140.526,162.665 141.120 C 159.844 146.810,160.179 170.401,163.189 178.000 C 163.668 179.210,164.209 180.650,164.390 181.200 C 168.339 193.155,177.427 191.603,180.453 178.458 C 180.689 177.436,181.041 175.970,181.236 175.200 C 183.283 167.117,183.189 144.239,181.100 142.165 C 180.935 142.001,180.800 141.362,180.800 140.745 C 180.800 137.194,177.266 130.537,174.422 128.730 C 172.301 127.382,171.515 127.359,169.400 128.578 M227.000 128.358 C 225.393 129.296,223.211 132.276,222.065 135.098 C 221.551 136.364,220.997 137.670,220.833 138.000 C 220.493 138.687,219.430 143.154,218.833 146.400 C 217.622 152.990,218.324 172.013,219.955 176.800 C 220.217 177.570,220.728 179.100,221.090 180.200 C 223.422 187.288,227.653 190.823,231.460 188.865 C 232.836 188.158,236.000 184.619,236.000 183.788 C 236.000 183.609,236.235 183.179,236.523 182.831 C 237.053 182.191,238.742 175.556,239.587 170.793 C 240.183 167.438,240.244 149.552,239.669 146.952 C 239.431 145.878,239.037 143.920,238.792 142.600 C 236.828 132.015,231.586 125.684,227.000 128.358 M266.800 201.579 C 266.470 201.804,265.711 201.991,265.114 201.994 C 263.208 202.005,262.537 204.537,264.041 206.041 C 264.764 206.764,265.175 206.845,266.975 206.620 C 269.936 206.250,270.150 206.610,269.614 211.065 C 269.084 215.477,268.048 221.142,267.577 222.200 C 267.198 223.053,266.108 226.075,265.702 227.400 C 265.470 228.156,261.204 236.645,259.974 238.800 C 259.660 239.350,258.665 240.610,257.762 241.600 C 256.860 242.590,255.740 244.043,255.272 244.829 C 254.180 246.666,245.668 254.498,243.250 255.890 C 242.233 256.477,240.736 257.514,239.924 258.196 C 238.593 259.314,231.307 263.191,228.800 264.115 C 228.250 264.318,227.260 264.727,226.600 265.024 C 225.940 265.321,224.410 265.855,223.200 266.211 C 221.990 266.567,220.723 267.002,220.385 267.179 C 220.046 267.356,219.012 267.629,218.087 267.785 C 217.161 267.942,216.303 268.234,216.178 268.435 C 216.054 268.636,215.288 268.804,214.476 268.808 C 213.664 268.812,211.560 269.076,209.800 269.394 C 203.058 270.612,188.394 269.959,182.254 268.168 C 181.184 267.856,179.979 267.600,179.578 267.600 C 179.176 267.600,178.749 267.440,178.628 267.245 C 178.507 267.050,177.755 266.768,176.955 266.618 C 176.156 266.468,175.209 266.200,174.851 266.021 C 173.152 265.176,171.117 264.400,170.601 264.400 C 169.458 264.400,161.748 260.310,158.613 258.041 C 156.846 256.762,154.929 255.465,154.354 255.158 C 152.546 254.194,143.745 245.493,142.461 243.400 C 141.786 242.300,140.708 240.910,140.065 240.311 C 139.421 239.712,138.137 237.738,137.210 235.925 C 136.283 234.112,135.272 232.267,134.963 231.825 C 134.653 231.383,134.400 230.797,134.400 230.522 C 134.400 230.247,133.974 229.072,133.454 227.911 C 130.801 221.994,129.612 217.467,129.002 210.960 C 128.724 207.985,129.211 207.372,131.552 207.746 C 134.836 208.271,136.464 204.969,133.872 203.040 C 131.599 201.347,121.971 201.777,119.820 203.666 C 119.611 203.850,119.135 204.000,118.762 204.000 C 117.716 204.000,115.598 206.192,115.613 207.260 C 115.643 209.482,117.471 210.166,120.262 209.000 C 122.776 207.950,123.199 208.136,123.206 210.300 C 123.210 211.345,123.559 214.000,123.981 216.200 C 125.104 222.044,125.407 223.302,125.930 224.274 C 126.188 224.754,126.400 225.497,126.400 225.925 C 126.400 226.352,126.670 226.926,127.000 227.200 C 127.330 227.474,127.600 228.018,127.600 228.410 C 127.600 229.057,129.557 233.621,131.661 237.881 C 132.118 238.806,133.101 240.275,133.846 241.145 C 134.591 242.015,135.200 242.912,135.200 243.139 C 135.200 244.615,144.407 254.756,149.200 258.559 C 154.162 262.496,162.614 267.437,167.700 269.372 C 175.544 272.358,176.749 272.753,180.600 273.607 C 188.687 275.399,188.414 275.373,199.000 275.373 C 208.881 275.374,212.847 275.065,217.000 273.972 C 220.533 273.043,223.063 272.267,224.260 271.747 C 224.954 271.446,225.773 271.200,226.080 271.200 C 226.388 271.200,226.811 271.050,227.020 270.867 C 227.229 270.685,228.174 270.315,229.119 270.046 C 230.065 269.777,231.984 269.026,233.384 268.378 C 234.784 267.730,236.019 267.200,236.130 267.200 C 236.458 267.200,244.428 262.158,246.800 260.449 C 249.525 258.486,257.600 251.256,257.600 250.779 C 257.600 250.587,258.653 249.298,259.939 247.915 C 261.225 246.532,262.530 244.926,262.839 244.347 C 263.148 243.767,264.157 242.301,265.081 241.089 C 266.006 239.877,267.601 237.021,268.626 234.742 C 269.651 232.464,270.895 229.700,271.391 228.600 C 271.887 227.500,272.597 225.520,272.969 224.200 C 273.341 222.880,273.905 220.884,274.222 219.765 C 274.540 218.646,274.800 216.747,274.800 215.545 C 274.800 214.343,274.970 213.189,275.177 212.980 C 275.384 212.771,275.609 211.610,275.677 210.400 C 275.804 208.122,277.251 207.091,278.529 208.369 C 279.212 209.052,281.874 208.904,282.157 208.167 C 282.856 206.347,281.429 203.200,279.906 203.200 C 279.694 203.200,278.954 202.945,278.260 202.634 C 275.819 201.537,267.928 200.811,266.800 201.579 " stroke="none" fill="#0d0d04" fill-rule="evenodd"></path><path id="path2" d="M192.400 6.000 C 192.400 6.220,191.500 6.400,190.400 6.400 C 188.889 6.400,188.400 6.547,188.400 7.000 C 188.400 7.433,187.956 7.600,186.800 7.600 C 185.920 7.600,185.200 7.780,185.200 8.000 C 185.200 8.220,184.840 8.400,184.400 8.400 C 183.956 8.400,183.600 8.667,183.600 9.000 C 183.600 9.330,183.330 9.600,183.000 9.600 C 182.670 9.600,182.400 9.870,182.400 10.200 C 182.400 10.530,182.207 10.800,181.971 10.800 C 181.418 10.800,180.400 11.818,180.400 12.371 C 180.400 12.607,180.207 12.800,179.971 12.800 C 179.266 12.800,178.400 13.886,178.400 14.771 C 178.400 15.241,178.140 15.600,177.800 15.600 C 177.427 15.600,177.200 15.978,177.200 16.600 C 177.200 17.150,176.975 17.603,176.700 17.606 C 176.361 17.610,176.393 17.749,176.800 18.037 C 177.252 18.356,177.276 18.511,176.900 18.664 C 176.508 18.823,176.400 23.755,176.400 41.433 L 176.400 64.000 174.800 64.000 C 173.644 64.000,173.200 64.167,173.200 64.600 C 173.200 65.053,172.711 65.200,171.200 65.200 C 170.100 65.200,169.200 65.380,169.200 65.600 C 169.200 65.826,168.067 66.000,166.600 66.000 C 164.556 66.000,164.000 66.128,164.000 66.600 C 164.000 67.053,163.511 67.200,162.000 67.200 C 160.900 67.200,160.000 67.380,160.000 67.600 C 160.000 67.820,159.370 68.000,158.600 68.000 C 157.622 68.000,157.200 68.181,157.200 68.600 C 157.200 69.033,156.756 69.200,155.600 69.200 C 154.720 69.200,154.000 69.380,154.000 69.600 C 154.000 69.820,153.563 70.000,153.029 70.000 C 152.494 70.000,151.787 70.270,151.457 70.600 C 151.127 70.930,150.484 71.200,150.029 71.200 C 149.573 71.200,149.200 71.453,149.200 71.762 C 149.200 72.187,148.809 72.271,147.600 72.109 C 146.299 71.935,146.000 72.017,146.000 72.547 C 146.000 72.977,145.658 73.200,145.000 73.200 C 144.378 73.200,144.000 73.427,144.000 73.800 C 144.000 74.168,143.626 74.400,143.033 74.400 C 142.502 74.400,141.975 74.625,141.864 74.900 C 141.711 75.276,141.556 75.252,141.237 74.800 C 140.949 74.393,140.810 74.361,140.806 74.700 C 140.803 74.975,140.434 75.200,139.987 75.200 C 139.541 75.200,139.071 75.470,138.945 75.800 C 138.818 76.130,138.284 76.400,137.757 76.400 C 137.231 76.400,136.800 76.580,136.800 76.800 C 136.800 77.020,136.350 77.200,135.800 77.200 C 135.178 77.200,134.800 77.427,134.800 77.800 C 134.800 78.173,134.422 78.400,133.800 78.400 C 133.250 78.400,132.800 78.580,132.800 78.800 C 132.800 79.020,132.350 79.200,131.800 79.200 C 131.250 79.200,130.800 79.393,130.800 79.629 C 130.800 80.392,129.683 81.200,128.629 81.200 C 128.063 81.200,127.600 81.393,127.600 81.629 C 127.600 82.334,126.514 83.200,125.629 83.200 C 125.159 83.200,124.800 83.460,124.800 83.800 C 124.800 84.330,124.047 84.607,123.070 84.437 C 122.889 84.406,122.855 84.565,122.994 84.790 C 123.136 85.019,122.884 85.200,122.424 85.200 C 121.958 85.200,121.600 85.461,121.600 85.800 C 121.600 86.168,121.226 86.400,120.633 86.400 C 120.102 86.400,119.562 86.625,119.433 86.900 C 119.247 87.300,119.153 87.300,118.967 86.900 C 118.838 86.625,118.478 86.400,118.167 86.400 C 117.855 86.400,117.600 86.207,117.600 85.971 C 117.600 85.418,116.582 84.400,116.029 84.400 C 115.793 84.400,115.600 84.207,115.600 83.971 C 115.600 83.418,114.582 82.400,114.029 82.400 C 113.793 82.400,113.600 82.207,113.600 81.971 C 113.600 81.418,112.582 80.400,112.029 80.400 C 111.793 80.400,111.600 80.207,111.600 79.971 C 111.600 79.418,110.582 78.400,110.029 78.400 C 109.793 78.400,109.600 78.130,109.600 77.800 C 109.600 77.470,109.407 77.200,109.171 77.200 C 108.618 77.200,107.600 76.182,107.600 75.629 C 107.600 75.393,107.407 75.200,107.171 75.200 C 106.618 75.200,105.600 74.182,105.600 73.629 C 105.600 73.393,105.330 73.200,105.000 73.200 C 104.670 73.200,104.400 73.007,104.400 72.771 C 104.400 72.218,103.382 71.200,102.829 71.200 C 102.593 71.200,102.400 71.007,102.400 70.771 C 102.400 70.218,101.382 69.200,100.829 69.200 C 100.593 69.200,100.400 69.007,100.400 68.771 C 100.400 68.218,99.382 67.200,98.829 67.200 C 98.593 67.200,98.400 67.007,98.400 66.771 C 98.400 66.218,97.382 65.200,96.829 65.200 C 96.593 65.200,96.400 65.007,96.400 64.771 C 96.400 64.218,95.382 63.200,94.829 63.200 C 94.593 63.200,94.400 63.007,94.400 62.771 C 94.400 62.218,93.382 61.200,92.829 61.200 C 92.593 61.200,92.400 61.007,92.400 60.771 C 92.400 60.218,91.382 59.200,90.829 59.200 C 90.593 59.200,90.400 58.930,90.400 58.600 C 90.400 58.270,90.130 58.000,89.800 58.000 C 89.470 58.000,89.200 57.820,89.200 57.600 C 89.200 57.380,88.750 57.200,88.200 57.200 C 87.578 57.200,87.200 56.973,87.200 56.600 C 87.200 56.270,86.919 56.000,86.576 56.000 C 86.233 56.000,86.064 55.820,86.200 55.600 C 86.336 55.380,86.272 55.200,86.057 55.200 C 85.842 55.200,85.576 55.425,85.465 55.700 C 85.304 56.100,85.257 56.100,85.232 55.700 C 85.214 55.425,84.750 55.200,84.200 55.200 C 83.578 55.200,83.200 54.973,83.200 54.600 C 83.200 54.103,82.444 54.000,78.800 54.000 C 75.156 54.000,74.400 54.103,74.400 54.600 C 74.400 55.033,73.956 55.200,72.800 55.200 C 71.920 55.200,71.200 55.380,71.200 55.600 C 71.200 55.820,70.750 56.000,70.200 56.000 C 69.578 56.000,69.200 56.227,69.200 56.600 C 69.200 56.973,68.822 57.200,68.200 57.200 C 67.650 57.200,67.200 57.380,67.200 57.600 C 67.200 57.820,66.930 58.000,66.600 58.000 C 66.270 58.000,65.987 58.315,65.972 58.700 C 65.948 59.299,65.894 59.284,65.600 58.600 C 65.306 57.916,65.252 57.901,65.228 58.500 C 65.213 58.885,65.007 59.200,64.771 59.200 C 64.218 59.200,63.200 60.218,63.200 60.771 C 63.200 61.007,63.007 61.200,62.771 61.200 C 62.218 61.200,61.200 62.218,61.200 62.771 C 61.200 63.007,61.007 63.200,60.771 63.200 C 60.218 63.200,59.200 64.218,59.200 64.771 C 59.200 65.007,59.007 65.200,58.771 65.200 C 58.039 65.200,57.126 66.309,57.700 66.500 C 58.268 66.689,57.157 68.000,56.429 68.000 C 56.193 68.000,56.000 68.450,56.000 69.000 C 56.000 69.550,55.820 70.000,55.600 70.000 C 55.380 70.000,55.200 70.450,55.200 71.000 C 55.200 71.622,54.973 72.000,54.600 72.000 C 54.167 72.000,54.000 72.444,54.000 73.600 C 54.000 74.480,53.820 75.200,53.600 75.200 C 53.357 75.200,53.200 77.000,53.200 79.800 C 53.200 82.600,53.357 84.400,53.600 84.400 C 53.820 84.400,54.000 84.850,54.000 85.400 C 54.000 86.022,54.227 86.400,54.600 86.400 C 54.973 86.400,55.200 86.778,55.200 87.400 C 55.200 87.950,55.380 88.400,55.600 88.400 C 55.820 88.400,56.000 88.850,56.000 89.400 C 56.000 89.950,56.193 90.400,56.429 90.400 C 56.982 90.400,58.000 91.418,58.000 91.971 C 58.000 92.207,58.193 92.400,58.429 92.400 C 58.982 92.400,60.000 93.418,60.000 93.971 C 60.000 94.207,60.240 94.400,60.532 94.400 C 60.825 94.400,61.306 94.850,61.600 95.400 C 61.894 95.950,62.375 96.400,62.668 96.400 C 62.960 96.400,63.200 96.593,63.200 96.829 C 63.200 97.382,64.218 98.400,64.771 98.400 C 65.007 98.400,65.200 98.593,65.200 98.829 C 65.200 99.382,66.218 100.400,66.771 100.400 C 67.007 100.400,67.200 100.593,67.200 100.829 C 67.200 101.382,68.218 102.400,68.771 102.400 C 69.007 102.400,69.200 102.670,69.200 103.000 C 69.200 103.330,69.393 103.600,69.629 103.600 C 70.182 103.600,71.200 104.618,71.200 105.171 C 71.200 105.407,71.393 105.600,71.629 105.600 C 72.182 105.600,73.200 106.618,73.200 107.171 C 73.200 107.407,73.393 107.600,73.629 107.600 C 74.182 107.600,75.200 108.618,75.200 109.171 C 75.200 109.407,75.393 109.600,75.629 109.600 C 76.182 109.600,77.200 110.618,77.200 111.171 C 77.200 111.407,77.393 111.600,77.629 111.600 C 78.182 111.600,79.200 112.618,79.200 113.171 C 79.200 113.407,79.393 113.600,79.629 113.600 C 80.182 113.600,81.200 114.618,81.200 115.171 C 81.200 115.407,81.440 115.600,81.732 115.600 C 82.025 115.600,82.506 116.050,82.800 116.600 C 83.094 117.150,83.575 117.600,83.868 117.600 C 84.160 117.600,84.400 117.793,84.400 118.029 C 84.400 118.582,85.418 119.600,85.971 119.600 C 86.207 119.600,86.400 119.870,86.400 120.200 C 86.400 120.530,86.130 120.800,85.800 120.800 C 85.427 120.800,85.200 121.178,85.200 121.800 C 85.200 122.350,85.020 122.800,84.800 122.800 C 84.580 122.800,84.400 123.250,84.400 123.800 C 84.400 124.350,84.209 124.800,83.976 124.800 C 83.743 124.800,83.656 124.632,83.783 124.428 C 83.909 124.223,83.830 123.942,83.607 123.804 C 83.372 123.659,83.200 123.985,83.200 124.576 C 83.200 125.139,83.020 125.600,82.800 125.600 C 82.580 125.600,82.400 126.050,82.400 126.600 C 82.400 127.222,82.173 127.600,81.800 127.600 C 81.470 127.600,81.200 127.870,81.200 128.200 C 81.200 128.530,81.020 128.800,80.800 128.800 C 80.580 128.800,80.400 129.250,80.400 129.800 C 80.400 130.350,80.207 130.800,79.971 130.800 C 79.266 130.800,78.400 131.886,78.400 132.771 C 78.400 133.241,78.140 133.600,77.800 133.600 C 77.427 133.600,77.200 133.978,77.200 134.600 C 77.200 135.150,77.020 135.600,76.800 135.600 C 76.580 135.600,76.400 136.140,76.400 136.800 C 76.400 137.600,76.200 138.000,75.800 138.000 C 75.374 138.000,75.198 138.436,75.194 139.500 C 75.189 140.616,75.088 140.846,74.800 140.400 C 74.512 139.954,74.411 140.184,74.406 141.300 C 74.402 142.364,74.226 142.800,73.800 142.800 C 73.427 142.800,73.200 143.178,73.200 143.800 C 73.200 144.350,73.020 144.800,72.800 144.800 C 72.580 144.800,72.400 145.250,72.400 145.800 C 72.400 146.422,72.173 146.800,71.800 146.800 C 71.367 146.800,71.200 147.244,71.200 148.400 C 71.200 149.280,71.020 150.000,70.800 150.000 C 70.580 150.000,70.400 150.450,70.400 151.000 C 70.400 151.622,70.173 152.000,69.800 152.000 C 69.385 152.000,69.200 152.417,69.200 153.357 C 69.200 154.195,68.970 154.803,68.600 154.945 C 68.223 155.089,68.000 155.701,68.000 156.587 C 68.000 157.364,67.820 158.000,67.600 158.000 C 67.380 158.000,67.200 158.720,67.200 159.600 C 67.200 160.756,67.033 161.200,66.600 161.200 C 66.147 161.200,66.000 161.689,66.000 163.200 C 66.000 164.300,65.820 165.200,65.600 165.200 C 65.374 165.200,65.200 166.333,65.200 167.800 C 65.200 169.667,65.059 170.372,64.700 170.300 C 64.369 170.234,64.159 170.842,64.078 172.100 C 64.011 173.145,63.786 174.000,63.578 174.000 C 63.370 174.000,63.200 174.720,63.200 175.600 L 63.200 177.200 40.400 177.200 C 20.843 177.200,17.600 177.282,17.600 177.775 C 17.600 178.208,17.256 178.294,16.200 178.123 C 15.079 177.941,14.800 178.026,14.800 178.548 C 14.800 178.977,14.458 179.200,13.800 179.200 C 13.178 179.200,12.800 179.427,12.800 179.800 C 12.800 180.130,12.607 180.400,12.371 180.400 C 11.818 180.400,10.800 181.418,10.800 181.971 C 10.800 182.207,10.530 182.400,10.200 182.400 C 9.870 182.400,9.600 182.580,9.600 182.800 C 9.600 183.020,9.330 183.200,9.000 183.200 C 8.670 183.200,8.400 183.470,8.400 183.800 C 8.400 184.130,8.220 184.400,8.000 184.400 C 7.780 184.400,7.600 184.850,7.600 185.400 C 7.600 186.022,7.373 186.400,7.000 186.400 C 6.581 186.400,6.400 186.822,6.400 187.800 C 6.400 188.570,6.220 189.200,6.000 189.200 C 5.780 189.200,5.600 190.190,5.600 191.400 C 5.600 193.089,5.461 193.600,5.000 193.600 C 4.492 193.600,4.400 194.556,4.400 199.800 C 4.400 205.044,4.492 206.000,5.000 206.000 C 5.461 206.000,5.600 206.511,5.600 208.200 C 5.600 209.410,5.780 210.400,6.000 210.400 C 6.220 210.400,6.400 211.120,6.400 212.000 C 6.400 213.156,6.567 213.600,7.000 213.600 C 7.340 213.600,7.600 213.959,7.600 214.429 C 7.600 215.314,8.466 216.400,9.171 216.400 C 9.407 216.400,9.600 216.670,9.600 217.000 C 9.600 217.330,9.793 217.600,10.029 217.600 C 10.582 217.600,11.600 218.618,11.600 219.171 C 11.600 219.407,11.870 219.600,12.200 219.600 C 12.530 219.600,12.800 219.780,12.800 220.000 C 12.800 220.220,13.250 220.400,13.800 220.400 C 14.422 220.400,14.800 220.627,14.800 221.000 C 14.800 221.422,15.227 221.600,16.243 221.600 C 17.356 221.600,17.633 221.736,17.457 222.195 C 17.332 222.523,17.357 222.771,17.514 222.748 C 17.671 222.724,28.015 222.727,40.500 222.753 L 63.200 222.800 63.200 224.200 C 63.200 224.970,63.380 225.600,63.600 225.600 C 63.820 225.600,64.000 226.500,64.000 227.600 C 64.000 229.111,64.147 229.600,64.600 229.600 C 65.072 229.600,65.200 230.156,65.200 232.200 C 65.200 233.667,65.374 234.800,65.600 234.800 C 65.820 234.800,66.000 235.700,66.000 236.800 C 66.000 238.311,66.147 238.800,66.600 238.800 C 67.019 238.800,67.200 239.222,67.200 240.200 C 67.200 240.970,67.380 241.600,67.600 241.600 C 67.820 241.600,68.000 242.320,68.000 243.200 C 68.000 244.356,68.167 244.800,68.600 244.800 C 69.020 244.800,69.200 245.224,69.200 246.213 C 69.200 247.099,69.423 247.711,69.800 247.855 C 70.130 247.982,70.400 248.516,70.400 249.043 C 70.400 249.569,70.580 250.000,70.800 250.000 C 71.020 250.000,71.200 250.630,71.200 251.400 C 71.200 252.378,71.381 252.800,71.800 252.800 C 72.173 252.800,72.400 253.178,72.400 253.800 C 72.400 254.350,72.580 254.800,72.800 254.800 C 73.020 254.800,73.200 255.250,73.200 255.800 C 73.200 256.422,73.427 256.800,73.800 256.800 C 74.203 256.800,74.400 257.203,74.400 258.024 C 74.400 258.737,74.567 259.144,74.800 259.000 C 75.038 258.853,75.200 259.333,75.200 260.189 C 75.200 261.097,75.421 261.710,75.800 261.855 C 76.130 261.982,76.400 262.516,76.400 263.043 C 76.400 263.569,76.580 264.000,76.800 264.000 C 77.020 264.000,77.200 264.450,77.200 265.000 C 77.200 265.622,77.427 266.000,77.800 266.000 C 78.173 266.000,78.400 266.378,78.400 267.000 C 78.400 267.550,78.580 268.000,78.800 268.000 C 79.020 268.000,79.200 268.270,79.200 268.600 C 79.200 268.930,79.470 269.200,79.800 269.200 C 80.140 269.200,80.400 269.559,80.400 270.029 C 80.400 270.914,81.266 272.000,81.971 272.000 C 82.207 272.000,82.400 272.450,82.400 273.000 C 82.400 273.550,82.580 274.000,82.800 274.000 C 83.020 274.000,83.200 274.270,83.200 274.600 C 83.200 274.930,83.470 275.200,83.800 275.200 C 84.173 275.200,84.400 275.578,84.400 276.200 C 84.400 276.750,84.580 277.200,84.800 277.200 C 85.020 277.200,85.200 277.650,85.200 278.200 C 85.200 278.822,85.427 279.200,85.800 279.200 C 86.130 279.200,86.400 279.380,86.400 279.600 C 86.400 279.820,86.130 280.000,85.800 280.000 C 85.470 280.000,85.200 280.183,85.200 280.407 C 85.200 280.632,84.120 281.888,82.800 283.200 C 81.480 284.512,80.400 285.768,80.400 285.993 C 80.400 286.217,80.207 286.400,79.971 286.400 C 79.418 286.400,78.400 287.418,78.400 287.971 C 78.400 288.207,78.207 288.400,77.971 288.400 C 77.418 288.400,76.400 289.418,76.400 289.971 C 76.400 290.207,76.207 290.400,75.971 290.400 C 75.418 290.400,74.400 291.418,74.400 291.971 C 74.400 292.207,74.207 292.400,73.971 292.400 C 73.418 292.400,72.400 293.418,72.400 293.971 C 72.400 294.207,72.207 294.400,71.971 294.400 C 71.418 294.400,70.400 295.418,70.400 295.971 C 70.400 296.207,70.196 296.400,69.947 296.400 C 69.698 296.400,68.900 297.030,68.174 297.800 C 67.448 298.570,66.662 299.200,66.427 299.200 C 66.192 299.200,66.000 299.393,66.000 299.629 C 66.000 300.182,64.982 301.200,64.429 301.200 C 64.193 301.200,64.000 301.383,64.000 301.607 C 64.000 301.832,62.920 303.088,61.600 304.400 C 60.280 305.712,59.200 306.968,59.200 307.193 C 59.200 307.417,59.007 307.600,58.771 307.600 C 58.218 307.600,57.200 308.618,57.200 309.171 C 57.200 309.407,56.930 309.600,56.600 309.600 C 56.227 309.600,56.000 309.978,56.000 310.600 C 56.000 311.150,55.820 311.600,55.600 311.600 C 55.380 311.600,55.200 312.050,55.200 312.600 C 55.200 313.222,54.973 313.600,54.600 313.600 C 54.227 313.600,54.000 313.978,54.000 314.600 C 54.000 315.150,53.820 315.600,53.600 315.600 C 53.358 315.600,53.200 317.333,53.200 320.000 C 53.200 322.667,53.358 324.400,53.600 324.400 C 53.820 324.400,54.000 325.120,54.000 326.000 C 54.000 327.156,54.167 327.600,54.600 327.600 C 54.973 327.600,55.200 327.978,55.200 328.600 C 55.200 329.150,55.380 329.600,55.600 329.600 C 55.820 329.600,56.000 330.050,56.000 330.600 C 56.000 331.222,56.227 331.600,56.600 331.600 C 56.930 331.600,57.200 331.870,57.200 332.200 C 57.200 332.530,57.380 332.800,57.600 332.800 C 57.820 332.800,58.000 333.250,58.000 333.800 C 58.000 334.350,58.193 334.800,58.429 334.800 C 58.982 334.800,60.000 335.818,60.000 336.371 C 60.000 336.607,60.193 336.800,60.429 336.800 C 60.982 336.800,62.000 337.818,62.000 338.371 C 62.000 338.607,62.193 338.800,62.429 338.800 C 62.982 338.800,64.000 339.818,64.000 340.371 C 64.000 340.607,64.463 340.800,65.029 340.800 C 66.083 340.800,67.200 341.608,67.200 342.371 C 67.200 342.607,67.650 342.800,68.200 342.800 C 68.750 342.800,69.200 342.980,69.200 343.200 C 69.200 343.420,69.650 343.600,70.200 343.600 C 70.822 343.600,71.200 343.827,71.200 344.200 C 71.200 344.633,71.644 344.800,72.800 344.800 C 73.680 344.800,74.400 344.980,74.400 345.200 C 74.400 345.442,76.133 345.600,78.800 345.600 C 81.467 345.600,83.200 345.442,83.200 345.200 C 83.200 344.980,83.650 344.800,84.200 344.800 C 84.822 344.800,85.200 344.573,85.200 344.200 C 85.200 343.827,85.578 343.600,86.200 343.600 C 86.750 343.600,87.200 343.420,87.200 343.200 C 87.200 342.980,87.650 342.800,88.200 342.800 C 88.822 342.800,89.200 342.573,89.200 342.200 C 89.200 341.870,89.470 341.600,89.800 341.600 C 90.130 341.600,90.400 341.420,90.400 341.200 C 90.400 340.980,90.670 340.800,91.000 340.800 C 91.330 340.800,91.600 340.607,91.600 340.371 C 91.600 339.818,92.618 338.800,93.171 338.800 C 93.407 338.800,93.600 338.607,93.600 338.371 C 93.600 337.818,94.618 336.800,95.171 336.800 C 95.407 336.800,95.600 336.607,95.600 336.371 C 95.600 335.818,96.618 334.800,97.171 334.800 C 97.407 334.800,97.600 334.607,97.600 334.371 C 97.600 333.818,98.618 332.800,99.171 332.800 C 99.407 332.800,99.600 332.607,99.600 332.371 C 99.600 331.818,100.618 330.800,101.171 330.800 C 101.407 330.800,101.600 330.607,101.600 330.371 C 101.600 329.818,102.618 328.800,103.171 328.800 C 103.407 328.800,103.600 328.530,103.600 328.200 C 103.600 327.870,103.780 327.600,104.000 327.600 C 104.220 327.600,104.400 327.330,104.400 327.000 C 104.400 326.670,104.593 326.400,104.829 326.400 C 105.382 326.400,106.400 325.382,106.400 324.829 C 106.400 324.593,106.593 324.400,106.829 324.400 C 107.382 324.400,108.400 323.382,108.400 322.829 C 108.400 322.593,108.604 322.400,108.853 322.400 C 109.102 322.400,109.900 321.770,110.626 321.000 C 111.352 320.230,112.138 319.600,112.373 319.600 C 112.608 319.600,112.800 319.407,112.800 319.171 C 112.800 318.618,113.818 317.600,114.371 317.600 C 114.607 317.600,114.800 317.407,114.800 317.171 C 114.800 316.618,115.818 315.600,116.371 315.600 C 116.607 315.600,116.800 315.407,116.800 315.171 C 116.800 314.618,117.818 313.600,118.371 313.600 C 118.607 313.600,118.800 313.330,118.800 313.000 C 118.800 312.670,118.980 312.400,119.200 312.400 C 119.420 312.400,119.600 312.670,119.600 313.000 C 119.600 313.373,119.978 313.600,120.600 313.600 C 121.150 313.600,121.600 313.780,121.600 314.000 C 121.600 314.220,121.969 314.400,122.419 314.400 C 122.870 314.400,123.655 314.850,124.165 315.400 C 124.675 315.950,125.476 316.400,125.946 316.400 C 126.416 316.400,126.800 316.593,126.800 316.829 C 126.800 317.592,127.917 318.400,128.971 318.400 C 129.537 318.400,130.000 318.593,130.000 318.829 C 130.000 319.534,131.086 320.400,131.971 320.400 C 132.441 320.400,132.800 320.660,132.800 321.000 C 132.800 321.373,133.178 321.600,133.800 321.600 C 134.350 321.600,134.800 321.780,134.800 322.000 C 134.800 322.220,135.250 322.400,135.800 322.400 C 136.352 322.400,136.800 322.632,136.800 322.918 C 136.800 323.233,137.390 323.476,138.300 323.536 C 139.125 323.590,139.860 323.807,139.933 324.018 C 140.007 324.228,140.502 324.400,141.033 324.400 C 141.626 324.400,142.000 324.632,142.000 325.000 C 142.000 325.373,142.378 325.600,143.000 325.600 C 143.550 325.600,144.000 325.780,144.000 326.000 C 144.000 326.220,144.450 326.400,145.000 326.400 C 145.622 326.400,146.000 326.627,146.000 327.000 C 146.000 327.433,146.444 327.600,147.600 327.600 C 149.137 327.600,149.743 328.114,148.700 328.535 C 148.425 328.646,148.875 328.751,149.700 328.768 C 150.525 328.786,151.200 328.980,151.200 329.200 C 151.200 329.420,151.830 329.600,152.600 329.600 C 153.578 329.600,154.000 329.781,154.000 330.200 C 154.000 330.633,154.444 330.800,155.600 330.800 C 156.480 330.800,157.200 330.980,157.200 331.200 C 157.200 331.420,157.830 331.600,158.600 331.600 C 159.578 331.600,160.000 331.781,160.000 332.200 C 160.000 332.653,160.489 332.800,162.000 332.800 C 163.100 332.800,164.000 332.980,164.000 333.200 C 164.000 333.420,164.885 333.600,165.967 333.600 C 167.166 333.600,168.012 333.795,168.135 334.100 C 168.296 334.500,168.343 334.500,168.368 334.100 C 168.414 333.385,169.200 333.479,169.200 334.200 C 169.200 334.653,169.689 334.800,171.200 334.800 C 172.300 334.800,173.200 334.980,173.200 335.200 C 173.200 335.420,173.920 335.600,174.800 335.600 L 176.400 335.600 176.400 358.424 C 176.400 373.537,176.535 381.164,176.800 381.000 C 177.042 380.851,177.200 381.396,177.200 382.376 C 177.200 383.553,177.365 384.000,177.800 384.000 C 178.173 384.000,178.400 384.378,178.400 385.000 C 178.400 385.550,178.580 386.000,178.800 386.000 C 179.020 386.000,179.200 386.270,179.200 386.600 C 179.200 386.930,179.393 387.200,179.629 387.200 C 180.182 387.200,181.200 388.218,181.200 388.771 C 181.200 389.007,181.455 389.200,181.767 389.200 C 182.078 389.200,182.396 389.388,182.473 389.618 C 182.549 389.848,183.014 390.066,183.506 390.103 C 184.571 390.183,184.685 390.667,183.700 390.924 C 183.251 391.042,183.380 391.124,184.057 391.154 C 184.639 391.179,185.218 391.470,185.345 391.800 C 185.489 392.177,186.101 392.400,186.987 392.400 C 187.764 392.400,188.400 392.580,188.400 392.800 C 188.400 393.020,189.300 393.200,190.400 393.200 C 191.911 393.200,192.400 393.347,192.400 393.800 C 192.400 394.308,193.378 394.400,198.800 394.400 C 204.222 394.400,205.200 394.308,205.200 393.800 C 205.200 393.339,205.711 393.200,207.400 393.200 C 208.610 393.200,209.600 393.020,209.600 392.800 C 209.600 392.580,210.221 392.400,210.980 392.400 C 211.810 392.400,212.498 392.153,212.707 391.781 C 212.897 391.440,213.427 391.133,213.883 391.099 C 214.383 391.061,214.633 390.831,214.513 390.518 C 214.401 390.226,214.595 390.000,214.957 390.000 C 215.311 390.000,215.600 389.820,215.600 389.600 C 215.600 389.380,215.870 389.200,216.200 389.200 C 216.530 389.200,216.800 389.007,216.800 388.771 C 216.800 388.218,217.818 387.200,218.371 387.200 C 218.607 387.200,218.800 386.930,218.800 386.600 C 218.800 386.270,218.980 386.000,219.200 386.000 C 219.420 386.000,219.600 385.550,219.600 385.000 C 219.600 384.378,219.827 384.000,220.200 384.000 C 220.619 384.000,220.800 383.578,220.800 382.600 C 220.800 381.830,220.980 381.200,221.200 381.200 C 221.462 381.200,221.600 373.333,221.600 358.400 L 221.600 335.600 223.200 335.600 C 224.080 335.600,224.800 335.420,224.800 335.200 C 224.800 334.980,225.700 334.800,226.800 334.800 C 228.311 334.800,228.800 334.653,228.800 334.200 C 228.800 333.728,229.356 333.600,231.400 333.600 C 232.867 333.600,234.000 333.426,234.000 333.200 C 234.000 332.980,234.900 332.800,236.000 332.800 C 237.511 332.800,238.000 332.653,238.000 332.200 C 238.000 331.781,238.422 331.600,239.400 331.600 C 240.170 331.600,240.800 331.420,240.800 331.200 C 240.800 330.980,241.520 330.800,242.400 330.800 C 243.556 330.800,244.000 330.633,244.000 330.200 C 244.000 329.781,244.422 329.600,245.400 329.600 C 246.170 329.600,246.800 329.420,246.800 329.200 C 246.800 328.980,247.475 328.786,248.300 328.768 C 249.125 328.751,249.575 328.646,249.300 328.535 C 248.257 328.114,248.863 327.600,250.400 327.600 C 251.556 327.600,252.000 327.433,252.000 327.000 C 252.000 326.627,252.378 326.400,253.000 326.400 C 253.550 326.400,254.000 326.220,254.000 326.000 C 254.000 325.780,254.450 325.600,255.000 325.600 C 255.622 325.600,256.000 325.373,256.000 325.000 C 256.000 324.632,256.374 324.400,256.967 324.400 C 257.498 324.400,258.025 324.175,258.136 323.900 C 258.289 323.524,258.444 323.548,258.763 324.000 C 259.051 324.407,259.190 324.439,259.194 324.100 C 259.197 323.825,259.566 323.600,260.013 323.600 C 260.459 323.600,260.929 323.330,261.055 323.000 C 261.182 322.670,261.716 322.400,262.243 322.400 C 262.769 322.400,263.200 322.220,263.200 322.000 C 263.200 321.780,263.650 321.600,264.200 321.600 C 264.822 321.600,265.200 321.373,265.200 321.000 C 265.200 320.660,265.559 320.400,266.029 320.400 C 266.914 320.400,268.000 319.534,268.000 318.829 C 268.000 318.593,268.405 318.394,268.900 318.387 C 269.932 318.373,271.200 317.528,271.200 316.856 C 271.200 316.605,271.573 316.400,272.029 316.400 C 272.914 316.400,274.000 315.534,274.000 314.829 C 274.000 314.593,274.540 314.400,275.200 314.400 C 275.860 314.400,276.400 314.220,276.400 314.000 C 276.400 313.780,276.850 313.600,277.400 313.600 C 278.022 313.600,278.400 313.373,278.400 313.000 C 278.400 312.670,278.580 312.400,278.800 312.400 C 279.020 312.400,279.200 312.670,279.200 313.000 C 279.200 313.330,279.393 313.600,279.629 313.600 C 280.182 313.600,281.200 314.618,281.200 315.171 C 281.200 315.407,281.393 315.600,281.629 315.600 C 282.182 315.600,283.200 316.618,283.200 317.171 C 283.200 317.407,283.393 317.600,283.629 317.600 C 284.182 317.600,285.200 318.618,285.200 319.171 C 285.200 319.407,285.393 319.600,285.629 319.600 C 286.182 319.600,287.200 320.618,287.200 321.171 C 287.200 321.407,287.392 321.600,287.627 321.600 C 287.862 321.600,288.648 322.230,289.374 323.000 C 290.100 323.770,290.898 324.400,291.147 324.400 C 291.396 324.400,291.600 324.593,291.600 324.829 C 291.600 325.382,292.618 326.400,293.171 326.400 C 293.407 326.400,293.600 326.670,293.600 327.000 C 293.600 327.330,293.780 327.600,294.000 327.600 C 294.220 327.600,294.400 327.870,294.400 328.200 C 294.400 328.530,294.593 328.800,294.829 328.800 C 295.382 328.800,296.400 329.818,296.400 330.371 C 296.400 330.607,296.593 330.800,296.829 330.800 C 297.382 330.800,298.400 331.818,298.400 332.371 C 298.400 332.607,298.593 332.800,298.829 332.800 C 299.382 332.800,300.400 333.818,300.400 334.371 C 300.400 334.607,300.593 334.800,300.829 334.800 C 301.382 334.800,302.400 335.818,302.400 336.371 C 302.400 336.607,302.593 336.800,302.829 336.800 C 303.382 336.800,304.400 337.818,304.400 338.371 C 304.400 338.607,304.593 338.800,304.829 338.800 C 305.382 338.800,306.400 339.818,306.400 340.371 C 306.400 340.607,306.593 340.800,306.829 340.800 C 307.382 340.800,308.400 341.818,308.400 342.371 C 308.400 342.607,308.940 342.800,309.600 342.800 C 310.260 342.800,310.800 342.980,310.800 343.200 C 310.800 343.420,311.250 343.600,311.800 343.600 C 312.422 343.600,312.800 343.827,312.800 344.200 C 312.800 344.573,313.178 344.800,313.800 344.800 C 314.350 344.800,314.800 344.980,314.800 345.200 C 314.800 345.442,316.533 345.600,319.200 345.600 C 321.867 345.600,323.600 345.442,323.600 345.200 C 323.600 344.980,324.320 344.800,325.200 344.800 C 326.356 344.800,326.800 344.633,326.800 344.200 C 326.800 343.827,327.178 343.600,327.800 343.600 C 328.350 343.600,328.800 343.420,328.800 343.200 C 328.800 342.980,329.250 342.800,329.800 342.800 C 330.350 342.800,330.800 342.607,330.800 342.371 C 330.800 341.608,331.917 340.800,332.971 340.800 C 333.537 340.800,334.000 340.607,334.000 340.371 C 334.000 339.818,335.018 338.800,335.571 338.800 C 335.807 338.800,336.000 338.607,336.000 338.371 C 336.000 337.818,337.018 336.800,337.571 336.800 C 337.807 336.800,338.000 336.607,338.000 336.371 C 338.000 335.818,339.018 334.800,339.571 334.800 C 339.807 334.800,340.000 334.350,340.000 333.800 C 340.000 333.250,340.180 332.800,340.400 332.800 C 340.620 332.800,340.800 332.530,340.800 332.200 C 340.800 331.870,341.070 331.600,341.400 331.600 C 341.773 331.600,342.000 331.222,342.000 330.600 C 342.000 330.050,342.180 329.600,342.400 329.600 C 342.620 329.600,342.800 329.150,342.800 328.600 C 342.800 327.978,343.027 327.600,343.400 327.600 C 343.833 327.600,344.000 327.156,344.000 326.000 C 344.000 325.120,344.180 324.400,344.400 324.400 C 344.642 324.400,344.800 322.667,344.800 320.000 C 344.800 317.333,344.642 315.600,344.400 315.600 C 344.180 315.600,344.000 315.150,344.000 314.600 C 344.000 313.978,343.773 313.600,343.400 313.600 C 343.027 313.600,342.800 313.222,342.800 312.600 C 342.800 312.050,342.620 311.600,342.400 311.600 C 342.180 311.600,342.000 311.150,342.000 310.600 C 342.000 309.978,341.773 309.600,341.400 309.600 C 341.070 309.600,340.800 309.407,340.800 309.171 C 340.800 308.618,339.782 307.600,339.229 307.600 C 338.993 307.600,338.800 307.422,338.800 307.204 C 338.800 306.662,330.571 298.400,330.032 298.400 C 329.794 298.400,329.600 298.207,329.600 297.971 C 329.600 297.418,328.582 296.400,328.029 296.400 C 327.793 296.400,327.600 296.207,327.600 295.971 C 327.600 295.418,326.582 294.400,326.029 294.400 C 325.793 294.400,325.600 294.207,325.600 293.971 C 325.600 293.418,324.582 292.400,324.029 292.400 C 323.793 292.400,323.600 292.207,323.600 291.971 C 323.600 291.418,322.582 290.400,322.029 290.400 C 321.793 290.400,321.600 290.207,321.600 289.971 C 321.600 289.418,320.582 288.400,320.029 288.400 C 319.793 288.400,319.600 288.207,319.600 287.971 C 319.600 287.418,318.582 286.400,318.029 286.400 C 317.793 286.400,317.600 286.219,317.600 285.998 C 317.600 285.778,316.250 284.242,314.600 282.587 C 311.396 279.373,311.274 279.200,312.200 279.200 C 312.573 279.200,312.800 278.822,312.800 278.200 C 312.800 277.650,312.980 277.200,313.200 277.200 C 313.420 277.200,313.600 276.750,313.600 276.200 C 313.600 275.650,313.791 275.200,314.024 275.200 C 314.257 275.200,314.336 275.380,314.200 275.600 C 314.064 275.820,314.143 276.000,314.376 276.000 C 314.609 276.000,314.800 275.550,314.800 275.000 C 314.800 274.450,314.980 274.000,315.200 274.000 C 315.420 274.000,315.600 273.550,315.600 273.000 C 315.600 272.450,315.793 272.000,316.029 272.000 C 316.734 272.000,317.600 270.914,317.600 270.029 C 317.600 269.559,317.860 269.200,318.200 269.200 C 318.530 269.200,318.800 268.930,318.800 268.600 C 318.800 268.270,318.980 268.000,319.200 268.000 C 319.420 268.000,319.600 267.550,319.600 267.000 C 319.600 266.378,319.827 266.000,320.200 266.000 C 320.573 266.000,320.800 265.622,320.800 265.000 C 320.800 264.450,320.980 264.000,321.200 264.000 C 321.420 264.000,321.600 263.550,321.600 263.000 C 321.600 262.378,321.827 262.000,322.200 262.000 C 322.739 262.000,322.973 261.110,322.908 259.304 C 322.898 259.032,323.050 258.907,323.245 259.028 C 323.440 259.149,323.600 258.697,323.600 258.024 C 323.600 257.203,323.797 256.800,324.200 256.800 C 324.573 256.800,324.800 256.422,324.800 255.800 C 324.800 255.250,324.980 254.800,325.200 254.800 C 325.420 254.800,325.600 254.350,325.600 253.800 C 325.600 253.178,325.827 252.800,326.200 252.800 C 326.619 252.800,326.800 252.378,326.800 251.400 C 326.800 250.630,326.980 250.000,327.200 250.000 C 327.420 250.000,327.600 249.550,327.600 249.000 C 327.600 248.378,327.827 248.000,328.200 248.000 C 328.633 248.000,328.800 247.556,328.800 246.400 C 328.800 245.520,328.980 244.800,329.200 244.800 C 329.420 244.800,329.600 244.080,329.600 243.200 C 329.600 242.044,329.767 241.600,330.200 241.600 C 330.619 241.600,330.800 241.178,330.800 240.200 C 330.800 239.222,330.981 238.800,331.400 238.800 C 331.852 238.800,332.000 238.315,332.000 236.833 C 332.000 235.752,332.174 234.807,332.386 234.733 C 332.599 234.660,332.806 233.466,332.847 232.080 C 332.904 230.151,333.047 229.609,333.460 229.768 C 333.873 229.926,334.000 229.459,334.000 227.787 C 334.000 226.584,334.180 225.600,334.400 225.600 C 334.620 225.600,334.800 224.970,334.800 224.200 L 334.800 222.800 357.500 222.753 C 369.985 222.727,380.365 222.737,380.568 222.775 C 380.770 222.814,380.703 222.565,380.419 222.223 C 379.965 221.676,380.104 221.600,381.551 221.600 C 382.750 221.600,383.200 221.436,383.200 221.000 C 383.200 220.627,383.578 220.400,384.200 220.400 C 384.750 220.400,385.200 220.220,385.200 220.000 C 385.200 219.780,385.470 219.600,385.800 219.600 C 386.130 219.600,386.400 219.407,386.400 219.171 C 386.400 218.936,386.657 218.486,386.971 218.171 C 387.286 217.857,387.736 217.600,387.971 217.600 C 388.207 217.600,388.400 217.412,388.400 217.182 C 388.400 216.952,388.850 216.314,389.400 215.764 C 389.950 215.214,390.400 214.502,390.400 214.182 C 390.400 213.862,390.670 213.600,391.000 213.600 C 391.433 213.600,391.600 213.156,391.600 212.000 C 391.600 211.120,391.780 210.400,392.000 210.400 C 392.220 210.400,392.400 209.500,392.400 208.400 C 392.400 206.889,392.547 206.400,393.000 206.400 C 393.509 206.400,393.600 205.400,393.600 199.800 C 393.600 194.200,393.509 193.200,393.000 193.200 C 392.547 193.200,392.400 192.711,392.400 191.200 C 392.400 190.100,392.220 189.200,392.000 189.200 C 391.780 189.200,391.600 188.570,391.600 187.800 C 391.600 186.822,391.419 186.400,391.000 186.400 C 390.465 186.400,390.189 185.635,390.369 184.651 C 390.404 184.459,390.155 184.408,389.816 184.538 C 389.426 184.688,389.200 184.549,389.200 184.159 C 389.200 183.451,388.261 182.400,387.629 182.400 C 387.393 182.400,387.200 182.207,387.200 181.971 C 387.200 181.418,386.182 180.400,385.629 180.400 C 385.393 180.400,385.200 180.130,385.200 179.800 C 385.200 179.427,384.822 179.200,384.200 179.200 C 383.548 179.200,383.200 178.976,383.200 178.556 C 383.200 178.056,382.888 177.949,381.800 178.076 C 380.835 178.189,380.400 178.078,380.400 177.720 C 380.400 177.300,376.034 177.200,357.600 177.200 L 334.800 177.200 334.800 175.600 C 334.800 174.720,334.620 174.000,334.400 174.000 C 334.180 174.000,334.000 173.184,334.000 172.187 C 334.000 170.945,333.811 170.302,333.400 170.145 C 332.961 169.976,332.800 169.284,332.800 167.557 C 332.800 166.252,332.621 165.200,332.400 165.200 C 332.180 165.200,332.000 164.300,332.000 163.200 C 332.000 161.689,331.853 161.200,331.400 161.200 C 330.967 161.200,330.800 160.756,330.800 159.600 C 330.800 158.444,330.633 158.000,330.200 158.000 C 329.767 158.000,329.600 157.556,329.600 156.400 C 329.600 155.520,329.420 154.800,329.200 154.800 C 328.980 154.800,328.800 154.170,328.800 153.400 C 328.800 152.422,328.619 152.000,328.200 152.000 C 327.827 152.000,327.600 151.622,327.600 151.000 C 327.600 150.450,327.420 150.000,327.200 150.000 C 326.980 150.000,326.800 149.280,326.800 148.400 C 326.800 147.244,326.633 146.800,326.200 146.800 C 325.827 146.800,325.600 146.422,325.600 145.800 C 325.600 145.250,325.420 144.800,325.200 144.800 C 324.980 144.800,324.800 144.266,324.800 143.613 C 324.800 142.721,324.650 142.483,324.200 142.655 C 323.745 142.830,323.600 142.581,323.600 141.619 C 323.600 140.877,323.434 140.455,323.200 140.600 C 322.962 140.747,322.800 140.271,322.800 139.424 C 322.800 138.425,322.621 138.000,322.200 138.000 C 321.800 138.000,321.600 137.600,321.600 136.800 C 321.600 136.140,321.420 135.600,321.200 135.600 C 320.980 135.600,320.800 135.150,320.800 134.600 C 320.800 133.978,320.573 133.600,320.200 133.600 C 319.860 133.600,319.600 133.241,319.600 132.771 C 319.600 131.886,318.734 130.800,318.029 130.800 C 317.793 130.800,317.600 130.350,317.600 129.800 C 317.600 129.250,317.420 128.800,317.200 128.800 C 316.980 128.800,316.800 128.530,316.800 128.200 C 316.800 127.870,316.530 127.600,316.200 127.600 C 315.827 127.600,315.600 127.222,315.600 126.600 C 315.600 126.050,315.420 125.600,315.200 125.600 C 314.980 125.600,314.800 125.240,314.800 124.800 C 314.800 124.018,314.233 123.703,313.899 124.300 C 313.807 124.465,313.784 124.380,313.849 124.112 C 313.913 123.843,313.704 123.361,313.383 123.040 C 313.062 122.719,312.800 122.084,312.800 121.629 C 312.800 121.159,312.540 120.800,312.200 120.800 C 311.870 120.800,311.600 120.530,311.600 120.200 C 311.600 119.870,311.793 119.600,312.029 119.600 C 312.264 119.600,312.714 119.343,313.029 119.029 C 313.343 118.714,313.600 118.264,313.600 118.029 C 313.600 117.793,313.840 117.600,314.132 117.600 C 314.425 117.600,314.906 117.150,315.200 116.600 C 315.494 116.050,315.975 115.600,316.268 115.600 C 316.560 115.600,316.800 115.407,316.800 115.171 C 316.800 114.618,317.818 113.600,318.371 113.600 C 318.607 113.600,318.800 113.407,318.800 113.171 C 318.800 112.618,319.818 111.600,320.371 111.600 C 320.607 111.600,320.800 111.407,320.800 111.171 C 320.800 110.618,321.818 109.600,322.371 109.600 C 322.607 109.600,322.800 109.407,322.800 109.171 C 322.800 108.618,323.818 107.600,324.371 107.600 C 324.607 107.600,324.800 107.407,324.800 107.171 C 324.800 106.618,325.818 105.600,326.371 105.600 C 326.607 105.600,326.800 105.407,326.800 105.171 C 326.800 104.618,327.818 103.600,328.371 103.600 C 328.607 103.600,328.800 103.407,328.800 103.171 C 328.800 102.618,329.818 101.600,330.371 101.600 C 330.607 101.600,330.800 101.330,330.800 101.000 C 330.800 100.670,330.993 100.400,331.229 100.400 C 331.782 100.400,332.800 99.382,332.800 98.829 C 332.800 98.593,332.993 98.400,333.229 98.400 C 333.782 98.400,334.800 97.382,334.800 96.829 C 334.800 96.593,335.040 96.400,335.332 96.400 C 335.625 96.400,336.106 95.950,336.400 95.400 C 336.694 94.850,337.175 94.400,337.468 94.400 C 337.760 94.400,338.000 94.207,338.000 93.971 C 338.000 93.418,339.018 92.400,339.571 92.400 C 339.807 92.400,340.000 92.207,340.000 91.971 C 340.000 91.418,341.018 90.400,341.571 90.400 C 341.807 90.400,342.000 89.950,342.000 89.400 C 342.000 88.850,342.180 88.400,342.400 88.400 C 342.620 88.400,342.800 87.950,342.800 87.400 C 342.800 86.354,343.388 86.040,343.735 86.900 C 343.846 87.175,343.951 86.725,343.968 85.900 C 343.986 85.075,344.180 84.400,344.400 84.400 C 344.643 84.400,344.800 82.600,344.800 79.800 C 344.800 77.000,344.643 75.200,344.400 75.200 C 344.180 75.200,344.000 74.480,344.000 73.600 C 344.000 72.444,343.833 72.000,343.400 72.000 C 343.027 72.000,342.800 71.622,342.800 71.000 C 342.800 70.450,342.620 70.000,342.400 70.000 C 342.180 70.000,342.000 69.550,342.000 69.000 C 342.000 68.450,341.807 68.000,341.571 68.000 C 341.043 68.000,339.966 66.960,340.040 66.521 C 340.182 65.685,339.947 65.200,339.400 65.200 C 339.070 65.200,338.800 65.007,338.800 64.771 C 338.800 64.218,337.782 63.200,337.229 63.200 C 336.993 63.200,336.800 63.007,336.800 62.771 C 336.800 62.218,335.782 61.200,335.229 61.200 C 334.993 61.200,334.800 61.007,334.800 60.771 C 334.800 60.218,333.782 59.200,333.229 59.200 C 332.993 59.200,332.800 58.930,332.800 58.600 C 332.800 58.270,332.626 58.000,332.413 58.000 C 332.199 58.000,332.145 58.315,332.291 58.700 C 332.452 59.124,332.153 58.966,331.532 58.300 C 330.969 57.695,330.124 57.200,329.654 57.200 C 329.162 57.200,328.800 56.946,328.800 56.600 C 328.800 56.227,328.422 56.000,327.800 56.000 C 327.250 56.000,326.800 55.820,326.800 55.600 C 326.800 55.380,326.080 55.200,325.200 55.200 C 324.044 55.200,323.600 55.033,323.600 54.600 C 323.600 54.103,322.844 54.000,319.200 54.000 C 315.556 54.000,314.800 54.103,314.800 54.600 C 314.800 54.968,314.426 55.200,313.833 55.200 C 313.302 55.200,312.762 55.425,312.633 55.700 C 312.448 56.097,312.352 56.098,312.168 55.704 C 311.904 55.139,310.800 56.001,310.800 56.771 C 310.800 57.007,310.337 57.200,309.771 57.200 C 308.717 57.200,307.600 58.008,307.600 58.771 C 307.600 59.007,307.407 59.200,307.171 59.200 C 306.618 59.200,305.600 60.218,305.600 60.771 C 305.600 61.007,305.407 61.200,305.171 61.200 C 304.618 61.200,303.600 62.218,303.600 62.771 C 303.600 63.007,303.407 63.200,303.171 63.200 C 302.618 63.200,301.600 64.218,301.600 64.771 C 301.600 65.007,301.407 65.200,301.171 65.200 C 300.618 65.200,299.600 66.218,299.600 66.771 C 299.600 67.007,299.407 67.200,299.171 67.200 C 298.618 67.200,297.600 68.218,297.600 68.771 C 297.600 69.007,297.407 69.200,297.171 69.200 C 296.618 69.200,295.600 70.218,295.600 70.771 C 295.600 71.007,295.407 71.200,295.171 71.200 C 294.618 71.200,293.600 72.218,293.600 72.771 C 293.600 73.007,293.330 73.200,293.000 73.200 C 292.670 73.200,292.400 73.393,292.400 73.629 C 292.400 74.182,291.382 75.200,290.829 75.200 C 290.593 75.200,290.400 75.470,290.400 75.800 C 290.400 76.130,290.207 76.400,289.971 76.400 C 289.418 76.400,288.400 77.418,288.400 77.971 C 288.400 78.207,288.207 78.400,287.971 78.400 C 287.418 78.400,286.400 79.418,286.400 79.971 C 286.400 80.207,286.207 80.400,285.971 80.400 C 285.418 80.400,284.400 81.418,284.400 81.971 C 284.400 82.207,284.207 82.400,283.971 82.400 C 283.418 82.400,282.400 83.418,282.400 83.971 C 282.400 84.207,282.207 84.400,281.971 84.400 C 281.418 84.400,280.400 85.418,280.400 85.971 C 280.400 86.207,280.145 86.400,279.833 86.400 C 279.522 86.400,279.162 86.625,279.033 86.900 C 278.847 87.300,278.753 87.300,278.567 86.900 C 278.438 86.625,277.898 86.400,277.367 86.400 C 276.774 86.400,276.400 86.168,276.400 85.800 C 276.400 85.467,276.044 85.200,275.600 85.200 C 275.160 85.200,274.800 85.020,274.800 84.800 C 274.800 84.580,274.440 84.400,274.000 84.400 C 273.556 84.400,273.200 84.133,273.200 83.800 C 273.200 83.443,272.833 83.200,272.295 83.200 C 271.796 83.200,271.053 82.751,270.639 82.200 C 270.226 81.650,269.540 81.200,269.115 81.200 C 268.277 81.200,267.200 80.317,267.200 79.629 C 267.200 79.393,266.750 79.200,266.200 79.200 C 265.650 79.200,265.200 79.020,265.200 78.800 C 265.200 78.580,264.750 78.400,264.200 78.400 C 263.578 78.400,263.200 78.173,263.200 77.800 C 263.200 77.427,262.822 77.200,262.200 77.200 C 261.650 77.200,261.200 77.020,261.200 76.800 C 261.200 76.580,260.750 76.400,260.200 76.400 C 259.650 76.400,259.200 76.175,259.199 75.900 C 259.199 75.608,258.574 75.355,257.699 75.293 C 256.875 75.234,256.140 75.009,256.067 74.793 C 255.993 74.577,255.498 74.400,254.967 74.400 C 254.374 74.400,254.000 74.168,254.000 73.800 C 254.000 73.427,253.622 73.200,253.000 73.200 C 252.378 73.200,252.000 72.973,252.000 72.600 C 252.000 72.197,251.597 72.000,250.776 72.000 C 250.063 72.000,249.656 71.833,249.800 71.600 C 249.936 71.380,249.870 71.200,249.653 71.200 C 249.436 71.200,249.176 71.515,249.076 71.900 C 248.902 72.567,248.891 72.567,248.846 71.900 C 248.818 71.474,248.476 71.200,247.971 71.200 C 247.516 71.200,246.873 70.930,246.543 70.600 C 246.213 70.270,245.506 70.000,244.971 70.000 C 244.437 70.000,244.000 69.820,244.000 69.600 C 244.000 69.380,243.280 69.200,242.400 69.200 C 241.244 69.200,240.800 69.033,240.800 68.600 C 240.800 68.181,240.378 68.000,239.400 68.000 C 238.630 68.000,238.000 67.820,238.000 67.600 C 238.000 67.380,237.100 67.200,236.000 67.200 C 234.489 67.200,234.000 67.053,234.000 66.600 C 234.000 66.128,233.444 66.000,231.400 66.000 C 229.933 66.000,228.800 65.826,228.800 65.600 C 228.800 65.380,227.900 65.200,226.800 65.200 C 225.289 65.200,224.800 65.053,224.800 64.600 C 224.800 64.167,224.356 64.000,223.200 64.000 L 221.600 64.000 221.600 41.400 C 221.600 26.600,221.462 18.800,221.200 18.800 C 220.980 18.800,220.800 18.080,220.800 17.200 C 220.800 16.044,220.633 15.600,220.200 15.600 C 219.860 15.600,219.600 15.241,219.600 14.771 C 219.600 13.886,218.734 12.800,218.029 12.800 C 217.793 12.800,217.600 12.607,217.600 12.371 C 217.600 11.818,216.582 10.800,216.029 10.800 C 215.793 10.800,215.600 10.620,215.600 10.400 C 215.600 9.787,214.075 8.400,213.400 8.400 C 213.070 8.400,212.800 8.220,212.800 8.000 C 212.800 7.780,212.080 7.600,211.200 7.600 C 209.990 7.600,209.600 7.442,209.600 6.950 C 209.600 6.408,209.238 6.331,207.400 6.483 C 205.743 6.621,205.200 6.534,205.200 6.133 C 205.200 5.711,203.864 5.600,198.800 5.600 C 194.800 5.600,192.400 5.750,192.400 6.000 M206.200 93.603 C 211.492 93.981,214.059 94.310,219.200 95.269 C 222.995 95.976,230.402 97.801,231.800 98.373 C 234.396 99.435,235.197 99.737,237.383 100.480 C 247.292 103.846,261.323 112.523,270.800 121.143 C 282.849 132.104,293.270 147.348,298.614 161.830 C 299.974 165.515,300.994 168.606,301.577 170.800 C 301.839 171.790,302.206 173.140,302.392 173.800 C 302.989 175.918,303.963 180.878,304.671 185.400 C 305.506 190.736,305.609 208.973,304.829 213.200 C 304.564 214.630,304.196 216.970,304.010 218.400 C 303.572 221.771,301.172 230.863,299.575 235.200 C 298.887 237.070,298.186 239.050,298.018 239.600 C 295.205 248.822,283.907 265.724,273.909 275.668 C 268.628 280.920,256.040 290.800,254.629 290.800 C 254.511 290.800,253.439 291.424,252.246 292.188 C 250.030 293.606,240.605 298.248,238.800 298.811 C 238.250 298.983,236.270 299.691,234.400 300.386 C 223.030 304.609,206.240 307.059,193.800 306.309 C 184.127 305.727,172.266 303.596,166.400 301.387 C 162.299 299.843,159.349 298.800,159.081 298.800 C 158.479 298.800,147.818 293.508,145.729 292.172 C 144.550 291.417,143.492 290.800,143.379 290.800 C 141.351 290.800,126.010 278.166,120.309 271.800 C 112.054 262.582,102.258 247.068,99.984 239.609 C 99.815 239.054,99.113 237.070,98.425 235.200 C 96.828 230.863,94.428 221.771,93.990 218.400 C 93.804 216.970,93.433 214.630,93.166 213.200 C 92.373 208.959,92.490 190.337,93.342 185.200 C 94.411 178.755,94.795 176.788,95.451 174.400 C 95.784 173.190,96.244 171.480,96.475 170.600 C 98.021 164.702,100.855 157.681,104.952 149.600 C 115.341 129.105,138.052 108.804,159.325 100.996 C 162.297 99.905,164.811 98.946,166.200 98.375 C 167.571 97.811,174.925 95.995,178.800 95.264 C 188.648 93.404,196.634 92.920,206.200 93.603 M164.865 134.217 C 164.195 135.688,164.323 136.002,165.047 134.665 C 165.386 134.040,165.588 133.454,165.496 133.363 C 165.405 133.271,165.121 133.656,164.865 134.217 M240.134 152.000 C 240.134 153.650,240.205 154.325,240.291 153.500 C 240.378 152.675,240.378 151.325,240.291 150.500 C 240.205 149.675,240.134 150.350,240.134 152.000 M218.142 153.000 C 218.141 154.980,218.208 155.840,218.292 154.912 C 218.376 153.984,218.377 152.364,218.295 151.312 C 218.212 150.260,218.143 151.020,218.142 153.000 M160.572 159.000 C 160.572 164.060,160.629 166.075,160.699 163.477 C 160.769 160.880,160.768 156.740,160.698 154.277 C 160.628 151.815,160.571 153.940,160.572 159.000 M182.955 159.000 C 182.956 161.860,183.020 162.978,183.097 161.483 C 183.174 159.989,183.174 157.649,183.096 156.283 C 183.018 154.918,182.955 156.140,182.955 159.000 M240.124 159.800 C 240.126 161.120,240.201 161.612,240.290 160.893 C 240.379 160.174,240.377 159.094,240.286 158.493 C 240.195 157.892,240.122 158.480,240.124 159.800 M218.140 165.200 C 218.140 167.070,218.209 167.835,218.293 166.900 C 218.377 165.965,218.377 164.435,218.293 163.500 C 218.209 162.565,218.140 163.330,218.140 165.200 M240.131 165.000 C 240.133 166.540,240.205 167.121,240.292 166.291 C 240.379 165.461,240.377 164.201,240.289 163.491 C 240.200 162.781,240.129 163.460,240.131 165.000 M218.901 171.800 C 218.905 172.680,218.987 172.993,219.083 172.495 C 219.179 171.998,219.175 171.278,219.075 170.895 C 218.975 170.513,218.896 170.920,218.901 171.800 M237.952 178.313 C 237.821 179.107,237.879 179.481,238.101 179.259 C 238.303 179.057,238.401 178.467,238.319 177.946 C 238.193 177.145,238.137 177.202,237.952 178.313 M163.228 179.000 C 163.228 179.220,163.486 179.850,163.800 180.400 C 164.114 180.950,164.372 181.220,164.372 181.000 C 164.372 180.780,164.114 180.150,163.800 179.600 C 163.486 179.050,163.228 178.780,163.228 179.000 M176.175 187.300 L 175.000 188.600 176.300 187.425 C 177.015 186.779,177.600 186.194,177.600 186.125 C 177.600 185.816,177.270 186.088,176.175 187.300 M269.500 201.089 C 270.215 201.178,271.385 201.178,272.100 201.089 C 272.815 201.001,272.230 200.928,270.800 200.928 C 269.370 200.928,268.785 201.001,269.500 201.089 M263.189 202.821 C 262.947 203.272,262.806 203.914,262.875 204.246 C 262.944 204.579,263.198 204.209,263.440 203.425 C 263.935 201.823,263.842 201.600,263.189 202.821 M134.464 203.400 C 134.828 203.840,135.209 204.650,135.309 205.200 L 135.491 206.200 135.546 205.162 C 135.579 204.529,135.249 203.827,134.700 203.362 C 133.807 202.606,133.805 202.606,134.464 203.400 M281.865 204.800 C 282.120 205.130,282.408 205.940,282.505 206.600 L 282.680 207.800 282.740 206.549 C 282.777 205.777,282.532 205.088,282.100 204.749 C 281.491 204.271,281.460 204.278,281.865 204.800 M268.197 206.751 C 269.114 206.947,269.453 207.286,269.649 208.203 C 269.888 209.317,269.909 209.329,269.953 208.380 C 269.979 207.819,269.784 207.144,269.520 206.880 C 269.256 206.616,268.581 206.421,268.020 206.447 C 267.071 206.491,267.083 206.512,268.197 206.751 M130.100 207.876 C 130.485 207.976,131.115 207.976,131.500 207.876 C 131.885 207.775,131.570 207.693,130.800 207.693 C 130.030 207.693,129.715 207.775,130.100 207.876 M279.700 209.076 C 280.085 209.176,280.715 209.176,281.100 209.076 C 281.485 208.975,281.170 208.893,280.400 208.893 C 279.630 208.893,279.315 208.975,279.700 209.076 M118.000 209.600 L 116.600 209.895 117.876 209.947 C 118.578 209.976,119.264 209.820,119.400 209.600 C 119.536 209.380,119.592 209.224,119.524 209.253 C 119.456 209.282,118.770 209.438,118.000 209.600 M274.954 213.377 C 274.832 213.694,274.803 214.279,274.889 214.677 C 274.987 215.128,275.124 214.912,275.254 214.100 C 275.471 212.738,275.330 212.396,274.954 213.377 M257.620 241.379 L 255.840 243.400 257.801 241.514 C 258.879 240.477,259.680 239.567,259.581 239.493 C 259.481 239.419,258.599 240.267,257.620 241.379 M263.601 242.998 C 263.086 243.548,262.739 244.064,262.832 244.146 C 262.924 244.228,263.419 243.778,263.930 243.147 C 265.076 241.735,264.874 241.644,263.601 242.998 M143.600 245.325 C 143.600 245.394,144.185 245.979,144.900 246.625 L 146.200 247.800 145.025 246.500 C 143.930 245.288,143.600 245.016,143.600 245.325 M252.800 247.400 C 251.828 248.390,251.123 249.200,251.233 249.200 C 251.343 249.200,252.228 248.390,253.200 247.400 C 254.172 246.410,254.877 245.600,254.767 245.600 C 254.657 245.600,253.772 246.410,252.800 247.400 M260.000 247.800 C 259.028 248.790,258.323 249.600,258.433 249.600 C 258.543 249.600,259.428 248.790,260.400 247.800 C 261.372 246.810,262.077 246.000,261.967 246.000 C 261.857 246.000,260.972 246.810,260.000 247.800 M149.200 250.600 C 149.946 251.370,150.647 252.000,150.757 252.000 C 150.867 252.000,150.346 251.370,149.600 250.600 C 148.854 249.830,148.153 249.200,148.043 249.200 C 147.933 249.200,148.454 249.830,149.200 250.600 M256.175 252.500 L 255.000 253.800 256.300 252.625 C 257.015 251.979,257.600 251.394,257.600 251.325 C 257.600 251.016,257.270 251.288,256.175 252.500 M144.400 254.600 C 145.817 256.030,147.067 257.200,147.177 257.200 C 147.287 257.200,146.217 256.030,144.800 254.600 C 143.383 253.170,142.133 252.000,142.023 252.000 C 141.913 252.000,142.983 253.170,144.400 254.600 M154.800 262.764 C 155.350 263.214,155.980 263.583,156.200 263.585 C 156.628 263.588,155.905 263.034,154.600 262.360 C 154.069 262.085,154.136 262.221,154.800 262.764 M168.800 263.800 C 169.350 264.114,169.980 264.372,170.200 264.372 C 170.420 264.372,170.150 264.114,169.600 263.800 C 169.050 263.486,168.420 263.228,168.200 263.228 C 167.980 263.228,168.250 263.486,168.800 263.800 M215.000 268.400 L 213.800 268.705 214.876 268.753 C 215.468 268.779,216.064 268.620,216.200 268.400 C 216.336 268.180,216.392 268.021,216.324 268.047 C 216.256 268.073,215.660 268.232,215.000 268.400 M195.521 269.899 C 197.788 269.970,201.388 269.970,203.521 269.898 C 205.655 269.826,203.800 269.768,199.400 269.768 C 195.000 269.768,193.255 269.827,195.521 269.899 M196.300 275.897 C 197.895 275.973,200.505 275.973,202.100 275.897 C 203.695 275.821,202.390 275.759,199.200 275.759 C 196.010 275.759,194.705 275.821,196.300 275.897 " stroke="none" fill="#e42424" fill-rule="evenodd"></path></g></svg>