<svg width="24" height="25" viewBox="0 0 24 25" fill="none" xmlns="http://www.w3.org/2000/svg">
<path d="M23.0346 24.8251C22.6104 24.8251 22.2665 24.4854 22.2665 24.0664C22.2665 18.8342 17.7783 14.5766 12.261 14.5766C6.74363 14.5766 2.25546 18.8342 2.25546 24.0664C2.25546 24.4854 1.91156 24.8251 1.48735 24.8251C1.06313 24.8251 0.719238 24.4854 0.719238 24.0664C0.719238 17.9961 5.8977 13.0565 12.261 13.0565C18.6267 13.0565 23.8052 17.9961 23.8052 24.0664C23.8052 24.4854 23.4613 24.8251 23.0346 24.8251Z" fill="white"/>
<path d="M12.3559 14.5765C8.43504 14.5765 5.24463 11.4248 5.24463 7.5515C5.24463 3.67822 8.43504 0.524048 12.3559 0.524048C16.2768 0.524048 19.4672 3.67574 19.4672 7.54902C19.4672 11.4223 16.2768 14.5765 12.3559 14.5765ZM12.3559 2.0441C9.28348 2.0441 6.78085 4.51388 6.78085 7.5515C6.78085 10.5891 9.28097 13.0589 12.3559 13.0589C15.4309 13.0589 17.931 10.5891 17.931 7.5515C17.931 4.51388 15.4284 2.0441 12.3559 2.0441Z" fill="white"/>
</svg>
