<svg width="28" height="27" viewBox="0 0 28 27" fill="none" xmlns="http://www.w3.org/2000/svg">
<path d="M14 0C6.28 0 0 5.97849 0 13.3251C0 20.6718 6.28 26.6502 14 26.6502C21.72 26.6502 28 20.6718 28 13.3251C28 5.97849 21.72 0 14 0ZM14 25.3392C7.04 25.3392 1.37714 19.9482 1.37714 13.3251C1.37714 6.702 7.04 1.31102 14 1.31102C20.96 1.31102 26.6229 6.69928 26.6229 13.3251C26.6229 19.9482 20.96 25.3392 14 25.3392Z" fill="white"/>
<path d="M13.9998 9.70734C14.0255 9.70734 14.0512 9.70462 14.0741 9.70462C14.0826 9.70462 14.0884 9.70462 14.0969 9.70462C14.8055 9.69102 15.4684 10.0065 15.7969 10.5233C15.9912 10.8334 16.4141 10.934 16.7398 10.7491C17.0655 10.5641 17.1712 10.1616 16.9769 9.8515C16.4912 9.08175 15.6569 8.56495 14.6884 8.43168V7.63745C14.6884 7.27569 14.3798 6.98193 13.9998 6.98193C13.6198 6.98193 13.3112 7.27569 13.3112 7.63745V8.49696C12.6941 8.64383 12.1341 8.95119 11.7141 9.38094C11.1912 9.91406 10.9198 10.5941 10.9512 11.2931C11.0255 13.0774 12.6826 13.6758 13.8912 14.1137C15.0855 14.5462 15.6512 14.8127 15.6741 15.3921C15.6884 15.7402 15.5484 16.0857 15.2798 16.3604C14.9655 16.6813 14.5026 16.8826 14.0026 16.9207C13.9769 16.9207 13.9541 16.9234 13.9284 16.9234C13.9198 16.9234 13.9141 16.9234 13.9055 16.9234C13.2055 16.937 12.5341 16.6215 12.2055 16.1047C12.0112 15.7946 11.5855 15.694 11.2626 15.8789C10.9369 16.0639 10.8312 16.4665 11.0255 16.7765C11.5084 17.5463 12.3541 18.0576 13.3141 18.1964V18.9933C13.3141 19.3551 13.6226 19.6488 14.0026 19.6488C14.3826 19.6488 14.6912 19.3551 14.6912 18.9933V18.1338C15.3084 17.9869 15.8684 17.6796 16.2884 17.2525C16.8112 16.7194 17.0826 16.0394 17.0541 15.3377C16.9912 13.8254 15.5455 13.3031 14.3855 12.8843C13.1341 12.4327 12.3684 12.1118 12.3312 11.2387C12.3169 10.8905 12.4569 10.5451 12.7255 10.2704C13.0369 9.9467 13.4998 9.74542 13.9998 9.70734Z" fill="white"/>
</svg>
