<svg width="29" height="30" viewBox="0 0 29 30" fill="none" xmlns="http://www.w3.org/2000/svg">
<rect y="0.215683" width="29" height="29.5686" rx="14.5" fill="white"/>
<path d="M14.0185 6.22527C13.9705 6.24721 13.9252 6.28562 13.9115 6.31717C13.8937 6.35694 13.9033 6.35969 13.9581 6.33088C13.9883 6.31442 14.024 6.31168 14.1145 6.31717C14.194 6.32265 14.253 6.31991 14.3024 6.30619L14.3724 6.28699L14.312 6.36243C14.2379 6.45296 14.2174 6.49137 14.1954 6.57504C14.179 6.64499 14.1748 6.64636 14.098 6.62579C14.061 6.61481 14.0377 6.61481 14.0185 6.62579C13.9773 6.64773 13.9856 6.66282 14.0432 6.67242C14.1323 6.68614 14.2036 6.78901 14.1872 6.8768C14.1803 6.90835 14.1762 6.90972 14.1419 6.89737C14.0925 6.88091 14.0157 6.88777 14.0075 6.90972C14.0048 6.91932 14.0116 6.92755 14.0226 6.92755C14.0336 6.92755 14.0582 6.9399 14.0788 6.95636C14.1296 6.99613 14.1268 7.06334 14.072 7.14976C14.0486 7.18542 14.0253 7.2156 14.0198 7.2156C13.9993 7.2156 13.9074 7.31161 13.9142 7.32396C13.9197 7.33082 13.9513 7.32944 13.9952 7.3171C14.109 7.28692 14.2613 7.29241 14.3847 7.33219C14.4437 7.35139 14.4999 7.36648 14.5095 7.36648C14.5205 7.36648 14.5712 7.32533 14.6234 7.27595C14.7262 7.17582 14.7441 7.17308 14.7811 7.24577C14.8168 7.3171 14.8689 7.3802 14.8908 7.3802C14.9142 7.3802 14.9923 7.3075 14.9923 7.28692C14.9923 7.28007 14.9814 7.27046 14.9663 7.26635C14.9512 7.26361 14.9046 7.19777 14.8552 7.1141C14.8085 7.03317 14.74 6.93441 14.7029 6.89463C14.6261 6.80959 14.6193 6.82468 14.7893 6.70946C14.8469 6.66968 14.8977 6.62853 14.9018 6.61619C14.9114 6.5915 14.825 6.46805 14.7839 6.4461C14.7619 6.43376 14.7482 6.4365 14.7194 6.45707C14.5946 6.55035 14.4917 6.61207 14.4766 6.60658C14.4519 6.59698 14.4478 6.62442 14.4368 6.81782C14.4245 7.06334 14.371 7.14016 14.1598 7.2156C14.1008 7.23617 14.0404 7.25812 14.0253 7.26498C14.0102 7.27046 14.0582 7.22383 14.1309 7.16073C14.2078 7.09626 14.2736 7.02631 14.2873 6.9975C14.3051 6.96184 14.3147 6.896 14.3216 6.76295C14.3312 6.56543 14.3545 6.45296 14.4094 6.33637C14.4272 6.29659 14.4396 6.25956 14.4355 6.25407C14.4327 6.24858 14.397 6.24721 14.3559 6.25133C14.3051 6.25681 14.2613 6.25133 14.216 6.23624C14.1501 6.21429 14.0555 6.20881 14.0185 6.22527ZM14.7304 6.59698C14.7619 6.63402 14.7866 6.66831 14.7866 6.67242C14.7866 6.68065 14.4766 6.8864 14.4643 6.8864C14.4547 6.8864 14.456 6.73415 14.467 6.69574C14.4739 6.66831 14.6385 6.53114 14.6659 6.52977C14.67 6.52977 14.7002 6.55995 14.7304 6.59698ZM14.5232 6.94813C14.5836 6.97419 14.6247 7.01122 14.6769 7.08529L14.7153 7.14153L14.659 7.20051C14.6055 7.25949 14.6014 7.26086 14.5616 7.24303C14.4917 7.2156 14.3861 7.18816 14.3422 7.18816H14.3024L14.3573 7.13604C14.4094 7.08666 14.4327 7.04414 14.4492 6.96459C14.4588 6.92069 14.4574 6.92206 14.5232 6.94813Z" fill="black"/>
<path d="M12.053 6.54208C11.9227 6.55031 11.9158 6.55168 11.8843 6.59146C11.8116 6.67924 11.6868 6.87539 11.6868 6.90145C11.6868 6.91517 11.7115 7.01393 11.7416 7.12092C11.7718 7.2279 11.7965 7.32666 11.7965 7.34038C11.7965 7.37879 11.7663 7.43502 11.7471 7.43502C11.7101 7.43502 11.6305 7.34724 11.588 7.25945C11.5455 7.17304 11.5427 7.15932 11.5441 7.02764C11.5441 6.94946 11.5427 6.88636 11.54 6.88636C11.5249 6.88636 11.4783 7.01118 11.4646 7.08937C11.4508 7.17167 11.4522 7.19636 11.4728 7.27591C11.5537 7.57493 11.839 7.74227 12.123 7.65586C12.2793 7.60922 12.3973 7.51869 12.4604 7.39662C12.4906 7.33764 12.4755 7.34175 12.3932 7.40896C12.315 7.4748 12.2313 7.51595 12.1778 7.51732C12.1476 7.51732 12.138 7.50772 12.1202 7.45834C12.0887 7.37741 11.8925 6.70805 11.8925 6.6861C11.8925 6.67101 11.9241 6.6669 12.0352 6.6669C12.1778 6.6669 12.1778 6.6669 12.2135 6.62438C12.2588 6.57088 12.2615 6.52836 12.219 6.53248C12.2011 6.53385 12.1271 6.53796 12.053 6.54208ZM11.9803 7.08525C12.0461 7.30472 12.1024 7.49401 12.1065 7.50635C12.1134 7.5283 12.1038 7.53104 12.0201 7.53104C11.9501 7.53104 11.909 7.52281 11.8527 7.49675L11.78 7.46246L11.8047 7.42405C11.8555 7.34998 11.9062 7.23888 11.9062 7.20322C11.9062 7.18401 11.8815 7.07977 11.85 6.97278L11.7938 6.778L11.8239 6.72862C11.8404 6.70119 11.8569 6.68062 11.8582 6.68336C11.861 6.6861 11.9158 6.86716 11.9803 7.08525Z" fill="black"/>
<path d="M9.7594 7.53108C9.74431 7.53793 9.70317 7.54342 9.6675 7.54342C9.59755 7.54479 9.56051 7.57634 9.56051 7.63669C9.56051 7.66413 9.56737 7.66824 9.61675 7.66824C9.66339 7.66824 9.68122 7.67647 9.71688 7.71351C9.7402 7.73957 9.77312 7.78483 9.78958 7.81501C9.81976 7.86713 9.81976 7.87124 9.79644 7.91514C9.769 7.97138 9.70042 8.02075 9.63321 8.0331C9.57423 8.04407 9.55777 8.03036 9.45215 7.87399C9.33556 7.7039 9.34242 7.70665 9.25601 7.79443C9.19291 7.8589 9.16822 7.87399 9.06672 7.90691C8.92681 7.95354 8.87606 7.99607 8.86509 8.07699C8.85686 8.13597 8.86783 8.20318 8.88566 8.20318C8.89115 8.20318 8.90486 8.18124 8.91447 8.15381C8.92818 8.1154 8.95424 8.09071 9.02968 8.0427C9.08455 8.00841 9.14627 7.96863 9.16822 7.95217C9.20663 7.92611 9.208 7.92611 9.1984 7.9508C9.19291 7.96452 9.17234 8.03721 9.15313 8.11128C9.07769 8.40482 9.16136 8.65171 9.37808 8.76968C9.48507 8.82729 9.57011 8.83963 9.67299 8.81357C9.84856 8.76968 9.98573 8.63525 10.0653 8.43088L10.1119 8.31292L10.1682 8.35269C10.271 8.42265 10.3163 8.42265 10.341 8.35132C10.367 8.27863 10.3602 8.24433 10.3232 8.24433C10.2669 8.24433 10.212 8.18398 10.0365 7.92474C9.86365 7.67098 9.80741 7.57634 9.80741 7.53793C9.80741 7.51462 9.79918 7.51324 9.7594 7.53108ZM9.62772 8.17438C9.87874 8.54473 9.88971 8.56393 9.86776 8.58862C9.81838 8.64348 9.6291 8.70521 9.6291 8.6668C9.6291 8.6572 9.6387 8.61879 9.64967 8.58176C9.66064 8.54473 9.67025 8.483 9.67025 8.4446C9.67025 8.37876 9.66202 8.36367 9.51113 8.13872C9.36711 7.92611 9.35065 7.89456 9.34379 7.82872C9.33968 7.78346 9.34242 7.76288 9.35065 7.77111C9.35888 7.77797 9.48233 7.9604 9.62772 8.17438ZM9.29304 7.98235V8.10443L9.411 8.28C9.54817 8.48437 9.56874 8.52278 9.57972 8.58725C9.59343 8.65994 9.57423 8.67778 9.50839 8.65857C9.39592 8.62428 9.26149 8.47751 9.22446 8.34721C9.19428 8.24571 9.19703 8.10305 9.22857 8.01115C9.26561 7.90965 9.28481 7.86027 9.28893 7.86027C9.29167 7.86027 9.29304 7.91514 9.29304 7.98235ZM9.88971 7.97549C9.91166 8.00978 9.93086 8.04133 9.93086 8.04819C9.93086 8.05505 9.90343 8.06739 9.87051 8.07699C9.82799 8.08797 9.79507 8.10991 9.75529 8.15518L9.69905 8.21827L9.65104 8.14695L9.60166 8.07425L9.67162 8.04819C9.71277 8.0331 9.76352 7.99881 9.79232 7.96863C9.81976 7.93983 9.84307 7.91651 9.84445 7.91514C9.84582 7.91514 9.86639 7.94257 9.88971 7.97549ZM10.0269 8.18261L10.0859 8.27314L10.0365 8.3719C9.99258 8.45968 9.92537 8.54747 9.91303 8.53101C9.91028 8.52827 9.86639 8.46517 9.81564 8.3911C9.72374 8.25668 9.72374 8.25531 9.74706 8.21964C9.77586 8.17301 9.81564 8.13872 9.86913 8.11403C9.94595 8.07836 9.96378 8.08659 10.0269 8.18261Z" fill="black"/>
<path d="M18.3375 7.64627C18.1866 7.68605 18.0399 7.83145 17.9905 7.98919C17.9726 8.04405 17.9672 8.09755 17.9699 8.17299C17.9795 8.36913 18.0838 8.52139 18.2772 8.61603C18.3965 8.67501 18.5199 8.69422 18.6132 8.66815C18.7229 8.63935 18.7147 8.61877 18.5899 8.61192C18.4815 8.60506 18.4143 8.58174 18.3567 8.52825C18.3197 8.49533 18.3156 8.50767 18.4651 8.269C18.5254 8.17436 18.583 8.09206 18.5926 8.08795C18.6132 8.08109 18.664 8.10578 18.7737 8.17573C18.8395 8.21688 18.8491 8.21962 18.8862 8.20316C18.9493 8.17847 18.9493 8.15241 18.8875 8.09618L18.8327 8.0468L18.8725 8.03034C18.8944 8.02073 18.9575 8.0029 19.0137 7.99056C19.1674 7.95627 19.1687 7.95627 19.0713 7.86437C19.0261 7.82047 18.9726 7.76424 18.9534 7.73817C18.9122 7.68331 18.8999 7.68194 18.6612 7.7176C18.5666 7.73132 18.5007 7.74778 18.4843 7.76149C18.4706 7.77521 18.4075 7.863 18.3444 7.96038C18.2319 8.13184 18.1866 8.17436 18.1372 8.15653C18.103 8.14281 18.1153 8.00016 18.1578 7.90826C18.2099 7.79853 18.2552 7.74778 18.354 7.6888C18.4637 7.62158 18.4596 7.61335 18.3375 7.64627ZM18.7188 7.8287C18.6859 7.88083 18.5803 8.04542 18.4829 8.19631C18.3869 8.34719 18.3046 8.47338 18.3018 8.47612C18.2991 8.48024 18.2799 8.46515 18.258 8.44458C18.2113 8.40068 18.1537 8.29644 18.1414 8.23608L18.1318 8.19356L18.236 8.17573C18.3937 8.1483 18.4088 8.13595 18.5378 7.93569C18.631 7.78893 18.6585 7.75601 18.69 7.74915C18.7806 7.72857 18.7806 7.73132 18.7188 7.8287ZM18.9205 7.911C18.9575 7.95215 18.9671 7.97136 18.9548 7.97684C18.9163 7.99056 18.6352 8.05091 18.6297 8.04542C18.6269 8.04268 18.664 7.97821 18.712 7.90277L18.7984 7.76561L18.8327 7.8095C18.8519 7.83282 18.8903 7.87945 18.9205 7.911Z" fill="black"/>
<path d="M7.63313 9.27167C7.62353 9.31557 7.55769 9.38141 7.48773 9.41844C7.44521 9.44039 7.44384 9.44176 7.45207 9.52132C7.46304 9.61733 7.44521 9.71883 7.40406 9.80525C7.3876 9.84091 7.36977 9.88069 7.36291 9.8944C7.35606 9.91224 7.36566 9.93281 7.39995 9.97122L7.44796 10.0247L7.40681 10.1111C7.36429 10.203 7.35331 10.2936 7.38075 10.3443C7.39995 10.3813 7.42052 10.3649 7.42052 10.3114C7.42052 10.2661 7.48362 10.1427 7.52203 10.1111C7.55083 10.0878 7.57826 10.1043 7.84848 10.3059C8.04737 10.454 8.1475 10.5446 8.1475 10.5775C8.1475 10.5857 8.15298 10.5871 8.16121 10.583C8.18865 10.5665 8.24626 10.3498 8.249 10.2538C8.25174 10.118 8.22294 10.0713 8.07069 9.95476C7.88826 9.81622 7.8183 9.7545 7.8183 9.73118C7.8183 9.7202 7.83339 9.68729 7.85259 9.65985C7.89237 9.60224 7.89649 9.55012 7.86494 9.53778C7.84985 9.53229 7.82242 9.55149 7.77852 9.60224L7.71268 9.67631L7.66605 9.64751C7.63999 9.63105 7.60432 9.60224 7.58649 9.58304L7.55357 9.54875L7.61118 9.48428C7.67702 9.41021 7.70583 9.33066 7.68662 9.27716C7.66879 9.22641 7.6441 9.22367 7.63313 9.27167ZM7.80733 9.94104C8.15984 10.2058 8.18042 10.2305 8.17767 10.3882C8.1763 10.4417 8.16944 10.4911 8.16121 10.4993C8.15161 10.5089 8.1475 10.5007 8.1475 10.4719C8.14613 10.4047 8.09949 10.3237 8.02268 10.2579C7.98153 10.2236 7.83613 10.1125 7.69897 10.0083C7.56043 9.90538 7.44796 9.81759 7.44796 9.81211C7.44796 9.77781 7.48225 9.701 7.49459 9.70786C7.50282 9.71335 7.6441 9.81759 7.80733 9.94104Z" fill="black"/>
<path d="M20.3143 9.38004C20.28 9.39376 20.2279 9.41708 20.1963 9.43354L20.1401 9.46372L20.0934 9.43217C20.0331 9.39102 19.9892 9.3773 19.9782 9.3965C19.9727 9.40473 19.9796 9.42394 19.9919 9.43765C20.0221 9.47194 20.0331 9.55973 20.0139 9.62008C20.0043 9.64614 19.9672 9.6969 19.9302 9.73119C19.8712 9.78742 19.8561 9.79428 19.8013 9.79428C19.7533 9.79428 19.7286 9.78605 19.6943 9.75588C19.5969 9.67221 19.542 9.65163 19.4926 9.68318C19.4776 9.69278 19.4844 9.7065 19.5269 9.74902C19.5557 9.77782 19.5996 9.82995 19.623 9.86424C19.6902 9.963 19.8013 9.99866 19.9069 9.95339C19.9316 9.94379 20.018 9.88481 20.0989 9.82309C20.1812 9.76274 20.2567 9.71198 20.2663 9.71198C20.2855 9.71198 20.3678 9.80526 20.3966 9.86287C20.413 9.89441 20.4103 9.8999 20.3362 9.96848C20.2923 10.0069 20.2224 10.0576 20.1798 10.0796L20.1017 10.118L20.0907 10.2058C20.0838 10.2579 20.0852 10.2977 20.0934 10.3059C20.1071 10.3196 20.3047 10.3704 20.3458 10.3704C20.3595 10.3704 20.3678 10.3649 20.3636 10.3594C20.3458 10.3292 20.5831 10.1495 20.6544 10.1386C20.6901 10.1317 20.7066 10.1221 20.7093 10.1029C20.7162 10.0659 20.7683 10.0124 20.8876 9.92185C20.9411 9.87933 20.9864 9.83818 20.9864 9.82857C20.9864 9.81897 20.9589 9.79703 20.9247 9.78057L20.8629 9.75039L20.8972 9.68729C20.9631 9.56385 20.9411 9.52955 20.7436 9.44726C20.5159 9.35124 20.4295 9.33752 20.3143 9.38004ZM20.5817 9.41845C20.6009 9.42668 20.5982 9.4308 20.5653 9.44451C20.5447 9.45411 20.4089 9.55287 20.2663 9.66398C19.9288 9.92733 19.9137 9.93693 19.8657 9.92459C19.8287 9.91636 19.7519 9.85464 19.7519 9.83543C19.7519 9.82995 19.7766 9.83269 19.8068 9.83955C19.8808 9.86012 19.9055 9.84641 20.184 9.62968C20.4597 9.41434 20.5063 9.38965 20.5817 9.41845ZM20.7326 9.47057C20.7738 9.4884 20.7806 9.49801 20.7806 9.53778C20.7806 9.59814 20.7532 9.63106 20.6188 9.7353L20.5077 9.82172L20.4555 9.75313C20.4117 9.69552 20.3966 9.68592 20.3554 9.68455L20.3074 9.68318L20.3554 9.64203C20.4391 9.56933 20.5735 9.47743 20.6119 9.46509C20.6682 9.44863 20.6805 9.44863 20.7326 9.47057ZM20.9301 9.81074L20.9727 9.82857L20.8355 9.93419C20.7601 9.99317 20.6928 10.0412 20.6874 10.0412C20.6723 10.0412 20.6133 9.96025 20.6188 9.94654C20.6215 9.93968 20.6668 9.8999 20.7189 9.85738C20.8204 9.77645 20.8382 9.77234 20.9301 9.81074ZM20.5557 10.0755C20.5763 10.1029 20.59 10.1262 20.5872 10.129C20.5324 10.1729 20.3307 10.3265 20.3184 10.3347C20.2909 10.3498 20.2457 10.3183 20.2457 10.2826C20.2457 10.2648 20.2567 10.2373 20.2704 10.2222C20.2978 10.1879 20.4953 10.0288 20.509 10.0275C20.5145 10.0275 20.5351 10.0494 20.5557 10.0755Z" fill="black"/>
<path d="M21.0824 9.92596C21.0824 9.96711 21.0755 10.0137 21.0686 10.0275C21.0604 10.0426 20.9164 10.1619 20.7463 10.2949C20.4336 10.5391 20.3828 10.5898 20.3828 10.6475C20.3828 10.69 20.3965 10.7092 20.4418 10.7256C20.509 10.7517 20.5337 10.7448 20.5337 10.7023C20.5337 10.6817 20.5433 10.6516 20.5543 10.6337C20.579 10.5994 21.0371 10.2401 21.1455 10.1701C21.2127 10.1262 21.2181 10.1207 21.2058 10.0878C21.1976 10.0686 21.1921 10.0206 21.1921 9.9822C21.1921 9.90265 21.1852 9.88756 21.1413 9.86424C21.0906 9.83818 21.0824 9.84504 21.0824 9.92596Z" fill="black"/>
<path d="M8.04494 10.6845C7.92698 10.7682 7.88994 10.8052 7.87897 10.8587C7.87348 10.8875 7.87897 10.9094 7.89817 10.9328L7.92423 10.9657L7.94755 10.9218C7.9599 10.8971 7.97499 10.8779 7.98047 10.8779C7.98733 10.8779 8.01751 10.856 8.04768 10.8299C8.10118 10.7846 8.15879 10.668 8.14507 10.631C8.14233 10.6241 8.09843 10.6475 8.04494 10.6845Z" fill="black"/>
<path d="M28.5728 14.0642C28.555 14.0862 28.5948 14.7432 28.6167 14.7693C28.6346 14.7926 28.7155 14.7912 28.7388 14.7679C28.7662 14.7418 28.8115 14.093 28.7896 14.0656C28.769 14.0396 28.5948 14.0396 28.5728 14.0642Z" fill="black"/>
<path d="M11.1816 14.0903C11.1582 14.1136 11.1582 15.8172 11.1816 15.8405C11.2049 15.8638 12.4147 15.8638 12.438 15.8405C12.4476 15.8309 12.4544 15.7802 12.4544 15.7061C12.4544 15.632 12.4476 15.5813 12.438 15.5717C12.4256 15.5593 12.3104 15.5552 12.0045 15.5552C11.7439 15.5552 11.578 15.5497 11.5615 15.5415C11.5368 15.5278 11.5354 15.5045 11.5354 14.8173C11.5354 14.2823 11.5313 14.1026 11.519 14.0903C11.508 14.0793 11.4504 14.0738 11.3503 14.0738C11.2501 14.0738 11.1925 14.0793 11.1816 14.0903Z" fill="black"/>
<path d="M15.873 14.0903C15.8496 14.1136 15.8496 15.8172 15.873 15.8405C15.8963 15.8638 17.1061 15.8638 17.1294 15.8405C17.139 15.8309 17.1458 15.7802 17.1458 15.7061C17.1458 15.632 17.139 15.5813 17.1294 15.5717C17.117 15.5593 17.0018 15.5552 16.6959 15.5552C16.4353 15.5552 16.2694 15.5497 16.2529 15.5415C16.2282 15.5278 16.2268 15.5045 16.2268 14.8173C16.2268 14.2823 16.2227 14.1026 16.2104 14.0903C16.1994 14.0793 16.1418 14.0738 16.0417 14.0738C15.9415 14.0738 15.8839 14.0793 15.873 14.0903Z" fill="black"/>
<path d="M24.4867 14.0903C24.4634 14.1136 24.4634 15.8309 24.4867 15.8542C24.5087 15.8762 24.7611 15.8762 24.783 15.8542C24.7953 15.8419 24.7995 15.6924 24.8008 15.2672C24.8008 14.9544 24.8063 14.687 24.8104 14.6732C24.82 14.6513 24.8255 14.654 24.8626 14.6938C24.8859 14.7185 25.082 14.9832 25.3001 15.2809C25.5168 15.5785 25.7061 15.8337 25.7212 15.846C25.7432 15.8666 25.7747 15.8707 25.8817 15.8707C25.9667 15.8707 26.0202 15.8652 26.0312 15.8542C26.0545 15.8309 26.0545 14.1136 26.0312 14.0903C26.0216 14.0807 25.9709 14.0738 25.8968 14.0738C25.8227 14.0738 25.772 14.0807 25.7624 14.0903C25.75 14.1026 25.7459 14.2357 25.7459 14.6033C25.7459 14.8762 25.7418 15.119 25.7377 15.1423L25.7281 15.1862L25.6952 15.1547C25.6759 15.1369 25.5004 14.8982 25.3029 14.6239C25.1067 14.3495 24.9353 14.1136 24.9202 14.0985C24.8982 14.0766 24.8722 14.0738 24.6993 14.0738C24.5649 14.0738 24.4977 14.0793 24.4867 14.0903Z" fill="black"/>
<path d="M1.01922 14.1026C0.994528 14.1273 0.993156 15.8296 1.01785 15.8542C1.04391 15.8803 1.94097 15.8762 2.05481 15.8501C2.34286 15.7815 2.48826 15.6142 2.48688 15.3495C2.48688 15.1629 2.4279 15.0559 2.27428 14.9558L2.17963 14.8955L2.25508 14.8324C2.36481 14.7432 2.39361 14.676 2.39361 14.5128C2.39361 14.3976 2.3895 14.3729 2.35521 14.3029C2.31131 14.2165 2.26331 14.1753 2.13848 14.1246C2.06716 14.0958 2.04384 14.0944 1.55005 14.0903C1.15227 14.0876 1.03156 14.0903 1.01922 14.1026ZM1.92725 14.4113C2.00132 14.4497 2.03287 14.5114 2.02601 14.606C2.02052 14.6897 1.9876 14.7418 1.91902 14.7761C1.87924 14.7967 1.83398 14.8008 1.6296 14.8008H1.38545V14.5868V14.3729L1.6296 14.3784C1.84221 14.3825 1.87924 14.3866 1.92725 14.4113ZM1.92725 15.0902C2.04658 15.1232 2.10008 15.1972 2.10145 15.3289C2.10282 15.4194 2.06853 15.4921 2.00406 15.5305C1.95743 15.5607 1.93822 15.5621 1.67075 15.5662L1.38545 15.5703V15.3234V15.0751H1.6296C1.76402 15.0751 1.89707 15.082 1.92725 15.0902Z" fill="black"/>
<path d="M6.62096 14.1109C6.58667 14.1493 5.82815 15.8323 5.83501 15.8529C5.84049 15.8666 5.8789 15.8707 5.98452 15.8707C6.10385 15.8707 6.13128 15.8666 6.14912 15.846C6.16146 15.8323 6.20261 15.7541 6.24239 15.6718C6.28079 15.5882 6.32194 15.51 6.33292 15.4963C6.35349 15.4757 6.39327 15.4729 6.80339 15.4729C7.21352 15.4729 7.25329 15.4757 7.27387 15.4963C7.28484 15.51 7.32325 15.5854 7.35891 15.665C7.4563 15.8872 7.43572 15.8707 7.61953 15.8707C7.71554 15.8707 7.77864 15.8652 7.78412 15.8556C7.7951 15.8405 7.04618 14.152 7.01188 14.1109C6.99405 14.0917 6.96525 14.0876 6.81711 14.0876C6.66897 14.0876 6.64017 14.0917 6.62096 14.1109ZM6.97211 14.7665L7.11613 15.1094L6.96662 15.1136C6.88432 15.1149 6.7499 15.1149 6.6676 15.1136L6.51809 15.1094L6.658 14.7871C6.73481 14.6102 6.80202 14.4524 6.80751 14.4387C6.81299 14.425 6.81985 14.4154 6.82397 14.4181C6.82671 14.4222 6.89392 14.5786 6.97211 14.7665Z" fill="black"/>
<path d="M20.5912 14.104C20.5679 14.1273 20.5679 15.8309 20.5912 15.8542C20.6022 15.8652 20.6598 15.8707 20.7599 15.8707C20.8601 15.8707 20.9177 15.8652 20.9286 15.8542C20.952 15.8309 20.952 14.1273 20.9286 14.104C20.9177 14.093 20.8601 14.0875 20.7599 14.0875C20.6598 14.0875 20.6022 14.093 20.5912 14.104Z" fill="black"/>
<path d="M20.2539 19.0557C20.247 19.0913 20.1922 19.1531 20.007 19.3341C19.7532 19.5838 19.7121 19.6414 19.6997 19.7676C19.6888 19.8855 19.7258 19.9555 19.745 19.8512C19.756 19.7854 19.8095 19.6935 19.852 19.6661C19.8849 19.6441 19.8863 19.6455 19.8945 19.6866C19.8986 19.71 19.9028 19.7511 19.9028 19.7799C19.9028 19.8499 19.948 19.9898 19.9988 20.0789C20.066 20.1941 20.2004 20.2792 20.3444 20.2956C20.6215 20.3286 20.9315 20.035 20.9315 19.7401C20.9315 19.6578 20.9095 19.5604 20.8917 19.5604C20.8862 19.5604 20.8766 19.6071 20.8725 19.6633C20.8684 19.7305 20.856 19.7813 20.8396 19.8087L20.8135 19.8499L20.7655 19.8169C20.7011 19.773 20.2731 19.4205 20.2361 19.3794L20.2045 19.3465L20.2553 19.2724C20.3101 19.1915 20.3293 19.0927 20.3019 19.0406C20.28 18.9994 20.2649 19.0049 20.2539 19.0557ZM20.4926 19.629C20.6585 19.7662 20.7943 19.8814 20.7943 19.8855C20.7943 19.9267 20.6037 20.1091 20.5611 20.1091C20.5557 20.1091 20.5474 20.0529 20.5419 19.9857C20.5365 19.9171 20.5296 19.8526 20.5241 19.8403C20.52 19.8293 20.4171 19.7388 20.2964 19.6386L20.077 19.4589L20.1236 19.4205C20.1483 19.4 20.1743 19.3821 20.1798 19.3821C20.1867 19.3821 20.3266 19.4932 20.4926 19.629ZM20.2073 19.7758C20.3389 19.8828 20.4569 19.9829 20.4706 19.998C20.4857 20.0145 20.4967 20.0487 20.498 20.0776L20.4994 20.1297L20.4144 20.1338C20.306 20.1393 20.2388 20.1201 20.1551 20.0638C20.066 20.0049 19.9905 19.902 19.9576 19.795C19.9206 19.677 19.922 19.5632 19.959 19.5769C19.9645 19.5796 20.077 19.6688 20.2073 19.7758Z" fill="black"/>
<path d="M8.02436 19.0461C8.02436 19.0502 8.0367 19.0762 8.05179 19.1037C8.09431 19.1832 8.08745 19.2354 8.02847 19.2998C7.94892 19.389 7.94617 19.389 7.78569 19.3341C7.70751 19.3081 7.63618 19.2861 7.62932 19.2861C7.62109 19.2861 7.61835 19.3355 7.62246 19.4192C7.62795 19.5426 7.62658 19.5591 7.5964 19.6153C7.5772 19.6496 7.54291 19.6907 7.51685 19.7086L7.47158 19.7387L7.40026 19.699C7.25623 19.618 7.05597 19.5838 7.19039 19.6633C7.25898 19.7031 7.35225 19.795 7.35225 19.821C7.35225 19.8348 7.30973 19.88 7.25623 19.9226C7.19176 19.9747 7.16022 20.0103 7.16022 20.0295C7.16022 20.0721 7.26446 20.2051 7.29875 20.2051C7.31384 20.2051 7.36734 20.1736 7.41672 20.1365C7.46747 20.0981 7.51822 20.0693 7.52919 20.0707C7.54154 20.0734 7.57994 20.1338 7.61561 20.2051C7.6787 20.3354 7.6787 20.3354 7.74591 20.3532C7.87348 20.3862 7.96538 20.3903 8.00653 20.3629C8.08608 20.3107 8.40842 20.0515 8.44134 20.0117C8.49072 19.9541 8.50992 19.8745 8.50718 19.7333C8.50444 19.5892 8.49621 19.5769 8.38099 19.5344C8.33572 19.5179 8.29046 19.4946 8.27811 19.4836C8.26577 19.4713 8.24794 19.4658 8.23559 19.4699C8.22462 19.474 8.19307 19.4685 8.16838 19.4589L8.12037 19.4384L8.15466 19.3794C8.2109 19.2806 8.19444 19.1668 8.11214 19.0927C8.07511 19.0584 8.02436 19.0323 8.02436 19.0461ZM8.15192 19.4823C8.19033 19.4987 8.18896 19.5001 7.75551 19.8403C7.51685 20.0282 7.3111 20.1818 7.30013 20.1832C7.29052 20.1832 7.27132 20.1708 7.26035 20.1544C7.24114 20.1269 7.25349 20.1146 7.66087 19.795C7.89268 19.6126 8.08882 19.4644 8.09705 19.4644C8.10666 19.4658 8.13135 19.4726 8.15192 19.4823ZM8.35355 19.5577C8.35355 19.5632 8.36041 19.6098 8.36727 19.6633C8.38647 19.7881 8.36727 19.8855 8.31378 19.9363C8.27537 19.9733 8.27537 19.9733 8.21776 19.95C8.12037 19.9116 8.02573 19.7703 8.04082 19.6839C8.04356 19.6702 8.08745 19.6249 8.13958 19.5838L8.23422 19.5083L8.2932 19.5289C8.32612 19.5399 8.35355 19.5536 8.35355 19.5577ZM8.01613 19.7717C8.04082 19.854 8.11489 19.9418 8.18621 19.9706C8.2109 19.9815 8.22873 19.9952 8.22599 20.0035C8.22462 20.0103 8.18484 20.0474 8.1382 20.083L8.05453 20.1502L8.03807 20.0803C8.01887 20.0007 7.964 19.9308 7.87622 19.8745L7.81861 19.8375L7.90365 19.7676C7.95166 19.7305 7.99144 19.699 7.99281 19.6976C7.99418 19.6976 8.00515 19.7305 8.01613 19.7717ZM7.87485 19.9157C7.94892 19.9623 7.99281 20.0268 8.00927 20.1146L8.02024 20.1777L7.91463 20.2586L7.80901 20.3409L7.77746 20.2312C7.761 20.1708 7.72534 20.0871 7.69928 20.0446C7.67459 20.0021 7.65538 19.9664 7.65675 19.9637C7.69242 19.9294 7.77335 19.8759 7.7898 19.8759C7.80352 19.8759 7.84193 19.8937 7.87485 19.9157Z" fill="black"/>
<path d="M9.6196 20.8635C9.56885 20.8841 9.58394 20.9047 9.64704 20.9047C9.71562 20.9047 9.80203 20.9417 9.84593 20.9897L9.87748 21.024L9.76363 21.0487C9.50576 21.1035 9.35899 21.216 9.2959 21.4039C9.21908 21.633 9.3535 21.8909 9.61549 22.0198C9.69779 22.0596 9.71562 22.0637 9.84181 22.0637C9.95429 22.0637 9.98721 22.0582 10.027 22.0363L10.075 22.0088L9.95154 22.0006C9.79106 21.9896 9.765 21.9814 9.77872 21.9416C9.79655 21.8977 10.1559 21.3532 10.1834 21.3312C10.2039 21.3134 10.2163 21.3161 10.2807 21.3491C10.374 21.3957 10.4399 21.4067 10.4933 21.3847C10.551 21.3614 10.5441 21.3381 10.4769 21.3203C10.4179 21.3038 10.3809 21.275 10.1559 21.0747C10.0215 20.9568 9.93508 20.8964 9.86102 20.8704C9.79792 20.8484 9.66761 20.8443 9.6196 20.8635ZM9.94194 21.0665C9.96663 21.083 9.59354 21.6453 9.54142 21.67C9.45364 21.7098 9.43718 21.6879 9.43718 21.5288C9.43718 21.4094 9.48655 21.2969 9.57571 21.2105C9.68133 21.1104 9.88433 21.0308 9.94194 21.0665ZM10.1587 21.3079C9.83221 21.8058 9.73482 21.9471 9.72248 21.9471C9.66624 21.9471 9.46598 21.7592 9.48655 21.7263C9.49067 21.7194 9.51399 21.7139 9.53868 21.7139C9.62098 21.7139 9.73071 21.6865 9.76088 21.6577C9.77734 21.6426 9.85416 21.5329 9.93234 21.4135L10.0736 21.1954L10.1257 21.238C10.1738 21.2764 10.1765 21.2819 10.1587 21.3079Z" fill="black"/>
<path d="M18.3296 20.9019C18.32 20.9088 18.2953 20.9527 18.2761 21.0021C18.2445 21.0802 18.191 21.1914 18.1814 21.2037C18.1787 21.2064 18.1472 21.1927 18.1115 21.1735C18.0361 21.1337 17.9757 21.1283 17.9099 21.1571C17.8564 21.179 17.7905 21.2394 17.7905 21.2654C17.7905 21.2819 17.8001 21.2819 17.8509 21.264C17.9373 21.2325 18.01 21.2572 18.0662 21.334C18.1142 21.3998 18.1129 21.4067 18.0429 21.5686C18.0168 21.6289 17.9963 21.6851 17.9963 21.6961C17.9963 21.7085 18.0196 21.714 18.0827 21.714C18.2391 21.714 18.3666 21.7716 18.4146 21.8648C18.4325 21.8991 18.4311 21.906 18.3858 21.9691C18.3378 22.0349 18.3255 22.0582 18.3063 22.1213C18.2898 22.1735 18.3241 22.1584 18.4078 22.0788C18.501 21.9897 18.5683 21.954 18.7068 21.9183C18.8193 21.8909 18.8604 21.8593 18.8604 21.8004C18.8604 21.7674 18.8577 21.7674 18.7754 21.7716L18.6903 21.7757L18.6396 21.7071C18.6108 21.6701 18.571 21.6097 18.5504 21.5727C18.5202 21.5178 18.5175 21.5 18.5285 21.4739C18.5518 21.4245 18.6355 21.404 18.7274 21.4245C18.7946 21.4396 18.844 21.4684 19.0278 21.6001C19.1347 21.6769 19.1855 21.6701 19.2088 21.5754C19.217 21.5384 19.2006 21.5219 19.1526 21.5219C19.1416 21.5219 19.084 21.4849 19.025 21.441C18.918 21.3614 18.7946 21.3025 18.7301 21.3025C18.6739 21.3025 18.6272 21.2778 18.6272 21.2476C18.6272 21.2325 18.6437 21.179 18.6643 21.1296C18.6903 21.0638 18.6958 21.0322 18.6862 21.0172C18.6794 21.0048 18.6025 20.9719 18.5175 20.9431C18.3433 20.8855 18.3529 20.8868 18.3296 20.9019ZM18.6272 21.142C18.6272 21.1516 18.5971 21.2284 18.5614 21.3134L18.4956 21.4684L18.3762 21.2887L18.2569 21.1104L18.2761 21.0624L18.2967 21.0158L18.4613 21.0706C18.5532 21.1022 18.6272 21.1337 18.6272 21.142ZM18.4544 21.4739C18.5669 21.644 18.656 21.7839 18.6533 21.7866C18.6506 21.7894 18.63 21.7976 18.6094 21.8072L18.571 21.8237L18.3858 21.5411C18.2034 21.264 18.2007 21.2586 18.2157 21.2119C18.224 21.1859 18.2363 21.1653 18.2404 21.1653C18.2459 21.1653 18.3419 21.3052 18.4544 21.4739Z" fill="black"/>
<path d="M11.7961 21.8237C11.7851 21.8305 11.7796 21.8388 11.7824 21.8401C11.7865 21.8429 11.8071 21.8566 11.8276 21.8703C11.9058 21.9197 11.9278 22.0706 11.8729 22.1789L11.8496 22.2215L11.7947 22.1927C11.7179 22.1542 11.7042 22.1652 11.7536 22.2269C11.8071 22.2942 11.8249 22.3573 11.8084 22.4203C11.7934 22.4738 11.7892 22.4752 11.7412 22.4478C11.6795 22.4121 11.6726 22.4231 11.7097 22.504C11.7426 22.5767 11.7481 22.659 11.7261 22.7413C11.7193 22.766 11.8057 22.8003 11.9936 22.8483C12.1733 22.8949 12.2844 22.8881 12.4133 22.8222C12.4847 22.7866 12.5135 22.7619 12.5519 22.7029C12.6067 22.6206 12.6548 22.4958 12.6685 22.397C12.6781 22.3216 12.6465 22.1981 12.5985 22.1241C12.5299 22.0185 12.3585 21.9746 12.1994 22.0226C12.0951 22.0541 12.0608 22.05 12.0499 22.0047C12.0361 21.943 11.9799 21.8703 11.9305 21.8484C11.8647 21.8182 11.8194 21.81 11.7961 21.8237ZM12.3722 22.0829C12.4312 22.1131 12.4915 22.2077 12.5039 22.2859C12.5121 22.3435 12.5121 22.3449 12.4641 22.3655C12.3626 22.408 12.2487 22.3847 12.1747 22.3065L12.1349 22.264L12.1582 22.1776C12.1706 22.1296 12.1843 22.0829 12.187 22.0733C12.1966 22.0473 12.3173 22.0527 12.3722 22.0829ZM12.1102 22.2173C12.0883 22.2996 12.0444 22.4629 12.0128 22.5808C11.9676 22.7578 11.9525 22.7976 11.9319 22.7976C11.8661 22.7976 11.8661 22.7976 11.9593 22.4437C12.0403 22.1419 12.054 22.1035 12.0841 22.0884C12.1486 22.0555 12.1514 22.0651 12.1102 22.2173ZM12.2721 22.4121C12.3406 22.4313 12.3694 22.4313 12.4463 22.408C12.5052 22.3902 12.5094 22.3902 12.5039 22.4107C12.5011 22.4245 12.4943 22.4588 12.4888 22.4889C12.4833 22.5191 12.4709 22.5644 12.46 22.5904L12.4408 22.6371L12.3955 22.5945C12.3173 22.5191 12.1952 22.4889 12.1061 22.5232C12.0787 22.5328 12.0704 22.5315 12.0704 22.5191C12.0704 22.5026 12.1006 22.3888 12.1198 22.3339C12.1239 22.3202 12.139 22.3271 12.1733 22.3559C12.1994 22.3792 12.2433 22.4053 12.2721 22.4121ZM12.3256 22.5849C12.4079 22.633 12.4243 22.6672 12.39 22.7139C12.3242 22.8017 12.2076 22.8469 12.0855 22.8318C12.043 22.8264 12.0046 22.8195 11.9991 22.8168C11.9909 22.8113 11.9964 22.7811 12.0375 22.6371C12.0595 22.5589 12.0649 22.5561 12.1925 22.552C12.2501 22.5507 12.2803 22.5589 12.3256 22.5849Z" fill="black"/>
<path d="M16.4052 21.9197C16.3723 21.9444 16.3668 21.9444 16.2818 21.9252C16.0541 21.8703 15.8195 21.9636 15.7084 22.1501C15.6769 22.2063 15.6714 22.2297 15.6714 22.3243C15.6714 22.4779 15.7153 22.5589 15.847 22.6425C15.9539 22.7125 15.9567 22.7207 15.9046 22.8579C15.8566 22.9868 15.8566 22.9896 15.943 22.98C15.9924 22.9758 16.05 22.9827 16.1295 23.0033C16.194 23.0197 16.2585 23.0293 16.2735 23.0252C16.29 23.0211 16.3353 22.9758 16.375 22.9237C16.4738 22.7934 16.5136 22.7577 16.5287 22.7838C16.5698 22.8565 16.6096 22.9018 16.6439 22.9141C16.6796 22.9265 16.6864 22.9223 16.7221 22.8798C16.7715 22.8222 16.7715 22.8003 16.7276 22.7838C16.707 22.7756 16.6837 22.7509 16.6727 22.7262C16.6274 22.6165 16.4573 22.0061 16.4573 21.9526C16.4573 21.8854 16.4546 21.8826 16.4052 21.9197ZM16.1954 22.0486C16.1981 22.05 16.1926 22.0705 16.1844 22.0939C16.172 22.1336 16.1652 22.1364 16.0911 22.1419C15.9759 22.1501 15.8977 22.2201 15.8977 22.3161C15.8977 22.3696 15.9114 22.3696 15.9457 22.3133C15.9704 22.2736 15.9814 22.2694 16.0472 22.2653C16.1131 22.2612 16.1199 22.264 16.1103 22.2859C16.1048 22.2996 16.0705 22.3901 16.0321 22.4889C15.9951 22.5863 15.9622 22.67 15.9594 22.6713C15.9567 22.6741 15.9224 22.659 15.8826 22.637C15.7523 22.5671 15.6892 22.4409 15.7208 22.3133C15.7496 22.1926 15.8895 22.0719 16.0349 22.0417C16.0774 22.0321 16.1844 22.0376 16.1954 22.0486ZM16.2941 22.0802C16.327 22.1076 16.4409 22.4656 16.4231 22.4834C16.4093 22.4944 16.0445 22.5931 16.039 22.5863C16.0349 22.5822 16.2214 22.0925 16.2365 22.0664C16.2461 22.0513 16.2626 22.0555 16.2941 22.0802ZM16.4848 22.6453C16.5081 22.7207 16.5081 22.7221 16.4368 22.8112C16.3874 22.873 16.3627 22.8935 16.3366 22.8935C16.2873 22.8922 15.9512 22.8414 15.943 22.8332C15.9389 22.8291 15.9471 22.803 15.9608 22.7742L15.9869 22.7235L16.22 22.659C16.349 22.6233 16.4573 22.5945 16.4615 22.5931C16.4656 22.5918 16.4765 22.6151 16.4848 22.6453Z" fill="black"/>
<path d="M11.4258 23.0444C11.4258 23.0499 11.4422 23.0746 11.4614 23.0979C11.5026 23.1473 11.6219 23.1885 11.6905 23.1761C11.8318 23.1501 12.0156 23.1048 12.0156 23.0966C12.0156 23.0746 11.9374 23.0678 11.7975 23.0787C11.5904 23.0952 11.5273 23.0911 11.4724 23.0595C11.4477 23.0444 11.4258 23.0376 11.4258 23.0444Z" fill="black"/>
</svg>
