<svg width="15" height="4" viewBox="0 0 15 4" fill="none" xmlns="http://www.w3.org/2000/svg">
<path d="M0 1.5625C0 0.703125 0.703125 0 1.5625 0C2.42188 0 3.125 0.703125 3.125 1.5625C3.125 2.42188 2.42188 3.125 1.5625 3.125C0.703125 3.125 0 2.42188 0 1.5625ZM7.03125 3.125C7.89062 3.125 8.59375 2.42188 8.59375 1.5625C8.59375 0.703125 7.89062 0 7.03125 0C6.17188 0 5.46875 0.703125 5.46875 1.5625C5.46875 2.42188 6.17188 3.125 7.03125 3.125ZM12.5 3.125C13.3594 3.125 14.0625 2.42188 14.0625 1.5625C14.0625 0.703125 13.3594 0 12.5 0C11.6406 0 10.9375 0.703125 10.9375 1.5625C10.9375 2.42188 11.6406 3.125 12.5 3.125Z" fill="white"/>
</svg>
