<svg width="24" height="21" viewBox="0 0 24 21" fill="none" xmlns="http://www.w3.org/2000/svg">
<path fill-rule="evenodd" clip-rule="evenodd" d="M16.875 0H15.1875V4.9826H16.875V0ZM13.5 1.66077H15.1875V6.64337H13.5V1.66077ZM1.68748 4.98247H0V8.30421H1.68748V4.98247ZM5.06344 6.64355H3.37596V8.30444V9.96529V9.96531H10.1259V8.30444H10.1249V6.64343H6.74999V8.30444H5.06344V6.64355Z" fill="#FF0000"/>
<path fill-rule="evenodd" clip-rule="evenodd" d="M16.875 8H15.1875V12.9826H16.875V8ZM1.68748 9.66087H0V12.9826H1.68748V9.66087ZM5.06344 11.3218H3.37596V12.9827V14.6435V14.6435H10.1259V12.9827H10.1249V11.3218H6.74999V12.9827H5.06344V11.3218ZM13.5 9.66089H15.1875V14.6435H13.5V9.66089Z" fill="#0000FF"/>
<path fill-rule="evenodd" clip-rule="evenodd" d="M0 0H1.68748V3.32174H0V0ZM0 14.9479H1.68748V18.2696H0V14.9479ZM5.0615 16.6086H3.37402V19.9304H5.0615V16.6086ZM11.8124 18.2696H15.1874V16.9778H21.5623V14.9477H21.9374V13.2869H15.1875V14.2097H13.499V9.96517H15.1875V8.67329H20.6249V8.30416H21.9375V4.98242H18.5625V6.82788H18.5625V4.98242H15.1875V6.82788H15.1875V6.64343H13.499V3.32163H13.4999V1.66077H13.499V0H10.124V1.66077H6.75V3.32153H5.0615V1.66064H3.37402V3.32153V4.98238V4.9824H10.124V16.6088H6.75V18.2694H5.0625V19.9303H11.8124V18.2696Z" fill="black"/>
<path d="M15 2H21.0961V9H15V2Z" fill="#00FF00"/>
<path d="M14 10H20.0961V19H14V10Z" fill="#FFFF00"/>
<path d="M21.1413 2.27012V0H11V20.2995H21.1413V18.0623H23.1874V11.2848H21.1413V9.04759H23.1874V2.27012H21.1413ZM19.1249 18.0623H15.0624V11.2848H19.1249V18.0623ZM15.0624 9.04759V2.27012H19.1249V9.04759H15.0624Z" fill="black"/>
</svg>
