<svg width="34" height="34" viewBox="0 0 34 34" fill="none" xmlns="http://www.w3.org/2000/svg">
<path d="M2.50007 13C1.70024 14.2001 0.833359 19.6667 1.00003 22.5L2.99995 23.5L5.99995 24L7.49995 26L11.4999 28.5L14.4999 29L17 28.5L19.5 26.5L24.5 24L26 24.5L28 25L31 25.5L33.4999 25L30.5 23L27 20L26.5 17L25.5 15L24.5 12.5L23 10.5L20 8L16.4999 7L14.4999 6.5L13.9999 5.5L12.9999 5H12.4999L11.4999 5.5V6.5L10.4999 7L7.49995 7.5L4.99995 9C4.50155 9.99684 3.50607 11.4905 2.50953 12.9858L2.50007 13Z" fill="#00A1C5"/>
<path d="M12.46 4.75354C11.8824 4.95686 11.3771 5.42946 11.1867 5.9415L11.0817 6.21078L10.281 6.36174C8.91588 6.6113 7.87208 6.95232 6.82182 7.49734C3.44834 9.2429 1.30192 12.7021 0.5801 17.559C0.3897 18.8584 0.29144 20.8672 0.36352 21.9106C0.4424 22.9347 0.41588 22.8953 1.37434 23.394C2.31954 23.8864 3.35008 24.1424 4.78726 24.2539C5.32548 24.2998 5.35846 24.3063 5.4829 24.5031C5.73892 24.8904 6.73002 25.9604 7.25498 26.4064C9.19774 28.067 11.3112 29.0255 13.5953 29.2682C14.9145 29.4127 15.6367 29.3206 16.7655 28.8745C17.8484 28.4413 19.0693 27.6865 20.1457 26.7808C21.2025 25.8883 23.8409 24.4769 24.4318 24.4834C24.6286 24.4899 25.6527 24.805 26.5782 25.1593C28.1208 25.7434 30.5885 25.9403 32.4854 25.6319C33.5159 25.4612 33.7325 25.3433 33.6403 24.9757C33.5944 24.805 32.9644 24.2406 32.3344 23.8139C31.9077 23.5253 27.5758 20.3745 27.4707 20.2762C27.4377 20.2501 27.3721 19.9087 27.3262 19.515C26.8866 16.0429 25.6656 12.9645 23.8344 10.6937C23.2829 10.011 22.2656 9.05284 21.5176 8.51462C19.9951 7.42492 17.7698 6.57152 15.7485 6.30258C14.9148 6.19106 14.9084 6.19106 14.8625 5.9942C14.7574 5.52806 14.0747 4.87832 13.5171 4.72736C13.2016 4.64202 12.7422 4.64848 12.46 4.75354ZM13.5691 5.60694C13.7595 5.70554 14.0812 6.02038 14.0353 6.06628C14.022 6.07954 13.5562 6.10572 13.0112 6.11864C12.2958 6.13836 12.0068 6.1251 12.0068 6.07274C12.0068 5.9874 12.3023 5.69874 12.4991 5.59368C12.6899 5.48862 13.3593 5.49508 13.5691 5.60694ZM15.4072 7.24098C16.6672 7.7333 17.9997 8.50102 18.9778 9.30206C19.6014 9.8141 20.7696 11.0415 21.2161 11.6651C22.5353 13.516 23.4016 15.7474 23.7888 18.3073C23.8412 18.6748 23.8874 19.0754 23.8874 19.1998V19.4296H23.0867C20.619 19.4296 17.4094 20.2042 13.9962 21.622C13.3529 21.8909 12.4866 22.2125 12.0731 22.3441C11.1476 22.6328 9.53298 23.0268 9.0801 23.0792L8.7452 23.1186L8.6007 22.5937C8.10192 20.7359 7.97068 19.7251 7.97714 17.6902C7.97714 16.2595 8.00332 15.8328 8.12164 15.0385C8.61396 11.8816 9.7363 9.45948 11.5611 7.5956L12.2044 6.9394L13.4974 6.97238L14.7969 7.00502L15.4072 7.24098ZM10.7536 7.20188C10.7012 7.2675 10.504 7.51026 10.3072 7.7401C7.38656 11.2251 6.32984 17.2111 7.7014 22.4488C7.78674 22.7902 7.88534 23.1183 7.90472 23.1775C7.96388 23.3284 7.72758 23.3546 6.06702 23.4073C4.07836 23.4665 3.10018 23.3087 1.91222 22.7378C1.4658 22.5213 1.28866 22.3965 1.24276 22.2785C1.15742 22.0619 1.15742 20.0076 1.24276 19.0359C1.7548 13.0764 4.35376 9.09874 8.71868 7.61532C9.21746 7.44464 10.4976 7.123 10.7862 7.09682C10.8192 7.09002 10.7995 7.14272 10.7536 7.20188ZM18.8333 7.98286C20.9862 8.85564 22.962 10.5754 24.2417 12.6759C24.9965 13.9295 25.6004 15.4261 26.0203 17.0996C26.2763 18.1237 26.5649 19.7316 26.5061 19.7843C26.4929 19.7975 26.2698 19.7581 26.0073 19.6925C25.7449 19.6204 25.3576 19.548 25.1475 19.5218L24.7602 19.482L24.6813 18.7799C24.5566 17.6837 24.2417 16.22 23.9136 15.2422C23.5658 14.1855 22.7518 12.4855 22.1939 11.6518C21.3211 10.3455 20.0543 9.0066 18.9384 8.21916C18.6168 7.99612 18.3675 7.81218 18.3873 7.81218C18.4066 7.81218 18.6035 7.89106 18.8333 7.98286ZM24.5107 20.2827C25.3443 20.3616 26.1845 20.5452 26.5915 20.742C26.7489 20.8141 27.1691 21.0899 27.5299 21.3591C27.8909 21.6216 28.488 22.0616 28.8623 22.337L29.545 22.8293L28.7641 22.7967C27.4908 22.7375 26.0794 22.9806 24.511 23.5185C22.6733 24.1485 20.888 25.1134 19.5688 26.1766C18.1839 27.2989 16.8579 28.067 15.7815 28.3621C15.3154 28.4869 15.1515 28.4998 14.3375 28.4672C13.8319 28.4475 13.1693 28.3818 12.8606 28.3227C10.6421 27.8831 8.51536 26.6621 6.89424 24.89C6.6185 24.5946 6.389 24.3188 6.37574 24.2862C6.36248 24.2468 6.50052 24.2206 6.68412 24.2206C6.86126 24.2206 7.36004 24.1747 7.78674 24.122C10.1627 23.8136 12.3747 23.2098 14.6653 22.2581C18.2887 20.7424 21.8393 20.0335 24.5107 20.2827ZM30.221 23.8207C31.0744 24.057 32.282 24.7068 32.144 24.8513C32.1114 24.8775 31.5663 24.9104 30.9231 24.9302C29.1313 24.9761 28.0416 24.8122 26.5911 24.274C26.0662 24.0836 25.8758 23.9853 25.9478 23.9459C26.0002 23.9132 26.3613 23.8343 26.755 23.7623C27.7464 23.5844 29.4532 23.6106 30.221 23.8207Z" fill="black"/>
</svg>
