<svg width="34" height="34" viewBox="0 0 34 34" fill="none" xmlns="http://www.w3.org/2000/svg">
<mask id="path-1-inside-1_227_34797" fill="white">
<path d="M8.31534 27.4473H4.51337C4.26215 27.45 4.01924 27.3574 3.83366 27.188C3.64808 27.0187 3.53365 26.7852 3.51345 26.5348L2.8291 18.0374L5.26996 9.90881C5.33292 9.68628 5.47484 9.49434 5.66916 9.36894L9.67265 7.34629L17 9.99999L17.1549 9.93162L24.2912 7.34629L28.3023 9.37653C28.4887 9.50266 28.6236 9.69156 28.6825 9.90881L31.1195 18.0298L30.4542 26.5272C30.434 26.7776 30.3196 27.0111 30.134 27.1804C29.9484 27.3498 29.7055 27.4424 29.4543 27.4397H25.6409"/>
</mask>
<path d="M8.31534 27.4473H4.51337C4.26215 27.45 4.01924 27.3574 3.83366 27.188C3.64808 27.0187 3.53365 26.7852 3.51345 26.5348L2.8291 18.0374L5.26996 9.90881C5.33292 9.68628 5.47484 9.49434 5.66916 9.36894L9.67265 7.34629L17 9.99999L17.1549 9.93162L24.2912 7.34629L28.3023 9.37653C28.4887 9.50266 28.6236 9.69156 28.6825 9.90881L31.1195 18.0298L30.4542 26.5272C30.434 26.7776 30.3196 27.0111 30.134 27.1804C29.9484 27.3498 29.7055 27.4424 29.4543 27.4397H25.6409" fill="#00A1C5"/>
<path d="M4.51337 27.4473V26.4472L4.50247 26.4474L4.51337 27.4473ZM3.51345 26.5348L2.51668 26.6151L2.51669 26.6152L3.51345 26.5348ZM2.8291 18.0374L1.87135 17.7498L1.81722 17.9301L1.83233 18.1177L2.8291 18.0374ZM5.26996 9.90881L6.22771 10.1964L6.23001 10.1887L6.23219 10.181L5.26996 9.90881ZM5.66916 9.36894L5.21822 8.47639L5.1712 8.50014L5.12693 8.52871L5.66916 9.36894ZM9.67265 7.34629L10.0132 6.40605L9.60714 6.25901L9.22171 6.45374L9.67265 7.34629ZM17 9.99999L16.6595 10.9402L17.0367 11.0768L17.4037 10.9149L17 9.99999ZM17.1549 9.93162L16.8143 8.99142L16.7823 9.00301L16.7512 9.01675L17.1549 9.93162ZM24.2912 7.34629L24.7428 6.45407L24.3571 6.25883L23.9506 6.40609L24.2912 7.34629ZM28.3023 9.37653L28.8627 8.54828L28.8103 8.51286L28.7539 8.48431L28.3023 9.37653ZM28.6825 9.90881L27.7173 10.1703L27.7208 10.1833L27.7247 10.1962L28.6825 9.90881ZM31.1195 18.0298L32.1165 18.1079L32.1311 17.9215L32.0773 17.7424L31.1195 18.0298ZM30.4542 26.5272L31.451 26.6076L31.4511 26.6053L30.4542 26.5272ZM29.4543 27.4397L29.4652 26.4397H29.4543V27.4397ZM8.31534 26.4473H4.51337V28.4473H8.31534V26.4473ZM4.50247 26.4474C4.50444 26.4473 4.50631 26.4481 4.50773 26.4494L3.15959 27.9267C3.53217 28.2667 4.01986 28.4527 4.52427 28.4472L4.50247 26.4474ZM4.50773 26.4494C4.50917 26.4507 4.51006 26.4525 4.51021 26.4544L2.51669 26.6152C2.55724 27.118 2.78699 27.5867 3.15959 27.9267L4.50773 26.4494ZM4.51022 26.4545L3.82587 17.9571L1.83233 18.1177L2.51668 26.6151L4.51022 26.4545ZM3.78685 18.325L6.22771 10.1964L4.31221 9.62122L1.87135 17.7498L3.78685 18.325ZM6.23219 10.181C6.22891 10.1926 6.22151 10.2026 6.21139 10.2092L5.12693 8.52871C4.72817 8.78605 4.43692 9.17993 4.30773 9.63659L6.23219 10.181ZM6.1201 10.2615L10.1236 8.23885L9.22171 6.45374L5.21822 8.47639L6.1201 10.2615ZM9.33213 8.28653L16.6595 10.9402L17.3405 9.05976L10.0132 6.40605L9.33213 8.28653ZM17.4037 10.9149L17.5587 10.8465L16.7512 9.01675L16.5963 9.08512L17.4037 10.9149ZM17.4955 10.8718L24.6318 8.28649L23.9506 6.40609L16.8143 8.99142L17.4955 10.8718ZM23.8396 8.23851L27.8507 10.2687L28.7539 8.48431L24.7428 6.45407L23.8396 8.23851ZM27.7419 10.2048C27.7298 10.1966 27.7211 10.1843 27.7173 10.1703L29.6477 9.64737C29.5262 9.19878 29.2476 8.80873 28.8627 8.54828L27.7419 10.2048ZM27.7247 10.1962L30.1617 18.3172L32.0773 17.7424L29.6403 9.62138L27.7247 10.1962ZM30.1226 17.9518L29.4572 26.4492L31.4511 26.6053L32.1165 18.1079L30.1226 17.9518ZM29.4574 26.4468C29.4576 26.4449 29.4585 26.4431 29.4599 26.4418L30.8081 27.9191C31.1807 27.5791 31.4104 27.1104 31.451 26.6076L29.4574 26.4468ZM29.4599 26.4418C29.4614 26.4404 29.4633 26.4397 29.4652 26.4397L29.4434 28.4396C29.9478 28.4451 30.4354 28.2591 30.8081 27.9191L29.4599 26.4418ZM29.4543 26.4397H25.6409V28.4397H29.4543V26.4397Z" fill="black" mask="url(#path-1-inside-1_227_34797)"/>
<path d="M21 10V15" stroke="black" stroke-miterlimit="10" stroke-linecap="round"/>
<path d="M22.9717 30.0069L22.9436 30.0084L22.9158 30.013C21.0233 30.3284 19.1046 30.4914 17.1815 30.5H16.8214C15.8625 30.5 14.9015 30.4525 13.9458 30.3718C12.9923 30.2913 12.0355 30.1706 11.0874 30.0062L11.0569 30.0009L11.026 29.9994C10.3347 29.9661 9.69059 29.6895 9.22347 29.2366C8.75782 28.7852 8.50363 28.1942 8.5 27.5868V24.4695C8.95888 24.4276 9.4102 24.3247 9.83998 24.1631C10.4261 23.9426 10.9619 23.6166 11.416 23.202C11.8701 22.7873 12.2338 22.2918 12.4842 21.7427C12.6651 21.346 12.7841 20.9275 12.8378 20.5H21.165C21.2176 20.9277 21.3355 21.3465 21.5156 21.7437C21.765 22.2939 22.1281 22.7904 22.5821 23.2061C23.036 23.6217 23.572 23.9485 24.1585 24.1696C24.5887 24.3318 25.0406 24.4349 25.5 24.4769V27.5955C25.5 27.5956 25.5 27.5956 25.5 27.5957C25.4998 28.1996 25.2486 28.7883 24.7854 29.2374C24.314 29.6918 23.6668 29.9704 22.9717 30.0069Z" fill="#00A1C5" stroke="black"/>
<path d="M13 10V15" stroke="black" stroke-miterlimit="10" stroke-linecap="round"/>
<path d="M16.9946 4.5005L16.9946 4.50054L17.001 4.5005C20.808 4.47901 22.358 5.53883 22.9975 6.44201C23.3244 6.90366 23.4446 7.3648 23.4836 7.71059C23.4952 7.81401 23.4995 7.9065 23.5 7.98469L16.9698 10.4649L10.5 7.98569C10.5004 7.90685 10.5046 7.81341 10.5164 7.70886C10.5554 7.36201 10.6756 6.89981 11.0023 6.43753C11.6413 5.53347 13.1899 4.47364 16.9946 4.5005ZM23.484 8.25192L23.484 8.25188L23.484 8.25192Z" fill="#00A1C5" stroke="black"/>
</svg>
