<svg width="34" height="34" viewBox="0 0 34 34" fill="none" xmlns="http://www.w3.org/2000/svg">
<path d="M26.0477 24.8476H29.4818C29.7374 24.8474 29.9836 24.7509 30.1712 24.5773C30.3589 24.4038 30.4743 24.1659 30.4944 23.911L31.1668 15.2017L28.6973 6.87662C28.6358 6.64875 28.4936 6.45101 28.2971 6.32027L21.7811 2.97022C21.6193 2.87368 21.433 2.82639 21.2448 2.83414H12.7596C12.5735 2.83538 12.3917 2.88953 12.2352 2.99024L5.71926 6.34029C5.52117 6.46938 5.37843 6.66778 5.31901 6.89663L2.8335 15.2097L3.50191 23.919C3.52294 24.1735 3.63859 24.4109 3.82606 24.5843C4.01352 24.7577 4.25918 24.8545 4.51453 24.8556H7.97664" fill="#00A1C5"/>
<path d="M26.0477 24.8476H29.4818C29.7374 24.8474 29.9836 24.7509 30.1712 24.5773C30.3589 24.4038 30.4743 24.1659 30.4944 23.911L31.1668 15.2017L28.6973 6.87662C28.6358 6.64875 28.4936 6.45101 28.2971 6.32027L21.7811 2.97022C21.6193 2.87368 21.433 2.82639 21.2448 2.83414H12.7596C12.5735 2.83538 12.3917 2.88953 12.2352 2.99024L5.71926 6.34029C5.52117 6.46938 5.37843 6.66778 5.31901 6.89662L2.8335 15.2097L3.50191 23.919C3.52294 24.1735 3.63859 24.4109 3.82606 24.5843C4.01352 24.7577 4.25918 24.8545 4.51453 24.8556H7.97664" stroke="black" stroke-miterlimit="10"/>
<path d="M20.7324 2.83405C20.7324 3.82445 20.3389 4.77428 19.6386 5.4746C18.9383 6.17491 17.9885 6.56833 16.9981 6.56833C16.0077 6.56833 15.0579 6.17491 14.3575 5.4746C13.6572 4.77428 13.2638 3.82445 13.2638 2.83405" fill="#00A1C5"/>
<path d="M20.7324 2.83405C20.7324 3.82445 20.3389 4.77428 19.6386 5.4746C18.9383 6.17491 17.9885 6.56833 16.9981 6.56833C16.0077 6.56833 15.0579 6.17491 14.3575 5.4746C13.6572 4.77428 13.2638 3.82445 13.2638 2.83405" stroke="black" stroke-miterlimit="10"/>
<path d="M7.96033 14.4413V26.4766C7.95892 27.2942 8.27032 28.0814 8.8307 28.6767C9.39108 29.2721 10.158 29.6305 10.9742 29.6786C12.9023 30.0314 14.8577 30.2135 16.8178 30.2229H17.178C19.138 30.2135 21.0935 30.0314 23.0215 29.6786C23.8377 29.6305 24.6046 29.2721 25.165 28.6767C25.7254 28.0814 26.0368 27.2942 26.0354 26.4766V14.4413" fill="#00A1C5"/>
<path d="M7.96033 14.4413V26.4766C7.95892 27.2942 8.27032 28.0814 8.8307 28.6767C9.39108 29.2721 10.158 29.6305 10.9742 29.6786C12.9023 30.0314 14.8577 30.2135 16.8178 30.2229H17.178C19.138 30.2135 21.0935 30.0314 23.0215 29.6786C23.8377 29.6305 24.6046 29.2721 25.165 28.6767C25.7254 28.0814 26.0368 27.2942 26.0354 26.4766V14.4413" stroke="black" stroke-miterlimit="10" stroke-linecap="round"/>
</svg>
