<svg width="34" height="34" viewBox="0 0 34 34" fill="none" xmlns="http://www.w3.org/2000/svg">
<path d="M7.99983 17.353L3.56724 16.3185C3.44156 16.2886 3.32326 16.2335 3.2195 16.1565C3.11574 16.0795 3.02868 15.9823 2.96358 15.8707C2.89849 15.7591 2.85671 15.6355 2.84078 15.5072C2.82485 15.379 2.83511 15.2489 2.87092 15.1248L5.32595 6.84851C5.38502 6.62101 5.52692 6.42377 5.72385 6.29544L12.2016 2.96502C12.3585 2.87399 12.5376 2.82852 12.7189 2.83372H21.2777C21.4614 2.83483 21.641 2.88869 21.795 2.98891L28.2767 6.31931C28.4726 6.44875 28.6142 6.64554 28.6746 6.87239L31.1297 15.1487C31.1654 15.2731 31.1755 15.4035 31.1593 15.5319C31.1432 15.6603 31.101 15.7841 31.0355 15.8957C30.9701 16.0074 30.8825 16.1045 30.7783 16.1813C30.6741 16.2581 30.5554 16.3129 30.4294 16.3424L25.9769 17.3769" fill="#00A1C5"/>
<path d="M7.99983 17.353L3.56724 16.3185C3.44156 16.2886 3.32326 16.2335 3.2195 16.1565C3.11574 16.0795 3.02868 15.9823 2.96358 15.8707C2.89849 15.7591 2.85671 15.6355 2.84078 15.5072C2.82485 15.379 2.83511 15.2489 2.87092 15.1248L5.32595 6.84851C5.38502 6.62101 5.52692 6.42377 5.72385 6.29544L12.2016 2.96502C12.3585 2.87399 12.5376 2.82852 12.7189 2.83372H21.2777C21.4614 2.83483 21.641 2.88869 21.795 2.98891L28.2767 6.31931C28.4726 6.44875 28.6142 6.64554 28.6746 6.87239L31.1297 15.1487C31.1654 15.2731 31.1755 15.4035 31.1593 15.5319C31.1432 15.6603 31.101 15.7841 31.0355 15.8957C30.9701 16.0074 30.8825 16.1045 30.7783 16.1813C30.6741 16.2581 30.5554 16.3129 30.4294 16.3424L25.9769 17.3769" stroke="#111111" stroke-miterlimit="10"/>
<path d="M7.99988 14.3727V26.3375C7.99854 27.151 8.30867 27.9341 8.8666 28.5261C9.42453 29.118 10.1879 29.4739 11 29.5207C12.9154 29.8717 14.8581 30.0527 16.8054 30.0619H17.1675C19.1155 30.0434 21.0582 29.853 22.9728 29.4929C23.7842 29.4451 24.5466 29.0888 25.1037 28.4969C25.6608 27.905 25.9704 27.1225 25.969 26.3097V14.3727" fill="#00A1C5"/>
<path d="M7.99988 14.3727V26.3375C7.99854 27.151 8.30867 27.9341 8.8666 28.5261C9.42453 29.118 10.1879 29.4739 11 29.5207C12.9154 29.8717 14.8581 30.0527 16.8054 30.0619H17.1675C19.1155 30.0434 21.0582 29.853 22.9728 29.4929C23.7842 29.4451 24.5466 29.0888 25.1037 28.4969C25.6608 27.905 25.9704 27.1225 25.969 26.3097V14.3727" stroke="#111111" stroke-miterlimit="10" stroke-linecap="round"/>
<path d="M20.7009 2.83375C20.7172 3.33176 20.6332 3.82796 20.4539 4.29285C20.2745 4.75774 20.0035 5.18181 19.657 5.53986C19.3105 5.89792 18.8955 6.18263 18.4367 6.37707C17.978 6.57151 17.4848 6.6717 16.9865 6.6717C16.4882 6.6717 15.995 6.57151 15.5363 6.37707C15.0775 6.18263 14.6625 5.89792 14.316 5.53986C13.9695 5.18181 13.6985 4.75774 13.5192 4.29285C13.3398 3.82796 13.2558 3.33176 13.2721 2.83375" fill="#00A1C5"/>
<path d="M20.7009 2.83375C20.7172 3.33176 20.6332 3.82796 20.4539 4.29285C20.2745 4.75774 20.0035 5.18181 19.657 5.53986C19.3105 5.89792 18.8955 6.18263 18.4367 6.37707C17.978 6.57151 17.4848 6.6717 16.9865 6.6717C16.4882 6.6717 15.995 6.57151 15.5363 6.37707C15.0775 6.18263 14.6625 5.89792 14.316 5.53986C13.9695 5.18181 13.6985 4.75774 13.5192 4.29285C13.3398 3.82796 13.2558 3.33176 13.2721 2.83375" stroke="#111111" stroke-miterlimit="10"/>
</svg>
