<svg width="34" height="34" viewBox="0 0 34 34" fill="none" xmlns="http://www.w3.org/2000/svg">
<path d="M7.1875 9.5C7.1875 8.94772 6.73978 8.5 6.1875 8.5H5.125C4.82663 8.5 4.54048 8.38147 4.3295 8.1705C4.11853 7.95952 4 7.67337 4 7.375V5.25C4 4.95163 4.11853 4.66548 4.3295 4.4545C4.54048 4.24353 4.82663 4.125 5.125 4.125H12.5625C13.1148 4.125 13.5625 3.67728 13.5625 3.125C13.5625 2.82663 13.681 2.54048 13.892 2.3295C14.103 2.11853 14.3891 2 14.6875 2H18.9375C19.2359 2 19.522 2.11853 19.733 2.3295C19.944 2.54048 20.0625 2.82663 20.0625 3.125C20.0625 3.67728 20.5102 4.125 21.0625 4.125H28.5C28.7984 4.125 29.0845 4.24353 29.2955 4.4545C29.5065 4.66548 29.625 4.95163 29.625 5.25V7.375C29.625 7.67337 29.5065 7.95952 29.2955 8.1705C29.0845 8.38147 28.7984 8.5 28.5 8.5H27.4375C26.8852 8.5 26.4375 8.94772 26.4375 9.5V28.625C26.4375 29.487 26.0951 30.3136 25.4856 30.9231C24.8761 31.5326 24.0495 31.875 23.1875 31.875H10.4375C9.57555 31.875 8.7489 31.5326 8.1394 30.9231C7.52991 30.3136 7.1875 29.487 7.1875 28.625V9.5ZM12.9584 11.2291C12.5716 10.8423 12.047 10.625 11.5 10.625C10.953 10.625 10.4284 10.8423 10.0416 11.2291C9.6548 11.6159 9.4375 12.1405 9.4375 12.6875V27.5625C9.4375 28.1095 9.6548 28.6341 10.0416 29.0209C10.4284 29.4077 10.953 29.625 11.5 29.625C12.047 29.625 12.5716 29.4077 12.9584 29.0209C13.3452 28.6341 13.5625 28.1095 13.5625 27.5625V12.6875C13.5625 12.1405 13.3452 11.6159 12.9584 11.2291ZM18.2709 11.2291C17.8841 10.8423 17.3595 10.625 16.8125 10.625C16.2655 10.625 15.7409 10.8423 15.3541 11.2291C14.9673 11.6159 14.75 12.1405 14.75 12.6875V27.5625C14.75 28.1095 14.9673 28.6341 15.3541 29.0209C15.7409 29.4077 16.2655 29.625 16.8125 29.625C17.3595 29.625 17.8841 29.4077 18.2709 29.0209C18.6577 28.6341 18.875 28.1095 18.875 27.5625V12.6875C18.875 12.1405 18.6577 11.6159 18.2709 11.2291ZM24.1875 27.5625V12.6875C24.1875 12.1405 23.9702 11.6159 23.5834 11.2291C23.1966 10.8423 22.672 10.625 22.125 10.625C21.578 10.625 21.0534 10.8423 20.6666 11.2291C20.2798 11.6159 20.0625 12.1405 20.0625 12.6875V27.5625C20.0625 28.1095 20.2798 28.6341 20.6666 29.0209C21.0534 29.4077 21.578 29.625 22.125 29.625C22.672 29.625 23.1966 29.4077 23.5834 29.0209C23.9702 28.6341 24.1875 28.1095 24.1875 27.5625Z" stroke="#353535" stroke-width="2" stroke-linejoin="round"/>
</svg>
