<svg width="34" height="34" viewBox="0 0 34 34" fill="none" xmlns="http://www.w3.org/2000/svg">
<path d="M5.125 3.125C4.56141 3.125 4.02091 3.34888 3.6224 3.7474C3.22388 4.14591 3 4.68641 3 5.25V7.375C3 7.93859 3.22388 8.47909 3.6224 8.8776C4.02091 9.27612 4.56141 9.5 5.125 9.5H6.1875V28.625C6.1875 29.7522 6.63527 30.8332 7.4323 31.6302C8.22933 32.4272 9.31033 32.875 10.4375 32.875H23.1875C24.3147 32.875 25.3957 32.4272 26.1927 31.6302C26.9897 30.8332 27.4375 29.7522 27.4375 28.625V9.5H28.5C29.0636 9.5 29.6041 9.27612 30.0026 8.8776C30.4011 8.47909 30.625 7.93859 30.625 7.375V5.25C30.625 4.68641 30.4011 4.14591 30.0026 3.7474C29.6041 3.34888 29.0636 3.125 28.5 3.125H21.0625C21.0625 2.56141 20.8386 2.02091 20.4401 1.6224C20.0416 1.22388 19.5011 1 18.9375 1H14.6875C14.1239 1 13.5834 1.22388 13.1849 1.6224C12.7864 2.02091 12.5625 2.56141 12.5625 3.125H5.125ZM11.5 11.625C11.7818 11.625 12.052 11.7369 12.2513 11.9362C12.4506 12.1355 12.5625 12.4057 12.5625 12.6875V27.5625C12.5625 27.8443 12.4506 28.1145 12.2513 28.3138C12.052 28.5131 11.7818 28.625 11.5 28.625C11.2182 28.625 10.948 28.5131 10.7487 28.3138C10.5494 28.1145 10.4375 27.8443 10.4375 27.5625V12.6875C10.4375 12.4057 10.5494 12.1355 10.7487 11.9362C10.948 11.7369 11.2182 11.625 11.5 11.625ZM16.8125 11.625C17.0943 11.625 17.3645 11.7369 17.5638 11.9362C17.7631 12.1355 17.875 12.4057 17.875 12.6875V27.5625C17.875 27.8443 17.7631 28.1145 17.5638 28.3138C17.3645 28.5131 17.0943 28.625 16.8125 28.625C16.5307 28.625 16.2605 28.5131 16.0612 28.3138C15.8619 28.1145 15.75 27.8443 15.75 27.5625V12.6875C15.75 12.4057 15.8619 12.1355 16.0612 11.9362C16.2605 11.7369 16.5307 11.625 16.8125 11.625ZM23.1875 12.6875V27.5625C23.1875 27.8443 23.0756 28.1145 22.8763 28.3138C22.677 28.5131 22.4068 28.625 22.125 28.625C21.8432 28.625 21.573 28.5131 21.3737 28.3138C21.1744 28.1145 21.0625 27.8443 21.0625 27.5625V12.6875C21.0625 12.4057 21.1744 12.1355 21.3737 11.9362C21.573 11.7369 21.8432 11.625 22.125 11.625C22.4068 11.625 22.677 11.7369 22.8763 11.9362C23.0756 12.1355 23.1875 12.4057 23.1875 12.6875Z" fill="#353535"/>
</svg>
