<svg width="34" height="34" viewBox="0 0 34 34" fill="none" xmlns="http://www.w3.org/2000/svg">
<path fill-rule="evenodd" clip-rule="evenodd" d="M20.2285 3.04867C19.7044 2.83333 19.0385 2.83333 17.7083 2.83333C16.378 2.83333 15.7122 2.83333 15.188 3.04867C14.4903 3.33513 13.9348 3.887 13.6439 4.58292C13.5107 4.89883 13.4597 5.26858 13.4385 5.8055C13.429 6.19452 13.3205 6.57471 13.1232 6.9101C12.9259 7.2455 12.6462 7.52503 12.3108 7.72225C11.969 7.91223 11.5848 8.01287 11.1938 8.01485C10.8028 8.01684 10.4176 7.92009 10.0739 7.73358C9.59504 7.48142 9.24796 7.34258 8.90513 7.29725C8.15508 7.19877 7.39648 7.40038 6.79429 7.85825C6.34379 8.20108 6.01088 8.77342 5.34646 9.91667C4.68063 11.0599 4.34913 11.6308 4.27404 12.1904C4.17488 12.9356 4.37888 13.6892 4.84071 14.2857C5.05038 14.5577 5.34646 14.7858 5.80404 15.0719C6.47979 15.4927 6.91329 16.2095 6.91329 17C6.91329 17.7905 6.47979 18.5073 5.80546 18.9267C5.34646 19.2143 5.05038 19.4423 4.83929 19.7143C4.61133 20.0089 4.444 20.3458 4.34698 20.7054C4.24996 21.065 4.22517 21.4403 4.27404 21.8096C4.34913 22.3678 4.68063 22.9401 5.34646 24.0833C6.01229 25.2266 6.34379 25.7975 6.79429 26.1417C7.39496 26.5993 8.15429 26.8005 8.90513 26.7028C9.24796 26.6574 9.59504 26.5186 10.0739 26.2664C10.4177 26.0797 10.8032 25.9828 11.1945 25.9848C11.5858 25.9867 11.9703 26.0875 12.3122 26.2778C13.0007 26.6744 13.4087 27.404 13.4385 28.1945C13.4597 28.7328 13.5107 29.1012 13.6439 29.4171C13.9329 30.1112 14.4882 30.6637 15.188 30.9513C15.7122 31.1667 16.378 31.1667 17.7083 31.1667C19.0385 31.1667 19.7044 31.1667 20.2285 30.9513C20.9263 30.6649 21.4818 30.113 21.7727 29.4171C21.9059 29.1012 21.9569 28.7328 21.9781 28.1945C22.0065 27.404 22.4159 26.673 23.1058 26.2778C23.4476 26.0878 23.8318 25.9871 24.2228 25.9851C24.6138 25.9832 24.999 26.0799 25.3427 26.2664C25.8215 26.5186 26.1686 26.6574 26.5115 26.7028C27.2623 26.8019 28.0216 26.5993 28.6223 26.1417C29.0728 25.7989 29.4057 25.2266 30.0701 24.0833C30.736 22.9401 31.0675 22.3692 31.1425 21.8096C31.1912 21.4402 31.1662 21.0649 31.0689 20.7052C30.9717 20.3456 30.8041 20.0088 30.5759 19.7143C30.3662 19.4423 30.0701 19.2143 29.6125 18.9281C28.9368 18.5073 28.5033 17.7905 28.5033 17C28.5033 16.2095 28.9368 15.4927 29.6111 15.0733C30.0701 14.7858 30.3662 14.5577 30.5773 14.2857C30.8053 13.9911 30.9726 13.6542 31.0696 13.2946C31.1666 12.935 31.1914 12.5597 31.1425 12.1904C31.0675 11.6322 30.736 11.0599 30.0701 9.91667C29.4043 8.77342 29.0728 8.2025 28.6223 7.85825C28.0201 7.40038 27.2615 7.19877 26.5115 7.29725C26.1686 7.34258 25.8215 7.48142 25.3427 7.73358C24.9988 7.92034 24.6134 8.01722 24.2221 8.01524C23.8308 8.01326 23.4463 7.91248 23.1044 7.72225C22.7692 7.52485 22.4899 7.24525 22.2928 6.90987C22.0957 6.57448 21.9874 6.19439 21.9781 5.8055C21.9569 5.26717 21.9059 4.89883 21.7727 4.58292C21.6287 4.23829 21.4182 3.92542 21.1533 3.66217C20.8883 3.39891 20.5741 3.19044 20.2285 3.04867ZM17.7083 21.25C20.0741 21.25 21.9909 19.3474 21.9909 17C21.9909 14.6526 20.0727 12.75 17.7083 12.75C15.3425 12.75 13.4257 14.6526 13.4257 17C13.4257 19.3474 15.3439 21.25 17.7083 21.25Z" fill="#353535"/>
</svg>
