<svg width="36" height="36" viewBox="0 0 36 36" fill="none" xmlns="http://www.w3.org/2000/svg">
<path d="M33.0625 11.375H2.6875C2.23995 11.375 1.81072 11.1972 1.49426 10.8807C1.17779 10.5643 1 10.1351 1 9.6875C1 9.23995 1.17779 8.81072 1.49426 8.49426C1.81072 8.17779 2.23995 8 2.6875 8H33.0625C33.5101 8 33.9393 8.17779 34.2557 8.49426C34.5722 8.81072 34.75 9.23995 34.75 9.6875C34.75 10.1351 34.5722 10.5643 34.2557 10.8807C33.9393 11.1972 33.5101 11.375 33.0625 11.375ZM27.4375 19.25H8.3125C7.86495 19.25 7.43572 19.0722 7.11926 18.7557C6.80279 18.4393 6.625 18.0101 6.625 17.5625C6.625 17.1149 6.80279 16.6857 7.11926 16.3693C7.43572 16.0528 7.86495 15.875 8.3125 15.875H27.4375C27.8851 15.875 28.3143 16.0528 28.6307 16.3693C28.9472 16.6857 29.125 17.1149 29.125 17.5625C29.125 18.0101 28.9472 18.4393 28.6307 18.7557C28.3143 19.0722 27.8851 19.25 27.4375 19.25ZM20.6875 27.125H15.0625C14.6149 27.125 14.1857 26.9472 13.8693 26.6307C13.5528 26.3143 13.375 25.8851 13.375 25.4375C13.375 24.9899 13.5528 24.5607 13.8693 24.2443C14.1857 23.9278 14.6149 23.75 15.0625 23.75H20.6875C21.1351 23.75 21.5643 23.9278 21.8807 24.2443C22.1972 24.5607 22.375 24.9899 22.375 25.4375C22.375 25.8851 22.1972 26.3143 21.8807 26.6307C21.5643 26.9472 21.1351 27.125 20.6875 27.125Z" fill="#353535"/>
</svg>
