<svg width="259" height="270" viewBox="0 0 259 270" fill="none" xmlns="http://www.w3.org/2000/svg">
<path d="M189.222 108V118.833H185.611V108H182V118.833H183.792V120.652H189.222V124.263H183.792V126.082H191.015V124.263H192.833V108H189.222ZM182 122.444V124.263H183.792V122.444H182Z" fill="black"/>
<path d="M73.2222 150V157.249H69.6111V150H66V157.249H67.7924V159.041H66V166.263H69.6111V159.041H73.2222V166.263H76.8334V159.041H75.0146V157.249H76.8334V150H73.2222Z" fill="black"/>
<path fill-rule="evenodd" clip-rule="evenodd" d="M168 86.3721L168 82L171 82L171 86.3721L168 86.3721ZM168 95.1163L168 90.7442L171 90.7442L171 95.1163L168 95.1163ZM168 103.86L168 99.4884L171 99.4884L171 103.86L168 103.86ZM168 112.605L168 108.233L171 108.233L171 112.605L168 112.605ZM168 121.349L168 116.977L171 116.977L171 121.349L168 121.349ZM168 130.093L168 125.721L171 125.721L171 130.093L168 130.093ZM168 138.837L168 134.465L171 134.465L171 138.837L168 138.837ZM168 147.581L168 143.209L171 143.209L171 147.581L168 147.581ZM168 156.326L168 151.953L171 151.953L171 156.326L168 156.326ZM168 165.07L168 160.698L171 160.698L171 165.07L168 165.07ZM168 173.814L168 169.442L171 169.442L171 173.814L168 173.814ZM168 182.558L168 178.186L171 178.186L171 182.558L168 182.558ZM168 191.302L168 186.93L171 186.93L171 191.302L168 191.302ZM168 200.046L168 195.674L171 195.674L171 200.046L168 200.046ZM168 208.791L168 204.419L171 204.419L171 208.791L168 208.791ZM168 217.535L168 213.163L171 213.163L171 217.535L168 217.535ZM168 226.279L168 221.907L171 221.907L171 226.279L168 226.279ZM168 235.023L168 230.651L171 230.651L171 235.023L168 235.023ZM168 243.767L168 239.395L171 239.395L171 243.767L168 243.767ZM168 252.512L168 248.139L171 248.139L171 252.512L168 252.512ZM168 261.256L168 256.884L171 256.884L171 261.256L168 261.256ZM168 270L168 265.628L171 265.628L171 270L168 270Z" fill="black"/>
<path fill-rule="evenodd" clip-rule="evenodd" d="M200.405 180L204 179V182H199.892L200.405 180ZM191.676 179H195.784V182H191.676V179ZM183.459 179H187.568V182H183.459V179ZM175.243 179H179.351V182H175.243V179ZM168 179H171V180.5V182H168V179ZM158.811 179H162.919V182H158.811V179ZM150.595 179H154.703V182H150.595V179ZM142.378 179H146.486V182H142.378V179ZM134.162 179H138.27V182H134.162V179ZM125.946 179H130.054V182H125.946V179ZM117.73 179H121.838V182H117.73V179ZM109.514 179H113.622V182H109.514V179ZM101.297 179H105.405V182H101.297V179ZM93.0811 179H97.1892V182H93.0811V179ZM84.8649 179L88.973 179V182L84.8649 182V179ZM76.6487 179H80.7568V182H76.6487V179ZM68.4324 179H72.5405V182H68.4324V179ZM60.2162 179H64.3243V182H60.2162V179ZM52 179H56.1081V182H52V179Z" fill="black"/>
<path d="M129.851 3.24477C129.634 3.34498 129.149 3.17796 128.665 3.07775C128.281 3.02764 127.897 2.99424 127.663 3.16126C125.809 4.36379 120.464 8.0048 116.539 11.6792C113.817 14.2346 112.447 15.7879 99.5702 29.3832L93.6745 35.8801C88.8643 41.1746 84.8058 47.1038 81.7326 53.5507C81.1481 54.7699 80.7305 55.722 80.6136 56.1729C80.3798 57.4924 80.3464 57.6761 80.5969 59.0122C81.3485 61.8683 87.8288 71.7557 89.9333 75.7642C90.9521 77.7183 91.3863 79.9564 90.9855 82.1277C90.7684 83.3302 85.9916 85.7854 85.0563 86.1027C83.1523 86.7374 80.313 86.9211 77.0561 87.2384C70.7261 87.8397 64.5965 89.8105 59.1016 93.0005C50.1995 98.1614 47.2433 103.924 41.9989 112.041C41.9488 112.124 41.882 112.241 41.8319 112.308C40.145 115.431 26.4661 140.568 21.7228 151.39L19.1006 157.436C14.7414 167.391 11.7685 177.763 10.2653 188.335C8.87906 197.955 7.39259 208.527 6.22346 216.995C5.03763 225.446 4.18583 231.793 4.08562 232.912C4.00211 233.797 3.53446 239.359 3.05011 245.238L3 245.973H32.9966C34.4496 245.973 35.719 244.971 36.053 243.535L38.0071 235C38.0071 235 40.6627 221.655 43.001 210.181C45.2223 199.225 49.6316 188.836 56.0285 179.667C56.0619 179.633 56.0953 179.6 56.112 179.55C56.3458 179.216 56.8803 179.349 56.9137 179.767C57.4314 185.663 59.8365 212.285 60.0536 215.075C60.538 220.553 62.4921 236.269 63.6111 243.267C64.513 249.146 66.5673 258.099 69.0058 267.017H189.994L194.287 249.297" stroke="#020203" stroke-width="5.01056" stroke-miterlimit="10"/>
<path d="M189.994 267.017C192.433 258.099 194.487 249.146 195.389 243.267C196.508 236.269 198.462 220.553 198.947 215.075C199.164 212.285 201.569 185.663 202.087 179.767C202.12 179.349 202.654 179.216 202.888 179.55C202.905 179.6 202.938 179.633 202.972 179.667C209.369 188.836 213.778 199.225 215.999 210.181C218.338 221.655 220.993 235 220.993 235L222.947 243.535C223.265 244.954 224.534 245.973 226.004 245.973H256L255.95 245.238C255.466 239.359 254.998 233.797 254.915 232.912C254.814 231.793 253.963 225.446 252.777 216.995C251.608 208.527 250.121 197.955 248.735 188.335C247.232 177.763 244.259 167.391 239.9 157.436L237.277 151.39C232.534 140.568 218.855 115.431 217.168 112.308C217.118 112.225 217.052 112.107 217.001 112.041C211.757 103.924 208.818 98.1614 199.899 93.0005C194.404 89.8105 188.274 87.8397 181.944 87.2384C178.687 86.9378 175.865 86.7374 173.944 86.1027C173.025 85.8021 168.232 83.3302 168.015 82.1277C167.614 79.9564 168.032 77.7183 169.067 75.7642C171.171 71.7557 177.652 61.885 178.403 59.0122C178.654 57.6761 178.621 57.4924 178.387 56.1729C178.27 55.722 177.852 54.7532 177.268 53.5507C174.195 47.1038 170.136 41.1746 165.326 35.8801L159.43 29.3832C146.553 15.7879 145.183 14.2346 142.461 11.6792C138.536 8.0048 133.191 4.36379 131.337 3.16125C131.104 2.99424 130.72 3.02765 130.335 3.07776C129.851 3.17797 127.217 3.10021 127 3" stroke="#020203" stroke-width="5.01056" stroke-miterlimit="10"/>
</svg>
