<svg width="214" height="252" viewBox="0 0 214 252" fill="none" xmlns="http://www.w3.org/2000/svg">
<rect x="1.16304" y="1.16304" width="211.674" height="249.489" fill="white"/>
<rect x="1.28916" y="1.28916" width="211.422" height="249.237" fill="white"/>
<line x1="0.775391" y1="166.315" x2="214" y2="166.315" stroke="black" stroke-width="2.32609"/>
<line y1="207.68" x2="213.225" y2="207.68" stroke="black" stroke-width="2.32609"/>
<line x1="0.775391" y1="124.446" x2="214" y2="124.446" stroke="black" stroke-width="2.32609"/>
<line y1="82.5762" x2="213.225" y2="82.5762" stroke="black" stroke-width="2.32609"/>
<line y1="40.7064" x2="213.225" y2="40.7064" stroke="black" stroke-width="2.32609"/>
<line x1="44.9943" y1="0.859436" x2="44.9943" y2="251.815" stroke="black" stroke-width="2.32609"/>
<line x1="129.219" y1="5.17593e-08" x2="129.219" y2="250.956" stroke="black" stroke-width="2.32609"/>
<rect x="1.28916" y="1.28916" width="211.422" height="249.237" stroke="black" stroke-width="2.57831"/>
<path d="M28.487 98.2135V96.1045H26.378V98.2135H28.487ZM19.9891 93.9645V96.1045H17.8801V102.493H19.9891V104.602H22.1291V106.742H24.238V110.991H19.9891V113.1H26.378V110.991H28.487V104.602H26.378V102.493H24.238V100.353H22.1291V96.1045H26.378V93.9645H19.9891ZM17.8801 108.851V110.991H19.9891V108.851H17.8801Z" fill="black"/>
<path d="M18.6432 51.852V60.381H14.3942V51.852H10.1452V60.381H12.2542V62.49H10.1452V70.988H14.3942V62.49H18.6432V70.988H22.8922V62.49H20.7522V60.381H22.8922V51.852H18.6432ZM36.5926 56.101V53.992H34.4836V56.101H36.5926ZM28.0946 51.852V53.992H25.9856V60.381H28.0946V62.49H30.2346V64.63H32.3436V68.879H28.0946V70.988H34.4836V68.879H36.5926V62.49H34.4836V60.381H32.3436V58.241H30.2346V53.992H34.4836V51.852H28.0946ZM25.9856 66.739V68.879H28.0946V66.739H25.9856Z" fill="black"/>
<path d="M171.257 9.72243V22.4694H167.008V9.72243H162.759V22.4694H164.868V24.6094H171.257V28.8584H164.868V30.9984H173.366V28.8584H175.506V9.72243H171.257ZM162.759 26.7184V28.8584H164.868V26.7184H162.759Z" fill="black"/>
<path d="M137.977 93.9645V96.1045H146.474V102.493H144.334V104.602H142.225V113.1H146.474V104.602H148.583V102.493H150.723V93.9645H137.977ZM164.424 96.1045V93.9645H155.926V96.1045H153.817V110.991H155.926V113.1H164.424V110.991H166.564V96.1045H164.424ZM162.315 96.1045V100.353H160.175V102.493H158.066V96.1045H162.315ZM158.066 110.991V106.742H160.175V104.602H162.315V110.991H158.066ZM180.295 108.851H178.186V110.991H180.295V108.851ZM180.295 102.493V100.353H178.186V102.493H180.295ZM171.797 98.2135V100.353H169.688V110.991H171.797V113.1H178.186V110.991H173.937V100.353H178.186V98.2135H171.797ZM202.574 100.353V98.2135H196.185V100.353H200.434V113.1H204.683V100.353H202.574ZM194.045 98.2135H183.438V113.1H187.687V100.353H191.936V113.1H196.185V100.353H194.045V98.2135Z" fill="black"/>
<path d="M150.583 57.8027V55.6627H144.225V53.5227H146.334V51.4137H150.583V49.2737H144.225V51.4137H142.085V53.5227H139.977V66.3007H142.085V68.4097H150.583V66.3007H152.723V57.8027H150.583ZM144.225 66.3007V57.8027H148.474V66.3007H144.225ZM166.424 51.4137V49.2737H157.926V51.4137H155.817V55.6627H157.926V57.8027H155.817V66.3007H157.926V68.4097H166.424V66.3007H168.564V57.8027H166.424V55.6627H168.564V51.4137H166.424ZM164.315 66.3007H160.066V57.8027H164.315V66.3007ZM160.066 55.6627V51.4137H164.315V55.6627H160.066ZM182.264 64.1607H180.155V66.3007H182.264V64.1607ZM182.264 57.8027V55.6627H180.155V57.8027H182.264ZM173.766 53.5227V55.6627H171.657V66.3007H173.766V68.4097H180.155V66.3007H175.906V55.6627H180.155V53.5227H173.766ZM204.544 55.6627V53.5227H198.155V55.6627H202.404V68.4097H206.653V55.6627H204.544ZM196.015 53.5227H185.408V68.4097H189.657V55.6627H193.906V68.4097H198.155V55.6627H196.015V53.5227Z" fill="black"/>
<path d="M58.2255 96.1045H66.7235V93.9645H53.9765V102.493H62.4745V110.991H56.0855V113.1H64.5835V110.991H66.7235V102.493H64.5835V100.353H58.2255V96.1045ZM56.0855 110.991V108.851H53.9765V110.991H56.0855ZM80.4239 102.493V100.353H74.0659V98.2135H76.1749V96.1045H80.4239V93.9645H74.0659V96.1045H71.9259V98.2135H69.8169V110.991H71.9259V113.1H80.4239V110.991H82.5639V102.493H80.4239ZM74.0659 110.991V102.493H78.3149V110.991H74.0659ZM96.2643 108.851H94.1553V110.991H96.2643V108.851ZM96.2643 102.493V100.353H94.1553V102.493H96.2643ZM87.7663 98.2135V100.353H85.6573V110.991H87.7663V113.1H94.1553V110.991H89.9063V100.353H94.1553V98.2135H87.7663ZM118.544 100.353V98.2135H112.155V100.353H116.404V113.1H120.653V100.353H118.544ZM110.015 98.2135H99.4079V113.1H103.657V100.353H107.906V113.1H112.155V100.353H110.015V98.2135Z" fill="black"/>
<path d="M58.2255 51.4137H66.7235V49.2737H53.9765V57.8027H62.4745V66.3007H56.0855V68.4097H64.5835V66.3007H66.7235V57.8027H64.5835V55.6627H58.2255V51.4137ZM56.0855 66.3007V64.1607H53.9765V66.3007H56.0855ZM82.5639 59.9117V49.2737H78.3149V51.4137H76.1749V53.5227H78.3149V59.9117H71.9259V57.8027H69.8169V62.0517H78.3149V68.4097H82.5639V62.0517H84.7039V59.9117H82.5639ZM76.1749 55.6627V53.5227H74.0659V55.6627H76.1749ZM74.0659 57.8027V55.6627H71.9259V57.8027H74.0659ZM98.4147 64.1607H96.3057V66.3007H98.4147V64.1607ZM98.4147 57.8027V55.6627H96.3057V57.8027H98.4147ZM89.9167 53.5227V55.6627H87.8077V66.3007H89.9167V68.4097H96.3057V66.3007H92.0567V55.6627H96.3057V53.5227H89.9167ZM120.694 55.6627V53.5227H114.305V55.6627H118.554V68.4097H122.803V55.6627H120.694ZM112.165 53.5227H101.558V68.4097H105.807V55.6627H110.056V68.4097H114.305V55.6627H112.165V53.5227Z" fill="black"/>
<path d="M137.977 136.077V138.217H146.474V144.606H144.334V146.715H142.225V155.213H146.474V146.715H148.583V144.606H150.723V136.077H137.977ZM164.424 140.326V138.217H166.564V136.077H153.817V138.217H160.175V140.326H158.066V142.466H155.926V144.606H162.315V153.104H155.926V155.213H164.424V153.104H166.564V144.606H164.424V142.466H162.315V140.326H164.424ZM155.926 153.104V150.964H153.817V153.104H155.926ZM180.295 150.964H178.186V153.104H180.295V150.964ZM180.295 144.606V142.466H178.186V144.606H180.295ZM171.797 140.326V142.466H169.688V153.104H171.797V155.213H178.186V153.104H173.937V142.466H178.186V140.326H171.797ZM202.574 142.466V140.326H196.185V142.466H200.434V155.213H204.683V142.466H202.574ZM194.045 140.326H183.438V155.213H187.687V142.466H191.936V155.213H196.185V142.466H194.045V140.326Z" fill="black"/>
<path d="M58.2255 138.217H66.7235V136.077H53.9765V144.606H62.4745V153.104H56.0855V155.213H64.5835V153.104H66.7235V144.606H64.5835V142.466H58.2255V138.217ZM56.0855 153.104V150.964H53.9765V153.104H56.0855ZM80.4549 138.217V136.077H71.9259V138.217H69.8169V146.715H71.9259V148.855H78.3149V150.964H76.1749V153.104H71.9259V155.213H78.3149V153.104H80.4549V150.964H82.5639V138.217H80.4549ZM74.0659 146.715V138.217H78.3149V146.715H74.0659ZM96.2643 150.964H94.1553V153.104H96.2643V150.964ZM96.2643 144.606V142.466H94.1553V144.606H96.2643ZM87.7663 140.326V142.466H85.6573V153.104H87.7663V155.213H94.1553V153.104H89.9063V142.466H94.1553V140.326H87.7663ZM118.544 142.466V140.326H112.155V142.466H116.404V155.213H120.653V142.466H118.544ZM110.015 140.326H99.4079V155.213H103.657V142.466H107.906V155.213H112.155V142.466H110.015V140.326Z" fill="black"/>
<path d="M136.258 178.189V180.329H144.755V186.718H142.615V188.827H140.506V197.325H144.755V188.827H146.864V186.718H149.004V178.189H136.258ZM162.705 186.718V184.578H156.347V182.438H158.456V180.329H162.705V178.189H156.347V180.329H154.207V182.438H152.098V195.216H154.207V197.325H162.705V195.216H164.845V186.718H162.705ZM156.347 195.216V186.718H160.596V195.216H156.347ZM178.545 193.076H176.436V195.216H178.545V193.076ZM178.545 186.718V184.578H176.436V186.718H178.545ZM170.047 182.438V184.578H167.938V195.216H170.047V197.325H176.436V195.216H172.187V184.578H176.436V182.438H170.047ZM200.825 184.578V182.438H194.436V184.578H198.685V197.325H202.934V184.578H200.825ZM192.296 182.438H181.689V197.325H185.938V184.578H190.187V197.325H194.436V184.578H192.296V182.438Z" fill="black"/>
<path d="M62.8645 186.718V184.578H56.5065V182.438H58.6155V180.329H62.8645V178.189H56.5065V180.329H54.3665V182.438H52.2575V195.216H54.3665V197.325H62.8645V195.216H65.0045V186.718H62.8645ZM56.5065 195.216V186.718H60.7555V195.216H56.5065ZM78.7359 180.329V178.189H70.2069V180.329H76.5959V186.718H74.4559V188.827H72.3469V190.967H70.2069V193.076H68.0979V197.325H80.8449V195.216H72.3469V193.076H74.4559V190.967H76.5959V188.827H78.7359V186.718H80.8449V180.329H78.7359ZM70.2069 182.438V180.329H68.0979V182.438H70.2069ZM94.5453 193.076H92.4363V195.216H94.5453V193.076ZM94.5453 186.718V184.578H92.4363V186.718H94.5453ZM86.0473 182.438V184.578H83.9383V195.216H86.0473V197.325H92.4363V195.216H88.1873V184.578H92.4363V182.438H86.0473ZM116.825 184.578V182.438H110.436V184.578H114.685V197.325H118.934V184.578H116.825ZM108.296 182.438H97.6889V197.325H101.938V184.578H106.187V197.325H110.436V184.578H108.296V182.438Z" fill="black"/>
<path d="M138.551 219.864V222.004H147.049V228.393H144.909V230.502H142.8V239H147.049V230.502H149.158V228.393H151.298V219.864H138.551ZM164.998 222.004V219.864H156.5V222.004H154.391V226.253H156.5V228.393H154.391V236.891H156.5V239H164.998V236.891H167.138V228.393H164.998V226.253H167.138V222.004H164.998ZM162.889 236.891H158.64V228.393H162.889V236.891ZM158.64 226.253V222.004H162.889V226.253H158.64ZM180.838 234.751H178.73V236.891H180.838V234.751ZM180.838 228.393V226.253H178.73V228.393H180.838ZM172.341 224.113V226.253H170.232V236.891H172.341V239H178.73V236.891H174.481V226.253H178.73V224.113H172.341ZM203.118 226.253V224.113H196.729V226.253H200.978V239H205.227V226.253H203.118ZM194.589 224.113H183.982V239H188.231V226.253H192.48V239H196.729V226.253H194.589V224.113Z" fill="black"/>
<path d="M63.1577 228.393V226.253H56.7997V224.113H58.9087V222.004H63.1577V219.864H56.7997V222.004H54.6597V224.113H52.5507V236.891H54.6597V239H63.1577V236.891H65.2977V228.393H63.1577ZM56.7997 236.891V228.393H61.0487V236.891H56.7997ZM81.1381 230.502V219.864H76.8891V222.004H74.7491V224.113H76.8891V230.502H70.5001V228.393H68.3911V232.642H76.8891V239H81.1381V232.642H83.2781V230.502H81.1381ZM74.7491 226.253V224.113H72.6401V226.253H74.7491ZM72.6401 228.393V226.253H70.5001V228.393H72.6401ZM96.9889 234.751H94.8799V236.891H96.9889V234.751ZM96.9889 228.393V226.253H94.8799V228.393H96.9889ZM88.4909 224.113V226.253H86.382V236.891H88.4909V239H94.8799V236.891H90.6309V226.253H94.8799V224.113H88.4909ZM119.268 226.253V224.113H112.879V226.253H117.128V239H121.377V226.253H119.268ZM110.739 224.113H100.133V239H104.382V226.253H108.63V239H112.879V226.253H110.739V224.113Z" fill="black"/>
<path d="M88.2574 10.5804V19.1094H84.0085V10.5804H79.7595V19.1094H81.8685V21.2183H79.7595V29.7163H84.0085V21.2183H88.2574V29.7163H92.5064V21.2183H90.3664V19.1094H92.5064V10.5804H88.2574Z" fill="black"/>
<path d="M31.8593 136.077V138.217H29.7193V140.326H27.6103V142.466H25.4703V144.606H21.2213V142.466H19.0813V140.326H16.9723V138.217H14.8323V136.077H12.7233V155.213H14.8323V144.606H16.9723V146.715H19.0813V148.855H21.2213V150.964H23.3303V148.855H25.4703V146.715H27.6103V144.606H29.7193V155.213H33.9683V136.077H31.8593Z" fill="black"/>
<path d="M22.1291 195.216V178.189H17.8801V197.325H28.487V195.216H22.1291Z" fill="black"/>
<path d="M21.2213 220.302V228.831H16.9723V220.302H12.7233V228.831H14.8323V230.94H12.7233V239.438H16.9723V230.94H21.2213V239.438H25.4703V230.94H23.3303V228.831H25.4703V220.302H21.2213ZM32.8127 237.329V220.302H28.5637V239.438H39.1707V237.329H32.8127Z" fill="black"/>
<rect x="1.16304" y="1.16304" width="211.674" height="249.489" stroke="black" stroke-width="2.32609"/>
</svg>
