<svg width="272" height="210" viewBox="0 0 272 210" fill="none" xmlns="http://www.w3.org/2000/svg">
<path d="M186.157 21.9842V34.8683H181.862V21.9842H177.567V34.8683H179.699V37.0313H186.157V41.3261H179.699V43.4891H188.289V41.3261H190.452V21.9842H186.157ZM177.567 39.163V41.3261H179.699V39.163H177.567Z" fill="black"/>
<path d="M74.1568 69.6581V78.2789H69.8621V69.6581H65.5674V78.2789H67.6991V80.4106H65.5674V89H69.8621V80.4106H74.1568V89H78.4516V80.4106H76.2885V78.2789H78.4516V69.6581H74.1568Z" fill="black"/>
<path d="M3.67359 69.1068C3.85909 69.2761 4.06467 69.4637 4.28938 69.6685C5.35788 70.6423 6.8537 72.0029 8.66789 73.6516C11.9352 76.621 16.2323 80.5226 20.9195 84.7784L22.4859 86.2007L22.4868 86.2015L41.0044 103.031H42.9284H42.9358L42.9432 103.031L44.9052 103.043L49.2716 99.3269L49.2775 99.3219L54.5305 94.8234C56.4944 93.1415 59.5239 94.566 59.4815 97.1512L58.5832 151.908L58.6883 206.324L59.1453 207.278L59.1453 207.278L59.151 207.29C59.1814 207.354 59.212 207.418 59.2424 207.481C59.2905 207.481 59.3399 207.481 59.3905 207.482C60.4332 207.487 61.9692 207.492 63.9472 207.495C67.9021 207.501 73.6133 207.502 80.6561 207.496C94.7413 207.486 114.148 207.451 135.472 207.391L135.473 207.391L212.347 207.186L214.062 206.221L214.075 206.214L215.096 205.631V202.09C215.096 199.354 214.99 189.955 214.883 181.179L214.883 181.178C214.826 176.301 214.77 171.741 214.703 166.149C214.571 155.261 214.392 140.459 214.055 111.777V111.776C214.012 108.054 213.98 104.662 213.962 102.196C213.952 100.963 213.946 99.9595 213.944 99.2602C213.943 98.9114 213.942 98.6336 213.943 98.4394C213.943 98.3892 213.944 98.3419 213.944 98.2989C213.944 98.2602 213.945 98.2249 213.945 98.1939C213.946 98.1639 213.947 98.1204 213.949 98.0759C213.949 98.0578 213.951 98.0098 213.956 97.9515C213.959 97.9266 213.965 97.8594 213.978 97.7748C213.984 97.7345 213.998 97.6507 214.025 97.5466L214.026 97.5411C214.04 97.4841 214.116 97.179 214.321 96.8474L214.544 96.4857L214.874 96.2181C215.459 95.7441 216.073 95.6722 216.357 95.6617C216.662 95.6503 216.901 95.698 217.018 95.7252C217.257 95.7807 217.433 95.8596 217.491 95.8858C217.633 95.95 217.741 96.0151 217.775 96.0358C217.866 96.0907 217.95 96.1475 218.001 96.1827C218.116 96.2623 218.258 96.3661 218.412 96.4796C218.725 96.7119 219.161 97.0432 219.683 97.4442C220.729 98.2488 222.156 99.3619 223.712 100.588L223.713 100.588C225.266 101.813 226.699 102.923 227.755 103.726C228.143 104.021 228.475 104.27 228.741 104.467C229.112 104.411 229.572 104.334 230.062 104.244L230.076 104.241L230.09 104.239L231.563 103.984L250.662 86.6482L250.663 86.6473L269.5 69.5677V68.0063V66.4665L244.442 44.3951L218.888 21.8875L199.608 14.8333L199.607 14.8329C193.986 12.774 188.031 10.5911 183.046 8.7634C178.396 7.05902 174.589 5.66354 172.682 4.9655C170.712 4.24451 168.892 3.59067 167.544 3.12086C166.867 2.88515 166.323 2.70059 165.943 2.57806C165.904 2.56563 165.868 2.55411 165.835 2.54349C165.802 2.54904 165.768 2.55501 165.731 2.5614C165.42 2.61609 165.024 2.69225 164.617 2.77461C162.841 3.15779 161.083 3.80885 157.277 5.65559C152.75 7.87035 150.76 8.73323 148.253 9.5161C137.623 12.8347 126.275 11.2063 110.823 4.77065L110.821 4.77005C109.761 4.32761 108.779 3.92987 108.052 3.64499C107.872 3.5743 107.711 3.51173 107.57 3.45789C107.284 3.54102 106.922 3.64847 106.497 3.77628C105.405 4.10475 103.926 4.55859 102.326 5.05649L102.325 5.05678L97.445 6.57361C80.2779 11.9095 71.5418 14.6249 65.0747 16.6454C65.0746 16.6454 65.0744 16.6455 65.0743 16.6455L57.626 18.9891L29.8606 44.7634L29.8593 44.7646L3.67359 69.1068ZM57.7828 98.6211L57.7807 98.6228L57.7828 98.6211Z" stroke="black" stroke-width="5"/>
<line x1="163.5" y1="5" x2="163.5" y2="206" stroke="black" stroke-width="3" stroke-dasharray="4 4"/>
<line x1="215" y1="96.5" x2="58" y2="96.5" stroke="black" stroke-width="3" stroke-dasharray="4 4"/>
</svg>
