<svg width="249" height="244" viewBox="0 0 249 244" fill="none" xmlns="http://www.w3.org/2000/svg">
<rect x="1.35326" y="1.35326" width="246.293" height="240.88" fill="white"/>
<line x1="0.9021" y1="193.516" x2="249" y2="193.516" stroke="black" stroke-width="2.70652"/>
<line x1="0.9021" y1="144.799" x2="249" y2="144.799" stroke="black" stroke-width="2.70652"/>
<line y1="96.0815" x2="248.098" y2="96.0815" stroke="black" stroke-width="2.70652"/>
<line y1="47.3641" x2="248.098" y2="47.3641" stroke="black" stroke-width="2.70652"/>
<line x1="52.7771" y1="0.902161" x2="52.7771" y2="243.587" stroke="black" stroke-width="2.70652"/>
<line x1="150.212" y1="5.91529e-08" x2="150.212" y2="242.685" stroke="black" stroke-width="2.70652"/>
<path d="M33.0916 64.5152V62.0613H30.6377V64.5152H33.0916ZM23.2038 59.5713V62.0613H20.7499V69.4952H23.2038V71.9491H25.6938V74.4391H28.1477V79.383H23.2038V81.8369H30.6377V79.383H33.0916V71.9491H30.6377V69.4952H28.1477V67.0052H25.6938V62.0613H30.6377V59.5713H23.2038ZM20.7499 76.893V79.383H23.2038V76.893H20.7499Z" fill="black"/>
<path d="M199.692 10.7143V25.5461H194.748V10.7143H189.804V25.5461H192.258V28.0361H199.692V32.98H192.258V35.47H202.146V32.98H204.636V10.7143H199.692ZM189.804 30.49V32.98H192.258V30.49H189.804Z" fill="black"/>
<path d="M74.5916 69.4952V67.0052H67.1938V64.5152H69.6477V62.0613H74.5916V59.5713H67.1938V62.0613H64.7038V64.5152H62.2499V79.383H64.7038V81.8369H74.5916V79.383H77.0816V69.4952H74.5916ZM67.1938 79.383V69.4952H72.1377V79.383H67.1938ZM85.6249 62.0613H95.5128V59.5713H80.681V69.4952H90.5689V79.383H83.1349V81.8369H93.0228V79.383H95.5128V69.4952H93.0228V67.0052H85.6249V62.0613ZM83.1349 79.383V76.893H80.681V79.383H83.1349ZM111.454 76.893H109V79.383H111.454V76.893ZM111.454 69.4952V67.0052H109V69.4952H111.454ZM101.566 64.5152V67.0052H99.1122V79.383H101.566V81.8369H109V79.383H104.056V67.0052H109V64.5152H101.566ZM137.377 67.0052V64.5152H129.943V67.0052H134.887V81.8369H139.831V67.0052H137.377ZM127.453 64.5152H115.112V81.8369H120.056V67.0052H124.999V81.8369H129.943V67.0052H127.453V64.5152Z" fill="black"/>
<path d="M171.592 69.4952V67.0052H164.194V64.5152H166.648V62.0613H171.592V59.5713H164.194V62.0613H161.704V64.5152H159.25V79.383H161.704V81.8369H171.592V79.383H174.082V69.4952H171.592ZM164.194 79.383V69.4952H169.138V79.383H164.194ZM190.023 69.4952V67.0052H182.625V64.5152H185.079V62.0613H190.023V59.5713H182.625V62.0613H180.135V64.5152H177.681V79.383H180.135V81.8369H190.023V79.383H192.513V69.4952H190.023ZM182.625 79.383V69.4952H187.569V79.383H182.625ZM208.454 76.893H206V79.383H208.454V76.893ZM208.454 69.4952V67.0052H206V69.4952H208.454ZM198.566 64.5152V67.0052H196.112V79.383H198.566V81.8369H206V79.383H201.056V67.0052H206V64.5152H198.566ZM234.377 67.0052V64.5152H226.943V67.0052H231.887V81.8369H236.831V67.0052H234.377ZM224.453 64.5152H212.112V81.8369H217.056V67.0052H221.999V81.8369H226.943V67.0052H224.453V64.5152Z" fill="black"/>
<path d="M74.5916 119.115V116.625H67.1938V114.135H69.6477V111.681H74.5916V109.191H67.1938V111.681H64.7038V114.135H62.2499V129.003H64.7038V131.456H74.5916V129.003H77.0816V119.115H74.5916ZM67.1938 129.003V119.115H72.1377V129.003H67.1938ZM93.0589 111.681V109.191H83.1349V111.681H80.681V121.569H83.1349V124.059H90.5689V126.513H88.0789V129.003H83.1349V131.456H90.5689V129.003H93.0589V126.513H95.5128V111.681H93.0589ZM85.6249 121.569V111.681H90.5689V121.569H85.6249ZM111.454 126.513H109V129.003H111.454V126.513ZM111.454 119.115V116.625H109V119.115H111.454ZM101.566 114.135V116.625H99.1122V129.003H101.566V131.456H109V129.003H104.056V116.625H109V114.135H101.566ZM137.377 116.625V114.135H129.943V116.625H134.887V131.456H139.831V116.625H137.377ZM127.453 114.135H115.112V131.456H120.056V116.625H124.999V131.456H129.943V116.625H127.453V114.135Z" fill="black"/>
<path d="M171.592 119.115V116.625H164.194V114.135H166.648V111.681H171.592V109.191H164.194V111.681H161.704V114.135H159.25V129.003H161.704V131.456H171.592V129.003H174.082V119.115H171.592ZM164.194 129.003V119.115H169.138V129.003H164.194ZM190.059 111.681V109.191H180.135V111.681H177.681V121.569H180.135V124.059H187.569V126.513H185.079V129.003H180.135V131.456H187.569V129.003H190.059V126.513H192.513V111.681H190.059ZM182.625 121.569V111.681H187.569V121.569H182.625ZM208.454 126.513H206V129.003H208.454V126.513ZM208.454 119.115V116.625H206V119.115H208.454ZM198.566 114.135V116.625H196.112V129.003H198.566V131.456H206V129.003H201.056V116.625H206V114.135H198.566ZM234.377 116.625V114.135H226.943V116.625H231.887V131.456H236.831V116.625H234.377ZM224.453 114.135H212.112V131.456H217.056V116.625H221.999V131.456H226.943V116.625H224.453V114.135Z" fill="black"/>
<path d="M61.3478 157.006V159.496H71.2356V166.93H68.7456V169.384H66.2917V179.272H71.2356V169.384H73.6895V166.93H76.1795V157.006H61.3478ZM92.1207 161.95V159.496H94.6107V157.006H79.7789V159.496H87.1768V161.95H84.7228V164.44H82.2328V166.93H89.6668V176.818H82.2328V179.272H92.1207V176.818H94.6107V166.93H92.1207V164.44H89.6668V161.95H92.1207ZM82.2328 176.818V174.328H79.7789V176.818H82.2328ZM110.587 174.328H108.133V176.818H110.587V174.328ZM110.587 166.93V164.44H108.133V166.93H110.587ZM100.699 161.95V164.44H98.2453V176.818H100.699V179.272H108.133V176.818H103.189V164.44H108.133V161.95H100.699ZM136.51 164.44V161.95H129.077V164.44H134.02V179.272H138.964V164.44H136.51ZM126.587 161.95H114.245V179.272H119.189V164.44H124.133V179.272H129.077V164.44H126.587V161.95Z" fill="black"/>
<path d="M158.348 157.006V159.496H168.236V166.93H165.746V169.384H163.292V179.272H168.236V169.384H170.69V166.93H173.18V157.006H158.348ZM189.121 161.95V159.496H191.611V157.006H176.779V159.496H184.177V161.95H181.723V164.44H179.233V166.93H186.667V176.818H179.233V179.272H189.121V176.818H191.611V166.93H189.121V164.44H186.667V161.95H189.121ZM179.233 176.818V174.328H176.779V176.818H179.233ZM207.587 174.328H205.133V176.818H207.587V174.328ZM207.587 166.93V164.44H205.133V166.93H207.587ZM197.699 161.95V164.44H195.245V176.818H197.699V179.272H205.133V176.818H200.189V164.44H205.133V161.95H197.699ZM233.51 164.44V161.95H226.077V164.44H231.02V179.272H235.964V164.44H233.51ZM223.587 161.95H211.245V179.272H216.189V164.44H221.133V179.272H226.077V164.44H223.587V161.95Z" fill="black"/>
<path d="M61.3478 205.723V208.213H71.2356V215.647H68.7456V218.101H66.2917V227.989H71.2356V218.101H73.6895V215.647H76.1795V205.723H61.3478ZM94.6107 218.101V205.723H89.6668V208.213H87.1768V210.667H89.6668V218.101H82.2328V215.647H79.7789V220.591H89.6668V227.989H94.6107V220.591H97.1007V218.101H94.6107ZM87.1768 213.157V210.667H84.7228V213.157H87.1768ZM84.7228 215.647V213.157H82.2328V215.647H84.7228ZM113.054 223.045H110.6V225.535H113.054V223.045ZM113.054 215.647V213.157H110.6V215.647H113.054ZM103.166 210.667V213.157H100.712V225.535H103.166V227.989H110.6V225.535H105.656V213.157H110.6V210.667H103.166ZM138.977 213.157V210.667H131.543V213.157H136.487V227.989H141.431V213.157H138.977ZM129.053 210.667H116.712V227.989H121.656V213.157H126.6V227.989H131.543V213.157H129.053V210.667Z" fill="black"/>
<path d="M158.348 205.723V208.213H168.236V215.647H165.746V218.101H163.292V227.989H168.236V218.101H170.69V215.647H173.18V205.723H158.348ZM181.723 208.213H191.611V205.723H176.779V215.647H186.667V225.535H179.233V227.989H189.121V225.535H191.611V215.647H189.121V213.157H181.723V208.213ZM179.233 225.535V223.045H176.779V225.535H179.233ZM207.552 223.045H205.098V225.535H207.552V223.045ZM207.552 215.647V213.157H205.098V215.647H207.552ZM197.664 210.667V213.157H195.21V225.535H197.664V227.989H205.098V225.535H200.154V213.157H205.098V210.667H197.664ZM233.475 213.157V210.667H226.041V213.157H230.985V227.989H235.929V213.157H233.475ZM223.551 210.667H211.21V227.989H216.153V213.157H221.097V227.989H226.041V213.157H223.551V210.667Z" fill="black"/>
<path d="M102.692 11.7126V21.6365H97.7483V11.7126H92.8043V21.6365H95.2583V24.0904H92.8043V33.9783H97.7483V24.0904H102.692V33.9783H107.636V24.0904H105.146V21.6365H107.636V11.7126H102.692Z" fill="black"/>
<path d="M36.7004 109.191V111.681H34.2104V114.135H31.7565V116.625H29.2665V119.115H24.3225V116.625H21.8325V114.135H19.3786V111.681H16.8886V109.191H14.4347V131.456H16.8886V119.115H19.3786V121.569H21.8325V124.059H24.3225V126.513H26.7765V124.059H29.2665V121.569H31.7565V119.115H34.2104V131.456H39.1543V109.191H36.7004Z" fill="black"/>
<path d="M25.6938 176.818V157.006H20.7499V179.272H33.0916V176.818H25.6938Z" fill="black"/>
<path d="M24.3225 204.821V214.745H19.3786V204.821H14.4347V214.745H16.8886V217.199H14.4347V227.087H19.3786V217.199H24.3225V227.087H29.2665V217.199H26.7765V214.745H29.2665V204.821H24.3225ZM37.8098 224.633V204.821H32.8659V227.087H45.2076V224.633H37.8098Z" fill="black"/>
<rect x="1.35326" y="1.35326" width="246.293" height="240.88" stroke="black" stroke-width="2.70652"/>
</svg>
