<svg width="147" height="35" viewBox="0 0 147 35" fill="none" xmlns="http://www.w3.org/2000/svg">
<path fill-rule="evenodd" clip-rule="evenodd" d="M0.157204 0.727295H1.82149V2.39154H3.48574V4.05583H1.82145V2.39158H0.157204V0.727295ZM1.82145 5.72012H0.157166V4.05583H1.82145V5.72012ZM1.82145 7.38441V5.72012H3.48574V7.38441H1.82145ZM1.82145 9.04869H0.157166V7.38441L1.82145 7.38441V9.04869ZM1.82145 10.713V9.04869H3.48574V10.713H1.82145ZM1.82145 12.3773H0.157166V10.713H1.82145V12.3773ZM1.82145 14.0416V12.3773H3.48574V14.0416H1.82145ZM1.82145 15.7058H0.157166V14.0416H1.82145V15.7058ZM1.82145 17.3701V15.7058H3.48574V17.3701H1.82145ZM1.82145 19.0344H0.157166V17.3701H1.82145V19.0344ZM1.82145 20.6987V19.0344H3.48574V20.6987H1.82145ZM1.82145 22.363H0.157166V20.6987H1.82145V22.363ZM1.82145 24.0273V22.363H3.48574V24.0273H1.82145ZM1.82145 25.6916H0.157166V24.0273H1.82145V25.6916ZM1.82145 27.3559H3.48574V25.6916H1.82145V27.3559ZM1.82145 27.3559V29.0201H0.157166V27.3559H1.82145Z" fill="white"/>
<path fill-rule="evenodd" clip-rule="evenodd" d="M3.48579 0.727264H5.15008V2.39151H6.81429V4.0558H5.15001V2.39155H3.48579V0.727264ZM5.15001 5.72009H3.48572V4.0558H5.15001V5.72009ZM5.15001 7.38438V5.72009H6.81429V7.38438H5.15001ZM5.15001 9.04866H3.48572V7.38438L5.15001 7.38438V9.04866ZM5.15001 10.713V9.04866H6.81429V10.713H5.15001ZM5.15001 12.3772H3.48572V10.713H5.15001V12.3772ZM5.15001 14.0415V12.3772H6.81429V14.0415H5.15001ZM5.15001 15.7058H3.48572V14.0415H5.15001V15.7058ZM5.15001 17.3701V15.7058H6.81429V17.3701H5.15001ZM5.15001 19.0344H3.48572V17.3701H5.15001V19.0344ZM5.15001 20.6987V19.0344H6.81429V20.6987H5.15001ZM5.15001 22.363H3.48572V20.6987H5.15001V22.363ZM5.15001 24.0273V22.363H6.81429V24.0273H5.15001ZM5.15001 25.6915H3.48572V24.0273H5.15001V25.6915ZM5.15001 27.3558H6.81429V25.6915H5.15001V27.3558ZM5.15001 27.3558V29.0201H3.48572V27.3558H5.15001Z" fill="white"/>
<path fill-rule="evenodd" clip-rule="evenodd" d="M6.81439 0.727264H8.47867V2.39151H10.1428V4.0558H8.47856V2.39155H6.81439V0.727264ZM8.47856 5.72009H6.81427V4.0558H8.47856V5.72009ZM8.47856 7.38438V5.72009H10.1428V7.38438H8.47856ZM8.47856 9.04866H6.81427V7.38438L8.47856 7.38438V9.04866ZM8.47856 10.713V9.04866H10.1428V10.713H8.47856ZM8.47856 12.3772H6.81427V10.713H8.47856V12.3772ZM8.47856 14.0415V12.3772H10.1428V14.0415H8.47856ZM8.47856 15.7058H6.81427V14.0415H8.47856V15.7058ZM8.47856 17.3701V15.7058H10.1428V17.3701H8.47856ZM8.47856 19.0344H6.81427V17.3701H8.47856V19.0344ZM8.47856 20.6987V19.0344H10.1428V20.6987H8.47856ZM8.47856 22.363H6.81427V20.6987H8.47856V22.363ZM8.47856 24.0273V22.363H10.1428V24.0273H8.47856ZM8.47856 25.6915H6.81427V24.0273H8.47856V25.6915ZM8.47856 27.3558H10.1428V25.6915H8.47856V27.3558ZM8.47856 27.3558V29.0201H6.81427V27.3558H8.47856Z" fill="white"/>
<path fill-rule="evenodd" clip-rule="evenodd" d="M10.143 0.727264H11.8073V2.39151H13.4714V4.0558H11.8071V2.39155H10.143V0.727264ZM11.8071 5.72009H10.1428V4.0558H11.8071V5.72009ZM11.8071 7.38438V5.72009H13.4714V7.38438H11.8071ZM11.8071 9.04866H10.1428V7.38438L11.8071 7.38438V9.04866ZM11.8071 10.713V9.04866H13.4714V10.713H11.8071ZM11.8071 12.3772H10.1428V10.713H11.8071V12.3772ZM11.8071 14.0415V12.3772H13.4714V14.0415H11.8071ZM11.8071 15.7058H10.1428V14.0415H11.8071V15.7058ZM11.8071 17.3701V15.7058H13.4714V17.3701H11.8071ZM11.8071 19.0344H10.1428V17.3701H11.8071V19.0344ZM11.8071 20.6987V19.0344H13.4714V20.6987H11.8071ZM11.8071 22.363H10.1428V20.6987H11.8071V22.363ZM11.8071 24.0273V22.363H13.4714V24.0273H11.8071ZM11.8071 25.6915H10.1428V24.0273H11.8071V25.6915ZM11.8071 27.3558H13.4714V25.6915H11.8071V27.3558ZM11.8071 27.3558V29.0201H10.1428V27.3558H11.8071Z" fill="white"/>
<path fill-rule="evenodd" clip-rule="evenodd" d="M13.4716 0.727264H15.1359V2.39151H16.8V4.0558H15.1357V2.39155H13.4716V0.727264ZM15.1357 5.72009H13.4714V4.0558H15.1357V5.72009ZM15.1357 7.38438V5.72009H16.8V7.38438H15.1357ZM15.1357 9.04866H13.4714V7.38438L15.1357 7.38438V9.04866ZM15.1357 10.713V9.04866H16.8V10.713H15.1357ZM15.1357 12.3772H13.4714V10.713H15.1357V12.3772ZM15.1357 14.0415V12.3772H16.8V14.0415H15.1357ZM15.1357 15.7058H13.4714V14.0415H15.1357V15.7058ZM15.1357 17.3701V15.7058H16.8V17.3701H15.1357ZM15.1357 19.0344H13.4714V17.3701H15.1357V19.0344ZM15.1357 20.6987V19.0344H16.8V20.6987H15.1357ZM15.1357 22.363H13.4714V20.6987H15.1357V22.363ZM15.1357 24.0273V22.363H16.8V24.0273H15.1357ZM15.1357 25.6915H13.4714V24.0273H15.1357V25.6915ZM15.1357 27.3558H16.8V25.6915H15.1357V27.3558ZM15.1357 27.3558V29.0201H13.4714V27.3558H15.1357Z" fill="white"/>
<path fill-rule="evenodd" clip-rule="evenodd" d="M16.8002 0.727264H18.4645V2.39151H20.1286V4.0558H18.4643V2.39155H16.8002V0.727264ZM18.4643 5.72009H16.8V4.0558H18.4643V5.72009ZM18.4643 7.38438V5.72009H20.1286V7.38438H18.4643ZM18.4643 9.04866H16.8V7.38438L18.4643 7.38438V9.04866ZM18.4643 10.713V9.04866H20.1286V10.713H18.4643ZM18.4643 12.3772H16.8V10.713H18.4643V12.3772ZM18.4643 14.0415V12.3772H20.1286V14.0415H18.4643ZM18.4643 15.7058H16.8V14.0415H18.4643V15.7058ZM18.4643 17.3701V15.7058H20.1286V17.3701H18.4643ZM18.4643 19.0344H16.8V17.3701H18.4643V19.0344ZM18.4643 20.6987V19.0344H20.1286V20.6987H18.4643ZM18.4643 22.363H16.8V20.6987H18.4643V22.363ZM18.4643 24.0273V22.363H20.1286V24.0273H18.4643ZM18.4643 25.6915H16.8V24.0273H18.4643V25.6915ZM18.4643 27.3558H20.1286V25.6915H18.4643V27.3558ZM18.4643 27.3558V29.0201H16.8V27.3558H18.4643Z" fill="white"/>
<path fill-rule="evenodd" clip-rule="evenodd" d="M20.1286 0.727264H21.7929V2.39155H20.1286V0.727264ZM20.1288 4.0558H21.7931V5.72009H20.1288V4.0558ZM21.7931 7.38438V5.72009H23.4574V7.38438H21.7931ZM21.7931 9.04866H20.1288V7.38438L21.7931 7.38438V9.04866ZM21.7931 10.713V9.04866H23.4574V10.713H21.7931ZM21.7931 12.3772H20.1288V10.713H21.7931V12.3772ZM21.7931 14.0415V12.3772H23.4574V14.0415H21.7931ZM21.7931 15.7058H20.1288V14.0415H21.7931V15.7058ZM21.7931 17.3701V15.7058H23.4574V17.3701H21.7931ZM21.7931 19.0344H20.1288V17.3701H21.7931V19.0344ZM21.7931 20.6987V19.0344H23.4574V20.6987H21.7931ZM21.7931 22.363H20.1288V20.6987H21.7931V22.363ZM21.7931 24.0273V22.363H23.4574V24.0273H21.7931ZM21.7931 25.6915H20.1288V24.0273H21.7931V25.6915ZM21.7931 27.3558H23.4574V25.6915H21.7931V27.3558ZM21.7931 27.3558V29.0201H20.1288V27.3558H21.7931ZM21.7931 4.0558V2.39151H23.4574V4.0558H21.7931Z" fill="white"/>
<path fill-rule="evenodd" clip-rule="evenodd" d="M23.4572 0.727264H25.1214V2.39155H23.4572V0.727264ZM23.4573 4.0558H25.1216V5.72009H23.4573V4.0558ZM25.1216 7.38438V5.72009H26.7859V7.38438H25.1216ZM25.1216 9.04866H23.4573V7.38438L25.1216 7.38438V9.04866ZM25.1216 10.713V9.04866H26.7859V10.713H25.1216ZM25.1216 12.3772H23.4573V10.713H25.1216V12.3772ZM25.1216 14.0415V12.3772H26.7859V14.0415H25.1216ZM25.1216 15.7058H23.4573V14.0415H25.1216V15.7058ZM25.1216 17.3701V15.7058H26.7859V17.3701H25.1216ZM25.1216 19.0344H23.4573V17.3701H25.1216V19.0344ZM25.1216 20.6987V19.0344H26.7859V20.6987H25.1216ZM25.1216 22.363H23.4573V20.6987H25.1216V22.363ZM25.1216 24.0273V22.363H26.7859V24.0273H25.1216ZM25.1216 25.6915H23.4573V24.0273H25.1216V25.6915ZM25.1216 27.3558H26.7859V25.6915H25.1216V27.3558ZM25.1216 27.3558V29.0201H23.4573V27.3558H25.1216ZM25.1216 4.0558V2.39151H26.7859V4.0558H25.1216Z" fill="white"/>
<path fill-rule="evenodd" clip-rule="evenodd" d="M26.7857 0.727264H28.45V2.39155H26.7857V0.727264ZM26.7858 4.0558H28.4501V5.72009H26.7858V4.0558ZM28.4501 7.38438V5.72009H30.1144V7.38438H28.4501ZM28.4501 9.04866H26.7858V7.38438L28.4501 7.38438V9.04866ZM28.4501 10.713V9.04866H30.1144V10.713H28.4501ZM28.4501 12.3772H26.7858V10.713H28.4501V12.3772ZM28.4501 14.0415V12.3772H30.1144V14.0415H28.4501ZM28.4501 15.7058H26.7858V14.0415H28.4501V15.7058ZM28.4501 17.3701V15.7058H30.1144V17.3701H28.4501ZM28.4501 19.0344H26.7858V17.3701H28.4501V19.0344ZM28.4501 20.6987V19.0344H30.1144V20.6987H28.4501ZM28.4501 22.363H26.7858V20.6987H28.4501V22.363ZM28.4501 24.0273V22.363H30.1144V24.0273H28.4501ZM28.4501 25.6915H26.7858V24.0273H28.4501V25.6915ZM28.4501 27.3558H30.1144V25.6915H28.4501V27.3558ZM28.4501 27.3558V29.0201H26.7858V27.3558H28.4501ZM28.4501 4.0558V2.39151H30.1144V4.0558H28.4501Z" fill="white"/>
<path fill-rule="evenodd" clip-rule="evenodd" d="M30.1143 0.727264H31.7786V2.39155H30.1143V0.727264ZM30.1144 4.0558H31.7787V5.72009H30.1144V4.0558ZM31.7787 7.38438V5.72009H33.443V7.38438H31.7787ZM31.7787 9.04866H30.1144V7.38438L31.7787 7.38438V9.04866ZM31.7787 10.713V9.04866H33.443V10.713H31.7787ZM31.7787 12.3772H30.1144V10.713H31.7787V12.3772ZM31.7787 14.0415V12.3772H33.443V14.0415H31.7787ZM31.7787 15.7058H30.1144V14.0415H31.7787V15.7058ZM31.7787 17.3701V15.7058H33.443V17.3701H31.7787ZM31.7787 19.0344H30.1144V17.3701H31.7787V19.0344ZM31.7787 20.6987V19.0344H33.443V20.6987H31.7787ZM31.7787 22.363H30.1144V20.6987H31.7787V22.363ZM31.7787 24.0273V22.363H33.443V24.0273H31.7787ZM31.7787 25.6915H30.1144V24.0273H31.7787V25.6915ZM31.7787 27.3558H33.443V25.6915H31.7787V27.3558ZM31.7787 27.3558V29.0201H30.1144V27.3558H31.7787ZM31.7787 4.0558V2.39151H33.443V4.0558H31.7787Z" fill="white"/>
<path fill-rule="evenodd" clip-rule="evenodd" d="M33.4429 0.727264H35.1072V2.39155H33.4429V0.727264ZM33.4429 4.0558H35.1072V5.72009H33.4429V4.0558ZM35.1072 7.38438V5.72009H36.7715V7.38438H35.1072ZM35.1072 9.04866H33.4429V7.38438L35.1072 7.38438V9.04866ZM35.1072 10.713V9.04866H36.7715V10.713H35.1072ZM35.1072 12.3772H33.4429V10.713H35.1072V12.3772ZM35.1072 14.0415V12.3772H36.7715V14.0415H35.1072ZM35.1072 15.7058H33.4429V14.0415H35.1072V15.7058ZM35.1072 17.3701V15.7058H36.7715V17.3701H35.1072ZM35.1072 19.0344H33.4429V17.3701H35.1072V19.0344ZM35.1072 20.6987V19.0344H36.7715V20.6987H35.1072ZM35.1072 22.363H33.4429V20.6987H35.1072V22.363ZM35.1072 24.0273V22.363H36.7715V24.0273H35.1072ZM35.1072 25.6915H33.4429V24.0273H35.1072V25.6915ZM35.1072 27.3558H36.7715V25.6915H35.1072V27.3558ZM35.1072 27.3558V29.0201H33.4429V27.3558H35.1072ZM35.1072 4.0558V2.39151H36.7715V4.0558H35.1072Z" fill="white"/>
<path fill-rule="evenodd" clip-rule="evenodd" d="M36.7714 0.727264H38.4357V2.39155H36.7714V0.727264ZM36.7715 4.0558H38.4357V5.72009H36.7715V4.0558ZM38.4357 7.38438V5.72009H40.1V7.38438H38.4357ZM38.4357 9.04866H36.7715V7.38438L38.4357 7.38438V9.04866ZM38.4357 10.713V9.04866H40.1V10.713H38.4357ZM38.4357 12.3772H36.7715V10.713H38.4357V12.3772ZM38.4357 14.0415V12.3772H40.1V14.0415H38.4357ZM38.4357 15.7058H36.7715V14.0415H38.4357V15.7058ZM38.4357 17.3701V15.7058H40.1V17.3701H38.4357ZM38.4357 19.0344H36.7715V17.3701H38.4357V19.0344ZM38.4357 20.6987V19.0344H40.1V20.6987H38.4357ZM38.4357 22.363H36.7715V20.6987H38.4357V22.363ZM38.4357 24.0273V22.363H40.1V24.0273H38.4357ZM38.4357 25.6915H36.7715V24.0273H38.4357V25.6915ZM38.4357 27.3558H40.1V25.6915H38.4357V27.3558ZM38.4357 27.3558V29.0201H36.7715V27.3558H38.4357ZM38.4357 4.0558V2.39151H40.1V4.0558H38.4357Z" fill="white"/>
<path fill-rule="evenodd" clip-rule="evenodd" d="M40.1 0.727264H41.7643V2.39151H43.4286V4.0558H41.7643V2.39155H40.1V0.727264ZM41.7643 5.72009H40.1V4.0558H41.7643V5.72009ZM41.7643 7.38438V5.72009H43.4286V7.38438H41.7643ZM41.7643 9.04866H40.1V7.38438L41.7643 7.38438V9.04866ZM41.7643 10.713V9.04866H43.4286V10.713H41.7643ZM41.7643 12.3772H40.1V10.713H41.7643V12.3772ZM41.7643 14.0415V12.3772H43.4286V14.0415H41.7643ZM41.7643 15.7058H40.1V14.0415H41.7643V15.7058ZM41.7643 17.3701V15.7058H43.4286V17.3701H41.7643ZM41.7643 19.0344H40.1V17.3701H41.7643V19.0344ZM41.7643 20.6987V19.0344H43.4286V20.6987H41.7643ZM41.7643 22.363H40.1V20.6987H41.7643V22.363ZM41.7643 24.0273V22.363H43.4286V24.0273H41.7643ZM41.7643 25.6915H40.1V24.0273H41.7643V25.6915ZM41.7643 27.3558H43.4286V25.6915H41.7643V27.3558ZM41.7643 27.3558V29.0201H40.1V27.3558H41.7643Z" fill="white"/>
<path fill-rule="evenodd" clip-rule="evenodd" d="M43.4286 0.727264H45.0929V2.39151H46.7572V4.0558H45.0929V2.39155H43.4286V0.727264ZM45.0929 5.72009H43.4286V4.0558H45.0929V5.72009ZM45.0929 7.38438V5.72009H46.7572V7.38438H45.0929ZM45.0929 9.04866H43.4286V7.38438L45.0929 7.38438V9.04866ZM45.0929 10.713V9.04866H46.7572V10.713H45.0929ZM45.0929 12.3772H43.4286V10.713H45.0929V12.3772ZM45.0929 14.0415V12.3772H46.7572V14.0415H45.0929ZM45.0929 15.7058H43.4286V14.0415H45.0929V15.7058ZM45.0929 17.3701V15.7058H46.7572V17.3701H45.0929ZM45.0929 19.0344H43.4286V17.3701H45.0929V19.0344ZM45.0929 20.6987V19.0344H46.7572V20.6987H45.0929ZM45.0929 22.363H43.4286V20.6987H45.0929V22.363ZM45.0929 24.0273V22.363H46.7572V24.0273H45.0929ZM45.0929 25.6915H43.4286V24.0273H45.0929V25.6915ZM45.0929 27.3558H46.7572V25.6915H45.0929V27.3558ZM45.0929 27.3558V29.0201H43.4286V27.3558H45.0929Z" fill="white"/>
<path fill-rule="evenodd" clip-rule="evenodd" d="M46.7573 0.727264H48.4216V2.39151H50.0858V4.0558H48.4215V2.39155H46.7573V0.727264ZM48.4215 5.72009H46.7572V4.0558H48.4215V5.72009ZM48.4215 7.38438V5.72009H50.0858V7.38438H48.4215ZM48.4215 9.04866H46.7572V7.38438L48.4215 7.38438V9.04866ZM48.4215 10.713V9.04866H50.0858V10.713H48.4215ZM48.4215 12.3772H46.7572V10.713H48.4215V12.3772ZM48.4215 14.0415V12.3772H50.0858V14.0415H48.4215ZM48.4215 15.7058H46.7572V14.0415H48.4215V15.7058ZM48.4215 17.3701V15.7058H50.0858V17.3701H48.4215ZM48.4215 19.0344H46.7572V17.3701H48.4215V19.0344ZM48.4215 20.6987V19.0344H50.0858V20.6987H48.4215ZM48.4215 22.363H46.7572V20.6987H48.4215V22.363ZM48.4215 24.0273V22.363H50.0858V24.0273H48.4215ZM48.4215 25.6915H46.7572V24.0273H48.4215V25.6915ZM48.4215 27.3558H50.0858V25.6915H48.4215V27.3558ZM48.4215 27.3558V29.0201H46.7572V27.3558H48.4215Z" fill="white"/>
<path fill-rule="evenodd" clip-rule="evenodd" d="M50.0859 0.727264H51.7502V2.39151H53.4143V4.0558H51.75V2.39155H50.0859V0.727264ZM51.75 5.72009H50.0858V4.0558H51.75V5.72009ZM51.75 7.38438V5.72009H53.4143V7.38438H51.75ZM51.75 9.04866H50.0858V7.38438L51.75 7.38438V9.04866ZM51.75 10.713V9.04866H53.4143V10.713H51.75ZM51.75 12.3772H50.0858V10.713H51.75V12.3772ZM51.75 14.0415V12.3772H53.4143V14.0415H51.75ZM51.75 15.7058H50.0858V14.0415H51.75V15.7058ZM51.75 17.3701V15.7058H53.4143V17.3701H51.75ZM51.75 19.0344H50.0858V17.3701H51.75V19.0344ZM51.75 20.6987V19.0344H53.4143V20.6987H51.75ZM51.75 22.363H50.0858V20.6987H51.75V22.363ZM51.75 24.0273V22.363H53.4143V24.0273H51.75ZM51.75 25.6915H50.0858V24.0273H51.75V25.6915ZM51.75 27.3558H53.4143V25.6915H51.75V27.3558ZM51.75 27.3558V29.0201H50.0858V27.3558H51.75Z" fill="white"/>
<path fill-rule="evenodd" clip-rule="evenodd" d="M53.4145 0.727264H55.0788V2.39151H56.7429V4.0558H55.0786V2.39155H53.4145V0.727264ZM55.0786 5.72009H53.4143V4.0558H55.0786V5.72009ZM55.0786 7.38438V5.72009H56.7429V7.38438H55.0786ZM55.0786 9.04866H53.4143V7.38438L55.0786 7.38438V9.04866ZM55.0786 10.713V9.04866H56.7429V10.713H55.0786ZM55.0786 12.3772H53.4143V10.713H55.0786V12.3772ZM55.0786 14.0415V12.3772H56.7429V14.0415H55.0786ZM55.0786 15.7058H53.4143V14.0415H55.0786V15.7058ZM55.0786 17.3701V15.7058H56.7429V17.3701H55.0786ZM55.0786 19.0344H53.4143V17.3701H55.0786V19.0344ZM55.0786 20.6987V19.0344H56.7429V20.6987H55.0786ZM55.0786 22.363H53.4143V20.6987H55.0786V22.363ZM55.0786 24.0273V22.363H56.7429V24.0273H55.0786ZM55.0786 25.6915H53.4143V24.0273H55.0786V25.6915ZM55.0786 27.3558H56.7429V25.6915H55.0786V27.3558ZM55.0786 27.3558V29.0201H53.4143V27.3558H55.0786Z" fill="white"/>
<path fill-rule="evenodd" clip-rule="evenodd" d="M56.7431 0.727264H58.4074V2.39151H60.0715V4.0558H58.4072V2.39155H56.7431V0.727264ZM58.4072 5.72009H56.7429V4.0558H58.4072V5.72009ZM58.4072 7.38438V5.72009H60.0715V7.38438H58.4072ZM58.4072 9.04866H56.7429V7.38438L58.4072 7.38438V9.04866ZM58.4072 10.713V9.04866H60.0715V10.713H58.4072ZM58.4072 12.3772H56.7429V10.713H58.4072V12.3772ZM58.4072 14.0415V12.3772H60.0715V14.0415H58.4072ZM58.4072 15.7058H56.7429V14.0415H58.4072V15.7058ZM58.4072 17.3701V15.7058H60.0715V17.3701H58.4072ZM58.4072 19.0344H56.7429V17.3701H58.4072V19.0344ZM58.4072 20.6987V19.0344H60.0715V20.6987H58.4072ZM58.4072 22.363H56.7429V20.6987H58.4072V22.363ZM58.4072 24.0273V22.363H60.0715V24.0273H58.4072ZM58.4072 25.6915H56.7429V24.0273H58.4072V25.6915ZM58.4072 27.3558H60.0715V25.6915H58.4072V27.3558ZM58.4072 27.3558V29.0201H56.7429V27.3558H58.4072Z" fill="white"/>
<path fill-rule="evenodd" clip-rule="evenodd" d="M60.0717 0.727264H61.736V2.39151H63.4V4.0558H61.7358V2.39155H60.0717V0.727264ZM61.7358 5.72009H60.0715V4.0558H61.7358V5.72009ZM61.7358 7.38438V5.72009H63.4V7.38438H61.7358ZM61.7358 9.04866H60.0715V7.38438L61.7358 7.38438V9.04866ZM61.7358 10.713V9.04866H63.4V10.713H61.7358ZM61.7358 12.3772H60.0715V10.713H61.7358V12.3772ZM61.7358 14.0415V12.3772H63.4V14.0415H61.7358ZM61.7358 15.7058H60.0715V14.0415H61.7358V15.7058ZM61.7358 17.3701V15.7058H63.4V17.3701H61.7358ZM61.7358 19.0344H60.0715V17.3701H61.7358V19.0344ZM61.7358 20.6987V19.0344H63.4V20.6987H61.7358ZM61.7358 22.363H60.0715V20.6987H61.7358V22.363ZM61.7358 24.0273V22.363H63.4V24.0273H61.7358ZM61.7358 25.6915H60.0715V24.0273H61.7358V25.6915ZM61.7358 27.3558H63.4V25.6915H61.7358V27.3558ZM61.7358 27.3558V29.0201H60.0715V27.3558H61.7358Z" fill="white"/>
<path fill-rule="evenodd" clip-rule="evenodd" d="M63.4 0.727264H65.0643V2.39155H63.4V0.727264ZM63.4002 4.0558H65.0645V5.72009H63.4002V4.0558ZM65.0645 7.38438V5.72009H66.7288V7.38438H65.0645ZM65.0645 9.04866H63.4002V7.38438L65.0645 7.38438V9.04866ZM65.0645 10.713V9.04866H66.7288V10.713H65.0645ZM65.0645 12.3772H63.4002V10.713H65.0645V12.3772ZM65.0645 14.0415V12.3772H66.7288V14.0415H65.0645ZM65.0645 15.7058H63.4002V14.0415H65.0645V15.7058ZM65.0645 17.3701V15.7058H66.7288V17.3701H65.0645ZM65.0645 19.0344H63.4002V17.3701H65.0645V19.0344ZM65.0645 20.6987V19.0344H66.7288V20.6987H65.0645ZM65.0645 22.363H63.4002V20.6987H65.0645V22.363ZM65.0645 24.0273V22.363H66.7288V24.0273H65.0645ZM65.0645 25.6915H63.4002V24.0273H65.0645V25.6915ZM65.0645 27.3558H66.7288V25.6915H65.0645V27.3558ZM65.0645 27.3558V29.0201H63.4002V27.3558H65.0645ZM65.0645 4.0558V2.39151H66.7288V4.0558H65.0645Z" fill="white"/>
<path fill-rule="evenodd" clip-rule="evenodd" d="M66.7286 0.727264H68.3929V2.39155H66.7286V0.727264ZM66.7288 4.0558H68.3931V5.72009H66.7288V4.0558ZM68.3931 7.38438V5.72009H70.0574V7.38438H68.3931ZM68.3931 9.04866H66.7288V7.38438L68.3931 7.38438V9.04866ZM68.3931 10.713V9.04866H70.0574V10.713H68.3931ZM68.3931 12.3772H66.7288V10.713H68.3931V12.3772ZM68.3931 14.0415V12.3772H70.0574V14.0415H68.3931ZM68.3931 15.7058H66.7288V14.0415H68.3931V15.7058ZM68.3931 17.3701V15.7058H70.0574V17.3701H68.3931ZM68.3931 19.0344H66.7288V17.3701H68.3931V19.0344ZM68.3931 20.6987V19.0344H70.0574V20.6987H68.3931ZM68.3931 22.363H66.7288V20.6987H68.3931V22.363ZM68.3931 24.0273V22.363H70.0574V24.0273H68.3931ZM68.3931 25.6915H66.7288V24.0273H68.3931V25.6915ZM68.3931 27.3558H70.0574V25.6915H68.3931V27.3558ZM68.3931 27.3558V29.0201H66.7288V27.3558H68.3931ZM68.3931 4.0558V2.39151H70.0574V4.0558H68.3931Z" fill="white"/>
<path fill-rule="evenodd" clip-rule="evenodd" d="M70.0572 0.727264H71.7215V2.39155H70.0572V0.727264ZM70.0573 4.0558H71.7216V5.72009H70.0573V4.0558ZM71.7216 7.38438V5.72009H73.3859V7.38438H71.7216ZM71.7216 9.04866H70.0573V7.38438L71.7216 7.38438V9.04866ZM71.7216 10.713V9.04866H73.3859V10.713H71.7216ZM71.7216 12.3772H70.0573V10.713H71.7216V12.3772ZM71.7216 14.0415V12.3772H73.3859V14.0415H71.7216ZM71.7216 15.7058H70.0573V14.0415H71.7216V15.7058ZM71.7216 17.3701V15.7058H73.3859V17.3701H71.7216ZM71.7216 19.0344H70.0573V17.3701H71.7216V19.0344ZM71.7216 20.6987V19.0344H73.3859V20.6987H71.7216ZM71.7216 22.363H70.0573V20.6987H71.7216V22.363ZM71.7216 24.0273V22.363H73.3859V24.0273H71.7216ZM71.7216 25.6915H70.0573V24.0273H71.7216V25.6915ZM71.7216 27.3558H73.3859V25.6915H71.7216V27.3558ZM71.7216 27.3558V29.0201H70.0573V27.3558H71.7216ZM71.7216 4.0558V2.39151H73.3859V4.0558H71.7216Z" fill="white"/>
<path fill-rule="evenodd" clip-rule="evenodd" d="M73.3857 0.727264H75.05V2.39155H73.3857V0.727264ZM73.3858 4.0558H75.0501V5.72009H73.3858V4.0558ZM75.0501 7.38438V5.72009H76.7144V7.38438H75.0501ZM75.0501 9.04866H73.3858V7.38438L75.0501 7.38438V9.04866ZM75.0501 10.713V9.04866H76.7144V10.713H75.0501ZM75.0501 12.3772H73.3858V10.713H75.0501V12.3772ZM75.0501 14.0415V12.3772H76.7144V14.0415H75.0501ZM75.0501 15.7058H73.3858V14.0415H75.0501V15.7058ZM75.0501 17.3701V15.7058H76.7144V17.3701H75.0501ZM75.0501 19.0344H73.3858V17.3701H75.0501V19.0344ZM75.0501 20.6987V19.0344H76.7144V20.6987H75.0501ZM75.0501 22.363H73.3858V20.6987H75.0501V22.363ZM75.0501 24.0273V22.363H76.7144V24.0273H75.0501ZM75.0501 25.6915H73.3858V24.0273H75.0501V25.6915ZM75.0501 27.3558H76.7144V25.6915H75.0501V27.3558ZM75.0501 27.3558V29.0201H73.3858V27.3558H75.0501ZM75.0501 4.0558V2.39151H76.7144V4.0558H75.0501Z" fill="white"/>
<path fill-rule="evenodd" clip-rule="evenodd" d="M76.7144 0.727264H78.3786V2.39155H76.7144V0.727264ZM76.7144 4.0558H78.3787V5.72009H76.7144V4.0558ZM78.3787 7.38438V5.72009H80.043V7.38438H78.3787ZM78.3787 9.04866H76.7144V7.38438L78.3787 7.38438V9.04866ZM78.3787 10.713V9.04866H80.043V10.713H78.3787ZM78.3787 12.3772H76.7144V10.713H78.3787V12.3772ZM78.3787 14.0415V12.3772H80.043V14.0415H78.3787ZM78.3787 15.7058H76.7144V14.0415H78.3787V15.7058ZM78.3787 17.3701V15.7058H80.043V17.3701H78.3787ZM78.3787 19.0344H76.7144V17.3701H78.3787V19.0344ZM78.3787 20.6987V19.0344H80.043V20.6987H78.3787ZM78.3787 22.363H76.7144V20.6987H78.3787V22.363ZM78.3787 24.0273V22.363H80.043V24.0273H78.3787ZM78.3787 25.6915H76.7144V24.0273H78.3787V25.6915ZM78.3787 27.3558H80.043V25.6915H78.3787V27.3558ZM78.3787 27.3558V29.0201H76.7144V27.3558H78.3787ZM78.3787 4.0558V2.39151H80.043V4.0558H78.3787Z" fill="white"/>
<path fill-rule="evenodd" clip-rule="evenodd" d="M80.0429 0.727264H81.7072V2.39155H80.0429V0.727264ZM80.0429 4.0558H81.7072V5.72009H80.0429V4.0558ZM81.7072 7.38438V5.72009H83.3715V7.38438H81.7072ZM81.7072 9.04866H80.0429V7.38438L81.7072 7.38438V9.04866ZM81.7072 10.713V9.04866H83.3715V10.713H81.7072ZM81.7072 12.3772H80.0429V10.713H81.7072V12.3772ZM81.7072 14.0415V12.3772H83.3715V14.0415H81.7072ZM81.7072 15.7058H80.0429V14.0415H81.7072V15.7058ZM81.7072 17.3701V15.7058H83.3715V17.3701H81.7072ZM81.7072 19.0344H80.0429V17.3701H81.7072V19.0344ZM81.7072 20.6987V19.0344H83.3715V20.6987H81.7072ZM81.7072 22.363H80.0429V20.6987H81.7072V22.363ZM81.7072 24.0273V22.363H83.3715V24.0273H81.7072ZM81.7072 25.6915H80.0429V24.0273H81.7072V25.6915ZM81.7072 27.3558H83.3715V25.6915H81.7072V27.3558ZM81.7072 27.3558V29.0201H80.0429V27.3558H81.7072ZM81.7072 4.0558V2.39151H83.3715V4.0558H81.7072Z" fill="white"/>
<path fill-rule="evenodd" clip-rule="evenodd" d="M83.3715 0.727264H85.0358V2.39151H86.7001V4.0558H85.0358V2.39155H83.3715V0.727264ZM85.0358 5.72009H83.3715V4.0558H85.0358V5.72009ZM85.0358 7.38438V5.72009H86.7001V7.38438H85.0358ZM85.0358 9.04866H83.3715V7.38438L85.0358 7.38438V9.04866ZM85.0358 10.713V9.04866H86.7001V10.713H85.0358ZM85.0358 12.3772H83.3715V10.713H85.0358V12.3772ZM85.0358 14.0415V12.3772H86.7001V14.0415H85.0358ZM85.0358 15.7058H83.3715V14.0415H85.0358V15.7058ZM85.0358 17.3701V15.7058H86.7001V17.3701H85.0358ZM85.0358 19.0344H83.3715V17.3701H85.0358V19.0344ZM85.0358 20.6987V19.0344H86.7001V20.6987H85.0358ZM85.0358 22.363H83.3715V20.6987H85.0358V22.363ZM85.0358 24.0273V22.363H86.7001V24.0273H85.0358ZM85.0358 25.6915H83.3715V24.0273H85.0358V25.6915ZM85.0358 27.3558H86.7001V25.6915H85.0358V27.3558ZM85.0358 27.3558V29.0201H83.3715V27.3558H85.0358Z" fill="white"/>
<path fill-rule="evenodd" clip-rule="evenodd" d="M86.7001 0.727264H88.3644V2.39151H90.0286V4.0558H88.3644V2.39155H86.7001V0.727264ZM88.3644 5.72009H86.7001V4.0558H88.3644V5.72009ZM88.3644 7.38438V5.72009H90.0286V7.38438H88.3644ZM88.3644 9.04866H86.7001V7.38438L88.3644 7.38438V9.04866ZM88.3644 10.713V9.04866H90.0286V10.713H88.3644ZM88.3644 12.3772H86.7001V10.713H88.3644V12.3772ZM88.3644 14.0415V12.3772H90.0286V14.0415H88.3644ZM88.3644 15.7058H86.7001V14.0415H88.3644V15.7058ZM88.3644 17.3701V15.7058H90.0286V17.3701H88.3644ZM88.3644 19.0344H86.7001V17.3701H88.3644V19.0344ZM88.3644 20.6987V19.0344H90.0286V20.6987H88.3644ZM88.3644 22.363H86.7001V20.6987H88.3644V22.363ZM88.3644 24.0273V22.363H90.0286V24.0273H88.3644ZM88.3644 25.6915H86.7001V24.0273H88.3644V25.6915ZM88.3644 27.3558H90.0286V25.6915H88.3644V27.3558ZM88.3644 27.3558V29.0201H86.7001V27.3558H88.3644Z" fill="white"/>
<path fill-rule="evenodd" clip-rule="evenodd" d="M90.0287 0.727264H91.693V2.39151H93.3572V4.0558H91.6929V2.39155H90.0287V0.727264ZM91.6929 5.72009H90.0286V4.0558H91.6929V5.72009ZM91.6929 7.38438V5.72009H93.3572V7.38438H91.6929ZM91.6929 9.04866H90.0286V7.38438L91.6929 7.38438V9.04866ZM91.6929 10.713V9.04866H93.3572V10.713H91.6929ZM91.6929 12.3772H90.0286V10.713H91.6929V12.3772ZM91.6929 14.0415V12.3772H93.3572V14.0415H91.6929ZM91.6929 15.7058H90.0286V14.0415H91.6929V15.7058ZM91.6929 17.3701V15.7058H93.3572V17.3701H91.6929ZM91.6929 19.0344H90.0286V17.3701H91.6929V19.0344ZM91.6929 20.6987V19.0344H93.3572V20.6987H91.6929ZM91.6929 22.363H90.0286V20.6987H91.6929V22.363ZM91.6929 24.0273V22.363H93.3572V24.0273H91.6929ZM91.6929 25.6915H90.0286V24.0273H91.6929V25.6915ZM91.6929 27.3558H93.3572V25.6915H91.6929V27.3558ZM91.6929 27.3558V29.0201H90.0286V27.3558H91.6929Z" fill="white"/>
<path fill-rule="evenodd" clip-rule="evenodd" d="M93.3574 0.727264H95.0217V2.39151H96.6858V4.0558H95.0215V2.39155H93.3574V0.727264ZM95.0215 5.72009H93.3572V4.0558H95.0215V5.72009ZM95.0215 7.38438V5.72009H96.6858V7.38438H95.0215ZM95.0215 9.04866H93.3572V7.38438L95.0215 7.38438V9.04866ZM95.0215 10.713V9.04866H96.6858V10.713H95.0215ZM95.0215 12.3772H93.3572V10.713H95.0215V12.3772ZM95.0215 14.0415V12.3772H96.6858V14.0415H95.0215ZM95.0215 15.7058H93.3572V14.0415H95.0215V15.7058ZM95.0215 17.3701V15.7058H96.6858V17.3701H95.0215ZM95.0215 19.0344H93.3572V17.3701H95.0215V19.0344ZM95.0215 20.6987V19.0344H96.6858V20.6987H95.0215ZM95.0215 22.363H93.3572V20.6987H95.0215V22.363ZM95.0215 24.0273V22.363H96.6858V24.0273H95.0215ZM95.0215 25.6915H93.3572V24.0273H95.0215V25.6915ZM95.0215 27.3558H96.6858V25.6915H95.0215V27.3558ZM95.0215 27.3558V29.0201H93.3572V27.3558H95.0215Z" fill="white"/>
<path fill-rule="evenodd" clip-rule="evenodd" d="M96.686 0.727264H98.3503V2.39151H100.014V4.0558H98.3501V2.39155H96.686V0.727264ZM98.3501 5.72009H96.6858V4.0558H98.3501V5.72009ZM98.3501 7.38438V5.72009H100.014V7.38438H98.3501ZM98.3501 9.04866H96.6858V7.38438L98.3501 7.38438V9.04866ZM98.3501 10.713V9.04866H100.014V10.713H98.3501ZM98.3501 12.3772H96.6858V10.713H98.3501V12.3772ZM98.3501 14.0415V12.3772H100.014V14.0415H98.3501ZM98.3501 15.7058H96.6858V14.0415H98.3501V15.7058ZM98.3501 17.3701V15.7058H100.014V17.3701H98.3501ZM98.3501 19.0344H96.6858V17.3701H98.3501V19.0344ZM98.3501 20.6987V19.0344H100.014V20.6987H98.3501ZM98.3501 22.363H96.6858V20.6987H98.3501V22.363ZM98.3501 24.0273V22.363H100.014V24.0273H98.3501ZM98.3501 25.6915H96.6858V24.0273H98.3501V25.6915ZM98.3501 27.3558H100.014V25.6915H98.3501V27.3558ZM98.3501 27.3558V29.0201H96.6858V27.3558H98.3501Z" fill="white"/>
<path fill-rule="evenodd" clip-rule="evenodd" d="M100.015 0.727264H101.679V2.39151H103.343V4.0558H101.679V2.39155H100.015V0.727264ZM101.679 5.72009H100.014V4.0558H101.679V5.72009ZM101.679 7.38438V5.72009H103.343V7.38438H101.679ZM101.679 9.04866H100.014V7.38438L101.679 7.38438V9.04866ZM101.679 10.713V9.04866H103.343V10.713H101.679ZM101.679 12.3772H100.014V10.713H101.679V12.3772ZM101.679 14.0415V12.3772H103.343V14.0415H101.679ZM101.679 15.7058H100.014V14.0415H101.679V15.7058ZM101.679 17.3701V15.7058H103.343V17.3701H101.679ZM101.679 19.0344H100.014V17.3701H101.679V19.0344ZM101.679 20.6987V19.0344H103.343V20.6987H101.679ZM101.679 22.363H100.014V20.6987H101.679V22.363ZM101.679 24.0273V22.363H103.343V24.0273H101.679ZM101.679 25.6915H100.014V24.0273H101.679V25.6915ZM101.679 27.3558H103.343V25.6915H101.679V27.3558ZM101.679 27.3558V29.0201H100.014V27.3558H101.679Z" fill="white"/>
<path fill-rule="evenodd" clip-rule="evenodd" d="M103.343 0.727264H105.007V2.39155H103.343V0.727264ZM103.343 4.0558H105.007V5.72009H103.343V4.0558ZM105.007 7.38438V5.72009H106.672V7.38438H105.007ZM105.007 9.04866H103.343V7.38438L105.007 7.38438V9.04866ZM105.007 10.713V9.04866H106.672V10.713H105.007ZM105.007 12.3772H103.343V10.713H105.007V12.3772ZM105.007 14.0415V12.3772H106.672V14.0415H105.007ZM105.007 15.7058H103.343V14.0415H105.007V15.7058ZM105.007 17.3701V15.7058H106.672V17.3701H105.007ZM105.007 19.0344H103.343V17.3701H105.007V19.0344ZM105.007 20.6987V19.0344H106.672V20.6987H105.007ZM105.007 22.363H103.343V20.6987H105.007V22.363ZM105.007 24.0273V22.363H106.672V24.0273H105.007ZM105.007 25.6915H103.343V24.0273H105.007V25.6915ZM105.007 27.3558H106.672V25.6915H105.007V27.3558ZM105.007 27.3558V29.0201H103.343V27.3558H105.007ZM105.007 4.0558V2.39151H106.672V4.0558H105.007Z" fill="white"/>
<path fill-rule="evenodd" clip-rule="evenodd" d="M106.672 0.727264H108.336V2.39155H106.672V0.727264ZM106.672 4.0558H108.336V5.72009H106.672V4.0558ZM108.336 7.38438V5.72009H110V7.38438H108.336ZM108.336 9.04866H106.672V7.38438L108.336 7.38438V9.04866ZM108.336 10.713V9.04866H110V10.713H108.336ZM108.336 12.3772H106.672V10.713H108.336V12.3772ZM108.336 14.0415V12.3772H110V14.0415H108.336ZM108.336 15.7058H106.672V14.0415H108.336V15.7058ZM108.336 17.3701V15.7058H110V17.3701H108.336ZM108.336 19.0344H106.672V17.3701H108.336V19.0344ZM108.336 20.6987V19.0344H110V20.6987H108.336ZM108.336 22.363H106.672V20.6987H108.336V22.363ZM108.336 24.0273V22.363H110V24.0273H108.336ZM108.336 25.6915H106.672V24.0273H108.336V25.6915ZM108.336 27.3558H110V25.6915H108.336V27.3558ZM108.336 27.3558V29.0201H106.672V27.3558H108.336ZM108.336 4.0558V2.39151H110V4.0558H108.336Z" fill="white"/>
<path fill-rule="evenodd" clip-rule="evenodd" d="M110 0.727264H111.664V2.39155H110V0.727264ZM110 4.0558H111.665V5.72009H110V4.0558ZM111.665 7.38438V5.72009H113.329V7.38438H111.665ZM111.665 9.04866H110V7.38438L111.665 7.38438V9.04866ZM111.665 10.713V9.04866H113.329V10.713H111.665ZM111.665 12.3772H110V10.713H111.665V12.3772ZM111.665 14.0415V12.3772H113.329V14.0415H111.665ZM111.665 15.7058H110V14.0415H111.665V15.7058ZM111.665 17.3701V15.7058H113.329V17.3701H111.665ZM111.665 19.0344H110V17.3701H111.665V19.0344ZM111.665 20.6987V19.0344H113.329V20.6987H111.665ZM111.665 22.363H110V20.6987H111.665V22.363ZM111.665 24.0273V22.363H113.329V24.0273H111.665ZM111.665 25.6915H110V24.0273H111.665V25.6915ZM111.665 27.3558H113.329V25.6915H111.665V27.3558ZM111.665 27.3558V29.0201H110V27.3558H111.665ZM111.665 4.0558V2.39151H113.329V4.0558H111.665Z" fill="white"/>
<path fill-rule="evenodd" clip-rule="evenodd" d="M113.329 0.727264H114.993V2.39155H113.329V0.727264ZM113.329 4.0558H114.993V5.72009H113.329V4.0558ZM114.993 7.38438V5.72009H116.657V7.38438H114.993ZM114.993 9.04866H113.329V7.38438L114.993 7.38438V9.04866ZM114.993 10.713V9.04866H116.657V10.713H114.993ZM114.993 12.3772H113.329V10.713H114.993V12.3772ZM114.993 14.0415V12.3772H116.657V14.0415H114.993ZM114.993 15.7058H113.329V14.0415H114.993V15.7058ZM114.993 17.3701V15.7058H116.657V17.3701H114.993ZM114.993 19.0344H113.329V17.3701H114.993V19.0344ZM114.993 20.6987V19.0344H116.657V20.6987H114.993ZM114.993 22.363H113.329V20.6987H114.993V22.363ZM114.993 24.0273V22.363H116.657V24.0273H114.993ZM114.993 25.6915H113.329V24.0273H114.993V25.6915ZM114.993 27.3558H116.657V25.6915H114.993V27.3558ZM114.993 27.3558V29.0201H113.329V27.3558H114.993ZM114.993 4.0558V2.39151H116.657V4.0558H114.993Z" fill="white"/>
<path fill-rule="evenodd" clip-rule="evenodd" d="M116.657 0.727264H118.322V2.39155H116.657V0.727264ZM116.657 4.0558H118.322V5.72009H116.657V4.0558ZM118.322 7.38438V5.72009H119.986V7.38438H118.322ZM118.322 9.04866H116.657V7.38438L118.322 7.38438V9.04866ZM118.322 10.713V9.04866H119.986V10.713H118.322ZM118.322 12.3772H116.657V10.713H118.322V12.3772ZM118.322 14.0415V12.3772H119.986V14.0415H118.322ZM118.322 15.7058H116.657V14.0415H118.322V15.7058ZM118.322 17.3701V15.7058H119.986V17.3701H118.322ZM118.322 19.0344H116.657V17.3701H118.322V19.0344ZM118.322 20.6987V19.0344H119.986V20.6987H118.322ZM118.322 22.363H116.657V20.6987H118.322V22.363ZM118.322 24.0273V22.363H119.986V24.0273H118.322ZM118.322 25.6915H116.657V24.0273H118.322V25.6915ZM118.322 27.3558H119.986V25.6915H118.322V27.3558ZM118.322 27.3558V29.0201H116.657V27.3558H118.322ZM118.322 4.0558V2.39151H119.986V4.0558H118.322Z" fill="white"/>
<path fill-rule="evenodd" clip-rule="evenodd" d="M119.986 0.727264H121.65V2.39155H119.986V0.727264ZM119.986 4.0558H121.65V5.72009H119.986V4.0558ZM121.65 7.38438V5.72009H123.314V7.38438H121.65ZM121.65 9.04866H119.986V7.38438L121.65 7.38438V9.04866ZM121.65 10.713V9.04866H123.314V10.713H121.65ZM121.65 12.3772H119.986V10.713H121.65V12.3772ZM121.65 14.0415V12.3772H123.314V14.0415H121.65ZM121.65 15.7058H119.986V14.0415H121.65V15.7058ZM121.65 17.3701V15.7058H123.314V17.3701H121.65ZM121.65 19.0344H119.986V17.3701H121.65V19.0344ZM121.65 20.6987V19.0344H123.314V20.6987H121.65ZM121.65 22.363H119.986V20.6987H121.65V22.363ZM121.65 24.0273V22.363H123.314V24.0273H121.65ZM121.65 25.6915H119.986V24.0273H121.65V25.6915ZM121.65 27.3558H123.314V25.6915H121.65V27.3558ZM121.65 27.3558V29.0201H119.986V27.3558H121.65ZM121.65 4.0558V2.39151H123.314V4.0558H121.65Z" fill="white"/>
<path fill-rule="evenodd" clip-rule="evenodd" d="M123.314 0.727264H124.979V2.39155H123.314V0.727264ZM123.314 4.0558H124.979V5.72009H123.314V4.0558ZM124.979 7.38438V5.72009H126.643V7.38438H124.979ZM124.979 9.04866H123.314V7.38438L124.979 7.38438V9.04866ZM124.979 10.713V9.04866H126.643V10.713H124.979ZM124.979 12.3772H123.314V10.713H124.979V12.3772ZM124.979 14.0415V12.3772H126.643V14.0415H124.979ZM124.979 15.7058H123.314V14.0415H124.979V15.7058ZM124.979 17.3701V15.7058H126.643V17.3701H124.979ZM124.979 19.0344H123.314V17.3701H124.979V19.0344ZM124.979 20.6987V19.0344H126.643V20.6987H124.979ZM124.979 22.363H123.314V20.6987H124.979V22.363ZM124.979 24.0273V22.363H126.643V24.0273H124.979ZM124.979 25.6915H123.314V24.0273H124.979V25.6915ZM124.979 27.3558H126.643V25.6915H124.979V27.3558ZM124.979 27.3558V29.0201H123.314V27.3558H124.979ZM124.979 4.0558V2.39151H126.643V4.0558H124.979Z" fill="white"/>
<path fill-rule="evenodd" clip-rule="evenodd" d="M126.643 0.727264H128.307V2.39151H129.972V4.0558H128.307V2.39155H126.643V0.727264ZM128.307 5.72009H126.643V4.0558H128.307V5.72009ZM128.307 7.38438V5.72009H129.972V7.38438H128.307ZM128.307 9.04866H126.643V7.38438L128.307 7.38438V9.04866ZM128.307 10.713V9.04866H129.972V10.713H128.307ZM128.307 12.3772H126.643V10.713H128.307V12.3772ZM128.307 14.0415V12.3772H129.972V14.0415H128.307ZM128.307 15.7058H126.643V14.0415H128.307V15.7058ZM128.307 17.3701V15.7058H129.972V17.3701H128.307ZM128.307 19.0344H126.643V17.3701H128.307V19.0344ZM128.307 20.6987V19.0344H129.972V20.6987H128.307ZM128.307 22.363H126.643V20.6987H128.307V22.363ZM128.307 24.0273V22.363H129.972V24.0273H128.307ZM128.307 25.6915H126.643V24.0273H128.307V25.6915ZM128.307 27.3558H129.972V25.6915H128.307V27.3558ZM128.307 27.3558V29.0201H126.643V27.3558H128.307Z" fill="white"/>
<path fill-rule="evenodd" clip-rule="evenodd" d="M129.972 0.727264H131.636V2.39151H133.3V4.0558H131.636V2.39155H129.972V0.727264ZM131.636 5.72009H129.972V4.0558H131.636V5.72009ZM131.636 7.38438V5.72009H133.3V7.38438H131.636ZM131.636 9.04866H129.972V7.38438L131.636 7.38438V9.04866ZM131.636 10.713V9.04866H133.3V10.713H131.636ZM131.636 12.3772H129.972V10.713H131.636V12.3772ZM131.636 14.0415V12.3772H133.3V14.0415H131.636ZM131.636 15.7058H129.972V14.0415H131.636V15.7058ZM131.636 17.3701V15.7058H133.3V17.3701H131.636ZM131.636 19.0344H129.972V17.3701H131.636V19.0344ZM131.636 20.6987V19.0344H133.3V20.6987H131.636ZM131.636 22.363H129.972V20.6987H131.636V22.363ZM131.636 24.0273V22.363H133.3V24.0273H131.636ZM131.636 25.6915H129.972V24.0273H131.636V25.6915ZM131.636 27.3558H133.3V25.6915H131.636V27.3558ZM131.636 27.3558V29.0201H129.972V27.3558H131.636Z" fill="white"/>
<path fill-rule="evenodd" clip-rule="evenodd" d="M133.3 0.727264H134.965V2.39151H136.629V4.0558H134.964V2.39155H133.3V0.727264ZM134.964 5.72009H133.3V4.0558H134.964V5.72009ZM134.964 7.38438V5.72009H136.629V7.38438H134.964ZM134.964 9.04866H133.3V7.38438L134.964 7.38438V9.04866ZM134.964 10.713V9.04866H136.629V10.713H134.964ZM134.964 12.3772H133.3V10.713H134.964V12.3772ZM134.964 14.0415V12.3772H136.629V14.0415H134.964ZM134.964 15.7058H133.3V14.0415H134.964V15.7058ZM134.964 17.3701V15.7058H136.629V17.3701H134.964ZM134.964 19.0344H133.3V17.3701H134.964V19.0344ZM134.964 20.6987V19.0344H136.629V20.6987H134.964ZM134.964 22.363H133.3V20.6987H134.964V22.363ZM134.964 24.0273V22.363H136.629V24.0273H134.964ZM134.964 25.6915H133.3V24.0273H134.964V25.6915ZM134.964 27.3558H136.629V25.6915H134.964V27.3558ZM134.964 27.3558V29.0201H133.3V27.3558H134.964Z" fill="white"/>
<path fill-rule="evenodd" clip-rule="evenodd" d="M136.629 0.727264H138.293V2.39151H139.957V4.0558H138.293V2.39155H136.629V0.727264ZM138.293 5.72009H136.629V4.0558H138.293V5.72009ZM138.293 7.38438V5.72009H139.957V7.38438H138.293ZM138.293 9.04866H136.629V7.38438L138.293 7.38438V9.04866ZM138.293 10.713V9.04866H139.957V10.713H138.293ZM138.293 12.3772H136.629V10.713H138.293V12.3772ZM138.293 14.0415V12.3772H139.957V14.0415H138.293ZM138.293 15.7058H136.629V14.0415H138.293V15.7058ZM138.293 17.3701V15.7058H139.957V17.3701H138.293ZM138.293 19.0344H136.629V17.3701H138.293V19.0344ZM138.293 20.6987V19.0344H139.957V20.6987H138.293ZM138.293 22.363H136.629V20.6987H138.293V22.363ZM138.293 24.0273V22.363H139.957V24.0273H138.293ZM138.293 25.6915H136.629V24.0273H138.293V25.6915ZM138.293 27.3558H139.957V25.6915H138.293V27.3558ZM138.293 27.3558V29.0201H136.629V27.3558H138.293Z" fill="white"/>
<path fill-rule="evenodd" clip-rule="evenodd" d="M139.957 0.727264H141.622V2.39151H143.286V4.0558H141.622V2.39155H139.957V0.727264ZM141.622 5.72009H139.957V4.0558H141.622V5.72009ZM141.622 7.38438V5.72009H143.286V7.38438H141.622ZM141.622 9.04866H139.957V7.38438L141.622 7.38438V9.04866ZM141.622 10.713V9.04866H143.286V10.713H141.622ZM141.622 12.3772H139.957V10.713H141.622V12.3772ZM141.622 14.0415V12.3772H143.286V14.0415H141.622ZM141.622 15.7058H139.957V14.0415H141.622V15.7058ZM141.622 17.3701V15.7058H143.286V17.3701H141.622ZM141.622 19.0344H139.957V17.3701H141.622V19.0344ZM141.622 20.6987V19.0344H143.286V20.6987H141.622ZM141.622 22.363H139.957V20.6987H141.622V22.363ZM141.622 24.0273V22.363H143.286V24.0273H141.622ZM141.622 25.6915H139.957V24.0273H141.622V25.6915ZM141.622 27.3558H143.286V25.6915H141.622V27.3558ZM141.622 27.3558V29.0201H139.957V27.3558H141.622Z" fill="white"/>
<path fill-rule="evenodd" clip-rule="evenodd" d="M143.286 0.727264H144.95V2.39151H146.614V4.0558H144.95V2.39155H143.286V0.727264ZM144.95 5.72009H143.286V4.0558H144.95V5.72009ZM144.95 7.38438V5.72009H146.614V7.38438H144.95ZM144.95 9.04866H143.286V7.38438L144.95 7.38438V9.04866ZM144.95 10.713V9.04866H146.614V10.713H144.95ZM144.95 12.3772H143.286V10.713H144.95V12.3772ZM144.95 14.0415V12.3772H146.614V14.0415H144.95ZM144.95 15.7058H143.286V14.0415H144.95V15.7058ZM144.95 17.3701V15.7058H146.614V17.3701H144.95ZM144.95 19.0344H143.286V17.3701H144.95V19.0344ZM144.95 20.6987V19.0344H146.614V20.6987H144.95ZM144.95 22.363H143.286V20.6987H144.95V22.363ZM144.95 24.0273V22.363H146.614V24.0273H144.95ZM144.95 25.6915H143.286V24.0273H144.95V25.6915ZM144.95 27.3558H146.614V25.6915H144.95V27.3558ZM144.95 27.3558V29.0201H143.286V27.3558H144.95Z" fill="white"/>
<path fill-rule="evenodd" clip-rule="evenodd" d="M146.614 0.727264H148.279V2.39155H146.614V0.727264ZM146.615 4.0558H148.279V5.72009H146.615V4.0558ZM148.279 7.38438V5.72009H149.943V7.38438H148.279ZM148.279 9.04866H146.615V7.38438L148.279 7.38438V9.04866ZM148.279 10.713V9.04866H149.943V10.713H148.279ZM148.279 12.3772H146.615V10.713H148.279V12.3772ZM148.279 14.0415V12.3772H149.943V14.0415H148.279ZM148.279 15.7058H146.615V14.0415H148.279V15.7058ZM148.279 17.3701V15.7058H149.943V17.3701H148.279ZM148.279 19.0344H146.615V17.3701H148.279V19.0344ZM148.279 20.6987V19.0344H149.943V20.6987H148.279ZM148.279 22.363H146.615V20.6987H148.279V22.363ZM148.279 24.0273V22.363H149.943V24.0273H148.279ZM148.279 25.6915H146.615V24.0273H148.279V25.6915ZM148.279 27.3558H149.943V25.6915H148.279V27.3558ZM148.279 27.3558V29.0201H146.615V27.3558H148.279ZM148.279 4.0558V2.39151H149.943V4.0558H148.279Z" fill="white"/>
<path fill-rule="evenodd" clip-rule="evenodd" d="M149.943 29.02H148.278V30.6842H146.614V32.3485H148.279V30.6843H149.943V29.02ZM148.279 34.0128H149.943V32.3485H148.279V34.0128ZM148.279 35.677V34.0128L146.614 34.0128V35.677H148.279ZM148.279 37.3413H149.943V35.677H148.279V37.3413ZM148.279 39.0056V37.3413H146.614V39.0056H148.279ZM148.279 40.6699H149.943V39.0056H148.279V40.6699ZM148.279 42.3342V40.6699H146.614V42.3342H148.279ZM148.279 43.9985H149.943V42.3342H148.279V43.9985ZM148.279 45.6628V43.9985L146.614 43.9985V45.6628H148.279ZM148.279 47.3271H149.943V45.6628H148.279V47.3271ZM148.279 48.9913V47.3271H146.614V48.9913H148.279ZM148.279 50.6556H149.943V48.9913H148.279V50.6556ZM148.279 52.3199V50.6556H146.614V52.3199H148.279ZM148.279 53.9842H149.943V52.3199H148.279V53.9842ZM148.279 55.6485H146.614V53.9842H148.279V55.6485ZM148.279 55.6485V57.3128H149.943V55.6485H148.279Z" fill="white"/>
<path fill-rule="evenodd" clip-rule="evenodd" d="M146.614 29.0199H144.95V30.6842H146.614V29.0199ZM144.95 32.3485V30.6842H143.285V32.3485L144.95 32.3485ZM144.95 34.0128H146.614V32.3485H144.95V34.0128ZM144.95 35.677V34.0128L143.285 34.0128V35.677H144.95ZM144.95 37.3413H146.614V35.677H144.95V37.3413ZM144.95 39.0056V37.3413H143.285V39.0056H144.95ZM144.95 40.6699H146.614V39.0056H144.95V40.6699ZM144.95 42.3342V40.6699H143.285V42.3342H144.95ZM144.95 43.9985H146.614V42.3342H144.95V43.9985ZM144.95 45.6628V43.9985L143.285 43.9985V45.6628H144.95ZM144.95 47.3271H146.614V45.6628H144.95V47.3271ZM144.95 48.9913V47.3271H143.285V48.9913H144.95ZM144.95 50.6556H146.614V48.9913H144.95V50.6556ZM144.95 52.3199V50.6556H143.285V52.3199H144.95ZM144.95 53.9842H146.614V52.3199H144.95V53.9842ZM144.95 55.6485H143.285V53.9842H144.95V55.6485ZM144.95 55.6485V57.3128H146.614V55.6485H144.95Z" fill="white"/>
<path fill-rule="evenodd" clip-rule="evenodd" d="M143.286 29.0199H141.622V30.6842H143.286V29.0199ZM141.622 32.3485V30.6842H139.957V32.3485L141.622 32.3485ZM141.622 34.0128H143.286V32.3485H141.622V34.0128ZM141.622 35.677V34.0128L139.957 34.0128V35.677H141.622ZM141.622 37.3413H143.286V35.677H141.622V37.3413ZM141.622 39.0056V37.3413H139.957V39.0056H141.622ZM141.622 40.6699H143.286V39.0056H141.622V40.6699ZM141.622 42.3342V40.6699H139.957V42.3342H141.622ZM141.622 43.9985H143.286V42.3342H141.622V43.9985ZM141.622 45.6628V43.9985L139.957 43.9985V45.6628H141.622ZM141.622 47.3271H143.286V45.6628H141.622V47.3271ZM141.622 48.9913V47.3271H139.957V48.9913H141.622ZM141.622 50.6556H143.286V48.9913H141.622V50.6556ZM141.622 52.3199V50.6556H139.957V52.3199H141.622ZM141.622 53.9842H143.286V52.3199H141.622V53.9842ZM141.622 55.6485H139.957V53.9842H141.622V55.6485ZM141.622 55.6485V57.3128H143.286V55.6485H141.622Z" fill="white"/>
<path fill-rule="evenodd" clip-rule="evenodd" d="M139.957 29.02H138.293V30.6843H139.957V29.02ZM139.957 32.3485H138.293V34.0128H139.957V32.3485ZM138.293 35.677V34.0128L136.628 34.0128V35.677H138.293ZM138.293 37.3413H139.957V35.677H138.293V37.3413ZM138.293 39.0056V37.3413H136.628V39.0056H138.293ZM138.293 40.6699H139.957V39.0056H138.293V40.6699ZM138.293 42.3342V40.6699H136.628V42.3342H138.293ZM138.293 43.9985H139.957V42.3342H138.293V43.9985ZM138.293 45.6628V43.9985L136.628 43.9985V45.6628H138.293ZM138.293 47.3271H139.957V45.6628H138.293V47.3271ZM138.293 48.9913V47.3271H136.628V48.9913H138.293ZM138.293 50.6556H139.957V48.9913H138.293V50.6556ZM138.293 52.3199V50.6556H136.628V52.3199H138.293ZM138.293 53.9842H139.957V52.3199H138.293V53.9842ZM138.293 55.6485H136.628V53.9842H138.293V55.6485ZM138.293 55.6485V57.3128H139.957V55.6485H138.293ZM138.293 32.3485V30.6842H136.628V32.3485H138.293Z" fill="white"/>
<path fill-rule="evenodd" clip-rule="evenodd" d="M136.629 29.02H134.964V30.6843H136.629V29.02ZM136.628 32.3485H134.964V34.0128H136.628V32.3485ZM134.964 35.677V34.0128L133.3 34.0128V35.677H134.964ZM134.964 37.3413H136.628V35.677H134.964V37.3413ZM134.964 39.0056V37.3413H133.3V39.0056H134.964ZM134.964 40.6699H136.628V39.0056H134.964V40.6699ZM134.964 42.3342V40.6699H133.3V42.3342H134.964ZM134.964 43.9985H136.628V42.3342H134.964V43.9985ZM134.964 45.6628V43.9985L133.3 43.9985V45.6628H134.964ZM134.964 47.3271H136.628V45.6628H134.964V47.3271ZM134.964 48.9913V47.3271H133.3V48.9913H134.964ZM134.964 50.6556H136.628V48.9913H134.964V50.6556ZM134.964 52.3199V50.6556H133.3V52.3199H134.964ZM134.964 53.9842H136.628V52.3199H134.964V53.9842ZM134.964 55.6485H133.3V53.9842H134.964V55.6485ZM134.964 55.6485V57.3128H136.628V55.6485H134.964ZM134.964 32.3485V30.6842H133.3V32.3485H134.964Z" fill="white"/>
<path fill-rule="evenodd" clip-rule="evenodd" d="M133.3 29.02H131.636V30.6843H133.3V29.02ZM133.3 32.3485H131.636V34.0128H133.3V32.3485ZM131.636 35.677V34.0128L129.971 34.0128V35.677H131.636ZM131.636 37.3413H133.3V35.677H131.636V37.3413ZM131.636 39.0056V37.3413H129.971V39.0056H131.636ZM131.636 40.6699H133.3V39.0056H131.636V40.6699ZM131.636 42.3342V40.6699H129.971V42.3342H131.636ZM131.636 43.9985H133.3V42.3342H131.636V43.9985ZM131.636 45.6628V43.9985L129.971 43.9985V45.6628H131.636ZM131.636 47.3271H133.3V45.6628H131.636V47.3271ZM131.636 48.9913V47.3271H129.971V48.9913H131.636ZM131.636 50.6556H133.3V48.9913H131.636V50.6556ZM131.636 52.3199V50.6556H129.971V52.3199H131.636ZM131.636 53.9842H133.3V52.3199H131.636V53.9842ZM131.636 55.6485H129.971V53.9842H131.636V55.6485ZM131.636 55.6485V57.3128H133.3V55.6485H131.636ZM131.636 32.3485V30.6842H129.971V32.3485H131.636Z" fill="white"/>
<path fill-rule="evenodd" clip-rule="evenodd" d="M129.971 29.02H128.307V30.6843H129.971V29.02ZM129.971 32.3485H128.307V34.0128H129.971V32.3485ZM128.307 35.677V34.0128L126.643 34.0128V35.677H128.307ZM128.307 37.3413H129.971V35.677H128.307V37.3413ZM128.307 39.0056V37.3413H126.643V39.0056H128.307ZM128.307 40.6699H129.971V39.0056H128.307V40.6699ZM128.307 42.3342V40.6699H126.643V42.3342H128.307ZM128.307 43.9985H129.971V42.3342H128.307V43.9985ZM128.307 45.6628V43.9985L126.643 43.9985V45.6628H128.307ZM128.307 47.3271H129.971V45.6628H128.307V47.3271ZM128.307 48.9913V47.3271H126.643V48.9913H128.307ZM128.307 50.6556H129.971V48.9913H128.307V50.6556ZM128.307 52.3199V50.6556H126.643V52.3199H128.307ZM128.307 53.9842H129.971V52.3199H128.307V53.9842ZM128.307 55.6485H126.643V53.9842H128.307V55.6485ZM128.307 55.6485V57.3128H129.971V55.6485H128.307ZM128.307 32.3485V30.6842H126.643V32.3485H128.307Z" fill="white"/>
<path fill-rule="evenodd" clip-rule="evenodd" d="M126.643 29.02H124.979V30.6843H126.643V29.02ZM126.643 32.3485H124.979V34.0128H126.643V32.3485ZM124.979 35.677V34.0128L123.314 34.0128V35.677H124.979ZM124.979 37.3413H126.643V35.677H124.979V37.3413ZM124.979 39.0056V37.3413H123.314V39.0056H124.979ZM124.979 40.6699H126.643V39.0056H124.979V40.6699ZM124.979 42.3342V40.6699H123.314V42.3342H124.979ZM124.979 43.9985H126.643V42.3342H124.979V43.9985ZM124.979 45.6628V43.9985L123.314 43.9985V45.6628H124.979ZM124.979 47.3271H126.643V45.6628H124.979V47.3271ZM124.979 48.9913V47.3271H123.314V48.9913H124.979ZM124.979 50.6556H126.643V48.9913H124.979V50.6556ZM124.979 52.3199V50.6556H123.314V52.3199H124.979ZM124.979 53.9842H126.643V52.3199H124.979V53.9842ZM124.979 55.6485H123.314V53.9842H124.979V55.6485ZM124.979 55.6485V57.3128H126.643V55.6485H124.979ZM124.979 32.3485V30.6842H123.314V32.3485H124.979Z" fill="white"/>
<path fill-rule="evenodd" clip-rule="evenodd" d="M123.314 29.02H121.65V30.6842H119.986V32.3485H121.65V30.6843H123.314V29.02ZM121.65 34.0128H123.314V32.3485H121.65V34.0128ZM121.65 35.677V34.0128L119.986 34.0128V35.677H121.65ZM121.65 37.3413H123.314V35.677H121.65V37.3413ZM121.65 39.0056V37.3413H119.986V39.0056H121.65ZM121.65 40.6699H123.314V39.0056H121.65V40.6699ZM121.65 42.3342V40.6699H119.986V42.3342H121.65ZM121.65 43.9985H123.314V42.3342H121.65V43.9985ZM121.65 45.6628V43.9985L119.986 43.9985V45.6628H121.65ZM121.65 47.3271H123.314V45.6628H121.65V47.3271ZM121.65 48.9913V47.3271H119.986V48.9913H121.65ZM121.65 50.6556H123.314V48.9913H121.65V50.6556ZM121.65 52.3199V50.6556H119.986V52.3199H121.65ZM121.65 53.9842H123.314V52.3199H121.65V53.9842ZM121.65 55.6485H119.986V53.9842H121.65V55.6485ZM121.65 55.6485V57.3128H123.314V55.6485H121.65Z" fill="white"/>
<path fill-rule="evenodd" clip-rule="evenodd" d="M119.986 29.02H118.321V30.6842H116.657V32.3485H118.321V30.6843H119.986V29.02ZM118.321 34.0128H119.986V32.3485H118.321V34.0128ZM118.321 35.677V34.0128L116.657 34.0128V35.677H118.321ZM118.321 37.3413H119.986V35.677H118.321V37.3413ZM118.321 39.0056V37.3413H116.657V39.0056H118.321ZM118.321 40.6699H119.986V39.0056H118.321V40.6699ZM118.321 42.3342V40.6699H116.657V42.3342H118.321ZM118.321 43.9985H119.986V42.3342H118.321V43.9985ZM118.321 45.6628V43.9985L116.657 43.9985V45.6628H118.321ZM118.321 47.3271H119.986V45.6628H118.321V47.3271ZM118.321 48.9913V47.3271H116.657V48.9913H118.321ZM118.321 50.6556H119.986V48.9913H118.321V50.6556ZM118.321 52.3199V50.6556H116.657V52.3199H118.321ZM118.321 53.9842H119.986V52.3199H118.321V53.9842ZM118.321 55.6485H116.657V53.9842H118.321V55.6485ZM118.321 55.6485V57.3128H119.986V55.6485H118.321Z" fill="white"/>
<path fill-rule="evenodd" clip-rule="evenodd" d="M116.657 29.02H114.993V30.6842H113.329V32.3485H114.993V30.6843H116.657V29.02ZM114.993 34.0128H116.657V32.3485H114.993V34.0128ZM114.993 35.677V34.0128L113.329 34.0128V35.677H114.993ZM114.993 37.3413H116.657V35.677H114.993V37.3413ZM114.993 39.0056V37.3413H113.329V39.0056H114.993ZM114.993 40.6699H116.657V39.0056H114.993V40.6699ZM114.993 42.3342V40.6699H113.329V42.3342H114.993ZM114.993 43.9985H116.657V42.3342H114.993V43.9985ZM114.993 45.6628V43.9985L113.329 43.9985V45.6628H114.993ZM114.993 47.3271H116.657V45.6628H114.993V47.3271ZM114.993 48.9913V47.3271H113.329V48.9913H114.993ZM114.993 50.6556H116.657V48.9913H114.993V50.6556ZM114.993 52.3199V50.6556H113.329V52.3199H114.993ZM114.993 53.9842H116.657V52.3199H114.993V53.9842ZM114.993 55.6485H113.329V53.9842H114.993V55.6485ZM114.993 55.6485V57.3128H116.657V55.6485H114.993Z" fill="white"/>
<path fill-rule="evenodd" clip-rule="evenodd" d="M113.328 29.02H111.664V30.6842H110V32.3485H111.664V30.6843H113.328V29.02ZM111.664 34.0128H113.329V32.3485H111.664V34.0128ZM111.664 35.677V34.0128L110 34.0128V35.677H111.664ZM111.664 37.3413H113.329V35.677H111.664V37.3413ZM111.664 39.0056V37.3413H110V39.0056H111.664ZM111.664 40.6699H113.329V39.0056H111.664V40.6699ZM111.664 42.3342V40.6699H110V42.3342H111.664ZM111.664 43.9985H113.329V42.3342H111.664V43.9985ZM111.664 45.6628V43.9985L110 43.9985V45.6628H111.664ZM111.664 47.3271H113.329V45.6628H111.664V47.3271ZM111.664 48.9913V47.3271H110V48.9913H111.664ZM111.664 50.6556H113.329V48.9913H111.664V50.6556ZM111.664 52.3199V50.6556H110V52.3199H111.664ZM111.664 53.9842H113.329V52.3199H111.664V53.9842ZM111.664 55.6485H110V53.9842H111.664V55.6485ZM111.664 55.6485V57.3128H113.329V55.6485H111.664Z" fill="white"/>
<path fill-rule="evenodd" clip-rule="evenodd" d="M110 29.02H108.336V30.6842H106.671V32.3485H108.336V30.6843H110V29.02ZM108.336 34.0128H110V32.3485H108.336V34.0128ZM108.336 35.677V34.0128L106.671 34.0128V35.677H108.336ZM108.336 37.3413H110V35.677H108.336V37.3413ZM108.336 39.0056V37.3413H106.671V39.0056H108.336ZM108.336 40.6699H110V39.0056H108.336V40.6699ZM108.336 42.3342V40.6699H106.671V42.3342H108.336ZM108.336 43.9985H110V42.3342H108.336V43.9985ZM108.336 45.6628V43.9985L106.671 43.9985V45.6628H108.336ZM108.336 47.3271H110V45.6628H108.336V47.3271ZM108.336 48.9913V47.3271H106.671V48.9913H108.336ZM108.336 50.6556H110V48.9913H108.336V50.6556ZM108.336 52.3199V50.6556H106.671V52.3199H108.336ZM108.336 53.9842H110V52.3199H108.336V53.9842ZM108.336 55.6485H106.671V53.9842H108.336V55.6485ZM108.336 55.6485V57.3128H110V55.6485H108.336Z" fill="white"/>
<path fill-rule="evenodd" clip-rule="evenodd" d="M106.671 29.02H105.007V30.6842H103.343V32.3485H105.007V30.6843H106.671V29.02ZM105.007 34.0128H106.671V32.3485H105.007V34.0128ZM105.007 35.677V34.0128L103.343 34.0128V35.677H105.007ZM105.007 37.3413H106.671V35.677H105.007V37.3413ZM105.007 39.0056V37.3413H103.343V39.0056H105.007ZM105.007 40.6699H106.671V39.0056H105.007V40.6699ZM105.007 42.3342V40.6699H103.343V42.3342H105.007ZM105.007 43.9985H106.671V42.3342H105.007V43.9985ZM105.007 45.6628V43.9985L103.343 43.9985V45.6628H105.007ZM105.007 47.3271H106.671V45.6628H105.007V47.3271ZM105.007 48.9913V47.3271H103.343V48.9913H105.007ZM105.007 50.6556H106.671V48.9913H105.007V50.6556ZM105.007 52.3199V50.6556H103.343V52.3199H105.007ZM105.007 53.9842H106.671V52.3199H105.007V53.9842ZM105.007 55.6485H103.343V53.9842H105.007V55.6485ZM105.007 55.6485V57.3128H106.671V55.6485H105.007Z" fill="white"/>
<path fill-rule="evenodd" clip-rule="evenodd" d="M103.343 29.0199H101.678V30.6842H103.343V29.0199ZM101.678 32.3485V30.6842H100.014V32.3485L101.678 32.3485ZM101.678 34.0128H103.343V32.3485H101.678V34.0128ZM101.678 35.677V34.0128L100.014 34.0128V35.677H101.678ZM101.678 37.3413H103.343V35.677H101.678V37.3413ZM101.678 39.0056V37.3413H100.014V39.0056H101.678ZM101.678 40.6699H103.343V39.0056H101.678V40.6699ZM101.678 42.3342V40.6699H100.014V42.3342H101.678ZM101.678 43.9985H103.343V42.3342H101.678V43.9985ZM101.678 45.6628V43.9985L100.014 43.9985V45.6628H101.678ZM101.678 47.3271H103.343V45.6628H101.678V47.3271ZM101.678 48.9913V47.3271H100.014V48.9913H101.678ZM101.678 50.6556H103.343V48.9913H101.678V50.6556ZM101.678 52.3199V50.6556H100.014V52.3199H101.678ZM101.678 53.9842H103.343V52.3199H101.678V53.9842ZM101.678 55.6485H100.014V53.9842H101.678V55.6485ZM101.678 55.6485V57.3128H103.343V55.6485H101.678Z" fill="white"/>
<path fill-rule="evenodd" clip-rule="evenodd" d="M100.014 29.02H98.35V30.6843H100.014V29.02ZM100.014 32.3485H98.3498V34.0128H100.014V32.3485ZM98.3498 35.677V34.0128L96.6855 34.0128V35.677H98.3498ZM98.3498 37.3413H100.014V35.677H98.3498V37.3413ZM98.3498 39.0056V37.3413H96.6855V39.0056H98.3498ZM98.3498 40.6699H100.014V39.0056H98.3498V40.6699ZM98.3498 42.3342V40.6699H96.6855V42.3342H98.3498ZM98.3498 43.9985H100.014V42.3342H98.3498V43.9985ZM98.3498 45.6628V43.9985L96.6855 43.9985V45.6628H98.3498ZM98.3498 47.3271H100.014V45.6628H98.3498V47.3271ZM98.3498 48.9913V47.3271H96.6855V48.9913H98.3498ZM98.3498 50.6556H100.014V48.9913H98.3498V50.6556ZM98.3498 52.3199V50.6556H96.6855V52.3199H98.3498ZM98.3498 53.9842H100.014V52.3199H98.3498V53.9842ZM98.3498 55.6485H96.6855V53.9842H98.3498V55.6485ZM98.3498 55.6485V57.3128H100.014V55.6485H98.3498ZM98.3498 32.3485V30.6842H96.6855V32.3485H98.3498Z" fill="white"/>
<path fill-rule="evenodd" clip-rule="evenodd" d="M96.6857 29.02H95.0214V30.6843H96.6857V29.02ZM96.6855 32.3485H95.0212V34.0128H96.6855V32.3485ZM95.0212 35.677V34.0128L93.3569 34.0128V35.677H95.0212ZM95.0212 37.3413H96.6855V35.677H95.0212V37.3413ZM95.0212 39.0056V37.3413H93.3569V39.0056H95.0212ZM95.0212 40.6699H96.6855V39.0056H95.0212V40.6699ZM95.0212 42.3342V40.6699H93.3569V42.3342H95.0212ZM95.0212 43.9985H96.6855V42.3342H95.0212V43.9985ZM95.0212 45.6628V43.9985L93.3569 43.9985V45.6628H95.0212ZM95.0212 47.3271H96.6855V45.6628H95.0212V47.3271ZM95.0212 48.9913V47.3271H93.3569V48.9913H95.0212ZM95.0212 50.6556H96.6855V48.9913H95.0212V50.6556ZM95.0212 52.3199V50.6556H93.3569V52.3199H95.0212ZM95.0212 53.9842H96.6855V52.3199H95.0212V53.9842ZM95.0212 55.6485H93.3569V53.9842H95.0212V55.6485ZM95.0212 55.6485V57.3128H96.6855V55.6485H95.0212ZM95.0212 32.3485V30.6842H93.3569V32.3485H95.0212Z" fill="white"/>
<path fill-rule="evenodd" clip-rule="evenodd" d="M93.3571 29.02H91.6928V30.6843H93.3571V29.02ZM93.357 32.3485H91.6927V34.0128H93.357V32.3485ZM91.6927 35.677V34.0128L90.0284 34.0128V35.677H91.6927ZM91.6927 37.3413H93.357V35.677H91.6927V37.3413ZM91.6927 39.0056V37.3413H90.0284V39.0056H91.6927ZM91.6927 40.6699H93.357V39.0056H91.6927V40.6699ZM91.6927 42.3342V40.6699H90.0284V42.3342H91.6927ZM91.6927 43.9985H93.357V42.3342H91.6927V43.9985ZM91.6927 45.6628V43.9985L90.0284 43.9985V45.6628H91.6927ZM91.6927 47.3271H93.357V45.6628H91.6927V47.3271ZM91.6927 48.9913V47.3271H90.0284V48.9913H91.6927ZM91.6927 50.6556H93.357V48.9913H91.6927V50.6556ZM91.6927 52.3199V50.6556H90.0284V52.3199H91.6927ZM91.6927 53.9842H93.357V52.3199H91.6927V53.9842ZM91.6927 55.6485H90.0284V53.9842H91.6927V55.6485ZM91.6927 55.6485V57.3128H93.357V55.6485H91.6927ZM91.6927 32.3485V30.6842H90.0284V32.3485H91.6927Z" fill="white"/>
<path fill-rule="evenodd" clip-rule="evenodd" d="M90.0285 29.02H88.3642V30.6843H90.0285V29.02ZM90.0284 32.3485H88.3641V34.0128H90.0284V32.3485ZM88.3641 35.677V34.0128L86.6998 34.0128V35.677H88.3641ZM88.3641 37.3413H90.0284V35.677H88.3641V37.3413ZM88.3641 39.0056V37.3413H86.6998V39.0056H88.3641ZM88.3641 40.6699H90.0284V39.0056H88.3641V40.6699ZM88.3641 42.3342V40.6699H86.6998V42.3342H88.3641ZM88.3641 43.9985H90.0284V42.3342H88.3641V43.9985ZM88.3641 45.6628V43.9985L86.6998 43.9985V45.6628H88.3641ZM88.3641 47.3271H90.0284V45.6628H88.3641V47.3271ZM88.3641 48.9913V47.3271H86.6998V48.9913H88.3641ZM88.3641 50.6556H90.0284V48.9913H88.3641V50.6556ZM88.3641 52.3199V50.6556H86.6998V52.3199H88.3641ZM88.3641 53.9842H90.0284V52.3199H88.3641V53.9842ZM88.3641 55.6485H86.6998V53.9842H88.3641V55.6485ZM88.3641 55.6485V57.3128H90.0284V55.6485H88.3641ZM88.3641 32.3485V30.6842H86.6998V32.3485H88.3641Z" fill="white"/>
<path fill-rule="evenodd" clip-rule="evenodd" d="M86.7 29.02H85.0357V30.6843H86.7V29.02ZM86.6999 32.3485H85.0356V34.0128H86.6999V32.3485ZM85.0356 35.677V34.0128L83.3713 34.0128V35.677H85.0356ZM85.0356 37.3413H86.6999V35.677H85.0356V37.3413ZM85.0356 39.0056V37.3413H83.3713V39.0056H85.0356ZM85.0356 40.6699H86.6999V39.0056H85.0356V40.6699ZM85.0356 42.3342V40.6699H83.3713V42.3342H85.0356ZM85.0356 43.9985H86.6999V42.3342H85.0356V43.9985ZM85.0356 45.6628V43.9985L83.3713 43.9985V45.6628H85.0356ZM85.0356 47.3271H86.6999V45.6628H85.0356V47.3271ZM85.0356 48.9913V47.3271H83.3713V48.9913H85.0356ZM85.0356 50.6556H86.6999V48.9913H85.0356V50.6556ZM85.0356 52.3199V50.6556H83.3713V52.3199H85.0356ZM85.0356 53.9842H86.6999V52.3199H85.0356V53.9842ZM85.0356 55.6485H83.3713V53.9842H85.0356V55.6485ZM85.0356 55.6485V57.3128H86.6999V55.6485H85.0356ZM85.0356 32.3485V30.6842H83.3713V32.3485H85.0356Z" fill="white"/>
<path fill-rule="evenodd" clip-rule="evenodd" d="M83.3714 29.02H81.7071V30.6843H83.3714V29.02ZM83.3714 32.3485H81.7071V34.0128H83.3714V32.3485ZM81.7071 35.677V34.0128L80.0428 34.0128V35.677H81.7071ZM81.7071 37.3413H83.3714V35.677H81.7071V37.3413ZM81.7071 39.0056V37.3413H80.0428V39.0056H81.7071ZM81.7071 40.6699H83.3714V39.0056H81.7071V40.6699ZM81.7071 42.3342V40.6699H80.0428V42.3342H81.7071ZM81.7071 43.9985H83.3714V42.3342H81.7071V43.9985ZM81.7071 45.6628V43.9985L80.0428 43.9985V45.6628H81.7071ZM81.7071 47.3271H83.3714V45.6628H81.7071V47.3271ZM81.7071 48.9913V47.3271H80.0428V48.9913H81.7071ZM81.7071 50.6556H83.3714V48.9913H81.7071V50.6556ZM81.7071 52.3199V50.6556H80.0428V52.3199H81.7071ZM81.7071 53.9842H83.3714V52.3199H81.7071V53.9842ZM81.7071 55.6485H80.0428V53.9842H81.7071V55.6485ZM81.7071 55.6485V57.3128H83.3714V55.6485H81.7071ZM81.7071 32.3485V30.6842H80.0428V32.3485H81.7071Z" fill="white"/>
<path fill-rule="evenodd" clip-rule="evenodd" d="M80.0428 29.02H78.3785V30.6842H76.7142V32.3485H78.3785V30.6843H80.0428V29.02ZM78.3785 34.0128H80.0428V32.3485H78.3785V34.0128ZM78.3785 35.677V34.0128L76.7142 34.0128V35.677H78.3785ZM78.3785 37.3413H80.0428V35.677H78.3785V37.3413ZM78.3785 39.0056V37.3413H76.7142V39.0056H78.3785ZM78.3785 40.6699H80.0428V39.0056H78.3785V40.6699ZM78.3785 42.3342V40.6699H76.7142V42.3342H78.3785ZM78.3785 43.9985H80.0428V42.3342H78.3785V43.9985ZM78.3785 45.6628V43.9985L76.7142 43.9985V45.6628H78.3785ZM78.3785 47.3271H80.0428V45.6628H78.3785V47.3271ZM78.3785 48.9913V47.3271H76.7142V48.9913H78.3785ZM78.3785 50.6556H80.0428V48.9913H78.3785V50.6556ZM78.3785 52.3199V50.6556H76.7142V52.3199H78.3785ZM78.3785 53.9842H80.0428V52.3199H78.3785V53.9842ZM78.3785 55.6485H76.7142V53.9842H78.3785V55.6485ZM78.3785 55.6485V57.3128H80.0428V55.6485H78.3785Z" fill="white"/>
<path fill-rule="evenodd" clip-rule="evenodd" d="M76.7142 29.02H75.0499V30.6842H73.3857V32.3485H75.0499V30.6843H76.7142V29.02ZM75.0499 34.0128H76.7142V32.3485H75.0499V34.0128ZM75.0499 35.677V34.0128L73.3857 34.0128V35.677H75.0499ZM75.0499 37.3413H76.7142V35.677H75.0499V37.3413ZM75.0499 39.0056V37.3413H73.3857V39.0056H75.0499ZM75.0499 40.6699H76.7142V39.0056H75.0499V40.6699ZM75.0499 42.3342V40.6699H73.3857V42.3342H75.0499ZM75.0499 43.9985H76.7142V42.3342H75.0499V43.9985ZM75.0499 45.6628V43.9985L73.3857 43.9985V45.6628H75.0499ZM75.0499 47.3271H76.7142V45.6628H75.0499V47.3271ZM75.0499 48.9913V47.3271H73.3857V48.9913H75.0499ZM75.0499 50.6556H76.7142V48.9913H75.0499V50.6556ZM75.0499 52.3199V50.6556H73.3857V52.3199H75.0499ZM75.0499 53.9842H76.7142V52.3199H75.0499V53.9842ZM75.0499 55.6485H73.3857V53.9842H75.0499V55.6485ZM75.0499 55.6485V57.3128H76.7142V55.6485H75.0499Z" fill="white"/>
<path fill-rule="evenodd" clip-rule="evenodd" d="M73.3856 29.02H71.7213V30.6842H70.0571V32.3485H71.7214V30.6843H73.3856V29.02ZM71.7214 34.0128H73.3857V32.3485H71.7214V34.0128ZM71.7214 35.677V34.0128L70.0571 34.0128V35.677H71.7214ZM71.7214 37.3413H73.3857V35.677H71.7214V37.3413ZM71.7214 39.0056V37.3413H70.0571V39.0056H71.7214ZM71.7214 40.6699H73.3857V39.0056H71.7214V40.6699ZM71.7214 42.3342V40.6699H70.0571V42.3342H71.7214ZM71.7214 43.9985H73.3857V42.3342H71.7214V43.9985ZM71.7214 45.6628V43.9985L70.0571 43.9985V45.6628H71.7214ZM71.7214 47.3271H73.3857V45.6628H71.7214V47.3271ZM71.7214 48.9913V47.3271H70.0571V48.9913H71.7214ZM71.7214 50.6556H73.3857V48.9913H71.7214V50.6556ZM71.7214 52.3199V50.6556H70.0571V52.3199H71.7214ZM71.7214 53.9842H73.3857V52.3199H71.7214V53.9842ZM71.7214 55.6485H70.0571V53.9842H71.7214V55.6485ZM71.7214 55.6485V57.3128H73.3857V55.6485H71.7214Z" fill="white"/>
<path fill-rule="evenodd" clip-rule="evenodd" d="M70.0569 29.02H68.3926V30.6842H66.7285V32.3485H68.3928V30.6843H70.0569V29.02ZM68.3928 34.0128H70.0571V32.3485H68.3928V34.0128ZM68.3928 35.677V34.0128L66.7285 34.0128V35.677H68.3928ZM68.3928 37.3413H70.0571V35.677H68.3928V37.3413ZM68.3928 39.0056V37.3413H66.7285V39.0056H68.3928ZM68.3928 40.6699H70.0571V39.0056H68.3928V40.6699ZM68.3928 42.3342V40.6699H66.7285V42.3342H68.3928ZM68.3928 43.9985H70.0571V42.3342H68.3928V43.9985ZM68.3928 45.6628V43.9985L66.7285 43.9985V45.6628H68.3928ZM68.3928 47.3271H70.0571V45.6628H68.3928V47.3271ZM68.3928 48.9913V47.3271H66.7285V48.9913H68.3928ZM68.3928 50.6556H70.0571V48.9913H68.3928V50.6556ZM68.3928 52.3199V50.6556H66.7285V52.3199H68.3928ZM68.3928 53.9842H70.0571V52.3199H68.3928V53.9842ZM68.3928 55.6485H66.7285V53.9842H68.3928V55.6485ZM68.3928 55.6485V57.3128H70.0571V55.6485H68.3928Z" fill="white"/>
<path fill-rule="evenodd" clip-rule="evenodd" d="M66.7283 29.02H65.0641V30.6842H63.3999V32.3485H65.0642V30.6843H66.7283V29.02ZM65.0642 34.0128H66.7285V32.3485H65.0642V34.0128ZM65.0642 35.677V34.0128L63.3999 34.0128V35.677H65.0642ZM65.0642 37.3413H66.7285V35.677H65.0642V37.3413ZM65.0642 39.0056V37.3413H63.3999V39.0056H65.0642ZM65.0642 40.6699H66.7285V39.0056H65.0642V40.6699ZM65.0642 42.3342V40.6699H63.3999V42.3342H65.0642ZM65.0642 43.9985H66.7285V42.3342H65.0642V43.9985ZM65.0642 45.6628V43.9985L63.3999 43.9985V45.6628H65.0642ZM65.0642 47.3271H66.7285V45.6628H65.0642V47.3271ZM65.0642 48.9913V47.3271H63.3999V48.9913H65.0642ZM65.0642 50.6556H66.7285V48.9913H65.0642V50.6556ZM65.0642 52.3199V50.6556H63.3999V52.3199H65.0642ZM65.0642 53.9842H66.7285V52.3199H65.0642V53.9842ZM65.0642 55.6485H63.3999V53.9842H65.0642V55.6485ZM65.0642 55.6485V57.3128H66.7285V55.6485H65.0642Z" fill="white"/>
<path fill-rule="evenodd" clip-rule="evenodd" d="M63.3997 29.02H61.7354V30.6842H60.0713V32.3485H61.7356V30.6843H63.3997V29.02ZM61.7356 34.0128H63.3999V32.3485H61.7356V34.0128ZM61.7356 35.677V34.0128L60.0713 34.0128V35.677H61.7356ZM61.7356 37.3413H63.3999V35.677H61.7356V37.3413ZM61.7356 39.0056V37.3413H60.0713V39.0056H61.7356ZM61.7356 40.6699H63.3999V39.0056H61.7356V40.6699ZM61.7356 42.3342V40.6699H60.0713V42.3342H61.7356ZM61.7356 43.9985H63.3999V42.3342H61.7356V43.9985ZM61.7356 45.6628V43.9985L60.0713 43.9985V45.6628H61.7356ZM61.7356 47.3271H63.3999V45.6628H61.7356V47.3271ZM61.7356 48.9913V47.3271H60.0713V48.9913H61.7356ZM61.7356 50.6556H63.3999V48.9913H61.7356V50.6556ZM61.7356 52.3199V50.6556H60.0713V52.3199H61.7356ZM61.7356 53.9842H63.3999V52.3199H61.7356V53.9842ZM61.7356 55.6485H60.0713V53.9842H61.7356V55.6485ZM61.7356 55.6485V57.3128H63.3999V55.6485H61.7356Z" fill="white"/>
<path fill-rule="evenodd" clip-rule="evenodd" d="M60.0714 29.02H58.4071V30.6843H60.0714V29.02ZM60.0711 32.3485H58.4068V34.0128H60.0711V32.3485ZM58.4068 35.677V34.0128L56.7425 34.0128V35.677H58.4068ZM58.4068 37.3413H60.0711V35.677H58.4068V37.3413ZM58.4068 39.0056V37.3413H56.7425V39.0056H58.4068ZM58.4068 40.6699H60.0711V39.0056H58.4068V40.6699ZM58.4068 42.3342V40.6699H56.7425V42.3342H58.4068ZM58.4068 43.9985H60.0711V42.3342H58.4068V43.9985ZM58.4068 45.6628V43.9985L56.7425 43.9985V45.6628H58.4068ZM58.4068 47.3271H60.0711V45.6628H58.4068V47.3271ZM58.4068 48.9913V47.3271H56.7425V48.9913H58.4068ZM58.4068 50.6556H60.0711V48.9913H58.4068V50.6556ZM58.4068 52.3199V50.6556H56.7425V52.3199H58.4068ZM58.4068 53.9842H60.0711V52.3199H58.4068V53.9842ZM58.4068 55.6485H56.7425V53.9842H58.4068V55.6485ZM58.4068 55.6485V57.3128H60.0711V55.6485H58.4068ZM58.4068 32.3485V30.6842H56.7425V32.3485H58.4068Z" fill="white"/>
<path fill-rule="evenodd" clip-rule="evenodd" d="M56.7428 29.02H55.0785V30.6843H56.7428V29.02ZM56.7426 32.3485H55.0783V34.0128H56.7426V32.3485ZM55.0783 35.677V34.0128L53.414 34.0128V35.677H55.0783ZM55.0783 37.3413H56.7426V35.677H55.0783V37.3413ZM55.0783 39.0056V37.3413H53.414V39.0056H55.0783ZM55.0783 40.6699H56.7426V39.0056H55.0783V40.6699ZM55.0783 42.3342V40.6699H53.414V42.3342H55.0783ZM55.0783 43.9985H56.7426V42.3342H55.0783V43.9985ZM55.0783 45.6628V43.9985L53.414 43.9985V45.6628H55.0783ZM55.0783 47.3271H56.7426V45.6628H55.0783V47.3271ZM55.0783 48.9913V47.3271H53.414V48.9913H55.0783ZM55.0783 50.6556H56.7426V48.9913H55.0783V50.6556ZM55.0783 52.3199V50.6556H53.414V52.3199H55.0783ZM55.0783 53.9842H56.7426V52.3199H55.0783V53.9842ZM55.0783 55.6485H53.414V53.9842H55.0783V55.6485ZM55.0783 55.6485V57.3128H56.7426V55.6485H55.0783ZM55.0783 32.3485V30.6842H53.414V32.3485H55.0783Z" fill="white"/>
<path fill-rule="evenodd" clip-rule="evenodd" d="M53.4142 29.02H51.7499V30.6843H53.4142V29.02ZM53.414 32.3485H51.7497V34.0128H53.414V32.3485ZM51.7497 35.677V34.0128L50.0854 34.0128V35.677H51.7497ZM51.7497 37.3413H53.414V35.677H51.7497V37.3413ZM51.7497 39.0056V37.3413H50.0854V39.0056H51.7497ZM51.7497 40.6699H53.414V39.0056H51.7497V40.6699ZM51.7497 42.3342V40.6699H50.0854V42.3342H51.7497ZM51.7497 43.9985H53.414V42.3342H51.7497V43.9985ZM51.7497 45.6628V43.9985L50.0854 43.9985V45.6628H51.7497ZM51.7497 47.3271H53.414V45.6628H51.7497V47.3271ZM51.7497 48.9913V47.3271H50.0854V48.9913H51.7497ZM51.7497 50.6556H53.414V48.9913H51.7497V50.6556ZM51.7497 52.3199V50.6556H50.0854V52.3199H51.7497ZM51.7497 53.9842H53.414V52.3199H51.7497V53.9842ZM51.7497 55.6485H50.0854V53.9842H51.7497V55.6485ZM51.7497 55.6485V57.3128H53.414V55.6485H51.7497ZM51.7497 32.3485V30.6842H50.0854V32.3485H51.7497Z" fill="white"/>
<path fill-rule="evenodd" clip-rule="evenodd" d="M50.0856 29.02H48.4213V30.6843H50.0856V29.02ZM50.0855 32.3485H48.4212V34.0128H50.0855V32.3485ZM48.4212 35.677V34.0128L46.7569 34.0128V35.677H48.4212ZM48.4212 37.3413H50.0855V35.677H48.4212V37.3413ZM48.4212 39.0056V37.3413H46.7569V39.0056H48.4212ZM48.4212 40.6699H50.0855V39.0056H48.4212V40.6699ZM48.4212 42.3342V40.6699H46.7569V42.3342H48.4212ZM48.4212 43.9985H50.0855V42.3342H48.4212V43.9985ZM48.4212 45.6628V43.9985L46.7569 43.9985V45.6628H48.4212ZM48.4212 47.3271H50.0855V45.6628H48.4212V47.3271ZM48.4212 48.9913V47.3271H46.7569V48.9913H48.4212ZM48.4212 50.6556H50.0855V48.9913H48.4212V50.6556ZM48.4212 52.3199V50.6556H46.7569V52.3199H48.4212ZM48.4212 53.9842H50.0855V52.3199H48.4212V53.9842ZM48.4212 55.6485H46.7569V53.9842H48.4212V55.6485ZM48.4212 55.6485V57.3128H50.0855V55.6485H48.4212ZM48.4212 32.3485V30.6842H46.7569V32.3485H48.4212Z" fill="white"/>
<path fill-rule="evenodd" clip-rule="evenodd" d="M46.7571 29.02H45.0928V30.6843H46.7571V29.02ZM46.757 32.3485H45.0927V34.0128H46.757V32.3485ZM45.0927 35.677V34.0128L43.4284 34.0128V35.677H45.0927ZM45.0927 37.3413H46.757V35.677H45.0927V37.3413ZM45.0927 39.0056V37.3413H43.4284V39.0056H45.0927ZM45.0927 40.6699H46.757V39.0056H45.0927V40.6699ZM45.0927 42.3342V40.6699H43.4284V42.3342H45.0927ZM45.0927 43.9985H46.757V42.3342H45.0927V43.9985ZM45.0927 45.6628V43.9985L43.4284 43.9985V45.6628H45.0927ZM45.0927 47.3271H46.757V45.6628H45.0927V47.3271ZM45.0927 48.9913V47.3271H43.4284V48.9913H45.0927ZM45.0927 50.6556H46.757V48.9913H45.0927V50.6556ZM45.0927 52.3199V50.6556H43.4284V52.3199H45.0927ZM45.0927 53.9842H46.757V52.3199H45.0927V53.9842ZM45.0927 55.6485H43.4284V53.9842H45.0927V55.6485ZM45.0927 55.6485V57.3128H46.757V55.6485H45.0927ZM45.0927 32.3485V30.6842H43.4284V32.3485H45.0927Z" fill="white"/>
<path fill-rule="evenodd" clip-rule="evenodd" d="M43.4285 29.02H41.7642V30.6843H43.4285V29.02ZM43.4284 32.3485H41.7641V34.0128H43.4284V32.3485ZM41.7641 35.677V34.0128L40.0998 34.0128V35.677H41.7641ZM41.7641 37.3413H43.4284V35.677H41.7641V37.3413ZM41.7641 39.0056V37.3413H40.0998V39.0056H41.7641ZM41.7641 40.6699H43.4284V39.0056H41.7641V40.6699ZM41.7641 42.3342V40.6699H40.0998V42.3342H41.7641ZM41.7641 43.9985H43.4284V42.3342H41.7641V43.9985ZM41.7641 45.6628V43.9985L40.0998 43.9985V45.6628H41.7641ZM41.7641 47.3271H43.4284V45.6628H41.7641V47.3271ZM41.7641 48.9913V47.3271H40.0998V48.9913H41.7641ZM41.7641 50.6556H43.4284V48.9913H41.7641V50.6556ZM41.7641 52.3199V50.6556H40.0998V52.3199H41.7641ZM41.7641 53.9842H43.4284V52.3199H41.7641V53.9842ZM41.7641 55.6485H40.0998V53.9842H41.7641V55.6485ZM41.7641 55.6485V57.3128H43.4284V55.6485H41.7641ZM41.7641 32.3485V30.6842H40.0998V32.3485H41.7641Z" fill="white"/>
<path fill-rule="evenodd" clip-rule="evenodd" d="M40.0999 29.02H38.4356V30.6843H40.0999V29.02ZM40.0999 32.3485H38.4356V34.0128H40.0999V32.3485ZM38.4356 35.677V34.0128L36.7713 34.0128V35.677H38.4356ZM38.4356 37.3413H40.0999V35.677H38.4356V37.3413ZM38.4356 39.0056V37.3413H36.7713V39.0056H38.4356ZM38.4356 40.6699H40.0999V39.0056H38.4356V40.6699ZM38.4356 42.3342V40.6699H36.7713V42.3342H38.4356ZM38.4356 43.9985H40.0999V42.3342H38.4356V43.9985ZM38.4356 45.6628V43.9985L36.7713 43.9985V45.6628H38.4356ZM38.4356 47.3271H40.0999V45.6628H38.4356V47.3271ZM38.4356 48.9913V47.3271H36.7713V48.9913H38.4356ZM38.4356 50.6556H40.0999V48.9913H38.4356V50.6556ZM38.4356 52.3199V50.6556H36.7713V52.3199H38.4356ZM38.4356 53.9842H40.0999V52.3199H38.4356V53.9842ZM38.4356 55.6485H36.7713V53.9842H38.4356V55.6485ZM38.4356 55.6485V57.3128H40.0999V55.6485H38.4356ZM38.4356 32.3485V30.6842H36.7713V32.3485H38.4356Z" fill="white"/>
<path fill-rule="evenodd" clip-rule="evenodd" d="M36.7713 29.02H35.107V30.6842H33.4427V32.3485H35.107V30.6843H36.7713V29.02ZM35.107 34.0128H36.7713V32.3485H35.107V34.0128ZM35.107 35.677V34.0128L33.4427 34.0128V35.677H35.107ZM35.107 37.3413H36.7713V35.677H35.107V37.3413ZM35.107 39.0056V37.3413H33.4427V39.0056H35.107ZM35.107 40.6699H36.7713V39.0056H35.107V40.6699ZM35.107 42.3342V40.6699H33.4427V42.3342H35.107ZM35.107 43.9985H36.7713V42.3342H35.107V43.9985ZM35.107 45.6628V43.9985L33.4427 43.9985V45.6628H35.107ZM35.107 47.3271H36.7713V45.6628H35.107V47.3271ZM35.107 48.9913V47.3271H33.4427V48.9913H35.107ZM35.107 50.6556H36.7713V48.9913H35.107V50.6556ZM35.107 52.3199V50.6556H33.4427V52.3199H35.107ZM35.107 53.9842H36.7713V52.3199H35.107V53.9842ZM35.107 55.6485H33.4427V53.9842H35.107V55.6485ZM35.107 55.6485V57.3128H36.7713V55.6485H35.107Z" fill="white"/>
<path fill-rule="evenodd" clip-rule="evenodd" d="M33.4427 29.02H31.7784V30.6842H30.1142V32.3485H31.7785V30.6843H33.4427V29.02ZM31.7785 34.0128H33.4427V32.3485H31.7785V34.0128ZM31.7785 35.677V34.0128L30.1142 34.0128V35.677H31.7785ZM31.7785 37.3413H33.4427V35.677H31.7785V37.3413ZM31.7785 39.0056V37.3413H30.1142V39.0056H31.7785ZM31.7785 40.6699H33.4427V39.0056H31.7785V40.6699ZM31.7785 42.3342V40.6699H30.1142V42.3342H31.7785ZM31.7785 43.9985H33.4427V42.3342H31.7785V43.9985ZM31.7785 45.6628V43.9985L30.1142 43.9985V45.6628H31.7785ZM31.7785 47.3271H33.4427V45.6628H31.7785V47.3271ZM31.7785 48.9913V47.3271H30.1142V48.9913H31.7785ZM31.7785 50.6556H33.4427V48.9913H31.7785V50.6556ZM31.7785 52.3199V50.6556H30.1142V52.3199H31.7785ZM31.7785 53.9842H33.4427V52.3199H31.7785V53.9842ZM31.7785 55.6485H30.1142V53.9842H31.7785V55.6485ZM31.7785 55.6485V57.3128H33.4427V55.6485H31.7785Z" fill="white"/>
<path fill-rule="evenodd" clip-rule="evenodd" d="M30.1141 29.02H28.4498V30.6842H26.7856V32.3485H28.4499V30.6843H30.1141V29.02ZM28.4499 34.0128H30.1142V32.3485H28.4499V34.0128ZM28.4499 35.677V34.0128L26.7856 34.0128V35.677H28.4499ZM28.4499 37.3413H30.1142V35.677H28.4499V37.3413ZM28.4499 39.0056V37.3413H26.7856V39.0056H28.4499ZM28.4499 40.6699H30.1142V39.0056H28.4499V40.6699ZM28.4499 42.3342V40.6699H26.7856V42.3342H28.4499ZM28.4499 43.9985H30.1142V42.3342H28.4499V43.9985ZM28.4499 45.6628V43.9985L26.7856 43.9985V45.6628H28.4499ZM28.4499 47.3271H30.1142V45.6628H28.4499V47.3271ZM28.4499 48.9913V47.3271H26.7856V48.9913H28.4499ZM28.4499 50.6556H30.1142V48.9913H28.4499V50.6556ZM28.4499 52.3199V50.6556H26.7856V52.3199H28.4499ZM28.4499 53.9842H30.1142V52.3199H28.4499V53.9842ZM28.4499 55.6485H26.7856V53.9842H28.4499V55.6485ZM28.4499 55.6485V57.3128H30.1142V55.6485H28.4499Z" fill="white"/>
<path fill-rule="evenodd" clip-rule="evenodd" d="M26.7854 29.02H25.1212V30.6842H23.457V32.3485H25.1213V30.6843H26.7854V29.02ZM25.1213 34.0128H26.7856V32.3485H25.1213V34.0128ZM25.1213 35.677V34.0128L23.457 34.0128V35.677H25.1213ZM25.1213 37.3413H26.7856V35.677H25.1213V37.3413ZM25.1213 39.0056V37.3413H23.457V39.0056H25.1213ZM25.1213 40.6699H26.7856V39.0056H25.1213V40.6699ZM25.1213 42.3342V40.6699H23.457V42.3342H25.1213ZM25.1213 43.9985H26.7856V42.3342H25.1213V43.9985ZM25.1213 45.6628V43.9985L23.457 43.9985V45.6628H25.1213ZM25.1213 47.3271H26.7856V45.6628H25.1213V47.3271ZM25.1213 48.9913V47.3271H23.457V48.9913H25.1213ZM25.1213 50.6556H26.7856V48.9913H25.1213V50.6556ZM25.1213 52.3199V50.6556H23.457V52.3199H25.1213ZM25.1213 53.9842H26.7856V52.3199H25.1213V53.9842ZM25.1213 55.6485H23.457V53.9842H25.1213V55.6485ZM25.1213 55.6485V57.3128H26.7856V55.6485H25.1213Z" fill="white"/>
<path fill-rule="evenodd" clip-rule="evenodd" d="M23.4569 29.02H21.7926V30.6842H20.1285V32.3485H21.7927V30.6843H23.4569V29.02ZM21.7927 34.0128H23.457V32.3485H21.7927V34.0128ZM21.7927 35.677V34.0128L20.1285 34.0128V35.677H21.7927ZM21.7927 37.3413H23.457V35.677H21.7927V37.3413ZM21.7927 39.0056V37.3413H20.1285V39.0056H21.7927ZM21.7927 40.6699H23.457V39.0056H21.7927V40.6699ZM21.7927 42.3342V40.6699H20.1285V42.3342H21.7927ZM21.7927 43.9985H23.457V42.3342H21.7927V43.9985ZM21.7927 45.6628V43.9985L20.1285 43.9985V45.6628H21.7927ZM21.7927 47.3271H23.457V45.6628H21.7927V47.3271ZM21.7927 48.9913V47.3271H20.1285V48.9913H21.7927ZM21.7927 50.6556H23.457V48.9913H21.7927V50.6556ZM21.7927 52.3199V50.6556H20.1285V52.3199H21.7927ZM21.7927 53.9842H23.457V52.3199H21.7927V53.9842ZM21.7927 55.6485H20.1285V53.9842H21.7927V55.6485ZM21.7927 55.6485V57.3128H23.457V55.6485H21.7927Z" fill="white"/>
<path fill-rule="evenodd" clip-rule="evenodd" d="M20.1319 29.02H18.4676V30.6842H16.8036V32.3485H18.4679V30.6843H20.1319V29.02ZM18.4679 34.0128H20.1321V32.3485H18.4679V34.0128ZM18.4679 35.677V34.0128L16.8036 34.0128V35.677H18.4679ZM18.4679 37.3413H20.1321V35.677H18.4679V37.3413ZM18.4679 39.0056V37.3413H16.8036V39.0056H18.4679ZM18.4679 40.6699H20.1321V39.0056H18.4679V40.6699ZM18.4679 42.3342V40.6699H16.8036V42.3342H18.4679ZM18.4679 43.9985H20.1321V42.3342H18.4679V43.9985ZM18.4679 45.6628V43.9985L16.8036 43.9985V45.6628H18.4679ZM18.4679 47.3271H20.1321V45.6628H18.4679V47.3271ZM18.4679 48.9913V47.3271H16.8036V48.9913H18.4679ZM18.4679 50.6556H20.1321V48.9913H18.4679V50.6556ZM18.4679 52.3199V50.6556H16.8036V52.3199H18.4679ZM18.4679 53.9842H20.1321V52.3199H18.4679V53.9842ZM18.4679 55.6485H16.8036V53.9842H18.4679V55.6485ZM18.4679 55.6485V57.3128H20.1321V55.6485H18.4679Z" fill="white"/>
<path fill-rule="evenodd" clip-rule="evenodd" d="M16.7999 29.02H15.1356V30.6843H16.7999V29.02ZM16.7996 32.3485H15.1353V34.0128H16.7996V32.3485ZM15.1353 35.677V34.0128L13.4711 34.0128V35.677H15.1353ZM15.1353 37.3413H16.7996V35.677H15.1353V37.3413ZM15.1353 39.0056V37.3413H13.4711V39.0056H15.1353ZM15.1353 40.6699H16.7996V39.0056H15.1353V40.6699ZM15.1353 42.3342V40.6699H13.4711V42.3342H15.1353ZM15.1353 43.9985H16.7996V42.3342H15.1353V43.9985ZM15.1353 45.6628V43.9985L13.4711 43.9985V45.6628H15.1353ZM15.1353 47.3271H16.7996V45.6628H15.1353V47.3271ZM15.1353 48.9913V47.3271H13.4711V48.9913H15.1353ZM15.1353 50.6556H16.7996V48.9913H15.1353V50.6556ZM15.1353 52.3199V50.6556H13.4711V52.3199H15.1353ZM15.1353 53.9842H16.7996V52.3199H15.1353V53.9842ZM15.1353 55.6485H13.4711V53.9842H15.1353V55.6485ZM15.1353 55.6485V57.3128H16.7996V55.6485H15.1353ZM15.1353 32.3485V30.6842H13.4711V32.3485H15.1353Z" fill="white"/>
<path fill-rule="evenodd" clip-rule="evenodd" d="M13.4713 29.02H11.807V30.6843H13.4713V29.02ZM13.4711 32.3485H11.8068V34.0128H13.4711V32.3485ZM11.8068 35.677V34.0128L10.1425 34.0128V35.677H11.8068ZM11.8068 37.3413H13.4711V35.677H11.8068V37.3413ZM11.8068 39.0056V37.3413H10.1425V39.0056H11.8068ZM11.8068 40.6699H13.4711V39.0056H11.8068V40.6699ZM11.8068 42.3342V40.6699H10.1425V42.3342H11.8068ZM11.8068 43.9985H13.4711V42.3342H11.8068V43.9985ZM11.8068 45.6628V43.9985L10.1425 43.9985V45.6628H11.8068ZM11.8068 47.3271H13.4711V45.6628H11.8068V47.3271ZM11.8068 48.9913V47.3271H10.1425V48.9913H11.8068ZM11.8068 50.6556H13.4711V48.9913H11.8068V50.6556ZM11.8068 52.3199V50.6556H10.1425V52.3199H11.8068ZM11.8068 53.9842H13.4711V52.3199H11.8068V53.9842ZM11.8068 55.6485H10.1425V53.9842H11.8068V55.6485ZM11.8068 55.6485V57.3128H13.4711V55.6485H11.8068ZM11.8068 32.3485V30.6842H10.1425V32.3485H11.8068Z" fill="white"/>
<path fill-rule="evenodd" clip-rule="evenodd" d="M10.1427 29.02H8.47841V30.6843H10.1427V29.02ZM10.1425 32.3485H8.47826V34.0128H10.1425V32.3485ZM8.47826 35.677V34.0128L6.81397 34.0128V35.677H8.47826ZM8.47826 37.3413H10.1425V35.677H8.47826V37.3413ZM8.47826 39.0056V37.3413H6.81397V39.0056H8.47826ZM8.47826 40.6699H10.1425V39.0056H8.47826V40.6699ZM8.47826 42.3342V40.6699H6.81397V42.3342H8.47826ZM8.47826 43.9985H10.1425V42.3342H8.47826V43.9985ZM8.47826 45.6628V43.9985L6.81397 43.9985V45.6628H8.47826ZM8.47826 47.3271H10.1425V45.6628H8.47826V47.3271ZM8.47826 48.9913V47.3271H6.81397V48.9913H8.47826ZM8.47826 50.6556H10.1425V48.9913H8.47826V50.6556ZM8.47826 52.3199V50.6556H6.81397V52.3199H8.47826ZM8.47826 53.9842H10.1425V52.3199H8.47826V53.9842ZM8.47826 55.6485H6.81397V53.9842H8.47826V55.6485ZM8.47826 55.6485V57.3128H10.1425V55.6485H8.47826ZM8.47826 32.3485V30.6842H6.81397V32.3485H8.47826Z" fill="white"/>
<path fill-rule="evenodd" clip-rule="evenodd" d="M6.81415 29.02H5.14986V30.6843H6.81415V29.02ZM6.81403 32.3485H5.14975V34.0128H6.81403V32.3485ZM5.14975 35.677V34.0128L3.48546 34.0128V35.677H5.14975ZM5.14975 37.3413H6.81403V35.677H5.14975V37.3413ZM5.14975 39.0056V37.3413H3.48546V39.0056H5.14975ZM5.14975 40.6699H6.81403V39.0056H5.14975V40.6699ZM5.14975 42.3342V40.6699H3.48546V42.3342H5.14975ZM5.14975 43.9985H6.81403V42.3342H5.14975V43.9985ZM5.14975 45.6628V43.9985L3.48546 43.9985V45.6628H5.14975ZM5.14975 47.3271H6.81403V45.6628H5.14975V47.3271ZM5.14975 48.9913V47.3271H3.48546V48.9913H5.14975ZM5.14975 50.6556H6.81403V48.9913H5.14975V50.6556ZM5.14975 52.3199V50.6556H3.48546V52.3199H5.14975ZM5.14975 53.9842H6.81403V52.3199H5.14975V53.9842ZM5.14975 55.6485H3.48546V53.9842H5.14975V55.6485ZM5.14975 55.6485V57.3128H6.81403V55.6485H5.14975ZM5.14975 32.3485V30.6842H3.48546V32.3485H5.14975Z" fill="white"/>
<path fill-rule="evenodd" clip-rule="evenodd" d="M3.4856 29.02H1.82131V30.6843H3.4856V29.02ZM3.48552 32.3485H1.82123V34.0128H3.48552V32.3485ZM1.82123 35.677V34.0128L0.156944 34.0128V35.677H1.82123ZM1.82123 37.3413H3.48552V35.677H1.82123V37.3413ZM1.82123 39.0056V37.3413H0.156944V39.0056H1.82123ZM1.82123 40.6699H3.48552V39.0056H1.82123V40.6699ZM1.82123 42.3342V40.6699H0.156944V42.3342H1.82123ZM1.82123 43.9985H3.48552V42.3342H1.82123V43.9985ZM1.82123 45.6628V43.9985L0.156944 43.9985V45.6628H1.82123ZM1.82123 47.3271H3.48552V45.6628H1.82123V47.3271ZM1.82123 48.9913V47.3271H0.156944V48.9913H1.82123ZM1.82123 50.6556H3.48552V48.9913H1.82123V50.6556ZM1.82123 52.3199V50.6556H0.156944V52.3199H1.82123ZM1.82123 53.9842H3.48552V52.3199H1.82123V53.9842ZM1.82123 55.6485H0.156944V53.9842H1.82123V55.6485ZM1.82123 55.6485V57.3128H3.48552V55.6485H1.82123ZM1.82123 32.3485V30.6842H0.156944V32.3485H1.82123Z" fill="white"/>
</svg>
