<svg width="19" height="19" viewBox="0 0 19 19" fill="none" xmlns="http://www.w3.org/2000/svg">
<path fill-rule="evenodd" clip-rule="evenodd" d="M18.5694 1.54749H17.0219V3.09493H18.5694V1.54749ZM15.475 3.09498H18.5699V4.64242H17.022V6.18986H15.4745V7.73729H12.3796V6.18984H13.9271V4.64241H15.475V3.09498ZM18.5694 7.73733H17.0219V9.28476H15.475V10.8322H13.9271V12.3796H17.022V10.8322H18.5699V9.28476H18.5694V7.73733ZM12.3796 12.3797H15.4745V13.9271H13.9271V15.4746H12.3797V17.022H9.28476V15.4745H10.8322V13.9271H12.3796V12.3797ZM18.5694 13.9271H17.0219V15.4745H15.475V17.022H18.5699V15.4745H18.5694V13.9271ZM1.54761 17.022H4.6425V18.5695H1.54761V17.022ZM7.73733 17.022H10.8322V18.5695H7.73733V17.022ZM17.022 17.022H13.9271V18.5695H17.022V17.022ZM6.18993 15.4746H7.73736V13.9271H9.28479V12.3797H6.1899V13.9271H4.64247V15.4745H3.09504V17.022H6.18993V15.4746ZM7.73733 10.8322H9.28476V9.28476H10.8322V7.73733H13.9271V9.28478H12.3797V10.8322H10.8322V12.3796H7.73733V10.8322Z" fill="#6D6D6D"/>
<path fill-rule="evenodd" clip-rule="evenodd" d="M18.5692 0H17.0217V1.54743H15.4748V3.09488H17.0222V1.54745H18.5692V0ZM15.4743 3.09492H13.9269V4.64235H12.3795V6.18979H10.832V7.73723H12.3795V6.1898H13.9269V4.64237H15.4743V3.09492ZM9.28459 7.73728H10.832V9.28472H9.2846V10.8322H7.73717V12.3796H6.18973V10.8321H7.73716V9.28471H9.28459V7.73728ZM6.18974 12.3796H4.64229V13.9271H3.09486V15.4745H1.54743V17.0219H0V18.5694H1.54745V17.0219H3.09488V15.4745H4.64231V13.9271H6.18974V12.3796ZM17.0217 6.18979H18.5692V7.73723H17.0217V6.18979ZM17.0222 7.73728H15.4748V9.28472H17.0222V7.73728ZM13.9269 9.28471H15.4743V10.8322H13.9269V12.3796H12.3795V10.8321H13.9269V9.28471ZM10.832 12.3796H12.3795V13.9271H10.832V15.4745H9.2846V17.0219H7.73717V18.5694H6.18973V17.0219H7.73716V15.4745H9.28459V13.9271H10.832V12.3796ZM13.9269 17.0219H15.4743V15.4745H13.9269V17.0219H12.3795V18.5694H13.9269V17.0219ZM17.0222 13.9271H18.5692V12.3796H17.0217V13.9271H15.4748V15.4745H17.0222V13.9271Z" fill="white"/>
</svg>
