<svg width="67" height="62" viewBox="0 0 67 62" fill="none" xmlns="http://www.w3.org/2000/svg">
<mask id="mask0_938_31163" style="mask-type:luminance" maskUnits="userSpaceOnUse" x="0" y="0" width="67" height="62">
<path d="M66.0434 0.5H0.5V61.98H66.0434V0.5Z" fill="white"/>
</mask>
<g mask="url(#mask0_938_31163)">
<path opacity="0.95" fill-rule="evenodd" clip-rule="evenodd" d="M27.177 0.5V2.6202H6.861V4.74382H4.7408V6.68476H2.62061V4.56343H4.56155V2.62248H6.68169V0.5H27.177Z" fill="#808002"/>
<path opacity="0.93" fill-rule="evenodd" clip-rule="evenodd" d="M27.1768 0.5H29.297V2.6202H27.1768V0.5Z" fill="#040404"/>
<path fill-rule="evenodd" clip-rule="evenodd" d="M8.80418 2.62018V4.7438H6.86328V2.62018H8.80418Z" fill="#FFFEFC"/>
<path fill-rule="evenodd" clip-rule="evenodd" d="M8.80379 2.62018H27.1765V4.7438H29.1175V6.68474H6.68359V4.7438H8.80379V2.62018Z" fill="#FFFE99"/>
<path opacity="0.93" fill-rule="evenodd" clip-rule="evenodd" d="M29.2974 2.62018H31.4176V4.56112H33.3585V6.68474H31.2406V4.56341H29.2996L29.2974 2.62018Z" fill="#040404"/>
<path fill-rule="evenodd" clip-rule="evenodd" d="M6.6841 4.74384V6.68478H4.74316V4.74384H6.6841Z" fill="#FEFFFE"/>
<path fill-rule="evenodd" clip-rule="evenodd" d="M27.1768 2.62018H29.297V4.56112H31.2379V6.68474H29.297C29.3553 6.03239 29.2953 5.37486 29.12 4.7438H27.179L27.1768 2.62018Z" fill="#7A7A02"/>
<path opacity="0.94" fill-rule="evenodd" clip-rule="evenodd" d="M2.6202 6.68481C2.56159 18.963 2.62058 31.2119 2.79716 43.4315H8.8038V45.5517H0.5V6.68481H2.6202Z" fill="#807F00"/>
<path opacity="0.99" fill-rule="evenodd" clip-rule="evenodd" d="M31.2402 6.68481H55.7966V16.9319H53.6775V8.80387H31.2402V6.68481Z" fill="#828106"/>
<path fill-rule="evenodd" clip-rule="evenodd" d="M29.1201 4.74384C29.2955 5.37489 29.3554 6.03242 29.2971 6.68478H31.2381V8.80498H2.79751V43.4303C2.62092 31.2115 2.56193 18.963 2.62054 6.68478H29.1201V4.74384Z" fill="#CDCD6D"/>
<path opacity="0.93" fill-rule="evenodd" clip-rule="evenodd" d="M55.7964 8.62573H57.9166V16.9295H55.7964V8.62573Z" fill="#030303"/>
<path fill-rule="evenodd" clip-rule="evenodd" d="M31.2404 8.80377H53.6777V10.7447H4.74076V43.4302H2.7998V8.80377H31.2404Z" fill="#FFFEFE"/>
<path fill-rule="evenodd" clip-rule="evenodd" d="M35.3033 10.7471V12.8673H37.4223V10.7471H41.4869V12.8673H39.3633V14.8082H37.4223V16.9284H35.3033V14.8105H33.3623V12.8696H31.2398V14.8105H29.2989C29.3572 14.1581 29.2973 13.5006 29.1219 12.8696H27.181V14.8105H25.24C25.2988 14.1582 25.2392 13.5007 25.0642 12.8696H23.1233V14.8105H21.1823C21.241 14.1582 21.1815 13.5007 21.0065 12.8696H19.0655V14.8105H16.9305V12.8696H14.9896V14.8105H12.8671V12.8696H10.7469V14.8105H8.8059V12.8696H6.68351C6.65461 13.5179 6.68411 14.1674 6.77141 14.8105C7.43461 14.9799 8.12111 15.0396 8.80371 14.9875V16.9284H6.68351C6.65461 17.5767 6.68411 18.2263 6.77141 18.8694C7.43461 19.039 8.12121 19.0984 8.80371 19.0452V20.9861H6.68351V23.1052H8.80371V25.0461H6.68351V27.1663H8.80371V29.1073H6.68351V31.2275H8.80371V33.1684H6.68351V35.2886H8.80371V37.2295C8.15531 37.2005 7.50571 37.2303 6.86271 37.3186C6.69261 37.9813 6.63281 38.6676 6.68571 39.3497H8.8059V41.4699H4.74023V10.7471H35.3033Z" fill="#FFFE99"/>
<path fill-rule="evenodd" clip-rule="evenodd" d="M35.3037 10.7471H37.4228V12.8673H35.3037V10.7471Z" fill="#FFCE9A"/>
<path fill-rule="evenodd" clip-rule="evenodd" d="M41.4873 10.7471H43.6075V12.8673H41.4873V10.7471Z" fill="#FFCE9A"/>
<path fill-rule="evenodd" clip-rule="evenodd" d="M43.6077 10.7471H49.6143V12.8673H47.4941V14.8082H43.4307V16.9284H39.5488V14.9875H41.4898V12.8673H43.61L43.6077 10.7471Z" fill="#FFFE99"/>
<path fill-rule="evenodd" clip-rule="evenodd" d="M49.6138 10.7471H51.734V12.8673H49.6138V10.7471Z" fill="#FFCE9A"/>
<path fill-rule="evenodd" clip-rule="evenodd" d="M51.7344 10.7471H53.6753V12.8673H51.7344V10.7471Z" fill="#FFFE9A"/>
<path fill-rule="evenodd" clip-rule="evenodd" d="M49.6138 12.8672V14.8082H51.734V12.8672H53.6749V16.9307H49.6138V14.9897H47.6729V16.9307H43.4302V14.8105H47.4936V12.8695L49.6138 12.8672Z" fill="#FFCE99"/>
<path fill-rule="evenodd" clip-rule="evenodd" d="M49.6138 12.8672H51.734V14.8082H49.6138V12.8672Z" fill="#FFFD99"/>
<path fill-rule="evenodd" clip-rule="evenodd" d="M19.0513 14.8105H20.9922V12.8695C21.1672 13.5006 21.2268 14.1582 21.168 14.8105H25.0579V12.8695C25.2329 13.5006 25.2925 14.1582 25.2338 14.8105H29.1156V12.8695C29.291 13.5006 29.351 14.1581 29.2926 14.8105H31.2336V16.9306H29.1202V14.9897H27.1793V16.9306H25.0579V14.9897H23.117V16.9306H20.9945V14.9897H19.0536V16.9306H16.9311V14.9897H14.9901V16.9306H12.8677V14.9897H10.9267V16.9306H8.80423V14.9897C8.12173 15.0419 7.43523 14.9821 6.77203 14.8127C6.68463 14.1697 6.65523 13.5201 6.68403 12.8718H8.80423V14.8127H10.7452V12.8718H12.8654V14.8127H14.9879V12.8718H16.9288V14.8127L19.0513 14.8105Z" fill="#FFD199"/>
<path fill-rule="evenodd" clip-rule="evenodd" d="M29.1201 12.8672V14.8082H27.1792V12.8672H29.1201Z" fill="#FECC98"/>
<path fill-rule="evenodd" clip-rule="evenodd" d="M25.0576 12.8672V14.8082H23.1167V12.8672H25.0576Z" fill="#FECC98"/>
<path fill-rule="evenodd" clip-rule="evenodd" d="M20.9942 12.8672V14.8082H19.0532V12.8672H20.9942Z" fill="#FECC98"/>
<path fill-rule="evenodd" clip-rule="evenodd" d="M12.8677 16.9306H10.9268V14.9897H12.8677V16.9306Z" fill="#FEFF98"/>
<path fill-rule="evenodd" clip-rule="evenodd" d="M16.9307 16.9306H14.9897V14.9897H16.9307V16.9306Z" fill="#FEFF98"/>
<path fill-rule="evenodd" clip-rule="evenodd" d="M20.9942 16.9306H19.0532V14.9897H20.9942V16.9306Z" fill="#FEFF98"/>
<path fill-rule="evenodd" clip-rule="evenodd" d="M25.0576 16.9306H23.1167V14.9897H25.0576V16.9306Z" fill="#FEFF98"/>
<path fill-rule="evenodd" clip-rule="evenodd" d="M29.1201 16.9306H27.1792V14.9897H29.1201V16.9306Z" fill="#FEFF98"/>
<path fill-rule="evenodd" clip-rule="evenodd" d="M31.2402 14.8105C31.8885 14.781 32.5382 14.8105 33.1812 14.8984C33.3513 15.5615 33.4111 16.2481 33.3581 16.9307H31.2402V14.8105Z" fill="#FFFC99"/>
<path fill-rule="evenodd" clip-rule="evenodd" d="M35.3035 16.9306H33.3625C33.4155 16.2481 33.3557 15.5615 33.1856 14.8984C32.5426 14.8104 31.8929 14.781 31.2446 14.8105V12.8695H33.3648V14.8105H35.3058L35.3035 16.9306Z" fill="#FFCD99"/>
<path fill-rule="evenodd" clip-rule="evenodd" d="M41.4874 12.8672V14.9874H39.5465V16.9284H37.4229V14.8105H39.3638V12.8695L41.4874 12.8672Z" fill="#FFCD99"/>
<path fill-rule="evenodd" clip-rule="evenodd" d="M49.6143 16.9306H47.6733V14.9897H49.6143V16.9306Z" fill="#FEFF98"/>
<path fill-rule="evenodd" clip-rule="evenodd" d="M8.80423 16.9307V19.0497C8.12173 19.1029 7.43523 19.0435 6.77203 18.8739C6.68463 18.2308 6.65523 17.5813 6.68403 16.9329L8.80423 16.9307Z" fill="#FFCF99"/>
<path fill-rule="evenodd" clip-rule="evenodd" d="M8.8042 16.9307H63.9236V18.8716H10.9244V25.0541H63.9236V59.8598H8.8042V16.9307Z" fill="#848484"/>
<path opacity="0.95" fill-rule="evenodd" clip-rule="evenodd" d="M63.9236 16.9307H66.0438V61.98H8.8042V59.8598H63.9236V16.9307Z" fill="#040404"/>
<path fill-rule="evenodd" clip-rule="evenodd" d="M63.9235 18.8738V25.0563H59.8601V20.994H55.7967V25.0563H53.6776V20.994H49.6142V25.0563H47.6732V20.994H43.4306C43.3722 21.7053 43.432 22.4214 43.6075 23.1131V25.054H20.9944V20.994H16.931V25.0563H10.9243V18.8738H63.9235Z" fill="#070398"/>
<path fill-rule="evenodd" clip-rule="evenodd" d="M8.80379 20.9941V23.1131H6.68359V20.9941H8.80379Z" fill="#FFCF99"/>
<path fill-rule="evenodd" clip-rule="evenodd" d="M19.0513 20.9941V23.1131H16.9312V20.9941H19.0513Z" fill="#EEBE33"/>
<path fill-rule="evenodd" clip-rule="evenodd" d="M19.0513 20.9941H20.9923V25.0564H16.9312V23.1154H19.0513V20.9941Z" fill="#040306"/>
<path fill-rule="evenodd" clip-rule="evenodd" d="M45.5507 20.9941V23.1131H43.6098C43.4342 22.4214 43.3744 21.7054 43.4328 20.9941H45.5507Z" fill="#EDEDF2"/>
<path fill-rule="evenodd" clip-rule="evenodd" d="M45.5507 20.9941H47.6708V25.0564H43.6074V23.1154H45.5484L45.5507 20.9941Z" fill="#06050B"/>
<path fill-rule="evenodd" clip-rule="evenodd" d="M51.734 20.9941V23.1131H49.6138V20.9941H51.734Z" fill="#EEEEF1"/>
<path fill-rule="evenodd" clip-rule="evenodd" d="M51.734 20.9941H53.6749V25.0564H49.6138V23.1154H51.734V20.9941Z" fill="#030305"/>
<path fill-rule="evenodd" clip-rule="evenodd" d="M57.9166 20.9941V23.1131H55.7964V20.9941H57.9166Z" fill="#EBEBED"/>
<path fill-rule="evenodd" clip-rule="evenodd" d="M57.9166 20.9941H59.8575V25.0564H55.7964V23.1154H57.9166V20.9941Z" fill="#030304"/>
<path fill-rule="evenodd" clip-rule="evenodd" d="M8.80379 25.0564V27.1766H6.68359V25.0564H8.80379Z" fill="#FFCE99"/>
<path fill-rule="evenodd" clip-rule="evenodd" d="M8.80379 29.1198V31.24H6.68359V29.1198H8.80379Z" fill="#FFCF99"/>
<path fill-rule="evenodd" clip-rule="evenodd" d="M8.80379 33.1832V35.3034H6.68359V33.1832H8.80379Z" fill="#FFCF99"/>
<path fill-rule="evenodd" clip-rule="evenodd" d="M8.80438 37.2466V39.3668H6.68418C6.63128 38.6846 6.69108 37.9984 6.86118 37.3357C7.50488 37.2472 8.15528 37.2174 8.80438 37.2466Z" fill="#FFCF99"/>
<path fill-rule="evenodd" clip-rule="evenodd" d="M4.74023 41.4871H8.80371V43.428H4.74023V41.4871Z" fill="#FECC98"/>
<path opacity="0.94" fill-rule="evenodd" clip-rule="evenodd" d="M2.62061 45.5505H8.8042V47.673H2.62061V45.5505Z" fill="#030303"/>
<path fill-rule="evenodd" clip-rule="evenodd" d="M10.924 27.1765C27.913 27.0007 44.9317 26.9421 61.98 27.0007V57.9165H10.7471C10.6892 47.6401 10.7482 37.3935 10.924 27.1765Z" fill="#999996"/>
<path fill-rule="evenodd" clip-rule="evenodd" d="M12.8672 27.1766H61.803V57.7397H12.8672V27.1766Z" fill="#E6E6D5"/>
<path fill-rule="evenodd" clip-rule="evenodd" d="M20.9938 29.1198V33.1832H19.0528V35.3034H20.9938V37.4236C23.0563 37.4825 25.1205 37.4234 27.1763 37.2467V29.1198H35.3031V33.1832H33.3622V35.3034H35.3031V37.2444H41.4867V29.1198H49.6136V33.1832H47.4934C47.435 33.8949 47.4948 34.6113 47.6704 35.3034H49.6113V37.2444H55.7938V29.1198H59.8572V55.7964C58.5002 55.8555 57.1406 55.7967 55.7938 55.6206V53.6796H47.6704C47.4948 54.3713 47.435 55.0874 47.4934 55.7987C45.4895 55.858 43.4838 55.7992 41.4867 55.6228V53.6819H33.3599C33.1843 54.3736 33.1245 55.0897 33.1829 55.8009C31.179 55.8602 29.1733 55.8015 27.1763 55.6251V53.6842H19.0506C18.8752 54.3152 18.8152 54.9728 18.8736 55.6251H14.9917V29.1198H20.9938Z" fill="#FEFAEF"/>
<path fill-rule="evenodd" clip-rule="evenodd" d="M47.4937 53.6556H55.7963V55.6411H47.4937V53.6556Z" fill="#868686"/>
<path fill-rule="evenodd" clip-rule="evenodd" d="M33.1768 53.6545H41.4874V55.6422H33.1768V53.6545Z" fill="#858685"/>
<path fill-rule="evenodd" clip-rule="evenodd" d="M18.8735 53.6556H27.1762V55.6411H18.8735V53.6556Z" fill="#858685"/>
<path fill-rule="evenodd" clip-rule="evenodd" d="M20.9941 49.6139H21.17V51.5548H27.1766C25.1208 51.7312 23.0566 51.7899 20.9941 51.7307V49.6139Z" fill="#95928B"/>
<path fill-rule="evenodd" clip-rule="evenodd" d="M49.6138 49.6139H55.7962V51.5548H49.6138V49.6139Z" fill="#060606"/>
<path fill-rule="evenodd" clip-rule="evenodd" d="M20.9941 49.6139H27.1766V51.7329H20.9941V49.6139Z" fill="#030403"/>
<path fill-rule="evenodd" clip-rule="evenodd" d="M39.3637 47.4937H41.4873V51.5549H35.3037V49.6139H39.3637V47.4937Z" fill="#090906"/>
<path fill-rule="evenodd" clip-rule="evenodd" d="M27.177 47.4937V49.6139H25.236V47.6729H23.1136V49.6139H19.0513V47.4937H25.0579V45.5527C25.2329 46.1839 25.2925 46.8414 25.2337 47.4937H27.177Z" fill="#9C386C"/>
<path fill-rule="evenodd" clip-rule="evenodd" d="M53.6778 45.5505V47.4914H51.7368V45.5505H53.6778Z" fill="#FEFFFE"/>
<path fill-rule="evenodd" clip-rule="evenodd" d="M37.4226 45.5505V47.4914H39.3636V49.6139H33.3604V47.4937H35.3013V45.5528L37.4226 45.5505Z" fill="#828206"/>
<path fill-rule="evenodd" clip-rule="evenodd" d="M21.3467 45.5505H23.2876V47.4914H21.3467V45.5505Z" fill="#9800CC"/>
<path fill-rule="evenodd" clip-rule="evenodd" d="M53.6775 43.4303H55.7966V49.6139H47.6709V47.673H49.6118C50.3235 47.7313 51.0399 47.6715 51.732 47.496H53.673V43.4303H53.6775Z" fill="#820705"/>
<path fill-rule="evenodd" clip-rule="evenodd" d="M53.6772 43.4303V45.5505H51.7362V47.4914C51.0436 47.6687 50.3264 47.7301 49.6138 47.673V43.4303H53.6772Z" fill="#FD0D09"/>
<path fill-rule="evenodd" clip-rule="evenodd" d="M41.4874 47.4937H37.4229V43.4303H41.4874V47.4937Z" fill="#838305"/>
<path fill-rule="evenodd" clip-rule="evenodd" d="M27.1769 47.4937H25.2359C25.2946 46.8414 25.2351 46.1839 25.0601 45.5528H23.1191V43.4303H27.1826L27.1769 47.4937Z" fill="#9B0ACB"/>
<path fill-rule="evenodd" clip-rule="evenodd" d="M47.4937 39.3668H55.7963V41.487H47.4937V39.3668Z" fill="#8B8B8B"/>
<path fill-rule="evenodd" clip-rule="evenodd" d="M33.3604 39.3668H41.4872V41.487H33.3604V39.3668Z" fill="#8A8A89"/>
<path fill-rule="evenodd" clip-rule="evenodd" d="M19.0513 39.3668H27.177V41.487H19.0513V39.3668Z" fill="#8A8A89"/>
<path fill-rule="evenodd" clip-rule="evenodd" d="M20.9941 35.3033H21.17V37.2443H27.1766C25.1209 37.4211 23.0567 37.4802 20.9941 37.4213V35.3033Z" fill="#7B7A75"/>
<path fill-rule="evenodd" clip-rule="evenodd" d="M49.6138 35.3033H55.7962V37.2443H49.6138V35.3033Z" fill="#060606"/>
<path fill-rule="evenodd" clip-rule="evenodd" d="M20.9941 35.3033H27.1766V37.4452H20.9941V35.3033Z" fill="#030403"/>
<path fill-rule="evenodd" clip-rule="evenodd" d="M49.6142 33.1833V33.3603H47.6732V35.3012C47.4977 34.6091 47.4379 33.8927 47.4963 33.181L49.6142 33.1833Z" fill="#8C89B1"/>
<path fill-rule="evenodd" clip-rule="evenodd" d="M41.4873 33.3602V37.2421H35.3037V35.3011H39.3637C39.539 34.6701 39.599 34.0125 39.5407 33.3602H41.4873Z" fill="#020166"/>
<path fill-rule="evenodd" clip-rule="evenodd" d="M39.3638 33.1832H41.4874V33.3601H39.5464C39.6047 34.0125 39.5448 34.67 39.3695 35.3011L39.3638 33.1832Z" fill="#020166"/>
<path fill-rule="evenodd" clip-rule="evenodd" d="M53.6778 31.24V33.1809H51.7368V31.24H53.6778Z" fill="#00FFFE"/>
<path fill-rule="evenodd" clip-rule="evenodd" d="M25.0576 31.24V33.1809H23.1167V31.24H25.0576Z" fill="#FEFF32"/>
<path fill-rule="evenodd" clip-rule="evenodd" d="M53.6775 29.1198H55.7966V35.3034H47.6709V33.3625H49.6118C50.3235 33.4208 51.0399 33.361 51.732 33.1855H53.673V29.1198H53.6775Z" fill="#040468"/>
<path fill-rule="evenodd" clip-rule="evenodd" d="M49.6138 29.1198H53.6772V31.24H51.7362V33.181C51.0441 33.3565 50.3277 33.4163 49.616 33.3579V29.1198H49.6138Z" fill="#6637FC"/>
<path fill-rule="evenodd" clip-rule="evenodd" d="M35.3036 29.1198H41.4872V33.1832H39.3636V35.3034H33.3604V33.1832H35.3013L35.3036 29.1198Z" fill="#089B69"/>
<path fill-rule="evenodd" clip-rule="evenodd" d="M39.3638 33.1833H37.4229V31.2423H39.3638V33.1833Z" fill="#00FFFE"/>
<path fill-rule="evenodd" clip-rule="evenodd" d="M25.2337 29.1198H27.1747V35.3034H19.0513V33.1832H25.0579V31.2423C25.2333 30.5494 25.2928 29.8322 25.2337 29.1198Z" fill="#830903"/>
<path fill-rule="evenodd" clip-rule="evenodd" d="M25.0577 31.24H23.1167V33.1809H21.1758V29.299H25.0577V31.24Z" fill="#FF0100"/>
<path fill-rule="evenodd" clip-rule="evenodd" d="M20.9941 29.1198H25.2334C25.2922 29.8314 25.2327 30.5478 25.0576 31.24V29.2991H21.17V33.181H20.9941V29.1198Z" fill="#EF3F37"/>
<path fill-rule="evenodd" clip-rule="evenodd" d="M10.9243 27.1766H12.8653V57.7397H10.9243V27.1766Z" fill="#BFC0BF"/>
<path d="M54.118 33.0908H47.4937V35.3023H54.118V33.0908Z" fill="#040468"/>
<path d="M54.2942 47.4012H47.6699V49.6127H54.2942V47.4012Z" fill="#820705"/>
<path d="M39.367 47.4012H32.7427V49.6127H39.367V47.4012Z" fill="#838305"/>
<path fill-rule="evenodd" clip-rule="evenodd" d="M39.3638 45.5505V47.4914H37.4229V45.5505H39.3638Z" fill="#FFFF33"/>
<path fill-rule="evenodd" clip-rule="evenodd" d="M23.2905 45.5505H25.2315V47.4914H23.2905V45.5505Z" fill="#FFFF33"/>
<path fill-rule="evenodd" clip-rule="evenodd" d="M25.2334 49.6139H23.2925V47.4937H25.2334V49.6139Z" fill="#9701C7"/>
<path d="M23.2902 47.4937H19.0498V49.6139H23.2902V47.4937Z" fill="#9C386C"/>
<path d="M27.1763 29.1198H25.0562V33.2791H27.1763V29.1198Z" fill="#830903"/>
<path d="M61.8031 55.6194H12.8662V57.7396H61.8031V55.6194Z" fill="#E6E6D5"/>
</g>
</svg>
