<?xml version="1.0" encoding="UTF-8" standalone="no"?>
<svg
   width="580"
   height="263"
   viewBox="0 0 580 263"
   fill="none"
   version="1.1"
   id="svg6"
   sodipodi:docname="paint-drawing.svg"
   inkscape:version="1.1.2 (b8e25be833, 2022-02-05)"
   xmlns:inkscape="http://www.inkscape.org/namespaces/inkscape"
   xmlns:sodipodi="http://sodipodi.sourceforge.net/DTD/sodipodi-0.dtd"
   xmlns="http://www.w3.org/2000/svg"
   xmlns:svg="http://www.w3.org/2000/svg">
  <defs
     id="defs10" />
  <sodipodi:namedview
     id="namedview8"
     pagecolor="#ffffff"
     bordercolor="#666666"
     borderopacity="1.0"
     inkscape:pageshadow="2"
     inkscape:pageopacity="0.0"
     inkscape:pagecheckerboard="true"
     showgrid="false"
     inkscape:zoom="0.33447462"
     inkscape:cx="-14.948817"
     inkscape:cy="68.764559"
     inkscape:window-width="1920"
     inkscape:window-height="1017"
     inkscape:window-x="-8"
     inkscape:window-y="-8"
     inkscape:window-maximized="1"
     inkscape:current-layer="svg6" />
  <path
     d="m 200.95,0.5342 c -1.869,0 -3.739,1.3355 -4.006,3.2053 l -21.636,102.8366 c -4.007,-8.28 -9.349,-19.499 -15.492,-33.121 -1.87,-3.74 -3.473,-7.746 -5.075,-11.486 l 3.472,-5.876 c 0.534,-0.535 0.801,-1.603 0.801,-2.137 0,-2.404 -1.869,-4.007 -4.006,-4.007 -1.336,0 -2.939,0.802 -3.473,1.87 l -0.801,1.336 c -1.87,-4.274 -3.74,-8.548 -5.342,-12.2875 -1.87,-4.8079 -3.473,-9.0817 -4.808,-12.287 -1.069,-3.4724 -1.87,-5.8764 -1.87,-6.4106 -0.267,-2.1369 -1.87,-3.7395 -4.007,-3.7395 -2.136,0 -4.006,1.8697 -4.006,4.0066 v 0.2671 c 0.267,2.404 1.068,5.0751 2.404,8.5475 1.335,3.4724 2.938,7.7461 5.075,12.5544 2.137,5.609 4.808,11.485 7.479,17.629 l -23.506,38.998 -15.759,-88.1461 c -0.267,-1.8698 -2.137,-3.4724 -4.007,-3.4724 -2.137,0 -4.0064,1.8697 -4.0064,4.0066 0,0.2671 0,0.8013 0,0.8013 l 17.8964,98.8306 c 0.267,1.602 2.137,3.205 4.007,3.205 1.335,0 2.671,-0.801 3.472,-1.87 l 25.909,-43.271 c 0.802,2.136 1.87,4.006 2.939,6.143 10.15,22.704 20.567,44.073 20.567,44.073 0.534,1.336 2.137,2.137 3.472,2.137 1.87,0 3.74,-1.336 4.007,-2.938 l 24.04,-114.59 c 0.267,-0.2671 0.267,-0.5342 0.267,-0.8013 0,-2.1369 -1.87,-4.0066 -4.007,-4.0066 z m 35.785,67.3109 c -0.535,0 -1.069,0 -1.87,0 -7.479,0 -13.356,2.404 -17.629,6.678 -5.075,5.075 -7.212,12.02 -7.212,19.232 0,1.068 0,2.404 0.267,3.74 0.801,8.28 4.274,16.293 10.15,21.635 3.739,3.473 8.547,5.343 13.89,5.343 3.205,0 6.677,-0.535 9.883,-2.404 1.335,-0.535 2.404,-2.137 2.404,-3.473 0,-2.404 -1.87,-4.006 -4.007,-4.006 -0.534,0 -1.336,0.267 -1.87,0.267 -2.404,1.335 -4.808,1.869 -6.677,1.869 -3.206,0 -5.877,-1.335 -8.281,-3.472 -4.006,-3.74 -6.945,-10.15 -7.479,-16.561 -0.267,-1.068 -0.267,-1.87 -0.267,-2.938 0,-5.342 1.603,-10.417 4.808,-13.623 2.671,-2.671 6.143,-4.273 11.753,-4.273 2.671,0 5.609,0.267 9.349,1.335 2.136,0.535 3.205,1.069 3.739,1.336 -0.534,0.801 -2.938,3.205 -6.143,5.342 -7.212,4.808 -17.897,9.082 -17.897,9.082 -1.335,0.534 -2.404,2.137 -2.404,3.739 0,2.137 1.603,4.007 4.007,4.007 0.267,0 1.068,-0.267 1.335,-0.267 0,0 10.952,-4.274 19.499,-9.883 4.274,-2.671 8.014,-5.075 9.349,-9.883 0.267,-0.535 0.267,-1.336 0.267,-1.87 0,-2.137 -0.801,-4.274 -2.137,-5.609 -1.869,-1.87 -4.273,-2.939 -7.746,-3.74 -3.205,-0.801 -6.143,-1.335 -9.081,-1.603 z m 135.129,2.939 c -1.602,0 -3.205,1.335 -3.739,2.938 l -9.616,34.457 -10.684,-16.828 c -0.535,-1.068 -2.137,-2.137 -3.206,-2.137 -1.602,0 -3.205,1.069 -3.739,2.404 l -5.609,12.554 -4.808,-23.238 c -0.535,-1.87 -2.137,-3.205 -4.007,-3.205 -2.137,0 -4.007,1.869 -4.007,4.006 0,0.267 0,0.534 0,0.801 l 7.479,35.259 c 0.268,1.87 2.137,3.205 3.74,3.205 1.603,0 3.205,-1.068 3.739,-2.404 l 7.747,-16.828 11.218,18.431 c 0.534,1.068 2.137,1.87 3.473,1.87 1.602,0 3.205,-1.336 3.739,-2.939 l 12.287,-43.271 c 0,-0.267 0.267,-0.802 0.267,-1.069 0,-2.137 -1.87,-4.006 -4.006,-4.006 -0.268,0 -0.268,0 -0.268,0 z m 22.171,-5.342 c 0,0 0,0 -0.268,0 -1.068,0 -2.671,0.801 -3.472,2.136 l -1.603,2.939 c -0.267,0.267 -0.534,1.335 -0.534,1.869 0,2.137 1.87,4.007 4.007,4.007 1.335,0 2.938,-0.801 3.472,-1.87 l 1.603,-2.938 c 0.534,-0.534 0.534,-1.603 0.534,-2.137 0,-2.137 -1.603,-4.006 -3.739,-4.006 z m -0.802,17.629 c -2.404,0 -4.006,1.869 -4.006,4.006 v 31.786 c 0,2.404 1.602,4.007 4.006,4.007 2.137,0 4.007,-1.603 4.007,-4.007 v -31.786 c 0,-2.137 -1.87,-4.006 -4.007,-4.006 z M 416.225,0 c -2.136,0 -3.739,1.8697 -4.006,3.7395 -0.802,14.1568 -1.603,31.7859 -1.603,49.1476 0,13.089 0.267,25.643 1.336,36.594 1.068,12.822 2.671,22.705 6.41,29.115 1.069,1.336 2.137,2.938 4.007,3.74 1.068,0.534 2.404,1.068 3.472,1.068 0.802,0 1.603,-0.267 2.404,-0.534 3.74,-1.069 6.144,-4.274 9.082,-8.815 0.267,-0.534 0.534,-1.602 0.534,-2.137 0,-2.136 -1.602,-4.006 -4.006,-4.006 -1.069,0 -2.672,0.801 -3.473,1.87 -2.137,3.739 -4.006,5.075 -4.541,5.342 0,0 -0.267,-0.267 -0.534,-0.802 -2.137,-3.205 -4.274,-13.088 -5.342,-25.642 -1.069,-10.417 -1.336,-22.971 -1.336,-35.525 0,-17.3626 0.802,-34.9917 1.603,-48.8814 V 4.0066 C 420.232,1.8697 418.629,0 416.225,0 Z m 40.693,0 c -2.137,0 -3.74,1.8697 -4.007,3.7395 -0.801,14.1568 -1.603,31.7859 -1.603,49.1476 0,13.089 0.268,25.643 1.336,36.594 1.068,12.822 2.671,22.705 6.411,29.115 1.068,1.336 2.136,2.938 4.006,3.74 1.069,0.534 2.404,1.068 3.473,1.068 0.801,0 1.602,-0.267 2.404,-0.534 3.739,-1.069 6.143,-4.274 9.081,-8.815 0.267,-0.534 0.535,-1.602 0.535,-2.137 0,-2.136 -1.603,-4.006 -4.007,-4.006 -1.069,0 -2.671,0.801 -3.472,1.87 -2.137,3.739 -4.007,5.075 -4.541,5.342 0,0 -0.267,-0.267 -0.535,-0.802 -2.136,-3.205 -4.273,-13.088 -5.342,-25.642 -1.068,-10.417 -1.335,-22.971 -1.335,-35.525 0,-17.3626 0.801,-34.9917 1.602,-48.8814 V 4.0066 C 460.924,1.8697 459.322,0 456.918,0 Z"
     fill="#000000"
     id="path2" />
  <path
     d="m 24.574,196.0511 c -1.8698,0 -3.7395,0.268 -5.3422,1.069 -4.0066,1.603 -8.2803,5.075 -12.82119,9.883 -0.80133,0.801 -1.33554,1.87 -1.33554,2.938 0,2.137 1.86976,4.007 4.00663,4.007 1.0684,0 2.404,-0.534 2.9382,-1.336 4.2737,-4.541 7.7461,-6.945 10.1501,-8.013 1.0685,-0.534 1.8698,-0.801 2.6711,-0.801 0.5342,0 1.0684,0.267 1.6027,0.801 2.1368,1.335 5.075,7.479 6.6777,15.759 0.2671,0.267 0.2671,0.802 0.2671,1.069 -5.6093,-3.206 -10.6844,-5.075 -15.2252,-5.342 -0.5342,0 -1.0684,0 -1.3355,0 -2.9382,0 -5.3422,0.534 -7.7462,1.602 C 2.67109,220.8931 0,228.1051 0,235.0491 c 0,0.535 0,1.069 0,1.336 0.534217,7.479 3.47241,14.958 9.61592,19.499 2.67108,2.137 6.14348,3.205 10.15008,3.205 4.2738,0 9.0817,-1.335 14.1568,-4.808 0.8013,-0.801 1.6027,-2.137 1.6027,-3.472 0,-2.137 -1.8698,-4.007 -4.0067,-4.007 -0.8013,0 -1.8697,0.534 -2.4039,0.801 -3.7396,2.939 -6.9449,4.007 -9.3489,4.007 -2.1368,0 -4.0066,-0.801 -5.3421,-2.137 -3.4724,-2.404 -6.14353,-8.013 -6.41064,-13.355 0,-0.267 0,-0.802 0,-1.069 0,-4.808 1.60266,-8.547 4.80794,-10.15 1.0685,-0.534 2.1369,-0.801 4.0067,-0.801 3.7395,0 9.0816,1.603 16.8278,6.945 0.2671,0.267 1.0684,0.534 1.6027,0.534 0.8013,4.808 1.6026,9.883 2.4039,14.157 0.8014,4.006 1.6027,7.479 3.2053,10.417 0.5343,1.603 1.3356,2.938 2.6711,4.007 1.3356,1.068 2.9382,2.136 5.0751,2.136 2.1369,0 4.0066,-1.869 4.0066,-4.006 0,-1.87 -1.6026,-3.74 -3.4724,-4.007 0,0 0,0 -0.2671,0 0,-0.267 -0.5342,-0.801 -0.8013,-1.602 -1.0685,-1.603 -1.8698,-4.808 -2.6711,-8.548 -1.3356,-7.212 -2.404,-16.828 -4.2738,-25.642 -1.8697,-8.548 -4.0066,-16.828 -10.4172,-20.835 -1.6026,-1.068 -3.4724,-1.603 -5.3422,-1.603 -0.2671,0 -0.5342,0 -0.8013,0 z m 50.0996,5.343 c -2.1369,0 -3.7395,1.602 -4.0066,3.472 -0.5343,3.74 -0.8014,9.082 -0.8014,15.225 0,5.877 0.2671,12.287 0.5342,18.431 0.2672,6.143 0.5343,11.753 1.0685,15.492 0,1.87 0.2671,3.205 0.5342,4.274 0,0.534 0.2671,0.801 0.2671,1.068 0.2671,0.534 0.2671,1.87 2.9382,2.404 0.2671,0.267 0.5342,0.267 0.8013,0.267 1.0685,0 2.1369,-0.534 2.6711,-1.068 0.8013,-0.534 1.0685,-1.069 1.0685,-1.336 0.5342,-0.534 0.5342,-1.068 0.5342,-1.335 1.8697,-8.281 5.075,-20.568 9.0817,-28.848 1.8697,-4.274 4.2737,-7.212 5.6093,-8.013 0.5342,-0.267 0.5342,-0.267 0.8013,-0.267 0,0 0,0 0.2671,0 0.2671,0 0.8013,0.267 1.8697,1.602 0.8014,0.802 2.137,1.336 3.205,1.336 2.137,0 4.007,-1.87 4.007,-4.007 0,-0.801 -0.534,-2.137 -1.068,-2.671 -1.87,-2.137 -4.007,-3.472 -6.4111,-4.006 -0.5342,-0.268 -1.0684,-0.268 -1.8697,-0.268 -1.8698,0 -3.4724,0.802 -5.0751,1.603 -3.7395,2.404 -6.1435,6.411 -8.5475,11.219 -1.3355,2.938 -2.6711,6.143 -4.0066,9.616 0,-5.076 -0.2671,-10.685 -0.2671,-15.493 0,-5.876 0.2671,-11.218 0.5342,-14.157 0.2671,0 0.2671,-0.267 0.2671,-0.534 0,-2.137 -1.8697,-4.006 -4.0066,-4.006 z m 54.9974,0 c -2.137,0 -3.74,1.602 -4.007,3.472 -0.534,3.74 -0.801,9.082 -0.801,15.225 0,5.877 0.267,12.287 0.534,18.431 0.267,6.143 0.534,11.753 1.069,15.492 0,1.87 0.267,3.205 0.534,4.274 0,0.534 0.267,0.801 0.267,1.068 0.267,0.534 0.267,1.87 2.938,2.404 0.267,0.267 0.534,0.267 0.801,0.267 1.069,0 2.137,-0.534 2.671,-1.068 0.802,-0.534 1.069,-1.069 1.069,-1.336 0.534,-0.534 0.534,-1.068 0.534,-1.335 1.87,-8.281 5.075,-20.568 9.082,-28.848 1.87,-4.274 4.274,-7.212 5.609,-8.013 0.534,-0.267 0.534,-0.267 0.801,-0.267 0,0 0,0 0.268,0 0.267,0 0.801,0.267 1.869,1.602 0.802,0.802 2.137,1.336 3.206,1.336 2.136,0 4.006,-1.87 4.006,-4.007 0,-0.801 -0.534,-2.137 -1.068,-2.671 -1.87,-2.137 -4.007,-3.472 -6.411,-4.006 -0.534,-0.268 -1.068,-0.268 -1.87,-0.268 -1.869,0 -3.472,0.802 -5.075,1.603 -3.739,2.404 -6.143,6.411 -8.547,11.219 -1.336,2.938 -2.671,6.143 -4.007,9.616 0,-5.076 -0.267,-10.685 -0.267,-15.493 0,-5.876 0.267,-11.218 0.534,-14.157 0.267,0 0.267,-0.267 0.267,-0.534 0,-2.137 -1.869,-4.006 -4.006,-4.006 z m 57.606,0.267 c 0,0 0,0 -0.267,0 -1.069,0 -2.672,0.801 -3.473,2.137 l -1.603,2.938 c -0.267,0.267 -0.534,1.335 -0.534,1.87 0,2.136 1.87,4.006 4.007,4.006 1.335,0 2.938,-0.801 3.472,-1.87 l 1.603,-2.938 c 0.534,-0.534 0.534,-1.602 0.534,-2.137 0,-2.136 -1.603,-4.006 -3.739,-4.006 z m -0.802,17.629 c -2.404,0 -4.006,1.87 -4.006,4.007 v 31.785 c 0,2.404 1.602,4.007 4.006,4.007 2.137,0 4.007,-1.603 4.007,-4.007 v -31.785 c 0,-2.137 -1.87,-4.007 -4.007,-4.007 z m 30.739,-9.883 c -2.137,0 -4.007,1.87 -4.007,4.007 0,0.267 0,0.801 0.267,1.068 l 12.02,40.868 c 0.534,1.602 2.137,2.938 3.74,2.938 1.335,0 2.938,-1.069 3.739,-2.137 l 17.362,-34.19 c 0.267,-0.267 0.267,-1.068 0.267,-1.87 0,-2.137 -1.602,-4.006 -4.006,-4.006 -1.336,0 -2.939,1.068 -3.473,2.404 l -12.821,25.108 -9.349,-31.252 c -0.267,-1.603 -2.137,-2.938 -3.739,-2.938 z m 80.31,-5.342 c -0.535,0 -1.069,0 -1.87,0 -7.479,0 -13.356,2.404 -17.629,6.677 -5.075,5.076 -7.212,12.02 -7.212,19.232 0,1.069 0,2.404 0.267,3.74 0.801,8.28 4.274,16.293 10.15,21.636 3.74,3.472 8.547,5.342 13.89,5.342 3.205,0 6.677,-0.534 9.883,-2.404 1.335,-0.534 2.404,-2.137 2.404,-3.473 0,-2.404 -1.87,-4.006 -4.007,-4.006 -0.534,0 -1.336,0.267 -1.87,0.267 -2.404,1.335 -4.808,1.87 -6.677,1.87 -3.206,0 -5.877,-1.336 -8.281,-3.473 -4.006,-3.739 -6.945,-10.15 -7.479,-16.561 -0.267,-1.068 -0.267,-1.869 -0.267,-2.938 0,-5.342 1.603,-10.417 4.808,-13.622 2.671,-2.671 6.143,-4.274 11.753,-4.274 2.671,0 5.609,0.267 9.349,1.336 2.136,0.534 3.205,1.068 3.739,1.335 -0.534,0.801 -2.938,3.205 -6.143,5.342 -7.212,4.808 -17.897,9.082 -17.897,9.082 -1.335,0.534 -2.404,2.137 -2.404,3.739 0,2.137 1.603,4.007 4.007,4.007 0.267,0 1.068,-0.267 1.336,-0.267 0,0 10.951,-4.274 19.498,-9.883 4.274,-2.671 8.014,-5.075 9.349,-9.883 0.267,-0.534 0.267,-1.336 0.267,-1.87 0,-2.137 -0.801,-4.274 -2.137,-5.609 -1.869,-1.87 -4.273,-2.938 -7.746,-3.74 -3.205,-0.801 -6.143,-1.335 -9.081,-1.602 z m 112.425,6.677 c -1.602,0 -2.938,0.268 -4.273,1.069 -1.336,0.534 -2.672,2.404 -3.206,4.007 0,0.534 0,0.801 0,1.068 0,1.335 0.534,2.404 0.802,3.205 1.068,2.137 2.671,4.007 4.808,5.877 3.739,4.006 9.081,8.28 13.622,12.554 2.137,2.137 4.007,4.006 5.342,5.876 1.336,1.603 1.87,2.938 1.87,3.205 0,0.268 0,0.268 0,0.535 0,0.801 0,1.335 -0.267,1.602 -0.267,0.267 -0.534,0.535 -1.336,1.069 -1.335,0.534 -3.472,0.801 -6.143,0.801 -0.801,0 -1.87,0 -2.671,0 -7.212,-0.801 -14.958,-3.205 -14.958,-3.205 -0.267,0 -1.069,-0.267 -1.336,-0.267 -2.137,0 -4.006,1.869 -4.006,4.006 0,1.603 1.335,3.473 2.938,4.007 0,0 8.28,2.671 16.56,3.205 1.336,0.267 2.672,0.267 4.007,0.267 2.938,0 5.876,-0.267 8.548,-1.602 2.136,-0.802 4.006,-2.137 5.075,-4.007 1.068,-1.87 1.602,-3.739 1.602,-5.876 0,-0.535 0,-0.802 0,-1.336 -0.267,-2.938 -1.602,-5.075 -3.472,-7.479 -1.87,-2.137 -4.007,-4.541 -6.144,-6.678 -4.808,-4.54 -10.15,-8.814 -13.622,-12.287 -0.534,-0.534 -0.802,-1.068 -1.336,-1.335 0.534,0 1.069,0 1.87,0 3.205,0.267 8.28,1.335 14.691,2.938 0.267,0 0.801,0 1.068,0 2.137,0 4.007,-1.603 4.007,-4.007 0,-1.602 -1.335,-3.472 -3.205,-3.739 -6.678,-1.603 -11.753,-2.671 -15.76,-3.205 -1.602,0 -3.205,-0.268 -4.54,-0.268 0,0 -0.268,0 -0.535,0 z m 65.949,-7.479 c 0,0 0,0 -0.267,0 -2.404,0 -4.808,0.535 -7.212,1.87 -0.534,0.267 -1.068,0.801 -1.603,1.336 -1.068,0.267 -2.137,1.068 -2.671,2.137 -5.075,9.081 -7.212,18.163 -7.212,25.909 0,3.473 0.267,6.678 1.069,9.349 1.068,5.075 2.938,9.082 5.609,12.287 2.404,2.938 5.876,5.342 9.616,5.342 6.143,0 11.753,-3.472 15.759,-8.814 2.939,4.807 7.747,7.479 12.822,7.479 0.801,0 1.602,0 2.404,0 9.615,-1.87 17.095,-12.555 17.095,-26.978 0,-3.74 -0.535,-7.747 -1.87,-12.02 -1.336,-5.61 -4.274,-10.15 -8.281,-12.822 -2.136,-1.335 -4.54,-1.869 -6.944,-2.136 -0.268,0 -0.535,0 -0.535,0 -2.404,0 -4.808,0.534 -6.677,1.869 -1.336,0.535 -2.137,2.137 -2.137,3.473 0,2.137 1.87,4.006 4.006,4.006 0.535,0 1.603,-0.267 2.137,-0.534 0.802,-0.534 1.87,-0.801 2.671,-0.801 1.069,0 1.87,0.267 2.939,1.068 2.136,1.069 4.273,4.007 5.075,7.746 1.068,3.74 1.335,6.945 1.335,9.883 0,11.486 -6.143,18.431 -10.417,19.232 -0.534,0.267 -1.069,0.267 -1.336,0.267 -2.136,0 -4.006,-1.335 -5.876,-4.808 -0.801,-1.335 -1.336,-2.938 -1.603,-4.808 0.802,-3.205 1.336,-6.944 1.336,-10.684 0,-3.472 -0.267,-7.212 -1.336,-10.951 h 0.267 c 0,-0.535 -0.267,-1.603 -0.534,-2.137 -1.87,-5.877 -5.075,-10.685 -9.616,-13.356 -2.137,-1.335 -4.808,-2.404 -7.479,-2.404 -0.267,0 -0.267,0 -0.534,0 z m -0.267,8.014 c 0,0 0,0 0.267,0 0,0 0,0 0.267,0 1.069,0 2.404,0.267 3.473,1.068 2.404,1.603 4.808,4.541 6.143,8.815 0,0.267 0,0.267 0,0.534 -0.534,4.541 -1.068,8.547 -1.068,12.287 0,2.938 0.267,5.876 0.801,8.28 -0.534,1.069 -0.801,2.137 -1.336,2.938 -2.938,5.61 -7.479,8.281 -10.951,8.281 -0.534,0 -1.87,-0.534 -3.472,-2.404 -1.603,-2.137 -3.206,-5.075 -4.007,-8.815 -0.534,-2.404 -0.801,-4.808 -0.801,-7.746 0,-6.41 1.602,-13.89 6.143,-21.903 0.267,0 0.801,-0.267 1.336,-0.534 1.068,-0.534 2.136,-0.801 3.205,-0.801 z m 71.328,-6.945 c -2.136,0 -3.739,1.87 -3.739,4.006 0,0 0,0 0,0.268 l 1.603,47.545 c 0,1.87 1.602,3.739 3.472,3.739 0.267,0 0.267,0 0.534,0 1.87,0 3.473,-1.335 3.74,-3.205 3.205,-14.691 6.677,-24.841 9.616,-30.984 1.869,-4.274 3.472,-5.877 4.808,-5.877 1.602,0 2.671,3.205 3.472,7.746 0.801,3.74 1.336,8.815 1.336,14.958 0,3.74 -0.268,8.014 -0.535,12.287 0,0.267 0,0.267 0,0.535 0,2.136 1.603,3.739 3.473,4.006 0.267,0 0.267,0 0.534,0 1.87,0 3.739,-1.602 4.007,-3.739 0.267,-4.808 0.534,-9.082 0.534,-13.089 0,-6.41 -0.534,-12.02 -1.336,-16.56 -0.801,-3.74 -1.87,-6.945 -3.205,-9.349 -1.336,-2.404 -3.472,-4.808 -6.411,-5.342 -0.534,-0.267 -1.068,-0.267 -1.602,-0.267 -2.404,0 -4.541,1.068 -6.411,2.671 -2.137,2.137 -4.007,4.808 -5.876,8.28 -1.069,2.137 -2.137,4.541 -3.206,7.212 l -0.534,-20.835 c 0,-2.136 -1.87,-4.006 -4.006,-4.006 0,0 0,0 -0.268,0 z"
     fill="#000000"
     id="path4" />
</svg>
