<svg width="562" height="67" viewBox="0 0 562 67" fill="none" xmlns="http://www.w3.org/2000/svg">
<rect x="3.30988" y="3.40415" width="554.145" height="59.8907" stroke="black" stroke-width="1.86757"/>
<rect x="0.666989" y="0.666989" width="6.89041" height="6.66989" fill="white" stroke="black" stroke-width="1.33398"/>
<rect x="554.443" y="0.66705" width="6.89041" height="6.66989" fill="white" stroke="black" stroke-width="1.33398"/>
<rect x="0.666989" y="59.3621" width="6.89041" height="6.66989" fill="white" stroke="black" stroke-width="1.33398"/>
<rect x="554.443" y="59.3621" width="6.89041" height="6.66989" fill="white" stroke="black" stroke-width="1.33398"/>
<path d="M32.6572 39.3881H28.1492V43.9624H32.6572V39.3881ZM32.6572 25.7978V21.2235H28.1492V25.7978H32.6572ZM14.4926 16.6492V21.2235H9.98463V43.9624H14.4926V48.4704H28.1492V43.9624H19.0669V21.2235H28.1492V16.6492H14.4926ZM64.3697 21.2235V16.6492H50.7794V7.56686H41.6971V48.4704H50.7794V21.2235H59.8617V48.4704H68.944V21.2235H64.3697ZM105.123 39.3881H100.549V43.9624H105.123V39.3881ZM100.549 21.2235V16.6492H82.3846V21.2235H77.8766V43.9624H82.3846V48.4704H100.549V43.9624H86.9589V34.8801H105.123V21.2235H100.549ZM86.9589 30.3058V21.2235H96.0412V30.3058H86.9589ZM136.729 39.3881H132.221V43.9624H136.729V39.3881ZM136.729 25.7978V21.2235H132.221V25.7978H136.729ZM118.564 16.6492V21.2235H114.056V43.9624H118.564V48.4704H132.221V43.9624H123.138V21.2235H132.221V16.6492H118.564ZM163.933 30.3058V25.7978H168.441V21.2235H173.015V16.6492H163.933V21.2235H159.359V25.7978H154.851V7.56686H145.769V48.4704H154.851V39.3881H159.359V43.9624H163.933V48.4704H173.015V43.9624H168.441V39.3881H163.933V34.8801H159.425V30.3058H163.933ZM154.851 34.8801V30.3058V34.8801ZM218.748 16.7155V43.9624H209.665V16.7155H200.583V43.9624H205.091V48.5367H218.748V57.619H205.091V62.1933H223.256V57.619H227.83V16.7155H218.748ZM200.583 53.0447V57.619H205.091V53.0447H200.583ZM259.435 21.2235V16.6492H241.27V21.2235H236.762V43.9624H241.27V48.4704H259.435V43.9624H264.009V21.2235H259.435ZM245.845 43.9624V21.2235H254.927V43.9624H245.845ZM291.107 16.6492V43.9624H282.024V16.6492H272.942V43.9624H277.45V48.4704H300.189V16.6492H291.107ZM322.712 16.6492V21.2235H318.204V16.6492H309.122V48.4704H318.204V25.7978H331.794V16.6492H322.712ZM386.068 39.3881H381.494V43.9624H386.068V39.3881ZM381.494 21.2235V16.6492H363.329V21.2235H358.821V43.9624H363.329V48.4704H381.494V43.9624H367.904V34.8801H386.068V21.2235H381.494ZM367.904 30.3058V21.2235H376.986V30.3058H367.904ZM395.001 23.146V27.654H417.674V23.146H395.001ZM467.617 21.2235V16.6492H453.96V21.2235H463.043V48.4704H472.125V21.2235H467.617ZM449.386 16.6492H426.713V48.4704H435.796V21.2235H444.878V48.4704H453.96V21.2235H449.386V16.6492ZM503.822 21.2235V16.6492H485.658V21.2235H499.314V30.3058H485.658V34.8801H481.15V43.9624H485.658V48.4704H508.397V21.2235H503.822ZM490.232 43.9624V34.8801H499.314V43.9624H490.232ZM481.15 25.7978H485.658V21.2235H481.15V25.7978ZM517.329 7.56686V12.1412H526.412V7.56686H517.329ZM517.329 16.6492V48.4704H526.412V16.6492H517.329ZM535.381 7.56686V48.4704H544.464V7.56686H535.381Z" fill="black"/>
<line x1="549.031" y1="6.17584" x2="549.031" y2="56.8176" stroke="black" stroke-width="1.23516"/>
</svg>
