<svg width="30" height="30" viewBox="0 0 30 30" fill="none" xmlns="http://www.w3.org/2000/svg">
<path d="M26.6466 16.6759L29.9531 16.6848L29.9623 13.3834L26.6558 13.3745L26.6466 16.6759ZM20.0036 10.0066L19.9942 13.3565L26.6558 13.3745L26.6653 10.0245L20.0036 10.0066ZM13.3513 6.68723L13.342 9.98865L20.0036 10.0066L20.0129 6.70516L13.3513 6.68723ZM6.69903 3.31934L6.68961 6.6693L13.3513 6.68723L13.3607 3.33726L6.69903 3.31934ZM0.0466699 -5.61235e-06L0.0373864 3.30141L6.69903 3.31934L6.70831 0.0179206L0.0466699 -5.61235e-06Z" fill="black"/>
<path d="M26.6468 13.3241L29.9533 13.3152L29.9626 16.6166L26.6561 16.6255L26.6468 13.3241ZM20.0039 19.9934L19.9944 16.6434L26.6561 16.6255L26.6655 19.9755L20.0039 19.9934ZM13.3515 23.3127L13.3422 20.0113L20.0039 19.9934L20.0131 23.2948L13.3515 23.3127ZM6.69927 26.6806L6.68985 23.3307L13.3515 23.3127L13.3609 26.6627L6.69927 26.6806ZM0.0469135 30L0.03763 26.6986L6.69927 26.6806L6.70856 29.982L0.0469135 30Z" fill="black"/>
</svg>
