<svg width="31" height="31" viewBox="0 0 31 31" fill="none" xmlns="http://www.w3.org/2000/svg">
<path d="M3.40032 17.5934L0.0938096 17.6023L0.0845261 14.3008L3.39104 14.2919L3.40032 17.5934ZM10.0433 10.9241L10.0527 14.274L3.39104 14.2919L3.38162 10.942L10.0433 10.9241ZM16.6956 7.60471L16.7049 10.9061L10.0433 10.9241L10.034 7.62264L16.6956 7.60471ZM23.3478 4.23682L23.3573 7.58678L16.6956 7.60471L16.6862 4.25474L23.3478 4.23682ZM30.0002 0.917475L30.0095 4.21889L23.3478 4.23682L23.3386 0.935401L30.0002 0.917475Z" fill="black"/>
<path d="M3.40008 14.2416L0.0935655 14.2327L0.084282 17.5341L3.39079 17.543L3.40008 14.2416ZM10.043 20.9109L10.0524 17.5609L3.39079 17.543L3.38137 20.893L10.043 20.9109ZM16.6954 24.2302L16.7047 20.9288L10.043 20.9109L10.0337 24.2123L16.6954 24.2302ZM23.3476 27.5981L23.357 24.2481L16.6954 24.2302L16.686 27.5802L23.3476 27.5981ZM30 30.9175L30.0092 27.616L23.3476 27.5981L23.3383 30.8995L30 30.9175Z" fill="black"/>
</svg>
