<svg width="15" height="15" viewBox="0 0 15 15" fill="none" xmlns="http://www.w3.org/2000/svg">
<path fill-rule="evenodd" clip-rule="evenodd" d="M9.47368 0H4.73684V1.18421H2.36842V2.36842H1.18421V4.73684H0V9.47368L1.18421 9.47368V11.8421H2.36842V9.47368H1.18421V4.73684H2.36842L2.36842 2.36842H4.73684V1.18421H9.47368V2.36842H11.8421V1.18421H9.47368V0Z" fill="#808080"/>
<path fill-rule="evenodd" clip-rule="evenodd" d="M9.4738 1.1842H4.73696V2.36841H2.36854V3.55263V4.73684H1.18433V9.47368H2.36854V10.6579H3.55275V9.47368H2.36854V4.73684H3.55275V3.55263H4.73696V2.36841H9.4738V3.55263H11.8422V2.36841H9.4738V1.1842Z" fill="#0A0A0A"/>
<path fill-rule="evenodd" clip-rule="evenodd" d="M10.6579 3.55261H11.8421V4.73682H10.6579V3.55261ZM11.8421 9.47366V4.73682H13.0263V9.47366H11.8421ZM9.47367 11.8421V10.6579H10.6579V9.47366H11.8421V10.6579L11.8421 11.8421H9.47367ZM4.73683 11.8421L4.73683 13.0263H9.47367V11.8421H4.73683ZM4.73683 11.8421V10.6579H2.36841V11.8421H4.73683Z" fill="#DFDFDF"/>
<path fill-rule="evenodd" clip-rule="evenodd" d="M13.0263 2.36841H11.8421V4.73683H13.0263V9.47367H11.8421V11.8421H9.47367V13.0263H4.73683L4.73683 11.8421H2.36841V13.0263H4.73683V14.2105H9.47367V13.0263H11.8421L11.8421 11.8421H13.0263V9.47367H14.2105V4.73683H13.0263V2.36841Z" fill="white"/>
<path fill-rule="evenodd" clip-rule="evenodd" d="M4.73683 2.36841H9.47367V3.55262H10.6579V4.73683H11.8421V9.47367H10.6579V10.6579H9.47367V11.8421H4.73683V10.6579H3.55262V9.47367H2.36841V4.73683H3.55262V3.55262H4.73683V2.36841Z" fill="white"/>
</svg>
