<?xml version="1.0" encoding="UTF-8" standalone="no"?>
<svg
   width="14.2"
   height="14.2"
   viewBox="0 0 14.2 14.2"
   fill="none"
   version="1.1"
   id="svg12"
   sodipodi:docname="radio-box-checked.svg"
   inkscape:version="1.1.2 (b8e25be833, 2022-02-05)"
   xmlns:inkscape="http://www.inkscape.org/namespaces/inkscape"
   xmlns:sodipodi="http://sodipodi.sourceforge.net/DTD/sodipodi-0.dtd"
   xmlns="http://www.w3.org/2000/svg"
   xmlns:svg="http://www.w3.org/2000/svg">
  <defs
     id="defs16" />
  <sodipodi:namedview
     id="namedview14"
     pagecolor="#ffffff"
     bordercolor="#666666"
     borderopacity="1.0"
     inkscape:pageshadow="2"
     inkscape:pageopacity="0.0"
     inkscape:pagecheckerboard="true"
     showgrid="false"
     inkscape:zoom="5.6568543"
     inkscape:cx="-7.2478445"
     inkscape:cy="22.98097"
     inkscape:window-width="1920"
     inkscape:window-height="1017"
     inkscape:window-x="-8"
     inkscape:window-y="-8"
     inkscape:window-maximized="1"
     inkscape:current-layer="svg12" />
  <path
     fill-rule="evenodd"
     clip-rule="evenodd"
     d="M 9.47368,0 H 4.73684 V 1.18421 H 2.36842 V 2.36842 H 1.18421 V 4.73684 H 0 V 9.47368 H 1.18421 V 11.8421 H 2.36842 V 9.47368 H 1.18421 V 4.73684 H 2.36842 V 2.36842 H 4.73684 V 1.18421 H 9.47368 V 2.36842 H 11.8421 V 1.18421 H 9.47368 Z"
     fill="#808080"
     id="path2" />
  <path
     fill-rule="evenodd"
     clip-rule="evenodd"
     d="M 9.4738,1.1842 H 4.73696 V 2.36841 H 2.36854 V 3.55263 4.73684 H 1.18433 V 9.47368 H 2.36854 V 10.6579 H 3.55275 V 9.47368 H 2.36854 V 4.73684 H 3.55275 V 3.55263 H 4.73696 V 2.36841 H 9.4738 v 1.18422 h 2.3684 V 2.36841 H 9.4738 Z"
     fill="#0a0a0a"
     id="path4" />
  <path
     fill-rule="evenodd"
     clip-rule="evenodd"
     d="m 10.6579,3.55261 h 1.1842 v 1.18421 h -1.1842 z m 1.1842,5.92105 V 4.73682 h 1.1842 V 9.47366 Z M 9.47367,11.8421 V 10.6579 H 10.6579 V 9.47366 h 1.1842 v 1.18424 1.1842 z m -4.73684,0 v 1.1842 h 4.73684 v -1.1842 z m 0,0 V 10.6579 H 2.36841 v 1.1842 z"
     fill="#dfdfdf"
     id="path6" />
  <path
     fill-rule="evenodd"
     clip-rule="evenodd"
     d="m 13.0263,2.36841 h -1.1842 v 2.36842 h 1.1842 V 9.47367 H 11.8421 V 11.8421 H 9.47367 v 1.1842 H 4.73683 V 11.8421 H 2.36841 v 1.1842 h 2.36842 v 1.1842 h 4.73684 v -1.1842 h 2.36843 v -1.1842 h 1.1842 V 9.47367 h 1.1842 V 4.73683 h -1.1842 z"
     fill="#ffffff"
     id="path8" />
  <path
     fill-rule="evenodd"
     clip-rule="evenodd"
     d="m 4.73683,2.36841 h 4.73684 v 1.18421 h 1.18423 v 1.18421 h 1.1842 V 9.47367 H 10.6579 V 10.6579 H 9.47367 v 1.1842 H 4.73683 V 10.6579 H 3.55262 V 9.47367 H 2.36841 V 4.73683 H 3.55262 V 3.55262 h 1.18421 z"
     fill="#ffffff"
     id="path10" />
  <path
     fill-rule="evenodd"
     clip-rule="evenodd"
     d="M 4.875632,2.6457638 H 9.3351286 V 3.7606379 H 10.450022 V 4.875512 h 1.114864 V 9.3350086 H 10.450022 V 10.449902 H 9.3351286 v 1.114864 H 4.875632 V 10.449902 H 3.7607579 V 9.3350086 H 2.6458838 V 4.875512 H 3.7607579 V 3.7606379 H 4.875632 Z"
     fill="#ffffff"
     id="path10-4"
     style="fill:#808080;fill-opacity:1;stroke-width:0.94145" />
</svg>
